<?xml version="1.0" encoding="utf-8" standalone="no"?>
<!DOCTYPE svg PUBLIC "-//W3C//DTD SVG 1.1//EN"
  "http://www.w3.org/Graphics/SVG/1.1/DTD/svg11.dtd">
<svg xmlns:xlink="http://www.w3.org/1999/xlink" width="660.112941pt" height="554.784125pt" viewBox="0 0 660.112941 554.784125" xmlns="http://www.w3.org/2000/svg" version="1.1">
 <metadata>
  <rdf:RDF xmlns:dc="http://purl.org/dc/elements/1.1/" xmlns:cc="http://creativecommons.org/ns#" xmlns:rdf="http://www.w3.org/1999/02/22-rdf-syntax-ns#">
   <cc:Work>
    <dc:type rdf:resource="http://purl.org/dc/dcmitype/StillImage"/>
    <dc:date>2026-03-02T17:25:27.746878</dc:date>
    <dc:format>image/svg+xml</dc:format>
    <dc:creator>
     <cc:Agent>
      <dc:title>Matplotlib v3.10.8, https://matplotlib.org/</dc:title>
     </cc:Agent>
    </dc:creator>
   </cc:Work>
  </rdf:RDF>
 </metadata>
 <defs>
  <style type="text/css">*{stroke-linejoin: round; stroke-linecap: butt}</style>
 </defs>
 <g id="figure_1">
  <g id="patch_1">
   <path d="M 0 554.784125 
L 660.112941 554.784125 
L 660.112941 0 
L 0 0 
z
" style="fill: #ffffff"/>
  </g>
  <g id="axes_1">
   <g id="patch_2">
    <path d="M 54.338824 480.433537 
L 161.068235 480.433537 
Q 178.856471 480.433537 178.856471 462.645301 
L 178.856471 89.09236 
Q 178.856471 71.304125 161.068235 71.304125 
L 54.338824 71.304125 
Q 36.550588 71.304125 36.550588 89.09236 
L 36.550588 462.645301 
Q 36.550588 480.433537 54.338824 480.433537 
z
" clip-path="url(#p185ce40e23)" style="fill: #aaccee; opacity: 0.3; stroke: #4488cc; stroke-width: 1.5; stroke-linejoin: miter"/>
   </g>
   <g id="patch_3">
    <path d="M 241.115294 524.904125 
L 418.997647 524.904125 
Q 436.785882 524.904125 436.785882 507.11589 
L 436.785882 133.562949 
Q 436.785882 115.774713 418.997647 115.774713 
L 241.115294 115.774713 
Q 223.327059 115.774713 223.327059 133.562949 
L 223.327059 507.11589 
Q 223.327059 524.904125 241.115294 524.904125 
z
" clip-path="url(#p185ce40e23)" style="fill: #aaddbb; opacity: 0.3; stroke: #44aa66; stroke-width: 1.5; stroke-linejoin: miter"/>
   </g>
   <g id="patch_4">
    <path d="M 499.044706 480.433537 
L 605.774118 480.433537 
Q 623.562353 480.433537 623.562353 462.645301 
L 623.562353 89.09236 
Q 623.562353 71.304125 605.774118 71.304125 
L 499.044706 71.304125 
Q 481.256471 71.304125 481.256471 89.09236 
L 481.256471 462.645301 
Q 481.256471 480.433537 499.044706 480.433537 
z
" clip-path="url(#p185ce40e23)" style="fill: #eeaaaa; opacity: 0.3; stroke: #cc4444; stroke-width: 1.5; stroke-linejoin: miter"/>
   </g>
   <g id="patch_5">
    <path d="M 121.044706 378.151184 
C 121.044706 376.692648 120.805522 375.243935 120.336691 373.862803 
C 119.86786 372.481672 119.175697 371.186724 118.287796 370.02959 
C 117.399896 368.872456 116.328218 367.86872 115.11549 367.058401 
C 113.902762 366.248082 112.565317 365.642094 111.15648 365.264597 
C 109.747643 364.8871 108.286388 364.743179 106.830975 364.838572 
C 105.375562 364.933965 103.945594 365.267386 102.598082 365.825544 
C 101.250571 366.383701 100.003666 367.159077 98.907081 368.120756 
C 97.810495 369.082436 96.879 370.217467 96.149732 371.480596 
C 95.420464 372.743725 94.903246 374.117939 94.6187 375.548449 
C 94.334154 376.97896 94.286111 378.446499 94.476489 379.892557 
C 94.666866 381.338615 95.093098 382.743714 95.738192 384.051835 
C 96.383286 385.359956 97.238553 386.55348 98.269893 387.58482 
C 99.301234 388.616161 100.494757 389.471427 101.802878 390.116521 
C 103.110999 390.761615 104.516099 391.187848 105.962156 391.378225 
C 107.408214 391.568602 108.875753 391.52056 110.306264 391.236013 
C 111.736774 390.951467 113.110989 390.434249 114.374118 389.704982 
" clip-path="url(#p185ce40e23)" style="fill: none; stroke: #666666; stroke-width: 1.5; stroke-linejoin: miter"/>
   </g>
   <g id="patch_6">
    <path d="M 565.750588 111.327654 
C 565.750588 109.869119 565.511405 108.420405 565.042574 107.039274 
C 564.573743 105.658142 563.881579 104.363195 562.993679 103.206061 
C 562.105778 102.048927 561.0341 101.045191 559.821372 100.234872 
C 558.608644 99.424553 557.2712 98.818564 555.862362 98.441068 
C 554.453525 98.063571 552.99227 97.91965 551.536857 98.015042 
C 550.081444 98.110435 548.651476 98.443857 547.303965 99.002015 
C 545.956453 99.560172 544.709548 100.335547 543.612963 101.297227 
C 542.516378 102.258906 541.584882 103.393937 540.855614 104.657066 
C 540.126346 105.920195 539.609128 107.29441 539.324582 108.72492 
C 539.040036 110.15543 538.991994 111.62297 539.182371 113.069027 
C 539.372748 114.515085 539.79898 115.920185 540.444074 117.228306 
C 541.089168 118.536427 541.944435 119.72995 542.975775 120.761291 
C 544.007116 121.792631 545.200639 122.647898 546.50876 123.292992 
C 547.816881 123.938086 549.221981 124.364318 550.668039 124.554695 
C 552.114097 124.745072 553.581636 124.69703 555.012146 124.412484 
C 556.442657 124.127938 557.816871 123.61072 559.08 122.881452 
" clip-path="url(#p185ce40e23)" style="fill: none; stroke: #666666; stroke-width: 1.5; stroke-linejoin: miter"/>
   </g>
   <g id="patch_7">
    <path d="M 565.750588 378.151184 
C 565.750588 376.692648 565.511405 375.243935 565.042574 373.862803 
C 564.573743 372.481672 563.881579 371.186724 562.993679 370.02959 
C 562.105778 368.872456 561.0341 367.86872 559.821372 367.058401 
C 558.608644 366.248082 557.2712 365.642094 555.862362 365.264597 
C 554.453525 364.8871 552.99227 364.743179 551.536857 364.838572 
C 550.081444 364.933965 548.651476 365.267386 547.303965 365.825544 
C 545.956453 366.383701 544.709548 367.159077 543.612963 368.120756 
C 542.516378 369.082436 541.584882 370.217467 540.855614 371.480596 
C 540.126346 372.743725 539.609128 374.117939 539.324582 375.548449 
C 539.040036 376.97896 538.991994 378.446499 539.182371 379.892557 
C 539.372748 381.338615 539.79898 382.743714 540.444074 384.051835 
C 541.089168 385.359956 541.944435 386.55348 542.975775 387.58482 
C 544.007116 388.616161 545.200639 389.471427 546.50876 390.116521 
C 547.816881 390.761615 549.221981 391.187848 550.668039 391.378225 
C 552.114097 391.568602 553.581636 391.52056 555.012146 391.236013 
C 556.442657 390.951467 557.816871 390.434249 559.08 389.704982 
" clip-path="url(#p185ce40e23)" style="fill: none; stroke: #666666; stroke-width: 1.5; stroke-linejoin: miter"/>
   </g>
   <g id="patch_8">
    <path d="M 121.044706 111.327654 
C 121.044706 109.869119 120.805522 108.420405 120.336691 107.039274 
C 119.86786 105.658142 119.175697 104.363195 118.287796 103.206061 
C 117.399896 102.048927 116.328218 101.045191 115.11549 100.234872 
C 113.902762 99.424553 112.565317 98.818564 111.15648 98.441068 
C 109.747643 98.063571 108.286388 97.91965 106.830975 98.015042 
C 105.375562 98.110435 103.945594 98.443857 102.598082 99.002015 
C 101.250571 99.560172 100.003666 100.335547 98.907081 101.297227 
C 97.810495 102.258906 96.879 103.393937 96.149732 104.657066 
C 95.420464 105.920195 94.903246 107.29441 94.6187 108.72492 
C 94.334154 110.15543 94.286111 111.62297 94.476489 113.069027 
C 94.666866 114.515085 95.093098 115.920185 95.738192 117.228306 
C 96.383286 118.536427 97.238553 119.72995 98.269893 120.761291 
C 99.301234 121.792631 100.494757 122.647898 101.802878 123.292992 
C 103.110999 123.938086 104.516099 124.364318 105.962156 124.554695 
C 107.408214 124.745072 108.875753 124.69703 110.306264 124.412484 
C 111.736774 124.127938 113.110989 123.61072 114.374118 122.881452 
" clip-path="url(#p185ce40e23)" style="fill: none; stroke: #666666; stroke-width: 1.5; stroke-linejoin: miter"/>
   </g>
   <g id="text_1">
    <!-- Kun -->
    <g style="fill: #4488cc" transform="translate(95.707514 60.122351) scale(0.11 -0.11)">
     <defs>
      <path id="DejaVuSans-Bold-4b" d="M 588 4666 
L 1791 4666 
L 1791 2963 
L 3525 4666 
L 4922 4666 
L 2675 2456 
L 5153 0 
L 3647 0 
L 1791 1838 
L 1791 0 
L 588 0 
L 588 4666 
z
" transform="scale(0.015625)"/>
      <path id="DejaVuSans-Bold-75" d="M 500 1363 
L 500 3500 
L 1625 3500 
L 1625 3150 
Q 1625 2866 1622 2436 
Q 1619 2006 1619 1863 
Q 1619 1441 1641 1255 
Q 1663 1069 1716 984 
Q 1784 875 1895 815 
Q 2006 756 2150 756 
Q 2500 756 2700 1025 
Q 2900 1294 2900 1772 
L 2900 3500 
L 4019 3500 
L 4019 0 
L 2900 0 
L 2900 506 
Q 2647 200 2364 54 
Q 2081 -91 1741 -91 
Q 1134 -91 817 281 
Q 500 653 500 1363 
z
" transform="scale(0.015625)"/>
      <path id="DejaVuSans-Bold-6e" d="M 4056 2131 
L 4056 0 
L 2931 0 
L 2931 347 
L 2931 1631 
Q 2931 2084 2911 2256 
Q 2891 2428 2841 2509 
Q 2775 2619 2662 2680 
Q 2550 2741 2406 2741 
Q 2056 2741 1856 2470 
Q 1656 2200 1656 1722 
L 1656 0 
L 538 0 
L 538 3500 
L 1656 3500 
L 1656 2988 
Q 1909 3294 2193 3439 
Q 2478 3584 2822 3584 
Q 3428 3584 3742 3212 
Q 4056 2841 4056 2131 
z
" transform="scale(0.015625)"/>
     </defs>
     <use xlink:href="#DejaVuSans-Bold-4b"/>
     <use xlink:href="#DejaVuSans-Bold-75" transform="translate(75.740234 0)"/>
     <use xlink:href="#DejaVuSans-Bold-6e" transform="translate(146.931641 0)"/>
    </g>
   </g>
   <g id="text_2">
    <!-- KanLi -->
    <g style="fill: #44aa66" transform="translate(312.777877 104.592939) scale(0.11 -0.11)">
     <defs>
      <path id="DejaVuSans-Bold-61" d="M 2106 1575 
Q 1756 1575 1579 1456 
Q 1403 1338 1403 1106 
Q 1403 894 1545 773 
Q 1688 653 1941 653 
Q 2256 653 2472 879 
Q 2688 1106 2688 1447 
L 2688 1575 
L 2106 1575 
z
M 3816 1997 
L 3816 0 
L 2688 0 
L 2688 519 
Q 2463 200 2181 54 
Q 1900 -91 1497 -91 
Q 953 -91 614 226 
Q 275 544 275 1050 
Q 275 1666 698 1953 
Q 1122 2241 2028 2241 
L 2688 2241 
L 2688 2328 
Q 2688 2594 2478 2717 
Q 2269 2841 1825 2841 
Q 1466 2841 1156 2769 
Q 847 2697 581 2553 
L 581 3406 
Q 941 3494 1303 3539 
Q 1666 3584 2028 3584 
Q 2975 3584 3395 3211 
Q 3816 2838 3816 1997 
z
" transform="scale(0.015625)"/>
      <path id="DejaVuSans-Bold-4c" d="M 588 4666 
L 1791 4666 
L 1791 909 
L 3903 909 
L 3903 0 
L 588 0 
L 588 4666 
z
" transform="scale(0.015625)"/>
      <path id="DejaVuSans-Bold-69" d="M 538 3500 
L 1656 3500 
L 1656 0 
L 538 0 
L 538 3500 
z
M 538 4863 
L 1656 4863 
L 1656 3950 
L 538 3950 
L 538 4863 
z
" transform="scale(0.015625)"/>
     </defs>
     <use xlink:href="#DejaVuSans-Bold-4b"/>
     <use xlink:href="#DejaVuSans-Bold-61" transform="translate(77.490234 0)"/>
     <use xlink:href="#DejaVuSans-Bold-6e" transform="translate(144.970703 0)"/>
     <use xlink:href="#DejaVuSans-Bold-4c" transform="translate(216.162109 0)"/>
     <use xlink:href="#DejaVuSans-Bold-69" transform="translate(279.882812 0)"/>
    </g>
   </g>
   <g id="text_3">
    <!-- Qian -->
    <g style="fill: #cc4444" transform="translate(538.221131 60.122351) scale(0.11 -0.11)">
     <defs>
      <path id="DejaVuSans-Bold-51" d="M 2847 -84 
L 2753 -84 
Q 1600 -84 959 553 
Q 319 1191 319 2328 
Q 319 3463 958 4106 
Q 1597 4750 2719 4750 
Q 3853 4750 4486 4112 
Q 5119 3475 5119 2328 
Q 5119 1541 4783 972 
Q 4447 403 3816 116 
L 4756 -934 
L 3609 -934 
L 2847 -84 
z
M 2719 3878 
Q 2169 3878 1866 3472 
Q 1563 3066 1563 2328 
Q 1563 1578 1859 1179 
Q 2156 781 2719 781 
Q 3272 781 3575 1187 
Q 3878 1594 3878 2328 
Q 3878 3066 3575 3472 
Q 3272 3878 2719 3878 
z
" transform="scale(0.015625)"/>
     </defs>
     <use xlink:href="#DejaVuSans-Bold-51"/>
     <use xlink:href="#DejaVuSans-Bold-69" transform="translate(85.009766 0)"/>
     <use xlink:href="#DejaVuSans-Bold-61" transform="translate(119.287109 0)"/>
     <use xlink:href="#DejaVuSans-Bold-6e" transform="translate(186.767578 0)"/>
    </g>
   </g>
   <g id="patch_9">
    <path d="M 550.468787 142.952551 
Q 290.328436 209.654678 110.149688 406.603732 
" clip-path="url(#p185ce40e23)" style="fill: none; opacity: 0.7; stroke: #22aa44; stroke-width: 1.8; stroke-linecap: round"/>
    <path d="M 117.150949 404.876785 
L 110.149688 406.603732 
L 111.248376 399.476819 
" clip-path="url(#p185ce40e23)" style="fill: none; opacity: 0.7; stroke: #22aa44; stroke-width: 1.8; stroke-linecap: round"/>
   </g>
   <g id="patch_10">
    <path d="M 107.140254 233.317231 
Q 94.925784 275.868287 106.692286 316.859823 
" clip-path="url(#p185ce40e23)" style="fill: none; opacity: 0.7; stroke: #cc3333; stroke-width: 1.8; stroke-linecap: round"/>
    <path d="M 108.881593 309.989093 
L 106.692286 316.859823 
L 101.192115 312.196335 
" clip-path="url(#p185ce40e23)" style="fill: none; opacity: 0.7; stroke: #cc3333; stroke-width: 1.8; stroke-linecap: round"/>
   </g>
   <g id="patch_11">
    <path d="M 363.709067 186.366098 
Q 330.055814 176.816083 299.697714 185.431346 
" clip-path="url(#p185ce40e23)" style="fill: none; opacity: 0.7; stroke: #cc3333; stroke-width: 3.8; stroke-linecap: round"/>
    <path d="M 306.561816 187.641349 
L 299.697714 185.431346 
L 304.377756 179.945254 
" clip-path="url(#p185ce40e23)" style="fill: none; opacity: 0.7; stroke: #cc3333; stroke-width: 3.8; stroke-linecap: round"/>
   </g>
   <g id="patch_12">
    <path d="M 107.140254 318.420431 
Q 94.925784 275.869375 106.194891 236.610639 
" clip-path="url(#p185ce40e23)" style="fill: none; opacity: 0.7; stroke: #cc3333; stroke-width: 3.8; stroke-linecap: round"/>
    <path d="M 100.69472 241.274127 
L 106.194891 236.610639 
L 108.384198 243.48137 
" clip-path="url(#p185ce40e23)" style="fill: none; opacity: 0.7; stroke: #cc3333; stroke-width: 3.8; stroke-linecap: round"/>
   </g>
   <g id="patch_13">
    <path d="M 364.877616 362.961546 
Q 342.956915 310.020325 297.445502 277.947317 
" clip-path="url(#p185ce40e23)" style="fill: none; opacity: 0.7; stroke: #22aa44; stroke-width: 1.8; stroke-linecap: round"/>
    <path d="M 300.045778 284.673279 
L 297.445502 277.947317 
L 304.654189 278.133971 
" clip-path="url(#p185ce40e23)" style="fill: none; opacity: 0.7; stroke: #22aa44; stroke-width: 1.8; stroke-linecap: round"/>
   </g>
   <g id="patch_14">
    <path d="M 552.214906 233.387802 
Q 548.157014 275.867202 551.80319 314.039543 
" clip-path="url(#p185ce40e23)" style="fill: none; opacity: 0.7; stroke: #cc3333; stroke-width: 4.8; stroke-linecap: round"/>
    <path d="M 555.21455 307.686385 
L 551.80319 314.039543 
L 547.250798 308.447073 
" clip-path="url(#p185ce40e23)" style="fill: none; opacity: 0.7; stroke: #cc3333; stroke-width: 4.8; stroke-linecap: round"/>
   </g>
   <g id="patch_15">
    <path d="M 363.709067 453.189627 
Q 330.055814 443.639613 297.963423 452.747046 
" clip-path="url(#p185ce40e23)" style="fill: none; opacity: 0.7; stroke: #cc3333; stroke-width: 1.8; stroke-linecap: round"/>
    <path d="M 304.827524 454.95705 
L 297.963423 452.747046 
L 302.643465 447.260954 
" clip-path="url(#p185ce40e23)" style="fill: none; opacity: 0.7; stroke: #cc3333; stroke-width: 1.8; stroke-linecap: round"/>
   </g>
   <g id="patch_16">
    <path d="M 296.117574 277.011494 
Q 342.955685 310.018787 363.566427 359.794948 
" clip-path="url(#p185ce40e23)" style="fill: none; opacity: 0.7; stroke: #22aa44; stroke-width: 3.8; stroke-linecap: round"/>
    <path d="M 364.96672 352.721111 
L 363.566427 359.794948 
L 357.575305 355.781663 
" clip-path="url(#p185ce40e23)" style="fill: none; opacity: 0.7; stroke: #22aa44; stroke-width: 3.8; stroke-linecap: round"/>
   </g>
   <g id="patch_17">
    <path d="M 296.403874 453.189627 
Q 330.057128 443.639613 360.415227 452.254875 
" clip-path="url(#p185ce40e23)" style="fill: none; opacity: 0.7; stroke: #cc3333; stroke-width: 3.8; stroke-linecap: round"/>
    <path d="M 355.735185 446.768783 
L 360.415227 452.254875 
L 353.551126 454.464879 
" clip-path="url(#p185ce40e23)" style="fill: none; opacity: 0.7; stroke: #cc3333; stroke-width: 3.8; stroke-linecap: round"/>
   </g>
   <g id="patch_18">
    <path d="M 109.053957 407.801449 
Q 290.327764 209.655081 548.89634 143.35574 
" clip-path="url(#p185ce40e23)" style="fill: none; opacity: 0.7; stroke: #22aa44; stroke-width: 1.8; stroke-linecap: round"/>
    <path d="M 542.090858 140.97133 
L 548.89634 143.35574 
L 544.077852 148.720643 
" clip-path="url(#p185ce40e23)" style="fill: none; opacity: 0.7; stroke: #22aa44; stroke-width: 1.8; stroke-linecap: round"/>
   </g>
   <g id="patch_19">
    <path d="M 109.308123 143.651029 
Q 316.817198 297.934047 548.318726 407.348065 
" clip-path="url(#p185ce40e23)" style="fill: none; opacity: 0.7; stroke: #aaaaaa; stroke-width: 2.8; stroke-linecap: round"/>
    <path d="M 544.603308 401.167801 
L 548.318726 407.348065 
L 541.18486 408.400658 
" clip-path="url(#p185ce40e23)" style="fill: none; opacity: 0.7; stroke: #aaaaaa; stroke-width: 2.8; stroke-linecap: round"/>
   </g>
   <g id="patch_20">
    <path d="M 364.235912 277.301861 
Q 325.761983 316.904262 297.936851 359.510493 
" clip-path="url(#p185ce40e23)" style="fill: none; opacity: 0.7; stroke: #cc3333; stroke-width: 4.8; stroke-linecap: round"/>
    <path d="M 304.566697 356.674097 
L 297.936851 359.510493 
L 297.86858 352.299714 
" clip-path="url(#p185ce40e23)" style="fill: none; opacity: 0.7; stroke: #cc3333; stroke-width: 4.8; stroke-linecap: round"/>
   </g>
   <g id="patch_21">
    <path d="M 296.403874 186.366098 
Q 330.057128 176.816083 362.149519 185.923517 
" clip-path="url(#p185ce40e23)" style="fill: none; opacity: 0.7; stroke: #cc3333; stroke-width: 1.8; stroke-linecap: round"/>
    <path d="M 357.469476 180.437425 
L 362.149519 185.923517 
L 355.285417 188.13352 
" clip-path="url(#p185ce40e23)" style="fill: none; opacity: 0.7; stroke: #cc3333; stroke-width: 1.8; stroke-linecap: round"/>
   </g>
   <g id="text_4">
    <!-- ×1 -->
    <g style="fill: #666666" transform="translate(125.491765 369.257066) scale(0.06 -0.06)">
     <defs>
      <path id="DejaVuSans-d7" d="M 4488 3438 
L 3059 2003 
L 4488 575 
L 4116 197 
L 2681 1631 
L 1247 197 
L 878 575 
L 2303 2003 
L 878 3438 
L 1247 3816 
L 2681 2381 
L 4116 3816 
L 4488 3438 
z
" transform="scale(0.015625)"/>
      <path id="DejaVuSans-31" d="M 794 531 
L 1825 531 
L 1825 4091 
L 703 3866 
L 703 4441 
L 1819 4666 
L 2450 4666 
L 2450 531 
L 3481 531 
L 3481 0 
L 794 0 
L 794 531 
z
" transform="scale(0.015625)"/>
     </defs>
     <use xlink:href="#DejaVuSans-d7"/>
     <use xlink:href="#DejaVuSans-31" transform="translate(83.789062 0)"/>
    </g>
   </g>
   <g id="text_5">
    <!-- ×1 -->
    <g style="fill: #666666" transform="translate(570.197647 102.433537) scale(0.06 -0.06)">
     <use xlink:href="#DejaVuSans-d7"/>
     <use xlink:href="#DejaVuSans-31" transform="translate(83.789062 0)"/>
    </g>
   </g>
   <g id="text_6">
    <!-- ×1 -->
    <g style="fill: #666666" transform="translate(570.197647 369.257066) scale(0.06 -0.06)">
     <use xlink:href="#DejaVuSans-d7"/>
     <use xlink:href="#DejaVuSans-31" transform="translate(83.789062 0)"/>
    </g>
   </g>
   <g id="text_7">
    <!-- ×1 -->
    <g style="fill: #666666" transform="translate(125.491765 102.433537) scale(0.06 -0.06)">
     <use xlink:href="#DejaVuSans-d7"/>
     <use xlink:href="#DejaVuSans-31" transform="translate(83.789062 0)"/>
    </g>
   </g>
   <g id="text_8">
    <!-- 32 intra: 6 sheng  20 ke  6 bi -->
    <g style="fill: #333333" transform="translate(20.114259 537.604925) scale(0.09 -0.09)">
     <defs>
      <path id="DejaVuSans-33" d="M 2597 2516 
Q 3050 2419 3304 2112 
Q 3559 1806 3559 1356 
Q 3559 666 3084 287 
Q 2609 -91 1734 -91 
Q 1441 -91 1130 -33 
Q 819 25 488 141 
L 488 750 
Q 750 597 1062 519 
Q 1375 441 1716 441 
Q 2309 441 2620 675 
Q 2931 909 2931 1356 
Q 2931 1769 2642 2001 
Q 2353 2234 1838 2234 
L 1294 2234 
L 1294 2753 
L 1863 2753 
Q 2328 2753 2575 2939 
Q 2822 3125 2822 3475 
Q 2822 3834 2567 4026 
Q 2313 4219 1838 4219 
Q 1578 4219 1281 4162 
Q 984 4106 628 3988 
L 628 4550 
Q 988 4650 1302 4700 
Q 1616 4750 1894 4750 
Q 2613 4750 3031 4423 
Q 3450 4097 3450 3541 
Q 3450 3153 3228 2886 
Q 3006 2619 2597 2516 
z
" transform="scale(0.015625)"/>
      <path id="DejaVuSans-32" d="M 1228 531 
L 3431 531 
L 3431 0 
L 469 0 
L 469 531 
Q 828 903 1448 1529 
Q 2069 2156 2228 2338 
Q 2531 2678 2651 2914 
Q 2772 3150 2772 3378 
Q 2772 3750 2511 3984 
Q 2250 4219 1831 4219 
Q 1534 4219 1204 4116 
Q 875 4013 500 3803 
L 500 4441 
Q 881 4594 1212 4672 
Q 1544 4750 1819 4750 
Q 2544 4750 2975 4387 
Q 3406 4025 3406 3419 
Q 3406 3131 3298 2873 
Q 3191 2616 2906 2266 
Q 2828 2175 2409 1742 
Q 1991 1309 1228 531 
z
" transform="scale(0.015625)"/>
      <path id="DejaVuSans-20" transform="scale(0.015625)"/>
      <path id="DejaVuSans-69" d="M 603 3500 
L 1178 3500 
L 1178 0 
L 603 0 
L 603 3500 
z
M 603 4863 
L 1178 4863 
L 1178 4134 
L 603 4134 
L 603 4863 
z
" transform="scale(0.015625)"/>
      <path id="DejaVuSans-6e" d="M 3513 2113 
L 3513 0 
L 2938 0 
L 2938 2094 
Q 2938 2591 2744 2837 
Q 2550 3084 2163 3084 
Q 1697 3084 1428 2787 
Q 1159 2491 1159 1978 
L 1159 0 
L 581 0 
L 581 3500 
L 1159 3500 
L 1159 2956 
Q 1366 3272 1645 3428 
Q 1925 3584 2291 3584 
Q 2894 3584 3203 3211 
Q 3513 2838 3513 2113 
z
" transform="scale(0.015625)"/>
      <path id="DejaVuSans-74" d="M 1172 4494 
L 1172 3500 
L 2356 3500 
L 2356 3053 
L 1172 3053 
L 1172 1153 
Q 1172 725 1289 603 
Q 1406 481 1766 481 
L 2356 481 
L 2356 0 
L 1766 0 
Q 1100 0 847 248 
Q 594 497 594 1153 
L 594 3053 
L 172 3053 
L 172 3500 
L 594 3500 
L 594 4494 
L 1172 4494 
z
" transform="scale(0.015625)"/>
      <path id="DejaVuSans-72" d="M 2631 2963 
Q 2534 3019 2420 3045 
Q 2306 3072 2169 3072 
Q 1681 3072 1420 2755 
Q 1159 2438 1159 1844 
L 1159 0 
L 581 0 
L 581 3500 
L 1159 3500 
L 1159 2956 
Q 1341 3275 1631 3429 
Q 1922 3584 2338 3584 
Q 2397 3584 2469 3576 
Q 2541 3569 2628 3553 
L 2631 2963 
z
" transform="scale(0.015625)"/>
      <path id="DejaVuSans-61" d="M 2194 1759 
Q 1497 1759 1228 1600 
Q 959 1441 959 1056 
Q 959 750 1161 570 
Q 1363 391 1709 391 
Q 2188 391 2477 730 
Q 2766 1069 2766 1631 
L 2766 1759 
L 2194 1759 
z
M 3341 1997 
L 3341 0 
L 2766 0 
L 2766 531 
Q 2569 213 2275 61 
Q 1981 -91 1556 -91 
Q 1019 -91 701 211 
Q 384 513 384 1019 
Q 384 1609 779 1909 
Q 1175 2209 1959 2209 
L 2766 2209 
L 2766 2266 
Q 2766 2663 2505 2880 
Q 2244 3097 1772 3097 
Q 1472 3097 1187 3025 
Q 903 2953 641 2809 
L 641 3341 
Q 956 3463 1253 3523 
Q 1550 3584 1831 3584 
Q 2591 3584 2966 3190 
Q 3341 2797 3341 1997 
z
" transform="scale(0.015625)"/>
      <path id="DejaVuSans-3a" d="M 750 794 
L 1409 794 
L 1409 0 
L 750 0 
L 750 794 
z
M 750 3309 
L 1409 3309 
L 1409 2516 
L 750 2516 
L 750 3309 
z
" transform="scale(0.015625)"/>
      <path id="DejaVuSans-36" d="M 2113 2584 
Q 1688 2584 1439 2293 
Q 1191 2003 1191 1497 
Q 1191 994 1439 701 
Q 1688 409 2113 409 
Q 2538 409 2786 701 
Q 3034 994 3034 1497 
Q 3034 2003 2786 2293 
Q 2538 2584 2113 2584 
z
M 3366 4563 
L 3366 3988 
Q 3128 4100 2886 4159 
Q 2644 4219 2406 4219 
Q 1781 4219 1451 3797 
Q 1122 3375 1075 2522 
Q 1259 2794 1537 2939 
Q 1816 3084 2150 3084 
Q 2853 3084 3261 2657 
Q 3669 2231 3669 1497 
Q 3669 778 3244 343 
Q 2819 -91 2113 -91 
Q 1303 -91 875 529 
Q 447 1150 447 2328 
Q 447 3434 972 4092 
Q 1497 4750 2381 4750 
Q 2619 4750 2861 4703 
Q 3103 4656 3366 4563 
z
" transform="scale(0.015625)"/>
      <path id="DejaVuSans-73" d="M 2834 3397 
L 2834 2853 
Q 2591 2978 2328 3040 
Q 2066 3103 1784 3103 
Q 1356 3103 1142 2972 
Q 928 2841 928 2578 
Q 928 2378 1081 2264 
Q 1234 2150 1697 2047 
L 1894 2003 
Q 2506 1872 2764 1633 
Q 3022 1394 3022 966 
Q 3022 478 2636 193 
Q 2250 -91 1575 -91 
Q 1294 -91 989 -36 
Q 684 19 347 128 
L 347 722 
Q 666 556 975 473 
Q 1284 391 1588 391 
Q 1994 391 2212 530 
Q 2431 669 2431 922 
Q 2431 1156 2273 1281 
Q 2116 1406 1581 1522 
L 1381 1569 
Q 847 1681 609 1914 
Q 372 2147 372 2553 
Q 372 3047 722 3315 
Q 1072 3584 1716 3584 
Q 2034 3584 2315 3537 
Q 2597 3491 2834 3397 
z
" transform="scale(0.015625)"/>
      <path id="DejaVuSans-68" d="M 3513 2113 
L 3513 0 
L 2938 0 
L 2938 2094 
Q 2938 2591 2744 2837 
Q 2550 3084 2163 3084 
Q 1697 3084 1428 2787 
Q 1159 2491 1159 1978 
L 1159 0 
L 581 0 
L 581 4863 
L 1159 4863 
L 1159 2956 
Q 1366 3272 1645 3428 
Q 1925 3584 2291 3584 
Q 2894 3584 3203 3211 
Q 3513 2838 3513 2113 
z
" transform="scale(0.015625)"/>
      <path id="DejaVuSans-65" d="M 3597 1894 
L 3597 1613 
L 953 1613 
Q 991 1019 1311 708 
Q 1631 397 2203 397 
Q 2534 397 2845 478 
Q 3156 559 3463 722 
L 3463 178 
Q 3153 47 2828 -22 
Q 2503 -91 2169 -91 
Q 1331 -91 842 396 
Q 353 884 353 1716 
Q 353 2575 817 3079 
Q 1281 3584 2069 3584 
Q 2775 3584 3186 3129 
Q 3597 2675 3597 1894 
z
M 3022 2063 
Q 3016 2534 2758 2815 
Q 2500 3097 2075 3097 
Q 1594 3097 1305 2825 
Q 1016 2553 972 2059 
L 3022 2063 
z
" transform="scale(0.015625)"/>
      <path id="DejaVuSans-67" d="M 2906 1791 
Q 2906 2416 2648 2759 
Q 2391 3103 1925 3103 
Q 1463 3103 1205 2759 
Q 947 2416 947 1791 
Q 947 1169 1205 825 
Q 1463 481 1925 481 
Q 2391 481 2648 825 
Q 2906 1169 2906 1791 
z
M 3481 434 
Q 3481 -459 3084 -895 
Q 2688 -1331 1869 -1331 
Q 1566 -1331 1297 -1286 
Q 1028 -1241 775 -1147 
L 775 -588 
Q 1028 -725 1275 -790 
Q 1522 -856 1778 -856 
Q 2344 -856 2625 -561 
Q 2906 -266 2906 331 
L 2906 616 
Q 2728 306 2450 153 
Q 2172 0 1784 0 
Q 1141 0 747 490 
Q 353 981 353 1791 
Q 353 2603 747 3093 
Q 1141 3584 1784 3584 
Q 2172 3584 2450 3431 
Q 2728 3278 2906 2969 
L 2906 3500 
L 3481 3500 
L 3481 434 
z
" transform="scale(0.015625)"/>
      <path id="DejaVuSans-30" d="M 2034 4250 
Q 1547 4250 1301 3770 
Q 1056 3291 1056 2328 
Q 1056 1369 1301 889 
Q 1547 409 2034 409 
Q 2525 409 2770 889 
Q 3016 1369 3016 2328 
Q 3016 3291 2770 3770 
Q 2525 4250 2034 4250 
z
M 2034 4750 
Q 2819 4750 3233 4129 
Q 3647 3509 3647 2328 
Q 3647 1150 3233 529 
Q 2819 -91 2034 -91 
Q 1250 -91 836 529 
Q 422 1150 422 2328 
Q 422 3509 836 4129 
Q 1250 4750 2034 4750 
z
" transform="scale(0.015625)"/>
      <path id="DejaVuSans-6b" d="M 581 4863 
L 1159 4863 
L 1159 1991 
L 2875 3500 
L 3609 3500 
L 1753 1863 
L 3688 0 
L 2938 0 
L 1159 1709 
L 1159 0 
L 581 0 
L 581 4863 
z
" transform="scale(0.015625)"/>
      <path id="DejaVuSans-62" d="M 3116 1747 
Q 3116 2381 2855 2742 
Q 2594 3103 2138 3103 
Q 1681 3103 1420 2742 
Q 1159 2381 1159 1747 
Q 1159 1113 1420 752 
Q 1681 391 2138 391 
Q 2594 391 2855 752 
Q 3116 1113 3116 1747 
z
M 1159 2969 
Q 1341 3281 1617 3432 
Q 1894 3584 2278 3584 
Q 2916 3584 3314 3078 
Q 3713 2572 3713 1747 
Q 3713 922 3314 415 
Q 2916 -91 2278 -91 
Q 1894 -91 1617 61 
Q 1341 213 1159 525 
L 1159 0 
L 581 0 
L 581 4863 
L 1159 4863 
L 1159 2969 
z
" transform="scale(0.015625)"/>
     </defs>
     <use xlink:href="#DejaVuSans-33"/>
     <use xlink:href="#DejaVuSans-32" transform="translate(63.623047 0)"/>
     <use xlink:href="#DejaVuSans-20" transform="translate(127.246094 0)"/>
     <use xlink:href="#DejaVuSans-69" transform="translate(159.033203 0)"/>
     <use xlink:href="#DejaVuSans-6e" transform="translate(186.816406 0)"/>
     <use xlink:href="#DejaVuSans-74" transform="translate(250.195312 0)"/>
     <use xlink:href="#DejaVuSans-72" transform="translate(289.404297 0)"/>
     <use xlink:href="#DejaVuSans-61" transform="translate(330.517578 0)"/>
     <use xlink:href="#DejaVuSans-3a" transform="translate(391.796875 0)"/>
     <use xlink:href="#DejaVuSans-20" transform="translate(425.488281 0)"/>
     <use xlink:href="#DejaVuSans-36" transform="translate(457.275391 0)"/>
     <use xlink:href="#DejaVuSans-20" transform="translate(520.898438 0)"/>
     <use xlink:href="#DejaVuSans-73" transform="translate(552.685547 0)"/>
     <use xlink:href="#DejaVuSans-68" transform="translate(604.785156 0)"/>
     <use xlink:href="#DejaVuSans-65" transform="translate(668.164062 0)"/>
     <use xlink:href="#DejaVuSans-6e" transform="translate(729.6875 0)"/>
     <use xlink:href="#DejaVuSans-67" transform="translate(793.066406 0)"/>
     <use xlink:href="#DejaVuSans-20" transform="translate(856.542969 0)"/>
     <use xlink:href="#DejaVuSans-20" transform="translate(888.330078 0)"/>
     <use xlink:href="#DejaVuSans-32" transform="translate(920.117188 0)"/>
     <use xlink:href="#DejaVuSans-30" transform="translate(983.740234 0)"/>
     <use xlink:href="#DejaVuSans-20" transform="translate(1047.363281 0)"/>
     <use xlink:href="#DejaVuSans-6b" transform="translate(1079.150391 0)"/>
     <use xlink:href="#DejaVuSans-65" transform="translate(1133.435547 0)"/>
     <use xlink:href="#DejaVuSans-20" transform="translate(1194.958984 0)"/>
     <use xlink:href="#DejaVuSans-20" transform="translate(1226.746094 0)"/>
     <use xlink:href="#DejaVuSans-36" transform="translate(1258.533203 0)"/>
     <use xlink:href="#DejaVuSans-20" transform="translate(1322.15625 0)"/>
     <use xlink:href="#DejaVuSans-62" transform="translate(1353.943359 0)"/>
     <use xlink:href="#DejaVuSans-69" transform="translate(1417.419922 0)"/>
    </g>
   </g>
   <g id="text_9">
    <!-- KW Walk — INTRA-pair bridges -->
    <g transform="translate(208.585689 17.837812) scale(0.14 -0.14)">
     <defs>
      <path id="DejaVuSans-Bold-57" d="M 191 4666 
L 1344 4666 
L 2150 1275 
L 2950 4666 
L 4109 4666 
L 4909 1275 
L 5716 4666 
L 6859 4666 
L 5759 0 
L 4372 0 
L 3525 3547 
L 2688 0 
L 1300 0 
L 191 4666 
z
" transform="scale(0.015625)"/>
      <path id="DejaVuSans-Bold-20" transform="scale(0.015625)"/>
      <path id="DejaVuSans-Bold-6c" d="M 538 4863 
L 1656 4863 
L 1656 0 
L 538 0 
L 538 4863 
z
" transform="scale(0.015625)"/>
      <path id="DejaVuSans-Bold-6b" d="M 538 4863 
L 1656 4863 
L 1656 2216 
L 2944 3500 
L 4244 3500 
L 2534 1894 
L 4378 0 
L 3022 0 
L 1656 1459 
L 1656 0 
L 538 0 
L 538 4863 
z
" transform="scale(0.015625)"/>
      <path id="DejaVuSans-Bold-2014" d="M 344 2156 
L 6056 2156 
L 6056 1350 
L 344 1350 
L 344 2156 
z
" transform="scale(0.015625)"/>
      <path id="DejaVuSans-Bold-49" d="M 588 4666 
L 1791 4666 
L 1791 0 
L 588 0 
L 588 4666 
z
" transform="scale(0.015625)"/>
      <path id="DejaVuSans-Bold-4e" d="M 588 4666 
L 1931 4666 
L 3628 1466 
L 3628 4666 
L 4769 4666 
L 4769 0 
L 3425 0 
L 1728 3200 
L 1728 0 
L 588 0 
L 588 4666 
z
" transform="scale(0.015625)"/>
      <path id="DejaVuSans-Bold-54" d="M 31 4666 
L 4331 4666 
L 4331 3756 
L 2784 3756 
L 2784 0 
L 1581 0 
L 1581 3756 
L 31 3756 
L 31 4666 
z
" transform="scale(0.015625)"/>
      <path id="DejaVuSans-Bold-52" d="M 2297 2597 
Q 2675 2597 2839 2737 
Q 3003 2878 3003 3200 
Q 3003 3519 2839 3656 
Q 2675 3794 2297 3794 
L 1791 3794 
L 1791 2597 
L 2297 2597 
z
M 1791 1766 
L 1791 0 
L 588 0 
L 588 4666 
L 2425 4666 
Q 3347 4666 3776 4356 
Q 4206 4047 4206 3378 
Q 4206 2916 3982 2619 
Q 3759 2322 3309 2181 
Q 3556 2125 3751 1926 
Q 3947 1728 4147 1325 
L 4800 0 
L 3519 0 
L 2950 1159 
Q 2778 1509 2601 1637 
Q 2425 1766 2131 1766 
L 1791 1766 
z
" transform="scale(0.015625)"/>
      <path id="DejaVuSans-Bold-41" d="M 3419 850 
L 1538 850 
L 1241 0 
L 31 0 
L 1759 4666 
L 3194 4666 
L 4922 0 
L 3713 0 
L 3419 850 
z
M 1838 1716 
L 3116 1716 
L 2478 3572 
L 1838 1716 
z
" transform="scale(0.015625)"/>
      <path id="DejaVuSans-Bold-2d" d="M 347 2297 
L 2309 2297 
L 2309 1388 
L 347 1388 
L 347 2297 
z
" transform="scale(0.015625)"/>
      <path id="DejaVuSans-Bold-70" d="M 1656 506 
L 1656 -1331 
L 538 -1331 
L 538 3500 
L 1656 3500 
L 1656 2988 
Q 1888 3294 2169 3439 
Q 2450 3584 2816 3584 
Q 3463 3584 3878 3070 
Q 4294 2556 4294 1747 
Q 4294 938 3878 423 
Q 3463 -91 2816 -91 
Q 2450 -91 2169 54 
Q 1888 200 1656 506 
z
M 2400 2772 
Q 2041 2772 1848 2508 
Q 1656 2244 1656 1747 
Q 1656 1250 1848 986 
Q 2041 722 2400 722 
Q 2759 722 2948 984 
Q 3138 1247 3138 1747 
Q 3138 2247 2948 2509 
Q 2759 2772 2400 2772 
z
" transform="scale(0.015625)"/>
      <path id="DejaVuSans-Bold-72" d="M 3138 2547 
Q 2991 2616 2845 2648 
Q 2700 2681 2553 2681 
Q 2122 2681 1889 2404 
Q 1656 2128 1656 1613 
L 1656 0 
L 538 0 
L 538 3500 
L 1656 3500 
L 1656 2925 
Q 1872 3269 2151 3426 
Q 2431 3584 2822 3584 
Q 2878 3584 2943 3579 
Q 3009 3575 3134 3559 
L 3138 2547 
z
" transform="scale(0.015625)"/>
      <path id="DejaVuSans-Bold-62" d="M 2400 722 
Q 2759 722 2948 984 
Q 3138 1247 3138 1747 
Q 3138 2247 2948 2509 
Q 2759 2772 2400 2772 
Q 2041 2772 1848 2508 
Q 1656 2244 1656 1747 
Q 1656 1250 1848 986 
Q 2041 722 2400 722 
z
M 1656 2988 
Q 1888 3294 2169 3439 
Q 2450 3584 2816 3584 
Q 3463 3584 3878 3070 
Q 4294 2556 4294 1747 
Q 4294 938 3878 423 
Q 3463 -91 2816 -91 
Q 2450 -91 2169 54 
Q 1888 200 1656 506 
L 1656 0 
L 538 0 
L 538 4863 
L 1656 4863 
L 1656 2988 
z
" transform="scale(0.015625)"/>
      <path id="DejaVuSans-Bold-64" d="M 2919 2988 
L 2919 4863 
L 4044 4863 
L 4044 0 
L 2919 0 
L 2919 506 
Q 2688 197 2409 53 
Q 2131 -91 1766 -91 
Q 1119 -91 703 423 
Q 288 938 288 1747 
Q 288 2556 703 3070 
Q 1119 3584 1766 3584 
Q 2128 3584 2408 3439 
Q 2688 3294 2919 2988 
z
M 2181 722 
Q 2541 722 2730 984 
Q 2919 1247 2919 1747 
Q 2919 2247 2730 2509 
Q 2541 2772 2181 2772 
Q 1825 2772 1636 2509 
Q 1447 2247 1447 1747 
Q 1447 1247 1636 984 
Q 1825 722 2181 722 
z
" transform="scale(0.015625)"/>
      <path id="DejaVuSans-Bold-67" d="M 2919 594 
Q 2688 288 2409 144 
Q 2131 0 1766 0 
Q 1125 0 706 504 
Q 288 1009 288 1791 
Q 288 2575 706 3076 
Q 1125 3578 1766 3578 
Q 2131 3578 2409 3434 
Q 2688 3291 2919 2981 
L 2919 3500 
L 4044 3500 
L 4044 353 
Q 4044 -491 3511 -936 
Q 2978 -1381 1966 -1381 
Q 1638 -1381 1331 -1331 
Q 1025 -1281 716 -1178 
L 716 -306 
Q 1009 -475 1290 -558 
Q 1572 -641 1856 -641 
Q 2406 -641 2662 -400 
Q 2919 -159 2919 353 
L 2919 594 
z
M 2181 2772 
Q 1834 2772 1640 2515 
Q 1447 2259 1447 1791 
Q 1447 1309 1634 1061 
Q 1822 813 2181 813 
Q 2531 813 2725 1069 
Q 2919 1325 2919 1791 
Q 2919 2259 2725 2515 
Q 2531 2772 2181 2772 
z
" transform="scale(0.015625)"/>
      <path id="DejaVuSans-Bold-65" d="M 4031 1759 
L 4031 1441 
L 1416 1441 
Q 1456 1047 1700 850 
Q 1944 653 2381 653 
Q 2734 653 3104 758 
Q 3475 863 3866 1075 
L 3866 213 
Q 3469 63 3072 -14 
Q 2675 -91 2278 -91 
Q 1328 -91 801 392 
Q 275 875 275 1747 
Q 275 2603 792 3093 
Q 1309 3584 2216 3584 
Q 3041 3584 3536 3087 
Q 4031 2591 4031 1759 
z
M 2881 2131 
Q 2881 2450 2695 2645 
Q 2509 2841 2209 2841 
Q 1884 2841 1681 2658 
Q 1478 2475 1428 2131 
L 2881 2131 
z
" transform="scale(0.015625)"/>
      <path id="DejaVuSans-Bold-73" d="M 3272 3391 
L 3272 2541 
Q 2913 2691 2578 2766 
Q 2244 2841 1947 2841 
Q 1628 2841 1473 2761 
Q 1319 2681 1319 2516 
Q 1319 2381 1436 2309 
Q 1553 2238 1856 2203 
L 2053 2175 
Q 2913 2066 3209 1816 
Q 3506 1566 3506 1031 
Q 3506 472 3093 190 
Q 2681 -91 1863 -91 
Q 1516 -91 1145 -36 
Q 775 19 384 128 
L 384 978 
Q 719 816 1070 734 
Q 1422 653 1784 653 
Q 2113 653 2278 743 
Q 2444 834 2444 1013 
Q 2444 1163 2330 1236 
Q 2216 1309 1875 1350 
L 1678 1375 
Q 931 1469 631 1722 
Q 331 1975 331 2491 
Q 331 3047 712 3315 
Q 1094 3584 1881 3584 
Q 2191 3584 2531 3537 
Q 2872 3491 3272 3391 
z
" transform="scale(0.015625)"/>
     </defs>
     <use xlink:href="#DejaVuSans-Bold-4b"/>
     <use xlink:href="#DejaVuSans-Bold-57" transform="translate(77.490234 0)"/>
     <use xlink:href="#DejaVuSans-Bold-20" transform="translate(187.792969 0)"/>
     <use xlink:href="#DejaVuSans-Bold-57" transform="translate(222.607422 0)"/>
     <use xlink:href="#DejaVuSans-Bold-61" transform="translate(329.285156 0)"/>
     <use xlink:href="#DejaVuSans-Bold-6c" transform="translate(396.765625 0)"/>
     <use xlink:href="#DejaVuSans-Bold-6b" transform="translate(431.042969 0)"/>
     <use xlink:href="#DejaVuSans-Bold-20" transform="translate(497.546875 0)"/>
     <use xlink:href="#DejaVuSans-Bold-2014" transform="translate(532.361328 0)"/>
     <use xlink:href="#DejaVuSans-Bold-20" transform="translate(632.361328 0)"/>
     <use xlink:href="#DejaVuSans-Bold-49" transform="translate(667.175781 0)"/>
     <use xlink:href="#DejaVuSans-Bold-4e" transform="translate(704.382812 0)"/>
     <use xlink:href="#DejaVuSans-Bold-54" transform="translate(788.074219 0)"/>
     <use xlink:href="#DejaVuSans-Bold-52" transform="translate(856.287109 0)"/>
     <use xlink:href="#DejaVuSans-Bold-41" transform="translate(933.289062 0)"/>
     <use xlink:href="#DejaVuSans-Bold-2d" transform="translate(1010.681641 0)"/>
     <use xlink:href="#DejaVuSans-Bold-70" transform="translate(1052.185547 0)"/>
     <use xlink:href="#DejaVuSans-Bold-61" transform="translate(1123.767578 0)"/>
     <use xlink:href="#DejaVuSans-Bold-69" transform="translate(1191.248047 0)"/>
     <use xlink:href="#DejaVuSans-Bold-72" transform="translate(1225.525391 0)"/>
     <use xlink:href="#DejaVuSans-Bold-20" transform="translate(1274.841797 0)"/>
     <use xlink:href="#DejaVuSans-Bold-62" transform="translate(1309.65625 0)"/>
     <use xlink:href="#DejaVuSans-Bold-72" transform="translate(1381.238281 0)"/>
     <use xlink:href="#DejaVuSans-Bold-69" transform="translate(1430.554688 0)"/>
     <use xlink:href="#DejaVuSans-Bold-64" transform="translate(1464.832031 0)"/>
     <use xlink:href="#DejaVuSans-Bold-67" transform="translate(1536.414062 0)"/>
     <use xlink:href="#DejaVuSans-Bold-65" transform="translate(1607.996094 0)"/>
     <use xlink:href="#DejaVuSans-Bold-73" transform="translate(1675.818359 0)"/>
    </g>
    <!-- (Hu lower five-phase) -->
    <g transform="translate(244.774596 33.624125) scale(0.14 -0.14)">
     <defs>
      <path id="DejaVuSans-Bold-28" d="M 2413 -844 
L 1484 -844 
Q 1006 -72 778 623 
Q 550 1319 550 2003 
Q 550 2688 779 3389 
Q 1009 4091 1484 4856 
L 2413 4856 
Q 2013 4116 1813 3408 
Q 1613 2700 1613 2009 
Q 1613 1319 1811 609 
Q 2009 -100 2413 -844 
z
" transform="scale(0.015625)"/>
      <path id="DejaVuSans-Bold-48" d="M 588 4666 
L 1791 4666 
L 1791 2888 
L 3566 2888 
L 3566 4666 
L 4769 4666 
L 4769 0 
L 3566 0 
L 3566 1978 
L 1791 1978 
L 1791 0 
L 588 0 
L 588 4666 
z
" transform="scale(0.015625)"/>
      <path id="DejaVuSans-Bold-6f" d="M 2203 2784 
Q 1831 2784 1636 2517 
Q 1441 2250 1441 1747 
Q 1441 1244 1636 976 
Q 1831 709 2203 709 
Q 2569 709 2762 976 
Q 2956 1244 2956 1747 
Q 2956 2250 2762 2517 
Q 2569 2784 2203 2784 
z
M 2203 3584 
Q 3106 3584 3614 3096 
Q 4122 2609 4122 1747 
Q 4122 884 3614 396 
Q 3106 -91 2203 -91 
Q 1297 -91 786 396 
Q 275 884 275 1747 
Q 275 2609 786 3096 
Q 1297 3584 2203 3584 
z
" transform="scale(0.015625)"/>
      <path id="DejaVuSans-Bold-77" d="M 225 3500 
L 1313 3500 
L 1900 1088 
L 2491 3500 
L 3425 3500 
L 4013 1113 
L 4603 3500 
L 5691 3500 
L 4769 0 
L 3547 0 
L 2956 2406 
L 2369 0 
L 1147 0 
L 225 3500 
z
" transform="scale(0.015625)"/>
      <path id="DejaVuSans-Bold-66" d="M 2841 4863 
L 2841 4128 
L 2222 4128 
Q 1984 4128 1890 4042 
Q 1797 3956 1797 3744 
L 1797 3500 
L 2753 3500 
L 2753 2700 
L 1797 2700 
L 1797 0 
L 678 0 
L 678 2700 
L 122 2700 
L 122 3500 
L 678 3500 
L 678 3744 
Q 678 4316 997 4589 
Q 1316 4863 1984 4863 
L 2841 4863 
z
" transform="scale(0.015625)"/>
      <path id="DejaVuSans-Bold-76" d="M 97 3500 
L 1216 3500 
L 2088 1081 
L 2956 3500 
L 4078 3500 
L 2700 0 
L 1472 0 
L 97 3500 
z
" transform="scale(0.015625)"/>
      <path id="DejaVuSans-Bold-68" d="M 4056 2131 
L 4056 0 
L 2931 0 
L 2931 347 
L 2931 1625 
Q 2931 2084 2911 2256 
Q 2891 2428 2841 2509 
Q 2775 2619 2662 2680 
Q 2550 2741 2406 2741 
Q 2056 2741 1856 2470 
Q 1656 2200 1656 1722 
L 1656 0 
L 538 0 
L 538 4863 
L 1656 4863 
L 1656 2988 
Q 1909 3294 2193 3439 
Q 2478 3584 2822 3584 
Q 3428 3584 3742 3212 
Q 4056 2841 4056 2131 
z
" transform="scale(0.015625)"/>
      <path id="DejaVuSans-Bold-29" d="M 513 -844 
Q 913 -100 1113 609 
Q 1313 1319 1313 2009 
Q 1313 2700 1113 3408 
Q 913 4116 513 4856 
L 1441 4856 
Q 1916 4091 2145 3389 
Q 2375 2688 2375 2003 
Q 2375 1319 2147 623 
Q 1919 -72 1441 -844 
L 513 -844 
z
" transform="scale(0.015625)"/>
     </defs>
     <use xlink:href="#DejaVuSans-Bold-28"/>
     <use xlink:href="#DejaVuSans-Bold-48" transform="translate(45.703125 0)"/>
     <use xlink:href="#DejaVuSans-Bold-75" transform="translate(129.394531 0)"/>
     <use xlink:href="#DejaVuSans-Bold-20" transform="translate(200.585938 0)"/>
     <use xlink:href="#DejaVuSans-Bold-6c" transform="translate(235.400391 0)"/>
     <use xlink:href="#DejaVuSans-Bold-6f" transform="translate(269.677734 0)"/>
     <use xlink:href="#DejaVuSans-Bold-77" transform="translate(338.378906 0)"/>
     <use xlink:href="#DejaVuSans-Bold-65" transform="translate(430.761719 0)"/>
     <use xlink:href="#DejaVuSans-Bold-72" transform="translate(498.583984 0)"/>
     <use xlink:href="#DejaVuSans-Bold-20" transform="translate(547.900391 0)"/>
     <use xlink:href="#DejaVuSans-Bold-66" transform="translate(582.714844 0)"/>
     <use xlink:href="#DejaVuSans-Bold-69" transform="translate(626.220703 0)"/>
     <use xlink:href="#DejaVuSans-Bold-76" transform="translate(660.498047 0)"/>
     <use xlink:href="#DejaVuSans-Bold-65" transform="translate(725.683594 0)"/>
     <use xlink:href="#DejaVuSans-Bold-2d" transform="translate(793.505859 0)"/>
     <use xlink:href="#DejaVuSans-Bold-70" transform="translate(835.009766 0)"/>
     <use xlink:href="#DejaVuSans-Bold-68" transform="translate(906.591797 0)"/>
     <use xlink:href="#DejaVuSans-Bold-61" transform="translate(977.783203 0)"/>
     <use xlink:href="#DejaVuSans-Bold-73" transform="translate(1045.263672 0)"/>
     <use xlink:href="#DejaVuSans-Bold-65" transform="translate(1104.785156 0)"/>
     <use xlink:href="#DejaVuSans-Bold-29" transform="translate(1172.607422 0)"/>
    </g>
   </g>
   <g id="PathCollection_1">
    <defs>
     <path id="mddeb538dbc" d="M 0 13.228757 
C 3.508307 13.228757 6.873396 11.834891 9.354143 9.354143 
C 11.834891 6.873396 13.228757 3.508307 13.228757 0 
C 13.228757 -3.508307 11.834891 -6.873396 9.354143 -9.354143 
C 6.873396 -11.834891 3.508307 -13.228757 0 -13.228757 
C -3.508307 -13.228757 -6.873396 -11.834891 -9.354143 -9.354143 
C -11.834891 -6.873396 -13.228757 -3.508307 -13.228757 0 
C -13.228757 3.508307 -11.834891 6.873396 -9.354143 9.354143 
C -6.873396 11.834891 -3.508307 13.228757 0 13.228757 
z
" style="stroke: #ffffff; stroke-width: 2"/>
    </defs>
    <g clip-path="url(#p185ce40e23)">
     <use xlink:href="#mddeb538dbc" x="107.703529" y="409.280596" style="fill: #4488cc; stroke: #ffffff; stroke-width: 2"/>
    </g>
   </g>
   <g id="PathCollection_2">
    <g clip-path="url(#p185ce40e23)">
     <use xlink:href="#mddeb538dbc" x="107.703529" y="320.339419" style="fill: #4488cc; stroke: #ffffff; stroke-width: 2"/>
    </g>
   </g>
   <g id="PathCollection_3">
    <defs>
     <path id="mb31887fd95" d="M 0 13.228757 
C 3.508307 13.228757 6.873396 11.834891 9.354143 9.354143 
C 11.834891 6.873396 13.228757 3.508307 13.228757 0 
C 13.228757 -3.508307 11.834891 -6.873396 9.354143 -9.354143 
C 6.873396 -11.834891 3.508307 -13.228757 0 -13.228757 
C -3.508307 -13.228757 -6.873396 -11.834891 -9.354143 -9.354143 
C -11.834891 -6.873396 -13.228757 -3.508307 -13.228757 0 
C -13.228757 3.508307 -11.834891 6.873396 -9.354143 9.354143 
C -6.873396 11.834891 -3.508307 13.228757 0 13.228757 
z
" style="stroke: #ffffff; stroke-width: 2"/>
    </defs>
    <g clip-path="url(#p185ce40e23)">
     <use xlink:href="#mb31887fd95" x="365.632941" y="453.751184" style="fill: #44aa66; stroke: #ffffff; stroke-width: 2"/>
    </g>
   </g>
   <g id="PathCollection_4">
    <g clip-path="url(#p185ce40e23)">
     <use xlink:href="#mb31887fd95" x="365.632941" y="364.810007" style="fill: #44aa66; stroke: #ffffff; stroke-width: 2"/>
    </g>
   </g>
   <g id="PathCollection_5">
    <g clip-path="url(#p185ce40e23)">
     <use xlink:href="#mb31887fd95" x="294.48" y="453.751184" style="fill: #44aa66; stroke: #ffffff; stroke-width: 2"/>
    </g>
   </g>
   <g id="PathCollection_6">
    <g clip-path="url(#p185ce40e23)">
     <use xlink:href="#mb31887fd95" x="294.48" y="364.810007" style="fill: #44aa66; stroke: #ffffff; stroke-width: 2"/>
    </g>
   </g>
   <g id="PathCollection_7">
    <defs>
     <path id="meab93534e2" d="M 0 13.228757 
C 3.508307 13.228757 6.873396 11.834891 9.354143 9.354143 
C 11.834891 6.873396 13.228757 3.508307 13.228757 0 
C 13.228757 -3.508307 11.834891 -6.873396 9.354143 -9.354143 
C 6.873396 -11.834891 3.508307 -13.228757 0 -13.228757 
C -3.508307 -13.228757 -6.873396 -11.834891 -9.354143 -9.354143 
C -11.834891 -6.873396 -13.228757 -3.508307 -13.228757 0 
C -13.228757 3.508307 -11.834891 6.873396 -9.354143 9.354143 
C -6.873396 11.834891 -3.508307 13.228757 0 13.228757 
z
" style="stroke: #ffffff; stroke-width: 2"/>
    </defs>
    <g clip-path="url(#p185ce40e23)">
     <use xlink:href="#meab93534e2" x="552.409412" y="409.280596" style="fill: #cc4444; stroke: #ffffff; stroke-width: 2"/>
    </g>
   </g>
   <g id="PathCollection_8">
    <g clip-path="url(#p185ce40e23)">
     <use xlink:href="#meab93534e2" x="552.409412" y="320.339419" style="fill: #cc4444; stroke: #ffffff; stroke-width: 2"/>
    </g>
   </g>
   <g id="PathCollection_9">
    <g clip-path="url(#p185ce40e23)">
     <use xlink:href="#mddeb538dbc" x="107.703529" y="231.398243" style="fill: #4488cc; stroke: #ffffff; stroke-width: 2"/>
    </g>
   </g>
   <g id="PathCollection_10">
    <g clip-path="url(#p185ce40e23)">
     <use xlink:href="#mddeb538dbc" x="107.703529" y="142.457066" style="fill: #4488cc; stroke: #ffffff; stroke-width: 2"/>
    </g>
   </g>
   <g id="PathCollection_11">
    <g clip-path="url(#p185ce40e23)">
     <use xlink:href="#mb31887fd95" x="365.632941" y="275.868831" style="fill: #44aa66; stroke: #ffffff; stroke-width: 2"/>
    </g>
   </g>
   <g id="PathCollection_12">
    <g clip-path="url(#p185ce40e23)">
     <use xlink:href="#mb31887fd95" x="365.632941" y="186.927654" style="fill: #44aa66; stroke: #ffffff; stroke-width: 2"/>
    </g>
   </g>
   <g id="PathCollection_13">
    <g clip-path="url(#p185ce40e23)">
     <use xlink:href="#mb31887fd95" x="294.48" y="275.868831" style="fill: #44aa66; stroke: #ffffff; stroke-width: 2"/>
    </g>
   </g>
   <g id="PathCollection_14">
    <g clip-path="url(#p185ce40e23)">
     <use xlink:href="#mb31887fd95" x="294.48" y="186.927654" style="fill: #44aa66; stroke: #ffffff; stroke-width: 2"/>
    </g>
   </g>
   <g id="PathCollection_15">
    <g clip-path="url(#p185ce40e23)">
     <use xlink:href="#meab93534e2" x="552.409412" y="231.398243" style="fill: #cc4444; stroke: #ffffff; stroke-width: 2"/>
    </g>
   </g>
   <g id="PathCollection_16">
    <g clip-path="url(#p185ce40e23)">
     <use xlink:href="#meab93534e2" x="552.409412" y="142.457066" style="fill: #cc4444; stroke: #ffffff; stroke-width: 2"/>
    </g>
   </g>
   <g id="legend_1">
    <g id="patch_22">
     <path d="M 530.95591 543.084125 
L 646.612941 543.084125 
Q 648.412941 543.084125 648.412941 541.284125 
L 648.412941 502.553187 
Q 648.412941 500.753187 646.612941 500.753187 
L 530.95591 500.753187 
Q 529.15591 500.753187 529.15591 502.553187 
L 529.15591 541.284125 
Q 529.15591 543.084125 530.95591 543.084125 
z
" style="fill: #ffffff; opacity: 0.8; stroke: #cccccc; stroke-linejoin: miter"/>
    </g>
    <g id="line2d_1">
     <path d="M 532.75591 508.041781 
L 541.75591 508.041781 
L 550.75591 508.041781 
" style="fill: none; stroke: #22aa44; stroke-width: 2; stroke-linecap: square"/>
    </g>
    <g id="text_10">
     <!-- Sheng (generative) -->
     <g transform="translate(557.95591 511.191781) scale(0.09 -0.09)">
      <defs>
       <path id="DejaVuSans-53" d="M 3425 4513 
L 3425 3897 
Q 3066 4069 2747 4153 
Q 2428 4238 2131 4238 
Q 1616 4238 1336 4038 
Q 1056 3838 1056 3469 
Q 1056 3159 1242 3001 
Q 1428 2844 1947 2747 
L 2328 2669 
Q 3034 2534 3370 2195 
Q 3706 1856 3706 1288 
Q 3706 609 3251 259 
Q 2797 -91 1919 -91 
Q 1588 -91 1214 -16 
Q 841 59 441 206 
L 441 856 
Q 825 641 1194 531 
Q 1563 422 1919 422 
Q 2459 422 2753 634 
Q 3047 847 3047 1241 
Q 3047 1584 2836 1778 
Q 2625 1972 2144 2069 
L 1759 2144 
Q 1053 2284 737 2584 
Q 422 2884 422 3419 
Q 422 4038 858 4394 
Q 1294 4750 2059 4750 
Q 2388 4750 2728 4690 
Q 3069 4631 3425 4513 
z
" transform="scale(0.015625)"/>
       <path id="DejaVuSans-28" d="M 1984 4856 
Q 1566 4138 1362 3434 
Q 1159 2731 1159 2009 
Q 1159 1288 1364 580 
Q 1569 -128 1984 -844 
L 1484 -844 
Q 1016 -109 783 600 
Q 550 1309 550 2009 
Q 550 2706 781 3412 
Q 1013 4119 1484 4856 
L 1984 4856 
z
" transform="scale(0.015625)"/>
       <path id="DejaVuSans-76" d="M 191 3500 
L 800 3500 
L 1894 563 
L 2988 3500 
L 3597 3500 
L 2284 0 
L 1503 0 
L 191 3500 
z
" transform="scale(0.015625)"/>
       <path id="DejaVuSans-29" d="M 513 4856 
L 1013 4856 
Q 1481 4119 1714 3412 
Q 1947 2706 1947 2009 
Q 1947 1309 1714 600 
Q 1481 -109 1013 -844 
L 513 -844 
Q 928 -128 1133 580 
Q 1338 1288 1338 2009 
Q 1338 2731 1133 3434 
Q 928 4138 513 4856 
z
" transform="scale(0.015625)"/>
      </defs>
      <use xlink:href="#DejaVuSans-53"/>
      <use xlink:href="#DejaVuSans-68" transform="translate(63.476562 0)"/>
      <use xlink:href="#DejaVuSans-65" transform="translate(126.855469 0)"/>
      <use xlink:href="#DejaVuSans-6e" transform="translate(188.378906 0)"/>
      <use xlink:href="#DejaVuSans-67" transform="translate(251.757812 0)"/>
      <use xlink:href="#DejaVuSans-20" transform="translate(315.234375 0)"/>
      <use xlink:href="#DejaVuSans-28" transform="translate(347.021484 0)"/>
      <use xlink:href="#DejaVuSans-67" transform="translate(386.035156 0)"/>
      <use xlink:href="#DejaVuSans-65" transform="translate(449.511719 0)"/>
      <use xlink:href="#DejaVuSans-6e" transform="translate(511.035156 0)"/>
      <use xlink:href="#DejaVuSans-65" transform="translate(574.414062 0)"/>
      <use xlink:href="#DejaVuSans-72" transform="translate(635.9375 0)"/>
      <use xlink:href="#DejaVuSans-61" transform="translate(677.050781 0)"/>
      <use xlink:href="#DejaVuSans-74" transform="translate(738.330078 0)"/>
      <use xlink:href="#DejaVuSans-69" transform="translate(777.539062 0)"/>
      <use xlink:href="#DejaVuSans-76" transform="translate(805.322266 0)"/>
      <use xlink:href="#DejaVuSans-65" transform="translate(864.501953 0)"/>
      <use xlink:href="#DejaVuSans-29" transform="translate(926.025391 0)"/>
     </g>
    </g>
    <g id="line2d_2">
     <path d="M 532.75591 521.252094 
L 541.75591 521.252094 
L 550.75591 521.252094 
" style="fill: none; stroke: #cc3333; stroke-width: 2; stroke-linecap: square"/>
    </g>
    <g id="text_11">
     <!-- Ke (destructive) -->
     <g transform="translate(557.95591 524.402094) scale(0.09 -0.09)">
      <defs>
       <path id="DejaVuSans-4b" d="M 628 4666 
L 1259 4666 
L 1259 2694 
L 3353 4666 
L 4166 4666 
L 1850 2491 
L 4331 0 
L 3500 0 
L 1259 2247 
L 1259 0 
L 628 0 
L 628 4666 
z
" transform="scale(0.015625)"/>
       <path id="DejaVuSans-64" d="M 2906 2969 
L 2906 4863 
L 3481 4863 
L 3481 0 
L 2906 0 
L 2906 525 
Q 2725 213 2448 61 
Q 2172 -91 1784 -91 
Q 1150 -91 751 415 
Q 353 922 353 1747 
Q 353 2572 751 3078 
Q 1150 3584 1784 3584 
Q 2172 3584 2448 3432 
Q 2725 3281 2906 2969 
z
M 947 1747 
Q 947 1113 1208 752 
Q 1469 391 1925 391 
Q 2381 391 2643 752 
Q 2906 1113 2906 1747 
Q 2906 2381 2643 2742 
Q 2381 3103 1925 3103 
Q 1469 3103 1208 2742 
Q 947 2381 947 1747 
z
" transform="scale(0.015625)"/>
       <path id="DejaVuSans-75" d="M 544 1381 
L 544 3500 
L 1119 3500 
L 1119 1403 
Q 1119 906 1312 657 
Q 1506 409 1894 409 
Q 2359 409 2629 706 
Q 2900 1003 2900 1516 
L 2900 3500 
L 3475 3500 
L 3475 0 
L 2900 0 
L 2900 538 
Q 2691 219 2414 64 
Q 2138 -91 1772 -91 
Q 1169 -91 856 284 
Q 544 659 544 1381 
z
M 1991 3584 
L 1991 3584 
z
" transform="scale(0.015625)"/>
       <path id="DejaVuSans-63" d="M 3122 3366 
L 3122 2828 
Q 2878 2963 2633 3030 
Q 2388 3097 2138 3097 
Q 1578 3097 1268 2742 
Q 959 2388 959 1747 
Q 959 1106 1268 751 
Q 1578 397 2138 397 
Q 2388 397 2633 464 
Q 2878 531 3122 666 
L 3122 134 
Q 2881 22 2623 -34 
Q 2366 -91 2075 -91 
Q 1284 -91 818 406 
Q 353 903 353 1747 
Q 353 2603 823 3093 
Q 1294 3584 2113 3584 
Q 2378 3584 2631 3529 
Q 2884 3475 3122 3366 
z
" transform="scale(0.015625)"/>
      </defs>
      <use xlink:href="#DejaVuSans-4b"/>
      <use xlink:href="#DejaVuSans-65" transform="translate(60.576172 0)"/>
      <use xlink:href="#DejaVuSans-20" transform="translate(122.099609 0)"/>
      <use xlink:href="#DejaVuSans-28" transform="translate(153.886719 0)"/>
      <use xlink:href="#DejaVuSans-64" transform="translate(192.900391 0)"/>
      <use xlink:href="#DejaVuSans-65" transform="translate(256.376953 0)"/>
      <use xlink:href="#DejaVuSans-73" transform="translate(317.900391 0)"/>
      <use xlink:href="#DejaVuSans-74" transform="translate(370 0)"/>
      <use xlink:href="#DejaVuSans-72" transform="translate(409.208984 0)"/>
      <use xlink:href="#DejaVuSans-75" transform="translate(450.322266 0)"/>
      <use xlink:href="#DejaVuSans-63" transform="translate(513.701172 0)"/>
      <use xlink:href="#DejaVuSans-74" transform="translate(568.681641 0)"/>
      <use xlink:href="#DejaVuSans-69" transform="translate(607.890625 0)"/>
      <use xlink:href="#DejaVuSans-76" transform="translate(635.673828 0)"/>
      <use xlink:href="#DejaVuSans-65" transform="translate(694.853516 0)"/>
      <use xlink:href="#DejaVuSans-29" transform="translate(756.376953 0)"/>
     </g>
    </g>
    <g id="line2d_3">
     <path d="M 532.75591 534.462406 
L 541.75591 534.462406 
L 550.75591 534.462406 
" style="fill: none; stroke: #aaaaaa; stroke-width: 2; stroke-linecap: square"/>
    </g>
    <g id="text_12">
     <!-- Bi (same element) -->
     <g transform="translate(557.95591 537.612406) scale(0.09 -0.09)">
      <defs>
       <path id="DejaVuSans-42" d="M 1259 2228 
L 1259 519 
L 2272 519 
Q 2781 519 3026 730 
Q 3272 941 3272 1375 
Q 3272 1813 3026 2020 
Q 2781 2228 2272 2228 
L 1259 2228 
z
M 1259 4147 
L 1259 2741 
L 2194 2741 
Q 2656 2741 2882 2914 
Q 3109 3088 3109 3444 
Q 3109 3797 2882 3972 
Q 2656 4147 2194 4147 
L 1259 4147 
z
M 628 4666 
L 2241 4666 
Q 2963 4666 3353 4366 
Q 3744 4066 3744 3513 
Q 3744 3084 3544 2831 
Q 3344 2578 2956 2516 
Q 3422 2416 3680 2098 
Q 3938 1781 3938 1306 
Q 3938 681 3513 340 
Q 3088 0 2303 0 
L 628 0 
L 628 4666 
z
" transform="scale(0.015625)"/>
       <path id="DejaVuSans-6d" d="M 3328 2828 
Q 3544 3216 3844 3400 
Q 4144 3584 4550 3584 
Q 5097 3584 5394 3201 
Q 5691 2819 5691 2113 
L 5691 0 
L 5113 0 
L 5113 2094 
Q 5113 2597 4934 2840 
Q 4756 3084 4391 3084 
Q 3944 3084 3684 2787 
Q 3425 2491 3425 1978 
L 3425 0 
L 2847 0 
L 2847 2094 
Q 2847 2600 2669 2842 
Q 2491 3084 2119 3084 
Q 1678 3084 1418 2786 
Q 1159 2488 1159 1978 
L 1159 0 
L 581 0 
L 581 3500 
L 1159 3500 
L 1159 2956 
Q 1356 3278 1631 3431 
Q 1906 3584 2284 3584 
Q 2666 3584 2933 3390 
Q 3200 3197 3328 2828 
z
" transform="scale(0.015625)"/>
       <path id="DejaVuSans-6c" d="M 603 4863 
L 1178 4863 
L 1178 0 
L 603 0 
L 603 4863 
z
" transform="scale(0.015625)"/>
      </defs>
      <use xlink:href="#DejaVuSans-42"/>
      <use xlink:href="#DejaVuSans-69" transform="translate(68.603516 0)"/>
      <use xlink:href="#DejaVuSans-20" transform="translate(96.386719 0)"/>
      <use xlink:href="#DejaVuSans-28" transform="translate(128.173828 0)"/>
      <use xlink:href="#DejaVuSans-73" transform="translate(167.1875 0)"/>
      <use xlink:href="#DejaVuSans-61" transform="translate(219.287109 0)"/>
      <use xlink:href="#DejaVuSans-6d" transform="translate(280.566406 0)"/>
      <use xlink:href="#DejaVuSans-65" transform="translate(377.978516 0)"/>
      <use xlink:href="#DejaVuSans-20" transform="translate(439.501953 0)"/>
      <use xlink:href="#DejaVuSans-65" transform="translate(471.289062 0)"/>
      <use xlink:href="#DejaVuSans-6c" transform="translate(532.8125 0)"/>
      <use xlink:href="#DejaVuSans-65" transform="translate(560.595703 0)"/>
      <use xlink:href="#DejaVuSans-6d" transform="translate(622.119141 0)"/>
      <use xlink:href="#DejaVuSans-65" transform="translate(719.53125 0)"/>
      <use xlink:href="#DejaVuSans-6e" transform="translate(781.054688 0)"/>
      <use xlink:href="#DejaVuSans-74" transform="translate(844.433594 0)"/>
      <use xlink:href="#DejaVuSans-29" transform="translate(883.642578 0)"/>
     </g>
    </g>
   </g>
   <g id="text_13">
    <!-- Kun/Kun -->
    <g style="fill: #ffffff" transform="translate(91.157279 409.433335) scale(0.07 -0.07)">
     <defs>
      <path id="DejaVuSans-Bold-2f" d="M 1644 4666 
L 2338 4666 
L 691 -594 
L 0 -594 
L 1644 4666 
z
" transform="scale(0.015625)"/>
     </defs>
     <use xlink:href="#DejaVuSans-Bold-4b"/>
     <use xlink:href="#DejaVuSans-Bold-75" transform="translate(75.740234 0)"/>
     <use xlink:href="#DejaVuSans-Bold-6e" transform="translate(146.931641 0)"/>
     <use xlink:href="#DejaVuSans-Bold-2f" transform="translate(218.123047 0)"/>
     <use xlink:href="#DejaVuSans-Bold-4b" transform="translate(254.646484 0)"/>
     <use xlink:href="#DejaVuSans-Bold-75" transform="translate(330.386719 0)"/>
     <use xlink:href="#DejaVuSans-Bold-6e" transform="translate(401.578125 0)"/>
    </g>
   </g>
   <g id="text_14">
    <!-- 0000 -->
    <g style="fill: #333333" transform="translate(100.479154 445.000945) scale(0.06 -0.06)">
     <defs>
      <path id="DejaVuSansMono-30" d="M 1509 2344 
Q 1509 2516 1629 2641 
Q 1750 2766 1919 2766 
Q 2094 2766 2219 2641 
Q 2344 2516 2344 2344 
Q 2344 2169 2220 2047 
Q 2097 1925 1919 1925 
Q 1744 1925 1626 2044 
Q 1509 2163 1509 2344 
z
M 1925 4250 
Q 1484 4250 1267 3775 
Q 1050 3300 1050 2328 
Q 1050 1359 1267 884 
Q 1484 409 1925 409 
Q 2369 409 2586 884 
Q 2803 1359 2803 2328 
Q 2803 3300 2586 3775 
Q 2369 4250 1925 4250 
z
M 1925 4750 
Q 2672 4750 3055 4137 
Q 3438 3525 3438 2328 
Q 3438 1134 3055 521 
Q 2672 -91 1925 -91 
Q 1178 -91 797 521 
Q 416 1134 416 2328 
Q 416 3525 797 4137 
Q 1178 4750 1925 4750 
z
" transform="scale(0.015625)"/>
     </defs>
     <use xlink:href="#DejaVuSansMono-30"/>
     <use xlink:href="#DejaVuSansMono-30" transform="translate(60.205078 0)"/>
     <use xlink:href="#DejaVuSansMono-30" transform="translate(120.410156 0)"/>
     <use xlink:href="#DejaVuSansMono-30" transform="translate(180.615234 0)"/>
    </g>
   </g>
   <g id="text_15">
    <!-- Zhe/Kun -->
    <g style="fill: #ffffff" transform="translate(91.387514 320.492158) scale(0.07 -0.07)">
     <defs>
      <path id="DejaVuSans-Bold-5a" d="M 359 4666 
L 4281 4666 
L 4281 3938 
L 1778 909 
L 4353 909 
L 4353 0 
L 288 0 
L 288 728 
L 2791 3756 
L 359 3756 
L 359 4666 
z
" transform="scale(0.015625)"/>
     </defs>
     <use xlink:href="#DejaVuSans-Bold-5a"/>
     <use xlink:href="#DejaVuSans-Bold-68" transform="translate(72.509766 0)"/>
     <use xlink:href="#DejaVuSans-Bold-65" transform="translate(143.701172 0)"/>
     <use xlink:href="#DejaVuSans-Bold-2f" transform="translate(211.523438 0)"/>
     <use xlink:href="#DejaVuSans-Bold-4b" transform="translate(248.046875 0)"/>
     <use xlink:href="#DejaVuSans-Bold-75" transform="translate(323.787109 0)"/>
     <use xlink:href="#DejaVuSans-Bold-6e" transform="translate(394.978516 0)"/>
    </g>
   </g>
   <g id="text_16">
    <!-- 0001 -->
    <g style="fill: #333333" transform="translate(100.479154 356.059768) scale(0.06 -0.06)">
     <defs>
      <path id="DejaVuSansMono-31" d="M 844 531 
L 1825 531 
L 1825 4097 
L 769 3859 
L 769 4434 
L 1819 4666 
L 2450 4666 
L 2450 531 
L 3419 531 
L 3419 0 
L 844 0 
L 844 531 
z
" transform="scale(0.015625)"/>
     </defs>
     <use xlink:href="#DejaVuSansMono-30"/>
     <use xlink:href="#DejaVuSansMono-30" transform="translate(60.205078 0)"/>
     <use xlink:href="#DejaVuSansMono-30" transform="translate(120.410156 0)"/>
     <use xlink:href="#DejaVuSansMono-31" transform="translate(180.615234 0)"/>
    </g>
   </g>
   <g id="text_17">
    <!-- Kan/Zhe -->
    <g style="fill: #ffffff" transform="translate(349.385285 453.903923) scale(0.07 -0.07)">
     <use xlink:href="#DejaVuSans-Bold-4b"/>
     <use xlink:href="#DejaVuSans-Bold-61" transform="translate(77.490234 0)"/>
     <use xlink:href="#DejaVuSans-Bold-6e" transform="translate(144.970703 0)"/>
     <use xlink:href="#DejaVuSans-Bold-2f" transform="translate(216.162109 0)"/>
     <use xlink:href="#DejaVuSans-Bold-5a" transform="translate(252.685547 0)"/>
     <use xlink:href="#DejaVuSans-Bold-68" transform="translate(325.195312 0)"/>
     <use xlink:href="#DejaVuSans-Bold-65" transform="translate(396.386719 0)"/>
    </g>
   </g>
   <g id="text_18">
    <!-- 0010 -->
    <g style="fill: #333333" transform="translate(358.408566 489.471533) scale(0.06 -0.06)">
     <use xlink:href="#DejaVuSansMono-30"/>
     <use xlink:href="#DejaVuSansMono-30" transform="translate(60.205078 0)"/>
     <use xlink:href="#DejaVuSansMono-31" transform="translate(120.410156 0)"/>
     <use xlink:href="#DejaVuSansMono-30" transform="translate(180.615234 0)"/>
    </g>
   </g>
   <g id="text_19">
    <!-- Dui/Zhe -->
    <g style="fill: #ffffff" transform="translate(350.353801 364.962746) scale(0.07 -0.07)">
     <defs>
      <path id="DejaVuSans-Bold-44" d="M 1791 3756 
L 1791 909 
L 2222 909 
Q 2959 909 3348 1275 
Q 3738 1641 3738 2338 
Q 3738 3031 3350 3393 
Q 2963 3756 2222 3756 
L 1791 3756 
z
M 588 4666 
L 1856 4666 
Q 2919 4666 3439 4514 
Q 3959 4363 4331 4000 
Q 4659 3684 4818 3271 
Q 4978 2859 4978 2338 
Q 4978 1809 4818 1395 
Q 4659 981 4331 666 
Q 3956 303 3431 151 
Q 2906 0 1856 0 
L 588 0 
L 588 4666 
z
" transform="scale(0.015625)"/>
     </defs>
     <use xlink:href="#DejaVuSans-Bold-44"/>
     <use xlink:href="#DejaVuSans-Bold-75" transform="translate(83.007812 0)"/>
     <use xlink:href="#DejaVuSans-Bold-69" transform="translate(154.199219 0)"/>
     <use xlink:href="#DejaVuSans-Bold-2f" transform="translate(188.476562 0)"/>
     <use xlink:href="#DejaVuSans-Bold-5a" transform="translate(225 0)"/>
     <use xlink:href="#DejaVuSans-Bold-68" transform="translate(297.509766 0)"/>
     <use xlink:href="#DejaVuSans-Bold-65" transform="translate(368.701172 0)"/>
    </g>
   </g>
   <g id="text_20">
    <!-- 0011 -->
    <g style="fill: #333333" transform="translate(358.408566 400.530357) scale(0.06 -0.06)">
     <use xlink:href="#DejaVuSansMono-30"/>
     <use xlink:href="#DejaVuSansMono-30" transform="translate(60.205078 0)"/>
     <use xlink:href="#DejaVuSansMono-31" transform="translate(120.410156 0)"/>
     <use xlink:href="#DejaVuSansMono-31" transform="translate(180.615234 0)"/>
    </g>
   </g>
   <g id="text_21">
    <!-- Gen/Kan -->
    <g style="fill: #ffffff" transform="translate(277.897656 453.903923) scale(0.07 -0.07)">
     <defs>
      <path id="DejaVuSans-Bold-47" d="M 4781 347 
Q 4331 128 3847 18 
Q 3363 -91 2847 -91 
Q 1681 -91 1000 561 
Q 319 1213 319 2328 
Q 319 3456 1012 4103 
Q 1706 4750 2913 4750 
Q 3378 4750 3804 4662 
Q 4231 4575 4609 4403 
L 4609 3438 
Q 4219 3659 3833 3768 
Q 3447 3878 3059 3878 
Q 2341 3878 1952 3476 
Q 1563 3075 1563 2328 
Q 1563 1588 1938 1184 
Q 2313 781 3003 781 
Q 3191 781 3352 804 
Q 3513 828 3641 878 
L 3641 1784 
L 2906 1784 
L 2906 2591 
L 4781 2591 
L 4781 347 
z
" transform="scale(0.015625)"/>
     </defs>
     <use xlink:href="#DejaVuSans-Bold-47"/>
     <use xlink:href="#DejaVuSans-Bold-65" transform="translate(82.080078 0)"/>
     <use xlink:href="#DejaVuSans-Bold-6e" transform="translate(149.902344 0)"/>
     <use xlink:href="#DejaVuSans-Bold-2f" transform="translate(221.09375 0)"/>
     <use xlink:href="#DejaVuSans-Bold-4b" transform="translate(257.617188 0)"/>
     <use xlink:href="#DejaVuSans-Bold-61" transform="translate(335.107422 0)"/>
     <use xlink:href="#DejaVuSans-Bold-6e" transform="translate(402.587891 0)"/>
    </g>
   </g>
   <g id="text_22">
    <!-- 0100 -->
    <g style="fill: #333333" transform="translate(287.255625 489.471533) scale(0.06 -0.06)">
     <use xlink:href="#DejaVuSansMono-30"/>
     <use xlink:href="#DejaVuSansMono-31" transform="translate(60.205078 0)"/>
     <use xlink:href="#DejaVuSansMono-30" transform="translate(120.410156 0)"/>
     <use xlink:href="#DejaVuSansMono-30" transform="translate(180.615234 0)"/>
    </g>
   </g>
   <g id="text_23">
    <!-- Li/Kan -->
    <g style="fill: #ffffff" transform="translate(282.205937 364.962746) scale(0.07 -0.07)">
     <use xlink:href="#DejaVuSans-Bold-4c"/>
     <use xlink:href="#DejaVuSans-Bold-69" transform="translate(63.720703 0)"/>
     <use xlink:href="#DejaVuSans-Bold-2f" transform="translate(97.998047 0)"/>
     <use xlink:href="#DejaVuSans-Bold-4b" transform="translate(134.521484 0)"/>
     <use xlink:href="#DejaVuSans-Bold-61" transform="translate(212.011719 0)"/>
     <use xlink:href="#DejaVuSans-Bold-6e" transform="translate(279.492188 0)"/>
    </g>
   </g>
   <g id="text_24">
    <!-- 0101 -->
    <g style="fill: #333333" transform="translate(287.255625 400.530357) scale(0.06 -0.06)">
     <use xlink:href="#DejaVuSansMono-30"/>
     <use xlink:href="#DejaVuSansMono-31" transform="translate(60.205078 0)"/>
     <use xlink:href="#DejaVuSansMono-30" transform="translate(120.410156 0)"/>
     <use xlink:href="#DejaVuSansMono-31" transform="translate(180.615234 0)"/>
    </g>
   </g>
   <g id="text_25">
    <!-- Xun/Dui -->
    <g style="fill: #ffffff" transform="translate(536.852459 409.433335) scale(0.07 -0.07)">
     <defs>
      <path id="DejaVuSans-Bold-58" d="M 3188 2381 
L 4806 0 
L 3553 0 
L 2463 1594 
L 1381 0 
L 122 0 
L 1741 2381 
L 184 4666 
L 1441 4666 
L 2463 3163 
L 3481 4666 
L 4744 4666 
L 3188 2381 
z
" transform="scale(0.015625)"/>
     </defs>
     <use xlink:href="#DejaVuSans-Bold-58"/>
     <use xlink:href="#DejaVuSans-Bold-75" transform="translate(77.099609 0)"/>
     <use xlink:href="#DejaVuSans-Bold-6e" transform="translate(148.291016 0)"/>
     <use xlink:href="#DejaVuSans-Bold-2f" transform="translate(219.482422 0)"/>
     <use xlink:href="#DejaVuSans-Bold-44" transform="translate(256.005859 0)"/>
     <use xlink:href="#DejaVuSans-Bold-75" transform="translate(339.013672 0)"/>
     <use xlink:href="#DejaVuSans-Bold-69" transform="translate(410.205078 0)"/>
    </g>
   </g>
   <g id="text_26">
    <!-- 0110 -->
    <g style="fill: #333333" transform="translate(545.185037 445.000945) scale(0.06 -0.06)">
     <use xlink:href="#DejaVuSansMono-30"/>
     <use xlink:href="#DejaVuSansMono-31" transform="translate(60.205078 0)"/>
     <use xlink:href="#DejaVuSansMono-31" transform="translate(120.410156 0)"/>
     <use xlink:href="#DejaVuSansMono-30" transform="translate(180.615234 0)"/>
    </g>
   </g>
   <g id="text_27">
    <!-- Qia/Dui -->
    <g style="fill: #ffffff" transform="translate(537.996521 320.492158) scale(0.07 -0.07)">
     <use xlink:href="#DejaVuSans-Bold-51"/>
     <use xlink:href="#DejaVuSans-Bold-69" transform="translate(85.009766 0)"/>
     <use xlink:href="#DejaVuSans-Bold-61" transform="translate(119.287109 0)"/>
     <use xlink:href="#DejaVuSans-Bold-2f" transform="translate(186.767578 0)"/>
     <use xlink:href="#DejaVuSans-Bold-44" transform="translate(223.291016 0)"/>
     <use xlink:href="#DejaVuSans-Bold-75" transform="translate(306.298828 0)"/>
     <use xlink:href="#DejaVuSans-Bold-69" transform="translate(377.490234 0)"/>
    </g>
   </g>
   <g id="text_28">
    <!-- 0111 -->
    <g style="fill: #333333" transform="translate(545.185037 356.059768) scale(0.06 -0.06)">
     <use xlink:href="#DejaVuSansMono-30"/>
     <use xlink:href="#DejaVuSansMono-31" transform="translate(60.205078 0)"/>
     <use xlink:href="#DejaVuSansMono-31" transform="translate(120.410156 0)"/>
     <use xlink:href="#DejaVuSansMono-31" transform="translate(180.615234 0)"/>
    </g>
   </g>
   <g id="text_29">
    <!-- Kun/Gen -->
    <g style="fill: #ffffff" transform="translate(91.052826 231.550982) scale(0.07 -0.07)">
     <use xlink:href="#DejaVuSans-Bold-4b"/>
     <use xlink:href="#DejaVuSans-Bold-75" transform="translate(75.740234 0)"/>
     <use xlink:href="#DejaVuSans-Bold-6e" transform="translate(146.931641 0)"/>
     <use xlink:href="#DejaVuSans-Bold-2f" transform="translate(218.123047 0)"/>
     <use xlink:href="#DejaVuSans-Bold-47" transform="translate(254.646484 0)"/>
     <use xlink:href="#DejaVuSans-Bold-65" transform="translate(336.726562 0)"/>
     <use xlink:href="#DejaVuSans-Bold-6e" transform="translate(404.548828 0)"/>
    </g>
   </g>
   <g id="text_30">
    <!-- 1000 -->
    <g style="fill: #333333" transform="translate(100.479154 267.118592) scale(0.06 -0.06)">
     <use xlink:href="#DejaVuSansMono-31"/>
     <use xlink:href="#DejaVuSansMono-30" transform="translate(60.205078 0)"/>
     <use xlink:href="#DejaVuSansMono-30" transform="translate(120.410156 0)"/>
     <use xlink:href="#DejaVuSansMono-30" transform="translate(180.615234 0)"/>
    </g>
   </g>
   <g id="text_31">
    <!-- Zhe/Gen -->
    <g style="fill: #ffffff" transform="translate(91.283061 142.609805) scale(0.07 -0.07)">
     <use xlink:href="#DejaVuSans-Bold-5a"/>
     <use xlink:href="#DejaVuSans-Bold-68" transform="translate(72.509766 0)"/>
     <use xlink:href="#DejaVuSans-Bold-65" transform="translate(143.701172 0)"/>
     <use xlink:href="#DejaVuSans-Bold-2f" transform="translate(211.523438 0)"/>
     <use xlink:href="#DejaVuSans-Bold-47" transform="translate(248.046875 0)"/>
     <use xlink:href="#DejaVuSans-Bold-65" transform="translate(330.126953 0)"/>
     <use xlink:href="#DejaVuSans-Bold-6e" transform="translate(397.949219 0)"/>
    </g>
   </g>
   <g id="text_32">
    <!-- 1001 -->
    <g style="fill: #333333" transform="translate(100.479154 178.177415) scale(0.06 -0.06)">
     <use xlink:href="#DejaVuSansMono-31"/>
     <use xlink:href="#DejaVuSansMono-30" transform="translate(60.205078 0)"/>
     <use xlink:href="#DejaVuSansMono-30" transform="translate(120.410156 0)"/>
     <use xlink:href="#DejaVuSansMono-31" transform="translate(180.615234 0)"/>
    </g>
   </g>
   <g id="text_33">
    <!-- Kan/Li -->
    <g style="fill: #ffffff" transform="translate(353.358879 276.02157) scale(0.07 -0.07)">
     <use xlink:href="#DejaVuSans-Bold-4b"/>
     <use xlink:href="#DejaVuSans-Bold-61" transform="translate(77.490234 0)"/>
     <use xlink:href="#DejaVuSans-Bold-6e" transform="translate(144.970703 0)"/>
     <use xlink:href="#DejaVuSans-Bold-2f" transform="translate(216.162109 0)"/>
     <use xlink:href="#DejaVuSans-Bold-4c" transform="translate(252.685547 0)"/>
     <use xlink:href="#DejaVuSans-Bold-69" transform="translate(316.40625 0)"/>
    </g>
   </g>
   <g id="text_34">
    <!-- 1010 -->
    <g style="fill: #333333" transform="translate(358.408566 311.58918) scale(0.06 -0.06)">
     <use xlink:href="#DejaVuSansMono-31"/>
     <use xlink:href="#DejaVuSansMono-30" transform="translate(60.205078 0)"/>
     <use xlink:href="#DejaVuSansMono-31" transform="translate(120.410156 0)"/>
     <use xlink:href="#DejaVuSansMono-30" transform="translate(180.615234 0)"/>
    </g>
   </g>
   <g id="text_35">
    <!-- Dui/Li -->
    <g style="fill: #ffffff" transform="translate(354.327394 187.080393) scale(0.07 -0.07)">
     <use xlink:href="#DejaVuSans-Bold-44"/>
     <use xlink:href="#DejaVuSans-Bold-75" transform="translate(83.007812 0)"/>
     <use xlink:href="#DejaVuSans-Bold-69" transform="translate(154.199219 0)"/>
     <use xlink:href="#DejaVuSans-Bold-2f" transform="translate(188.476562 0)"/>
     <use xlink:href="#DejaVuSans-Bold-4c" transform="translate(225 0)"/>
     <use xlink:href="#DejaVuSans-Bold-69" transform="translate(288.720703 0)"/>
    </g>
   </g>
   <g id="text_36">
    <!-- 1011 -->
    <g style="fill: #333333" transform="translate(358.408566 222.648004) scale(0.06 -0.06)">
     <use xlink:href="#DejaVuSansMono-31"/>
     <use xlink:href="#DejaVuSansMono-30" transform="translate(60.205078 0)"/>
     <use xlink:href="#DejaVuSansMono-31" transform="translate(120.410156 0)"/>
     <use xlink:href="#DejaVuSansMono-31" transform="translate(180.615234 0)"/>
    </g>
   </g>
   <g id="text_37">
    <!-- Gen/Xun -->
    <g style="fill: #ffffff" transform="translate(277.781719 276.02157) scale(0.07 -0.07)">
     <use xlink:href="#DejaVuSans-Bold-47"/>
     <use xlink:href="#DejaVuSans-Bold-65" transform="translate(82.080078 0)"/>
     <use xlink:href="#DejaVuSans-Bold-6e" transform="translate(149.902344 0)"/>
     <use xlink:href="#DejaVuSans-Bold-2f" transform="translate(221.09375 0)"/>
     <use xlink:href="#DejaVuSans-Bold-58" transform="translate(257.617188 0)"/>
     <use xlink:href="#DejaVuSans-Bold-75" transform="translate(334.716797 0)"/>
     <use xlink:href="#DejaVuSans-Bold-6e" transform="translate(405.908203 0)"/>
    </g>
   </g>
   <g id="text_38">
    <!-- 1100 -->
    <g style="fill: #333333" transform="translate(287.255625 311.58918) scale(0.06 -0.06)">
     <use xlink:href="#DejaVuSansMono-31"/>
     <use xlink:href="#DejaVuSansMono-31" transform="translate(60.205078 0)"/>
     <use xlink:href="#DejaVuSansMono-30" transform="translate(120.410156 0)"/>
     <use xlink:href="#DejaVuSansMono-30" transform="translate(180.615234 0)"/>
    </g>
   </g>
   <g id="text_39">
    <!-- Li/Xun -->
    <g style="fill: #ffffff" transform="translate(282.09 187.080393) scale(0.07 -0.07)">
     <use xlink:href="#DejaVuSans-Bold-4c"/>
     <use xlink:href="#DejaVuSans-Bold-69" transform="translate(63.720703 0)"/>
     <use xlink:href="#DejaVuSans-Bold-2f" transform="translate(97.998047 0)"/>
     <use xlink:href="#DejaVuSans-Bold-58" transform="translate(134.521484 0)"/>
     <use xlink:href="#DejaVuSans-Bold-75" transform="translate(211.621094 0)"/>
     <use xlink:href="#DejaVuSans-Bold-6e" transform="translate(282.8125 0)"/>
    </g>
   </g>
   <g id="text_40">
    <!-- 1101 -->
    <g style="fill: #333333" transform="translate(287.255625 222.648004) scale(0.06 -0.06)">
     <use xlink:href="#DejaVuSansMono-31"/>
     <use xlink:href="#DejaVuSansMono-31" transform="translate(60.205078 0)"/>
     <use xlink:href="#DejaVuSansMono-30" transform="translate(120.410156 0)"/>
     <use xlink:href="#DejaVuSansMono-31" transform="translate(180.615234 0)"/>
    </g>
   </g>
   <g id="text_41">
    <!-- Xun/Qia -->
    <g style="fill: #ffffff" transform="translate(536.912068 231.550982) scale(0.07 -0.07)">
     <use xlink:href="#DejaVuSans-Bold-58"/>
     <use xlink:href="#DejaVuSans-Bold-75" transform="translate(77.099609 0)"/>
     <use xlink:href="#DejaVuSans-Bold-6e" transform="translate(148.291016 0)"/>
     <use xlink:href="#DejaVuSans-Bold-2f" transform="translate(219.482422 0)"/>
     <use xlink:href="#DejaVuSans-Bold-51" transform="translate(256.005859 0)"/>
     <use xlink:href="#DejaVuSans-Bold-69" transform="translate(341.015625 0)"/>
     <use xlink:href="#DejaVuSans-Bold-61" transform="translate(375.292969 0)"/>
    </g>
   </g>
   <g id="text_42">
    <!-- 1110 -->
    <g style="fill: #333333" transform="translate(545.185037 267.118592) scale(0.06 -0.06)">
     <use xlink:href="#DejaVuSansMono-31"/>
     <use xlink:href="#DejaVuSansMono-31" transform="translate(60.205078 0)"/>
     <use xlink:href="#DejaVuSansMono-31" transform="translate(120.410156 0)"/>
     <use xlink:href="#DejaVuSansMono-30" transform="translate(180.615234 0)"/>
    </g>
   </g>
   <g id="text_43">
    <!-- Qia/Qia -->
    <g style="fill: #ffffff" transform="translate(538.056131 142.609805) scale(0.07 -0.07)">
     <use xlink:href="#DejaVuSans-Bold-51"/>
     <use xlink:href="#DejaVuSans-Bold-69" transform="translate(85.009766 0)"/>
     <use xlink:href="#DejaVuSans-Bold-61" transform="translate(119.287109 0)"/>
     <use xlink:href="#DejaVuSans-Bold-2f" transform="translate(186.767578 0)"/>
     <use xlink:href="#DejaVuSans-Bold-51" transform="translate(223.291016 0)"/>
     <use xlink:href="#DejaVuSans-Bold-69" transform="translate(308.300781 0)"/>
     <use xlink:href="#DejaVuSans-Bold-61" transform="translate(342.578125 0)"/>
    </g>
   </g>
   <g id="text_44">
    <!-- 1111 -->
    <g style="fill: #333333" transform="translate(545.185037 178.177415) scale(0.06 -0.06)">
     <use xlink:href="#DejaVuSansMono-31"/>
     <use xlink:href="#DejaVuSansMono-31" transform="translate(60.205078 0)"/>
     <use xlink:href="#DejaVuSansMono-31" transform="translate(120.410156 0)"/>
     <use xlink:href="#DejaVuSansMono-31" transform="translate(180.615234 0)"/>
    </g>
   </g>
  </g>
 </g>
 <defs>
  <clipPath id="p185ce40e23">
   <rect x="7.2" y="48.624125" width="645.712941" height="498.96"/>
  </clipPath>
 </defs>
</svg>
