<?xml version="1.0" encoding="utf-8" standalone="no"?>
<!DOCTYPE svg PUBLIC "-//W3C//DTD SVG 1.1//EN"
  "http://www.w3.org/Graphics/SVG/1.1/DTD/svg11.dtd">
<svg xmlns:xlink="http://www.w3.org/1999/xlink" width="660.112941pt" height="554.67475pt" viewBox="0 0 660.112941 554.67475" xmlns="http://www.w3.org/2000/svg" version="1.1">
 <metadata>
  <rdf:RDF xmlns:dc="http://purl.org/dc/elements/1.1/" xmlns:cc="http://creativecommons.org/ns#" xmlns:rdf="http://www.w3.org/1999/02/22-rdf-syntax-ns#">
   <cc:Work>
    <dc:type rdf:resource="http://purl.org/dc/dcmitype/StillImage"/>
    <dc:date>2026-03-02T17:25:35.786183</dc:date>
    <dc:format>image/svg+xml</dc:format>
    <dc:creator>
     <cc:Agent>
      <dc:title>Matplotlib v3.10.8, https://matplotlib.org/</dc:title>
     </cc:Agent>
    </dc:creator>
   </cc:Work>
  </rdf:RDF>
 </metadata>
 <defs>
  <style type="text/css">*{stroke-linejoin: round; stroke-linecap: butt}</style>
 </defs>
 <g id="figure_1">
  <g id="patch_1">
   <path d="M 0 554.67475 
L 660.112941 554.67475 
L 660.112941 0 
L 0 0 
z
" style="fill: #ffffff"/>
  </g>
  <g id="axes_1">
   <g id="patch_2">
    <path d="M 54.338824 480.324162 
L 161.068235 480.324162 
Q 178.856471 480.324162 178.856471 462.535926 
L 178.856471 88.982985 
Q 178.856471 71.19475 161.068235 71.19475 
L 54.338824 71.19475 
Q 36.550588 71.19475 36.550588 88.982985 
L 36.550588 462.535926 
Q 36.550588 480.324162 54.338824 480.324162 
z
" clip-path="url(#pcf341c4e9f)" style="fill: #aaccee; opacity: 0.3; stroke: #4488cc; stroke-width: 1.5; stroke-linejoin: miter"/>
   </g>
   <g id="patch_3">
    <path d="M 241.115294 524.79475 
L 418.997647 524.79475 
Q 436.785882 524.79475 436.785882 507.006515 
L 436.785882 133.453574 
Q 436.785882 115.665338 418.997647 115.665338 
L 241.115294 115.665338 
Q 223.327059 115.665338 223.327059 133.453574 
L 223.327059 507.006515 
Q 223.327059 524.79475 241.115294 524.79475 
z
" clip-path="url(#pcf341c4e9f)" style="fill: #aaddbb; opacity: 0.3; stroke: #44aa66; stroke-width: 1.5; stroke-linejoin: miter"/>
   </g>
   <g id="patch_4">
    <path d="M 499.044706 480.324162 
L 605.774118 480.324162 
Q 623.562353 480.324162 623.562353 462.535926 
L 623.562353 88.982985 
Q 623.562353 71.19475 605.774118 71.19475 
L 499.044706 71.19475 
Q 481.256471 71.19475 481.256471 88.982985 
L 481.256471 462.535926 
Q 481.256471 480.324162 499.044706 480.324162 
z
" clip-path="url(#pcf341c4e9f)" style="fill: #eeaaaa; opacity: 0.3; stroke: #cc4444; stroke-width: 1.5; stroke-linejoin: miter"/>
   </g>
   <g id="text_1">
    <!-- Kun -->
    <g style="fill: #4488cc" transform="translate(95.707514 60.012976) scale(0.11 -0.11)">
     <defs>
      <path id="DejaVuSans-Bold-4b" d="M 588 4666 
L 1791 4666 
L 1791 2963 
L 3525 4666 
L 4922 4666 
L 2675 2456 
L 5153 0 
L 3647 0 
L 1791 1838 
L 1791 0 
L 588 0 
L 588 4666 
z
" transform="scale(0.015625)"/>
      <path id="DejaVuSans-Bold-75" d="M 500 1363 
L 500 3500 
L 1625 3500 
L 1625 3150 
Q 1625 2866 1622 2436 
Q 1619 2006 1619 1863 
Q 1619 1441 1641 1255 
Q 1663 1069 1716 984 
Q 1784 875 1895 815 
Q 2006 756 2150 756 
Q 2500 756 2700 1025 
Q 2900 1294 2900 1772 
L 2900 3500 
L 4019 3500 
L 4019 0 
L 2900 0 
L 2900 506 
Q 2647 200 2364 54 
Q 2081 -91 1741 -91 
Q 1134 -91 817 281 
Q 500 653 500 1363 
z
" transform="scale(0.015625)"/>
      <path id="DejaVuSans-Bold-6e" d="M 4056 2131 
L 4056 0 
L 2931 0 
L 2931 347 
L 2931 1631 
Q 2931 2084 2911 2256 
Q 2891 2428 2841 2509 
Q 2775 2619 2662 2680 
Q 2550 2741 2406 2741 
Q 2056 2741 1856 2470 
Q 1656 2200 1656 1722 
L 1656 0 
L 538 0 
L 538 3500 
L 1656 3500 
L 1656 2988 
Q 1909 3294 2193 3439 
Q 2478 3584 2822 3584 
Q 3428 3584 3742 3212 
Q 4056 2841 4056 2131 
z
" transform="scale(0.015625)"/>
     </defs>
     <use xlink:href="#DejaVuSans-Bold-4b"/>
     <use xlink:href="#DejaVuSans-Bold-75" transform="translate(75.740234 0)"/>
     <use xlink:href="#DejaVuSans-Bold-6e" transform="translate(146.931641 0)"/>
    </g>
   </g>
   <g id="text_2">
    <!-- KanLi -->
    <g style="fill: #44aa66" transform="translate(312.777877 104.483564) scale(0.11 -0.11)">
     <defs>
      <path id="DejaVuSans-Bold-61" d="M 2106 1575 
Q 1756 1575 1579 1456 
Q 1403 1338 1403 1106 
Q 1403 894 1545 773 
Q 1688 653 1941 653 
Q 2256 653 2472 879 
Q 2688 1106 2688 1447 
L 2688 1575 
L 2106 1575 
z
M 3816 1997 
L 3816 0 
L 2688 0 
L 2688 519 
Q 2463 200 2181 54 
Q 1900 -91 1497 -91 
Q 953 -91 614 226 
Q 275 544 275 1050 
Q 275 1666 698 1953 
Q 1122 2241 2028 2241 
L 2688 2241 
L 2688 2328 
Q 2688 2594 2478 2717 
Q 2269 2841 1825 2841 
Q 1466 2841 1156 2769 
Q 847 2697 581 2553 
L 581 3406 
Q 941 3494 1303 3539 
Q 1666 3584 2028 3584 
Q 2975 3584 3395 3211 
Q 3816 2838 3816 1997 
z
" transform="scale(0.015625)"/>
      <path id="DejaVuSans-Bold-4c" d="M 588 4666 
L 1791 4666 
L 1791 909 
L 3903 909 
L 3903 0 
L 588 0 
L 588 4666 
z
" transform="scale(0.015625)"/>
      <path id="DejaVuSans-Bold-69" d="M 538 3500 
L 1656 3500 
L 1656 0 
L 538 0 
L 538 3500 
z
M 538 4863 
L 1656 4863 
L 1656 3950 
L 538 3950 
L 538 4863 
z
" transform="scale(0.015625)"/>
     </defs>
     <use xlink:href="#DejaVuSans-Bold-4b"/>
     <use xlink:href="#DejaVuSans-Bold-61" transform="translate(77.490234 0)"/>
     <use xlink:href="#DejaVuSans-Bold-6e" transform="translate(144.970703 0)"/>
     <use xlink:href="#DejaVuSans-Bold-4c" transform="translate(216.162109 0)"/>
     <use xlink:href="#DejaVuSans-Bold-69" transform="translate(279.882812 0)"/>
    </g>
   </g>
   <g id="text_3">
    <!-- Qian -->
    <g style="fill: #cc4444" transform="translate(538.221131 60.012976) scale(0.11 -0.11)">
     <defs>
      <path id="DejaVuSans-Bold-51" d="M 2847 -84 
L 2753 -84 
Q 1600 -84 959 553 
Q 319 1191 319 2328 
Q 319 3463 958 4106 
Q 1597 4750 2719 4750 
Q 3853 4750 4486 4112 
Q 5119 3475 5119 2328 
Q 5119 1541 4783 972 
Q 4447 403 3816 116 
L 4756 -934 
L 3609 -934 
L 2847 -84 
z
M 2719 3878 
Q 2169 3878 1866 3472 
Q 1563 3066 1563 2328 
Q 1563 1578 1859 1179 
Q 2156 781 2719 781 
Q 3272 781 3575 1187 
Q 3878 1594 3878 2328 
Q 3878 3066 3575 3472 
Q 3272 3878 2719 3878 
z
" transform="scale(0.015625)"/>
     </defs>
     <use xlink:href="#DejaVuSans-Bold-51"/>
     <use xlink:href="#DejaVuSans-Bold-69" transform="translate(85.009766 0)"/>
     <use xlink:href="#DejaVuSans-Bold-61" transform="translate(119.287109 0)"/>
     <use xlink:href="#DejaVuSans-Bold-6e" transform="translate(186.767578 0)"/>
    </g>
   </g>
   <g id="patch_5">
    <path d="M 550.468787 142.843176 
Q 290.328436 209.545303 110.028001 406.62737 
" clip-path="url(#pcf341c4e9f)" style="fill: none; opacity: 0.7; stroke: #22aa44; stroke-width: 1.6; stroke-linecap: round"/>
    <path d="M 117.029262 404.900423 
L 110.028001 406.62737 
L 111.126689 399.500457 
" clip-path="url(#pcf341c4e9f)" style="fill: none; opacity: 0.7; stroke: #22aa44; stroke-width: 1.6; stroke-linecap: round"/>
   </g>
   <g id="patch_6">
    <path d="M 107.90026 407.181661 
Q 116.400955 320.229653 108.040512 234.713023 
" clip-path="url(#pcf341c4e9f)" style="fill: none; opacity: 0.7; stroke: #aaaaaa; stroke-width: 1.6; stroke-linecap: round"/>
    <path d="M 104.643292 241.073754 
L 108.040512 234.713023 
L 112.605333 240.295353 
" clip-path="url(#pcf341c4e9f)" style="fill: none; opacity: 0.7; stroke: #aaaaaa; stroke-width: 1.6; stroke-linecap: round"/>
   </g>
   <g id="patch_7">
    <path d="M 107.140254 233.207856 
Q 94.925784 275.758912 106.742026 316.923728 
" clip-path="url(#pcf341c4e9f)" style="fill: none; opacity: 0.7; stroke: #cc3333; stroke-width: 1.6; stroke-linecap: round"/>
    <path d="M 108.931333 310.052998 
L 106.742026 316.923728 
L 101.241854 312.26024 
" clip-path="url(#pcf341c4e9f)" style="fill: none; opacity: 0.7; stroke: #cc3333; stroke-width: 1.6; stroke-linecap: round"/>
   </g>
   <g id="patch_8">
    <path d="M 109.561431 319.491516 
Q 243.246193 266.245869 362.743458 188.695106 
" clip-path="url(#pcf341c4e9f)" style="fill: none; opacity: 0.7; stroke: #cc3333; stroke-width: 1.6; stroke-linecap: round"/>
    <path d="M 355.532905 188.606064 
L 362.743458 188.695106 
L 359.887977 195.316754 
" clip-path="url(#pcf341c4e9f)" style="fill: none; opacity: 0.7; stroke: #cc3333; stroke-width: 1.6; stroke-linecap: round"/>
   </g>
   <g id="patch_9">
    <path d="M 363.709067 186.256723 
Q 330.055814 176.706708 299.177427 185.469622 
" clip-path="url(#pcf341c4e9f)" style="fill: none; opacity: 0.7; stroke: #cc3333; stroke-width: 3.2; stroke-linecap: round"/>
    <path d="M 306.041528 187.679625 
L 299.177427 185.469622 
L 303.857469 179.98353 
" clip-path="url(#pcf341c4e9f)" style="fill: none; opacity: 0.7; stroke: #cc3333; stroke-width: 3.2; stroke-linecap: round"/>
   </g>
   <g id="patch_10">
    <path d="M 292.743534 187.815838 
Q 194.534515 244.34695 110.293739 317.964205 
" clip-path="url(#pcf341c4e9f)" style="fill: none; opacity: 0.7; stroke: #22aa44; stroke-width: 1.6; stroke-linecap: round"/>
    <path d="M 117.443807 317.027977 
L 110.293739 317.964205 
L 112.179555 311.004054 
" clip-path="url(#pcf341c4e9f)" style="fill: none; opacity: 0.7; stroke: #22aa44; stroke-width: 1.6; stroke-linecap: round"/>
   </g>
   <g id="patch_11">
    <path d="M 107.140254 318.311056 
Q 94.925784 275.76 106.344109 235.981424 
" clip-path="url(#pcf341c4e9f)" style="fill: none; opacity: 0.7; stroke: #cc3333; stroke-width: 3.2; stroke-linecap: round"/>
    <path d="M 100.843938 240.644912 
L 106.344109 235.981424 
L 108.533417 242.852154 
" clip-path="url(#pcf341c4e9f)" style="fill: none; opacity: 0.7; stroke: #cc3333; stroke-width: 3.2; stroke-linecap: round"/>
   </g>
   <g id="patch_12">
    <path d="M 109.701042 231.145158 
Q 238.857822 221.755173 362.311582 187.735111 
" clip-path="url(#pcf341c4e9f)" style="fill: none; opacity: 0.7; stroke: #22aa44; stroke-width: 1.6; stroke-linecap: round"/>
    <path d="M 355.464526 185.472852 
L 362.311582 187.735111 
L 357.589859 193.185371 
" clip-path="url(#pcf341c4e9f)" style="fill: none; opacity: 0.7; stroke: #22aa44; stroke-width: 1.6; stroke-linecap: round"/>
   </g>
   <g id="patch_13">
    <path d="M 294.663115 188.807335 
Q 303.901943 286.219104 363.499622 361.997081 
" clip-path="url(#pcf341c4e9f)" style="fill: none; opacity: 0.7; stroke: #cc3333; stroke-width: 1.6; stroke-linecap: round"/>
    <path d="M 362.934575 354.808151 
L 363.499622 361.997081 
L 356.64636 359.75369 
" clip-path="url(#pcf341c4e9f)" style="fill: none; opacity: 0.7; stroke: #cc3333; stroke-width: 1.6; stroke-linecap: round"/>
   </g>
   <g id="patch_14">
    <path d="M 364.877616 362.852171 
Q 342.956915 309.91095 297.298141 277.734093 
" clip-path="url(#pcf341c4e9f)" style="fill: none; opacity: 0.7; stroke: #22aa44; stroke-width: 1.6; stroke-linecap: round"/>
    <path d="M 299.898417 284.460055 
L 297.298141 277.734093 
L 304.506828 277.920747 
" clip-path="url(#pcf341c4e9f)" style="fill: none; opacity: 0.7; stroke: #22aa44; stroke-width: 1.6; stroke-linecap: round"/>
   </g>
   <g id="patch_15">
    <path d="M 296.477512 275.615746 
Q 425.634292 266.225761 549.088053 232.2057 
" clip-path="url(#pcf341c4e9f)" style="fill: none; opacity: 0.7; stroke: #cc3333; stroke-width: 1.6; stroke-linecap: round"/>
    <path d="M 542.240996 229.94344 
L 549.088053 232.2057 
L 544.36633 237.655959 
" clip-path="url(#pcf341c4e9f)" style="fill: none; opacity: 0.7; stroke: #cc3333; stroke-width: 1.6; stroke-linecap: round"/>
   </g>
   <g id="patch_16">
    <path d="M 551.846136 233.207856 
Q 539.631667 275.758912 550.851034 314.844367 
" clip-path="url(#pcf341c4e9f)" style="fill: none; opacity: 0.7; stroke: #cc3333; stroke-width: 4; stroke-linecap: round"/>
    <path d="M 553.040341 307.973637 
L 550.851034 314.844367 
L 545.350862 310.18088 
" clip-path="url(#pcf341c4e9f)" style="fill: none; opacity: 0.7; stroke: #cc3333; stroke-width: 4; stroke-linecap: round"/>
   </g>
   <g id="patch_17">
    <path d="M 550.672946 321.227602 
Q 452.463927 377.758715 368.22315 451.375969 
" clip-path="url(#pcf341c4e9f)" style="fill: none; opacity: 0.7; stroke: #22aa44; stroke-width: 1.6; stroke-linecap: round"/>
    <path d="M 375.373219 450.439742 
L 368.22315 451.375969 
L 370.108967 444.415819 
" clip-path="url(#pcf341c4e9f)" style="fill: none; opacity: 0.7; stroke: #22aa44; stroke-width: 1.6; stroke-linecap: round"/>
   </g>
   <g id="patch_18">
    <path d="M 363.709067 453.080252 
Q 330.055814 443.530238 297.789994 452.686888 
" clip-path="url(#pcf341c4e9f)" style="fill: none; opacity: 0.7; stroke: #cc3333; stroke-width: 1.6; stroke-linecap: round"/>
    <path d="M 304.654095 454.896892 
L 297.789994 452.686888 
L 302.470036 447.200796 
" clip-path="url(#pcf341c4e9f)" style="fill: none; opacity: 0.7; stroke: #cc3333; stroke-width: 1.6; stroke-linecap: round"/>
   </g>
   <g id="patch_19">
    <path d="M 294.676731 451.652249 
Q 303.177425 364.700242 294.816982 279.183611 
" clip-path="url(#pcf341c4e9f)" style="fill: none; opacity: 0.7; stroke: #aaaaaa; stroke-width: 1.6; stroke-linecap: round"/>
    <path d="M 291.419762 285.544342 
L 294.816982 279.183611 
L 299.381803 284.765942 
" clip-path="url(#pcf341c4e9f)" style="fill: none; opacity: 0.7; stroke: #aaaaaa; stroke-width: 1.6; stroke-linecap: round"/>
   </g>
   <g id="patch_20">
    <path d="M 296.117574 276.902119 
Q 342.955685 309.909412 363.773333 360.185263 
" clip-path="url(#pcf341c4e9f)" style="fill: none; opacity: 0.7; stroke: #22aa44; stroke-width: 3.2; stroke-linecap: round"/>
    <path d="M 365.173626 353.111425 
L 363.773333 360.185263 
L 357.782211 356.171978 
" clip-path="url(#pcf341c4e9f)" style="fill: none; opacity: 0.7; stroke: #22aa44; stroke-width: 3.2; stroke-linecap: round"/>
   </g>
   <g id="patch_21">
    <path d="M 363.702634 364.167132 
Q 238.858491 329.763854 111.140146 320.47838 
" clip-path="url(#pcf341c4e9f)" style="fill: none; opacity: 0.7; stroke: #cc3333; stroke-width: 1.6; stroke-linecap: round"/>
    <path d="M 116.834307 324.902919 
L 111.140146 320.47838 
L 117.414397 316.923978 
" clip-path="url(#pcf341c4e9f)" style="fill: none; opacity: 0.7; stroke: #cc3333; stroke-width: 1.6; stroke-linecap: round"/>
   </g>
   <g id="patch_22">
    <path d="M 108.831877 232.939339 
Q 190.124285 351.675428 292.014673 451.234787 
" clip-path="url(#pcf341c4e9f)" style="fill: none; opacity: 0.7; stroke: #aaaaaa; stroke-width: 1.6; stroke-linecap: round"/>
    <path d="M 290.518738 444.180556 
L 292.014673 451.234787 
L 284.927715 449.902484 
" clip-path="url(#pcf341c4e9f)" style="fill: none; opacity: 0.7; stroke: #aaaaaa; stroke-width: 1.6; stroke-linecap: round"/>
   </g>
   <g id="patch_23">
    <path d="M 296.403874 453.080252 
Q 330.057128 443.530238 360.935514 452.293151 
" clip-path="url(#pcf341c4e9f)" style="fill: none; opacity: 0.7; stroke: #cc3333; stroke-width: 3.2; stroke-linecap: round"/>
    <path d="M 356.255472 446.807059 
L 360.935514 452.293151 
L 354.071413 454.503155 
" clip-path="url(#pcf341c4e9f)" style="fill: none; opacity: 0.7; stroke: #cc3333; stroke-width: 3.2; stroke-linecap: round"/>
   </g>
   <g id="patch_24">
    <path d="M 363.702634 453.108308 
Q 238.858491 418.70503 111.140146 409.419557 
" clip-path="url(#pcf341c4e9f)" style="fill: none; opacity: 0.7; stroke: #cc3333; stroke-width: 1.6; stroke-linecap: round"/>
    <path d="M 116.834307 413.844095 
L 111.140146 409.419557 
L 117.414397 405.865155 
" clip-path="url(#pcf341c4e9f)" style="fill: none; opacity: 0.7; stroke: #cc3333; stroke-width: 1.6; stroke-linecap: round"/>
   </g>
   <g id="patch_25">
    <path d="M 109.439995 408.173662 
Q 207.649014 351.64255 291.889791 278.025295 
" clip-path="url(#pcf341c4e9f)" style="fill: none; opacity: 0.7; stroke: #aaaaaa; stroke-width: 1.6; stroke-linecap: round"/>
    <path d="M 284.739722 278.961523 
L 291.889791 278.025295 
L 290.003975 284.985446 
" clip-path="url(#pcf341c4e9f)" style="fill: none; opacity: 0.7; stroke: #aaaaaa; stroke-width: 1.6; stroke-linecap: round"/>
   </g>
   <g id="patch_26">
    <path d="M 363.635429 364.844342 
Q 234.478649 374.234327 111.024889 408.254389 
" clip-path="url(#pcf341c4e9f)" style="fill: none; opacity: 0.7; stroke: #22aa44; stroke-width: 1.6; stroke-linecap: round"/>
    <path d="M 117.871945 410.516648 
L 111.024889 408.254389 
L 115.746612 402.804129 
" clip-path="url(#pcf341c4e9f)" style="fill: none; opacity: 0.7; stroke: #22aa44; stroke-width: 1.6; stroke-linecap: round"/>
   </g>
   <g id="patch_27">
    <path d="M 109.053957 407.692074 
Q 290.327764 209.545706 549.070968 143.201589 
" clip-path="url(#pcf341c4e9f)" style="fill: none; opacity: 0.7; stroke: #22aa44; stroke-width: 1.6; stroke-linecap: round"/>
    <path d="M 542.265486 140.817178 
L 549.070968 143.201589 
L 544.252481 148.566492 
" clip-path="url(#pcf341c4e9f)" style="fill: none; opacity: 0.7; stroke: #22aa44; stroke-width: 1.6; stroke-linecap: round"/>
   </g>
   <g id="patch_28">
    <path d="M 550.417817 142.149424 
Q 330.055389 120.310557 111.12815 142.007403 
" clip-path="url(#pcf341c4e9f)" style="fill: none; opacity: 0.7; stroke: #cc3333; stroke-width: 1.6; stroke-linecap: round"/>
    <path d="M 117.493388 145.39617 
L 111.12815 142.007403 
L 116.704411 137.435171 
" clip-path="url(#pcf341c4e9f)" style="fill: none; opacity: 0.7; stroke: #cc3333; stroke-width: 1.6; stroke-linecap: round"/>
   </g>
   <g id="patch_29">
    <path d="M 109.308123 143.541654 
Q 316.817198 297.824672 548.644706 407.392758 
" clip-path="url(#pcf341c4e9f)" style="fill: none; opacity: 0.7; stroke: #aaaaaa; stroke-width: 2.4; stroke-linecap: round"/>
    <path d="M 544.929288 401.212494 
L 548.644706 407.392758 
L 541.51084 408.44535 
" clip-path="url(#pcf341c4e9f)" style="fill: none; opacity: 0.7; stroke: #aaaaaa; stroke-width: 2.4; stroke-linecap: round"/>
   </g>
   <g id="patch_30">
    <path d="M 552.606142 407.181661 
Q 561.106837 320.229653 552.746394 234.713023 
" clip-path="url(#pcf341c4e9f)" style="fill: none; opacity: 0.7; stroke: #aaaaaa; stroke-width: 1.6; stroke-linecap: round"/>
    <path d="M 549.349174 241.073754 
L 552.746394 234.713023 
L 557.311215 240.295353 
" clip-path="url(#pcf341c4e9f)" style="fill: none; opacity: 0.7; stroke: #aaaaaa; stroke-width: 1.6; stroke-linecap: round"/>
   </g>
   <g id="patch_31">
    <path d="M 551.846136 318.311056 
Q 539.631667 275.76 551.447908 234.595184 
" clip-path="url(#pcf341c4e9f)" style="fill: none; opacity: 0.7; stroke: #cc3333; stroke-width: 1.6; stroke-linecap: round"/>
    <path d="M 545.947737 239.258671 
L 551.447908 234.595184 
L 553.637215 241.465914 
" clip-path="url(#pcf341c4e9f)" style="fill: none; opacity: 0.7; stroke: #cc3333; stroke-width: 1.6; stroke-linecap: round"/>
   </g>
   <g id="patch_32">
    <path d="M 550.55151 320.968572 
Q 416.866748 374.214219 297.974376 451.372422 
" clip-path="url(#pcf341c4e9f)" style="fill: none; opacity: 0.7; stroke: #22aa44; stroke-width: 2.4; stroke-linecap: round"/>
    <path d="M 305.184929 451.461463 
L 297.974376 451.372422 
L 300.829858 444.750773 
" clip-path="url(#pcf341c4e9f)" style="fill: none; opacity: 0.7; stroke: #22aa44; stroke-width: 2.4; stroke-linecap: round"/>
   </g>
   <g id="patch_33">
    <path d="M 365.829672 451.652249 
Q 374.330366 364.700242 366.040088 279.9013 
" clip-path="url(#pcf341c4e9f)" style="fill: none; opacity: 0.7; stroke: #aaaaaa; stroke-width: 2.4; stroke-linecap: round"/>
    <path d="M 362.642868 286.262031 
L 366.040088 279.9013 
L 370.604908 285.48363 
" clip-path="url(#pcf341c4e9f)" style="fill: none; opacity: 0.7; stroke: #aaaaaa; stroke-width: 2.4; stroke-linecap: round"/>
   </g>
   <g id="patch_34">
    <path d="M 363.995367 276.902119 
Q 317.157257 309.909412 296.615483 359.51901 
" clip-path="url(#pcf341c4e9f)" style="fill: none; opacity: 0.7; stroke: #cc3333; stroke-width: 4; stroke-linecap: round"/>
    <path d="M 302.606605 355.505725 
L 296.615483 359.51901 
L 295.215189 352.445172 
" clip-path="url(#pcf341c4e9f)" style="fill: none; opacity: 0.7; stroke: #cc3333; stroke-width: 4; stroke-linecap: round"/>
   </g>
   <g id="patch_35">
    <path d="M 295.235326 362.852171 
Q 317.156026 309.91095 362.8148 277.734093 
" clip-path="url(#pcf341c4e9f)" style="fill: none; opacity: 0.7; stroke: #cc3333; stroke-width: 1.6; stroke-linecap: round"/>
    <path d="M 355.606114 277.920747 
L 362.8148 277.734093 
L 360.214524 284.460055 
" clip-path="url(#pcf341c4e9f)" style="fill: none; opacity: 0.7; stroke: #cc3333; stroke-width: 1.6; stroke-linecap: round"/>
   </g>
   <g id="patch_36">
    <path d="M 292.590459 364.048376 
Q 203.270925 333.318446 111.115716 320.695357 
" clip-path="url(#pcf341c4e9f)" style="fill: none; opacity: 0.7; stroke: #22aa44; stroke-width: 1.6; stroke-linecap: round"/>
    <path d="M 116.517372 325.472607 
L 111.115716 320.695357 
L 117.603045 317.546618 
" clip-path="url(#pcf341c4e9f)" style="fill: none; opacity: 0.7; stroke: #22aa44; stroke-width: 1.6; stroke-linecap: round"/>
   </g>
   <g id="patch_37">
    <path d="M 109.693257 231.092924 
Q 334.465602 208.85925 549.119727 143.352522 
" clip-path="url(#pcf341c4e9f)" style="fill: none; opacity: 0.7; stroke: #22aa44; stroke-width: 1.6; stroke-linecap: round"/>
    <path d="M 542.213468 141.278013 
L 549.119727 143.352522 
L 544.548542 148.929642 
" clip-path="url(#pcf341c4e9f)" style="fill: none; opacity: 0.7; stroke: #22aa44; stroke-width: 1.6; stroke-linecap: round"/>
   </g>
   <g id="patch_38">
    <path d="M 550.55151 143.08622 
Q 416.866748 196.331866 297.369483 273.882629 
" clip-path="url(#pcf341c4e9f)" style="fill: none; opacity: 0.7; stroke: #22aa44; stroke-width: 1.6; stroke-linecap: round"/>
    <path d="M 304.580036 273.971671 
L 297.369483 273.882629 
L 300.224965 267.260981 
" clip-path="url(#pcf341c4e9f)" style="fill: none; opacity: 0.7; stroke: #22aa44; stroke-width: 1.6; stroke-linecap: round"/>
   </g>
   <g id="patch_39">
    <path d="M 364.393779 363.133995 
Q 303.903435 286.222833 294.799701 190.247278 
" clip-path="url(#pcf341c4e9f)" style="fill: none; opacity: 0.7; stroke: #cc3333; stroke-width: 1.6; stroke-linecap: round"/>
    <path d="M 291.38416 196.59819 
L 294.799701 190.247278 
L 299.348411 195.842743 
" clip-path="url(#pcf341c4e9f)" style="fill: none; opacity: 0.7; stroke: #cc3333; stroke-width: 1.6; stroke-linecap: round"/>
   </g>
   <g id="patch_40">
    <path d="M 296.403874 186.256723 
Q 330.057128 176.706708 362.322948 185.863359 
" clip-path="url(#pcf341c4e9f)" style="fill: none; opacity: 0.7; stroke: #cc3333; stroke-width: 1.6; stroke-linecap: round"/>
    <path d="M 357.642906 180.377267 
L 362.322948 185.863359 
L 355.458847 188.073362 
" clip-path="url(#pcf341c4e9f)" style="fill: none; opacity: 0.7; stroke: #cc3333; stroke-width: 1.6; stroke-linecap: round"/>
   </g>
   <g id="patch_41">
    <path d="M 367.522482 187.470536 
Q 456.842017 218.200466 548.997225 230.823554 
" clip-path="url(#pcf341c4e9f)" style="fill: none; opacity: 0.7; stroke: #cc3333; stroke-width: 1.6; stroke-linecap: round"/>
    <path d="M 543.59557 226.046304 
L 548.997225 230.823554 
L 542.509896 233.972294 
" clip-path="url(#pcf341c4e9f)" style="fill: none; opacity: 0.7; stroke: #cc3333; stroke-width: 1.6; stroke-linecap: round"/>
   </g>
   <g id="patch_42">
    <path d="M 296.410307 365.234133 
Q 421.25445 399.637411 548.972795 408.922884 
" clip-path="url(#pcf341c4e9f)" style="fill: none; opacity: 0.7; stroke: #22aa44; stroke-width: 1.6; stroke-linecap: round"/>
    <path d="M 543.278635 404.498346 
L 548.972795 408.922884 
L 542.698544 412.477286 
" clip-path="url(#pcf341c4e9f)" style="fill: none; opacity: 0.7; stroke: #22aa44; stroke-width: 1.6; stroke-linecap: round"/>
   </g>
   <g id="patch_43">
    <path d="M 551.281064 407.520749 
Q 469.988656 288.784661 368.098268 189.225301 
" clip-path="url(#pcf341c4e9f)" style="fill: none; opacity: 0.7; stroke: #cc3333; stroke-width: 1.6; stroke-linecap: round"/>
    <path d="M 369.594203 196.279532 
L 368.098268 189.225301 
L 375.185226 190.557604 
" clip-path="url(#pcf341c4e9f)" style="fill: none; opacity: 0.7; stroke: #cc3333; stroke-width: 1.6; stroke-linecap: round"/>
   </g>
   <g id="patch_44">
    <path d="M 292.590459 186.166023 
Q 203.270925 155.436093 111.115716 142.813004 
" clip-path="url(#pcf341c4e9f)" style="fill: none; opacity: 0.7; stroke: #22aa44; stroke-width: 1.6; stroke-linecap: round"/>
    <path d="M 116.517372 147.590254 
L 111.115716 142.813004 
L 117.603045 139.664265 
" clip-path="url(#pcf341c4e9f)" style="fill: none; opacity: 0.7; stroke: #22aa44; stroke-width: 1.6; stroke-linecap: round"/>
   </g>
   <g id="patch_45">
    <path d="M 550.902597 407.85215 
Q 465.575647 333.286142 368.616371 277.474787 
" clip-path="url(#pcf341c4e9f)" style="fill: none; opacity: 0.7; stroke: #22aa44; stroke-width: 1.6; stroke-linecap: round"/>
    <path d="M 371.820932 283.934724 
L 368.616371 277.474787 
L 375.811913 277.001321 
" clip-path="url(#pcf341c4e9f)" style="fill: none; opacity: 0.7; stroke: #22aa44; stroke-width: 1.6; stroke-linecap: round"/>
   </g>
   <g id="text_4">
    <!-- +1 (2S/1K) -->
    <g style="fill: #333333" transform="translate(91.286498 453.753812) scale(0.06 -0.06)">
     <defs>
      <path id="DejaVuSans-2b" d="M 2944 4013 
L 2944 2272 
L 4684 2272 
L 4684 1741 
L 2944 1741 
L 2944 0 
L 2419 0 
L 2419 1741 
L 678 1741 
L 678 2272 
L 2419 2272 
L 2419 4013 
L 2944 4013 
z
" transform="scale(0.015625)"/>
      <path id="DejaVuSans-31" d="M 794 531 
L 1825 531 
L 1825 4091 
L 703 3866 
L 703 4441 
L 1819 4666 
L 2450 4666 
L 2450 531 
L 3481 531 
L 3481 0 
L 794 0 
L 794 531 
z
" transform="scale(0.015625)"/>
      <path id="DejaVuSans-20" transform="scale(0.015625)"/>
      <path id="DejaVuSans-28" d="M 1984 4856 
Q 1566 4138 1362 3434 
Q 1159 2731 1159 2009 
Q 1159 1288 1364 580 
Q 1569 -128 1984 -844 
L 1484 -844 
Q 1016 -109 783 600 
Q 550 1309 550 2009 
Q 550 2706 781 3412 
Q 1013 4119 1484 4856 
L 1984 4856 
z
" transform="scale(0.015625)"/>
      <path id="DejaVuSans-32" d="M 1228 531 
L 3431 531 
L 3431 0 
L 469 0 
L 469 531 
Q 828 903 1448 1529 
Q 2069 2156 2228 2338 
Q 2531 2678 2651 2914 
Q 2772 3150 2772 3378 
Q 2772 3750 2511 3984 
Q 2250 4219 1831 4219 
Q 1534 4219 1204 4116 
Q 875 4013 500 3803 
L 500 4441 
Q 881 4594 1212 4672 
Q 1544 4750 1819 4750 
Q 2544 4750 2975 4387 
Q 3406 4025 3406 3419 
Q 3406 3131 3298 2873 
Q 3191 2616 2906 2266 
Q 2828 2175 2409 1742 
Q 1991 1309 1228 531 
z
" transform="scale(0.015625)"/>
      <path id="DejaVuSans-53" d="M 3425 4513 
L 3425 3897 
Q 3066 4069 2747 4153 
Q 2428 4238 2131 4238 
Q 1616 4238 1336 4038 
Q 1056 3838 1056 3469 
Q 1056 3159 1242 3001 
Q 1428 2844 1947 2747 
L 2328 2669 
Q 3034 2534 3370 2195 
Q 3706 1856 3706 1288 
Q 3706 609 3251 259 
Q 2797 -91 1919 -91 
Q 1588 -91 1214 -16 
Q 841 59 441 206 
L 441 856 
Q 825 641 1194 531 
Q 1563 422 1919 422 
Q 2459 422 2753 634 
Q 3047 847 3047 1241 
Q 3047 1584 2836 1778 
Q 2625 1972 2144 2069 
L 1759 2144 
Q 1053 2284 737 2584 
Q 422 2884 422 3419 
Q 422 4038 858 4394 
Q 1294 4750 2059 4750 
Q 2388 4750 2728 4690 
Q 3069 4631 3425 4513 
z
" transform="scale(0.015625)"/>
      <path id="DejaVuSans-2f" d="M 1625 4666 
L 2156 4666 
L 531 -594 
L 0 -594 
L 1625 4666 
z
" transform="scale(0.015625)"/>
      <path id="DejaVuSans-4b" d="M 628 4666 
L 1259 4666 
L 1259 2694 
L 3353 4666 
L 4166 4666 
L 1850 2491 
L 4331 0 
L 3500 0 
L 1259 2247 
L 1259 0 
L 628 0 
L 628 4666 
z
" transform="scale(0.015625)"/>
      <path id="DejaVuSans-29" d="M 513 4856 
L 1013 4856 
Q 1481 4119 1714 3412 
Q 1947 2706 1947 2009 
Q 1947 1309 1714 600 
Q 1481 -109 1013 -844 
L 513 -844 
Q 928 -128 1133 580 
Q 1338 1288 1338 2009 
Q 1338 2731 1133 3434 
Q 928 4138 513 4856 
z
" transform="scale(0.015625)"/>
     </defs>
     <use xlink:href="#DejaVuSans-2b"/>
     <use xlink:href="#DejaVuSans-31" transform="translate(83.789062 0)"/>
     <use xlink:href="#DejaVuSans-20" transform="translate(147.412109 0)"/>
     <use xlink:href="#DejaVuSans-28" transform="translate(179.199219 0)"/>
     <use xlink:href="#DejaVuSans-32" transform="translate(218.212891 0)"/>
     <use xlink:href="#DejaVuSans-53" transform="translate(281.835938 0)"/>
     <use xlink:href="#DejaVuSans-2f" transform="translate(345.3125 0)"/>
     <use xlink:href="#DejaVuSans-31" transform="translate(379.003906 0)"/>
     <use xlink:href="#DejaVuSans-4b" transform="translate(442.626953 0)"/>
     <use xlink:href="#DejaVuSans-29" transform="translate(508.203125 0)"/>
    </g>
   </g>
   <g id="text_5">
    <!-- 0 (2S/2K) -->
    <g style="fill: #333333" transform="translate(93.800404 364.812636) scale(0.06 -0.06)">
     <defs>
      <path id="DejaVuSans-30" d="M 2034 4250 
Q 1547 4250 1301 3770 
Q 1056 3291 1056 2328 
Q 1056 1369 1301 889 
Q 1547 409 2034 409 
Q 2525 409 2770 889 
Q 3016 1369 3016 2328 
Q 3016 3291 2770 3770 
Q 2525 4250 2034 4250 
z
M 2034 4750 
Q 2819 4750 3233 4129 
Q 3647 3509 3647 2328 
Q 3647 1150 3233 529 
Q 2819 -91 2034 -91 
Q 1250 -91 836 529 
Q 422 1150 422 2328 
Q 422 3509 836 4129 
Q 1250 4750 2034 4750 
z
" transform="scale(0.015625)"/>
     </defs>
     <use xlink:href="#DejaVuSans-30"/>
     <use xlink:href="#DejaVuSans-20" transform="translate(63.623047 0)"/>
     <use xlink:href="#DejaVuSans-28" transform="translate(95.410156 0)"/>
     <use xlink:href="#DejaVuSans-32" transform="translate(134.423828 0)"/>
     <use xlink:href="#DejaVuSans-53" transform="translate(198.046875 0)"/>
     <use xlink:href="#DejaVuSans-2f" transform="translate(261.523438 0)"/>
     <use xlink:href="#DejaVuSans-32" transform="translate(295.214844 0)"/>
     <use xlink:href="#DejaVuSans-4b" transform="translate(358.837891 0)"/>
     <use xlink:href="#DejaVuSans-29" transform="translate(424.414062 0)"/>
    </g>
   </g>
   <g id="text_6">
    <!-- -2 (1S/3K) -->
    <g style="fill: #333333" transform="translate(350.647472 498.224401) scale(0.06 -0.06)">
     <defs>
      <path id="DejaVuSans-2d" d="M 313 2009 
L 1997 2009 
L 1997 1497 
L 313 1497 
L 313 2009 
z
" transform="scale(0.015625)"/>
      <path id="DejaVuSans-33" d="M 2597 2516 
Q 3050 2419 3304 2112 
Q 3559 1806 3559 1356 
Q 3559 666 3084 287 
Q 2609 -91 1734 -91 
Q 1441 -91 1130 -33 
Q 819 25 488 141 
L 488 750 
Q 750 597 1062 519 
Q 1375 441 1716 441 
Q 2309 441 2620 675 
Q 2931 909 2931 1356 
Q 2931 1769 2642 2001 
Q 2353 2234 1838 2234 
L 1294 2234 
L 1294 2753 
L 1863 2753 
Q 2328 2753 2575 2939 
Q 2822 3125 2822 3475 
Q 2822 3834 2567 4026 
Q 2313 4219 1838 4219 
Q 1578 4219 1281 4162 
Q 984 4106 628 3988 
L 628 4550 
Q 988 4650 1302 4700 
Q 1616 4750 1894 4750 
Q 2613 4750 3031 4423 
Q 3450 4097 3450 3541 
Q 3450 3153 3228 2886 
Q 3006 2619 2597 2516 
z
" transform="scale(0.015625)"/>
     </defs>
     <use xlink:href="#DejaVuSans-2d"/>
     <use xlink:href="#DejaVuSans-32" transform="translate(36.083984 0)"/>
     <use xlink:href="#DejaVuSans-20" transform="translate(99.707031 0)"/>
     <use xlink:href="#DejaVuSans-28" transform="translate(131.494141 0)"/>
     <use xlink:href="#DejaVuSans-31" transform="translate(170.507812 0)"/>
     <use xlink:href="#DejaVuSans-53" transform="translate(234.130859 0)"/>
     <use xlink:href="#DejaVuSans-2f" transform="translate(297.607422 0)"/>
     <use xlink:href="#DejaVuSans-33" transform="translate(331.298828 0)"/>
     <use xlink:href="#DejaVuSans-4b" transform="translate(394.921875 0)"/>
     <use xlink:href="#DejaVuSans-29" transform="translate(460.498047 0)"/>
    </g>
   </g>
   <g id="text_7">
    <!-- +2 (3S/1K) -->
    <g style="fill: #333333" transform="translate(349.21591 409.283224) scale(0.06 -0.06)">
     <use xlink:href="#DejaVuSans-2b"/>
     <use xlink:href="#DejaVuSans-32" transform="translate(83.789062 0)"/>
     <use xlink:href="#DejaVuSans-20" transform="translate(147.412109 0)"/>
     <use xlink:href="#DejaVuSans-28" transform="translate(179.199219 0)"/>
     <use xlink:href="#DejaVuSans-33" transform="translate(218.212891 0)"/>
     <use xlink:href="#DejaVuSans-53" transform="translate(281.835938 0)"/>
     <use xlink:href="#DejaVuSans-2f" transform="translate(345.3125 0)"/>
     <use xlink:href="#DejaVuSans-31" transform="translate(379.003906 0)"/>
     <use xlink:href="#DejaVuSans-4b" transform="translate(442.626953 0)"/>
     <use xlink:href="#DejaVuSans-29" transform="translate(508.203125 0)"/>
    </g>
   </g>
   <g id="text_8">
    <!-- +1 (2S/1K) -->
    <g style="fill: #333333" transform="translate(278.062969 498.224401) scale(0.06 -0.06)">
     <use xlink:href="#DejaVuSans-2b"/>
     <use xlink:href="#DejaVuSans-31" transform="translate(83.789062 0)"/>
     <use xlink:href="#DejaVuSans-20" transform="translate(147.412109 0)"/>
     <use xlink:href="#DejaVuSans-28" transform="translate(179.199219 0)"/>
     <use xlink:href="#DejaVuSans-32" transform="translate(218.212891 0)"/>
     <use xlink:href="#DejaVuSans-53" transform="translate(281.835938 0)"/>
     <use xlink:href="#DejaVuSans-2f" transform="translate(345.3125 0)"/>
     <use xlink:href="#DejaVuSans-31" transform="translate(379.003906 0)"/>
     <use xlink:href="#DejaVuSans-4b" transform="translate(442.626953 0)"/>
     <use xlink:href="#DejaVuSans-29" transform="translate(508.203125 0)"/>
    </g>
   </g>
   <g id="text_9">
    <!-- -4 (0S/4K) -->
    <g style="fill: #333333" transform="translate(279.494531 409.283224) scale(0.06 -0.06)">
     <defs>
      <path id="DejaVuSans-34" d="M 2419 4116 
L 825 1625 
L 2419 1625 
L 2419 4116 
z
M 2253 4666 
L 3047 4666 
L 3047 1625 
L 3713 1625 
L 3713 1100 
L 3047 1100 
L 3047 0 
L 2419 0 
L 2419 1100 
L 313 1100 
L 313 1709 
L 2253 4666 
z
" transform="scale(0.015625)"/>
     </defs>
     <use xlink:href="#DejaVuSans-2d"/>
     <use xlink:href="#DejaVuSans-34" transform="translate(36.083984 0)"/>
     <use xlink:href="#DejaVuSans-20" transform="translate(99.707031 0)"/>
     <use xlink:href="#DejaVuSans-28" transform="translate(131.494141 0)"/>
     <use xlink:href="#DejaVuSans-30" transform="translate(170.507812 0)"/>
     <use xlink:href="#DejaVuSans-53" transform="translate(234.130859 0)"/>
     <use xlink:href="#DejaVuSans-2f" transform="translate(297.607422 0)"/>
     <use xlink:href="#DejaVuSans-34" transform="translate(331.298828 0)"/>
     <use xlink:href="#DejaVuSans-4b" transform="translate(394.921875 0)"/>
     <use xlink:href="#DejaVuSans-29" transform="translate(460.498047 0)"/>
    </g>
   </g>
   <g id="text_10">
    <!-- +1 (1S/0K) -->
    <g style="fill: #333333" transform="translate(535.992381 453.753812) scale(0.06 -0.06)">
     <use xlink:href="#DejaVuSans-2b"/>
     <use xlink:href="#DejaVuSans-31" transform="translate(83.789062 0)"/>
     <use xlink:href="#DejaVuSans-20" transform="translate(147.412109 0)"/>
     <use xlink:href="#DejaVuSans-28" transform="translate(179.199219 0)"/>
     <use xlink:href="#DejaVuSans-31" transform="translate(218.212891 0)"/>
     <use xlink:href="#DejaVuSans-53" transform="translate(281.835938 0)"/>
     <use xlink:href="#DejaVuSans-2f" transform="translate(345.3125 0)"/>
     <use xlink:href="#DejaVuSans-30" transform="translate(379.003906 0)"/>
     <use xlink:href="#DejaVuSans-4b" transform="translate(442.626953 0)"/>
     <use xlink:href="#DejaVuSans-29" transform="translate(508.203125 0)"/>
    </g>
   </g>
   <g id="text_11">
    <!-- -4 (0S/4K) -->
    <g style="fill: #333333" transform="translate(537.423943 364.812636) scale(0.06 -0.06)">
     <use xlink:href="#DejaVuSans-2d"/>
     <use xlink:href="#DejaVuSans-34" transform="translate(36.083984 0)"/>
     <use xlink:href="#DejaVuSans-20" transform="translate(99.707031 0)"/>
     <use xlink:href="#DejaVuSans-28" transform="translate(131.494141 0)"/>
     <use xlink:href="#DejaVuSans-30" transform="translate(170.507812 0)"/>
     <use xlink:href="#DejaVuSans-53" transform="translate(234.130859 0)"/>
     <use xlink:href="#DejaVuSans-2f" transform="translate(297.607422 0)"/>
     <use xlink:href="#DejaVuSans-34" transform="translate(331.298828 0)"/>
     <use xlink:href="#DejaVuSans-4b" transform="translate(394.921875 0)"/>
     <use xlink:href="#DejaVuSans-29" transform="translate(460.498047 0)"/>
    </g>
   </g>
   <g id="text_12">
    <!-- -3 (0S/3K) -->
    <g style="fill: #333333" transform="translate(92.718061 275.87146) scale(0.06 -0.06)">
     <use xlink:href="#DejaVuSans-2d"/>
     <use xlink:href="#DejaVuSans-33" transform="translate(36.083984 0)"/>
     <use xlink:href="#DejaVuSans-20" transform="translate(99.707031 0)"/>
     <use xlink:href="#DejaVuSans-28" transform="translate(131.494141 0)"/>
     <use xlink:href="#DejaVuSans-30" transform="translate(170.507812 0)"/>
     <use xlink:href="#DejaVuSans-53" transform="translate(234.130859 0)"/>
     <use xlink:href="#DejaVuSans-2f" transform="translate(297.607422 0)"/>
     <use xlink:href="#DejaVuSans-33" transform="translate(331.298828 0)"/>
     <use xlink:href="#DejaVuSans-4b" transform="translate(394.921875 0)"/>
     <use xlink:href="#DejaVuSans-29" transform="translate(460.498047 0)"/>
    </g>
   </g>
   <g id="text_13">
    <!-- 0 (1S/1K) -->
    <g style="fill: #333333" transform="translate(93.800404 186.930283) scale(0.06 -0.06)">
     <use xlink:href="#DejaVuSans-30"/>
     <use xlink:href="#DejaVuSans-20" transform="translate(63.623047 0)"/>
     <use xlink:href="#DejaVuSans-28" transform="translate(95.410156 0)"/>
     <use xlink:href="#DejaVuSans-31" transform="translate(134.423828 0)"/>
     <use xlink:href="#DejaVuSans-53" transform="translate(198.046875 0)"/>
     <use xlink:href="#DejaVuSans-2f" transform="translate(261.523438 0)"/>
     <use xlink:href="#DejaVuSans-31" transform="translate(295.214844 0)"/>
     <use xlink:href="#DejaVuSans-4b" transform="translate(358.837891 0)"/>
     <use xlink:href="#DejaVuSans-29" transform="translate(424.414062 0)"/>
    </g>
   </g>
   <g id="text_14">
    <!-- 0 (1S/1K) -->
    <g style="fill: #333333" transform="translate(351.729816 320.342048) scale(0.06 -0.06)">
     <use xlink:href="#DejaVuSans-30"/>
     <use xlink:href="#DejaVuSans-20" transform="translate(63.623047 0)"/>
     <use xlink:href="#DejaVuSans-28" transform="translate(95.410156 0)"/>
     <use xlink:href="#DejaVuSans-31" transform="translate(134.423828 0)"/>
     <use xlink:href="#DejaVuSans-53" transform="translate(198.046875 0)"/>
     <use xlink:href="#DejaVuSans-2f" transform="translate(261.523438 0)"/>
     <use xlink:href="#DejaVuSans-31" transform="translate(295.214844 0)"/>
     <use xlink:href="#DejaVuSans-4b" transform="translate(358.837891 0)"/>
     <use xlink:href="#DejaVuSans-29" transform="translate(424.414062 0)"/>
    </g>
   </g>
   <g id="text_15">
    <!-- -2 (1S/3K) -->
    <g style="fill: #333333" transform="translate(350.647472 231.400871) scale(0.06 -0.06)">
     <use xlink:href="#DejaVuSans-2d"/>
     <use xlink:href="#DejaVuSans-32" transform="translate(36.083984 0)"/>
     <use xlink:href="#DejaVuSans-20" transform="translate(99.707031 0)"/>
     <use xlink:href="#DejaVuSans-28" transform="translate(131.494141 0)"/>
     <use xlink:href="#DejaVuSans-31" transform="translate(170.507812 0)"/>
     <use xlink:href="#DejaVuSans-53" transform="translate(234.130859 0)"/>
     <use xlink:href="#DejaVuSans-2f" transform="translate(297.607422 0)"/>
     <use xlink:href="#DejaVuSans-33" transform="translate(331.298828 0)"/>
     <use xlink:href="#DejaVuSans-4b" transform="translate(394.921875 0)"/>
     <use xlink:href="#DejaVuSans-29" transform="translate(460.498047 0)"/>
    </g>
   </g>
   <g id="text_16">
    <!-- +2 (2S/0K) -->
    <g style="fill: #333333" transform="translate(278.062969 320.342048) scale(0.06 -0.06)">
     <use xlink:href="#DejaVuSans-2b"/>
     <use xlink:href="#DejaVuSans-32" transform="translate(83.789062 0)"/>
     <use xlink:href="#DejaVuSans-20" transform="translate(147.412109 0)"/>
     <use xlink:href="#DejaVuSans-28" transform="translate(179.199219 0)"/>
     <use xlink:href="#DejaVuSans-32" transform="translate(218.212891 0)"/>
     <use xlink:href="#DejaVuSans-53" transform="translate(281.835938 0)"/>
     <use xlink:href="#DejaVuSans-2f" transform="translate(345.3125 0)"/>
     <use xlink:href="#DejaVuSans-30" transform="translate(379.003906 0)"/>
     <use xlink:href="#DejaVuSans-4b" transform="translate(442.626953 0)"/>
     <use xlink:href="#DejaVuSans-29" transform="translate(508.203125 0)"/>
    </g>
   </g>
   <g id="text_17">
    <!-- -4 (0S/4K) -->
    <g style="fill: #333333" transform="translate(279.494531 231.400871) scale(0.06 -0.06)">
     <use xlink:href="#DejaVuSans-2d"/>
     <use xlink:href="#DejaVuSans-34" transform="translate(36.083984 0)"/>
     <use xlink:href="#DejaVuSans-20" transform="translate(99.707031 0)"/>
     <use xlink:href="#DejaVuSans-28" transform="translate(131.494141 0)"/>
     <use xlink:href="#DejaVuSans-30" transform="translate(170.507812 0)"/>
     <use xlink:href="#DejaVuSans-53" transform="translate(234.130859 0)"/>
     <use xlink:href="#DejaVuSans-2f" transform="translate(297.607422 0)"/>
     <use xlink:href="#DejaVuSans-34" transform="translate(331.298828 0)"/>
     <use xlink:href="#DejaVuSans-4b" transform="translate(394.921875 0)"/>
     <use xlink:href="#DejaVuSans-29" transform="translate(460.498047 0)"/>
    </g>
   </g>
   <g id="text_18">
    <!-- -3 (0S/3K) -->
    <g style="fill: #333333" transform="translate(537.423943 275.87146) scale(0.06 -0.06)">
     <use xlink:href="#DejaVuSans-2d"/>
     <use xlink:href="#DejaVuSans-33" transform="translate(36.083984 0)"/>
     <use xlink:href="#DejaVuSans-20" transform="translate(99.707031 0)"/>
     <use xlink:href="#DejaVuSans-28" transform="translate(131.494141 0)"/>
     <use xlink:href="#DejaVuSans-30" transform="translate(170.507812 0)"/>
     <use xlink:href="#DejaVuSans-53" transform="translate(234.130859 0)"/>
     <use xlink:href="#DejaVuSans-2f" transform="translate(297.607422 0)"/>
     <use xlink:href="#DejaVuSans-33" transform="translate(331.298828 0)"/>
     <use xlink:href="#DejaVuSans-4b" transform="translate(394.921875 0)"/>
     <use xlink:href="#DejaVuSans-29" transform="translate(460.498047 0)"/>
    </g>
   </g>
   <g id="text_19">
    <!-- +2 (2S/0K) -->
    <g style="fill: #333333" transform="translate(535.992381 186.930283) scale(0.06 -0.06)">
     <use xlink:href="#DejaVuSans-2b"/>
     <use xlink:href="#DejaVuSans-32" transform="translate(83.789062 0)"/>
     <use xlink:href="#DejaVuSans-20" transform="translate(147.412109 0)"/>
     <use xlink:href="#DejaVuSans-28" transform="translate(179.199219 0)"/>
     <use xlink:href="#DejaVuSans-32" transform="translate(218.212891 0)"/>
     <use xlink:href="#DejaVuSans-53" transform="translate(281.835938 0)"/>
     <use xlink:href="#DejaVuSans-2f" transform="translate(345.3125 0)"/>
     <use xlink:href="#DejaVuSans-30" transform="translate(379.003906 0)"/>
     <use xlink:href="#DejaVuSans-4b" transform="translate(442.626953 0)"/>
     <use xlink:href="#DejaVuSans-29" transform="translate(508.203125 0)"/>
    </g>
   </g>
   <g id="text_20">
    <!-- KW Walk Five-Phase Flow (Hu Lower) -->
    <g transform="translate(182.697721 17.837812) scale(0.14 -0.14)">
     <defs>
      <path id="DejaVuSans-Bold-57" d="M 191 4666 
L 1344 4666 
L 2150 1275 
L 2950 4666 
L 4109 4666 
L 4909 1275 
L 5716 4666 
L 6859 4666 
L 5759 0 
L 4372 0 
L 3525 3547 
L 2688 0 
L 1300 0 
L 191 4666 
z
" transform="scale(0.015625)"/>
      <path id="DejaVuSans-Bold-20" transform="scale(0.015625)"/>
      <path id="DejaVuSans-Bold-6c" d="M 538 4863 
L 1656 4863 
L 1656 0 
L 538 0 
L 538 4863 
z
" transform="scale(0.015625)"/>
      <path id="DejaVuSans-Bold-6b" d="M 538 4863 
L 1656 4863 
L 1656 2216 
L 2944 3500 
L 4244 3500 
L 2534 1894 
L 4378 0 
L 3022 0 
L 1656 1459 
L 1656 0 
L 538 0 
L 538 4863 
z
" transform="scale(0.015625)"/>
      <path id="DejaVuSans-Bold-46" d="M 588 4666 
L 3834 4666 
L 3834 3756 
L 1791 3756 
L 1791 2888 
L 3713 2888 
L 3713 1978 
L 1791 1978 
L 1791 0 
L 588 0 
L 588 4666 
z
" transform="scale(0.015625)"/>
      <path id="DejaVuSans-Bold-76" d="M 97 3500 
L 1216 3500 
L 2088 1081 
L 2956 3500 
L 4078 3500 
L 2700 0 
L 1472 0 
L 97 3500 
z
" transform="scale(0.015625)"/>
      <path id="DejaVuSans-Bold-65" d="M 4031 1759 
L 4031 1441 
L 1416 1441 
Q 1456 1047 1700 850 
Q 1944 653 2381 653 
Q 2734 653 3104 758 
Q 3475 863 3866 1075 
L 3866 213 
Q 3469 63 3072 -14 
Q 2675 -91 2278 -91 
Q 1328 -91 801 392 
Q 275 875 275 1747 
Q 275 2603 792 3093 
Q 1309 3584 2216 3584 
Q 3041 3584 3536 3087 
Q 4031 2591 4031 1759 
z
M 2881 2131 
Q 2881 2450 2695 2645 
Q 2509 2841 2209 2841 
Q 1884 2841 1681 2658 
Q 1478 2475 1428 2131 
L 2881 2131 
z
" transform="scale(0.015625)"/>
      <path id="DejaVuSans-Bold-2d" d="M 347 2297 
L 2309 2297 
L 2309 1388 
L 347 1388 
L 347 2297 
z
" transform="scale(0.015625)"/>
      <path id="DejaVuSans-Bold-50" d="M 588 4666 
L 2584 4666 
Q 3475 4666 3951 4270 
Q 4428 3875 4428 3144 
Q 4428 2409 3951 2014 
Q 3475 1619 2584 1619 
L 1791 1619 
L 1791 0 
L 588 0 
L 588 4666 
z
M 1791 3794 
L 1791 2491 
L 2456 2491 
Q 2806 2491 2997 2661 
Q 3188 2831 3188 3144 
Q 3188 3456 2997 3625 
Q 2806 3794 2456 3794 
L 1791 3794 
z
" transform="scale(0.015625)"/>
      <path id="DejaVuSans-Bold-68" d="M 4056 2131 
L 4056 0 
L 2931 0 
L 2931 347 
L 2931 1625 
Q 2931 2084 2911 2256 
Q 2891 2428 2841 2509 
Q 2775 2619 2662 2680 
Q 2550 2741 2406 2741 
Q 2056 2741 1856 2470 
Q 1656 2200 1656 1722 
L 1656 0 
L 538 0 
L 538 4863 
L 1656 4863 
L 1656 2988 
Q 1909 3294 2193 3439 
Q 2478 3584 2822 3584 
Q 3428 3584 3742 3212 
Q 4056 2841 4056 2131 
z
" transform="scale(0.015625)"/>
      <path id="DejaVuSans-Bold-73" d="M 3272 3391 
L 3272 2541 
Q 2913 2691 2578 2766 
Q 2244 2841 1947 2841 
Q 1628 2841 1473 2761 
Q 1319 2681 1319 2516 
Q 1319 2381 1436 2309 
Q 1553 2238 1856 2203 
L 2053 2175 
Q 2913 2066 3209 1816 
Q 3506 1566 3506 1031 
Q 3506 472 3093 190 
Q 2681 -91 1863 -91 
Q 1516 -91 1145 -36 
Q 775 19 384 128 
L 384 978 
Q 719 816 1070 734 
Q 1422 653 1784 653 
Q 2113 653 2278 743 
Q 2444 834 2444 1013 
Q 2444 1163 2330 1236 
Q 2216 1309 1875 1350 
L 1678 1375 
Q 931 1469 631 1722 
Q 331 1975 331 2491 
Q 331 3047 712 3315 
Q 1094 3584 1881 3584 
Q 2191 3584 2531 3537 
Q 2872 3491 3272 3391 
z
" transform="scale(0.015625)"/>
      <path id="DejaVuSans-Bold-6f" d="M 2203 2784 
Q 1831 2784 1636 2517 
Q 1441 2250 1441 1747 
Q 1441 1244 1636 976 
Q 1831 709 2203 709 
Q 2569 709 2762 976 
Q 2956 1244 2956 1747 
Q 2956 2250 2762 2517 
Q 2569 2784 2203 2784 
z
M 2203 3584 
Q 3106 3584 3614 3096 
Q 4122 2609 4122 1747 
Q 4122 884 3614 396 
Q 3106 -91 2203 -91 
Q 1297 -91 786 396 
Q 275 884 275 1747 
Q 275 2609 786 3096 
Q 1297 3584 2203 3584 
z
" transform="scale(0.015625)"/>
      <path id="DejaVuSans-Bold-77" d="M 225 3500 
L 1313 3500 
L 1900 1088 
L 2491 3500 
L 3425 3500 
L 4013 1113 
L 4603 3500 
L 5691 3500 
L 4769 0 
L 3547 0 
L 2956 2406 
L 2369 0 
L 1147 0 
L 225 3500 
z
" transform="scale(0.015625)"/>
      <path id="DejaVuSans-Bold-28" d="M 2413 -844 
L 1484 -844 
Q 1006 -72 778 623 
Q 550 1319 550 2003 
Q 550 2688 779 3389 
Q 1009 4091 1484 4856 
L 2413 4856 
Q 2013 4116 1813 3408 
Q 1613 2700 1613 2009 
Q 1613 1319 1811 609 
Q 2009 -100 2413 -844 
z
" transform="scale(0.015625)"/>
      <path id="DejaVuSans-Bold-48" d="M 588 4666 
L 1791 4666 
L 1791 2888 
L 3566 2888 
L 3566 4666 
L 4769 4666 
L 4769 0 
L 3566 0 
L 3566 1978 
L 1791 1978 
L 1791 0 
L 588 0 
L 588 4666 
z
" transform="scale(0.015625)"/>
      <path id="DejaVuSans-Bold-72" d="M 3138 2547 
Q 2991 2616 2845 2648 
Q 2700 2681 2553 2681 
Q 2122 2681 1889 2404 
Q 1656 2128 1656 1613 
L 1656 0 
L 538 0 
L 538 3500 
L 1656 3500 
L 1656 2925 
Q 1872 3269 2151 3426 
Q 2431 3584 2822 3584 
Q 2878 3584 2943 3579 
Q 3009 3575 3134 3559 
L 3138 2547 
z
" transform="scale(0.015625)"/>
      <path id="DejaVuSans-Bold-29" d="M 513 -844 
Q 913 -100 1113 609 
Q 1313 1319 1313 2009 
Q 1313 2700 1113 3408 
Q 913 4116 513 4856 
L 1441 4856 
Q 1916 4091 2145 3389 
Q 2375 2688 2375 2003 
Q 2375 1319 2147 623 
Q 1919 -72 1441 -844 
L 513 -844 
z
" transform="scale(0.015625)"/>
     </defs>
     <use xlink:href="#DejaVuSans-Bold-4b"/>
     <use xlink:href="#DejaVuSans-Bold-57" transform="translate(77.490234 0)"/>
     <use xlink:href="#DejaVuSans-Bold-20" transform="translate(187.792969 0)"/>
     <use xlink:href="#DejaVuSans-Bold-57" transform="translate(222.607422 0)"/>
     <use xlink:href="#DejaVuSans-Bold-61" transform="translate(329.285156 0)"/>
     <use xlink:href="#DejaVuSans-Bold-6c" transform="translate(396.765625 0)"/>
     <use xlink:href="#DejaVuSans-Bold-6b" transform="translate(431.042969 0)"/>
     <use xlink:href="#DejaVuSans-Bold-20" transform="translate(497.546875 0)"/>
     <use xlink:href="#DejaVuSans-Bold-46" transform="translate(532.361328 0)"/>
     <use xlink:href="#DejaVuSans-Bold-69" transform="translate(600.671875 0)"/>
     <use xlink:href="#DejaVuSans-Bold-76" transform="translate(634.949219 0)"/>
     <use xlink:href="#DejaVuSans-Bold-65" transform="translate(700.134766 0)"/>
     <use xlink:href="#DejaVuSans-Bold-2d" transform="translate(767.957031 0)"/>
     <use xlink:href="#DejaVuSans-Bold-50" transform="translate(809.460938 0)"/>
     <use xlink:href="#DejaVuSans-Bold-68" transform="translate(882.751953 0)"/>
     <use xlink:href="#DejaVuSans-Bold-61" transform="translate(953.943359 0)"/>
     <use xlink:href="#DejaVuSans-Bold-73" transform="translate(1021.423828 0)"/>
     <use xlink:href="#DejaVuSans-Bold-65" transform="translate(1080.945312 0)"/>
     <use xlink:href="#DejaVuSans-Bold-20" transform="translate(1148.767578 0)"/>
     <use xlink:href="#DejaVuSans-Bold-46" transform="translate(1183.582031 0)"/>
     <use xlink:href="#DejaVuSans-Bold-6c" transform="translate(1251.892578 0)"/>
     <use xlink:href="#DejaVuSans-Bold-6f" transform="translate(1286.169922 0)"/>
     <use xlink:href="#DejaVuSans-Bold-77" transform="translate(1354.871094 0)"/>
     <use xlink:href="#DejaVuSans-Bold-20" transform="translate(1447.253906 0)"/>
     <use xlink:href="#DejaVuSans-Bold-28" transform="translate(1482.068359 0)"/>
     <use xlink:href="#DejaVuSans-Bold-48" transform="translate(1527.771484 0)"/>
     <use xlink:href="#DejaVuSans-Bold-75" transform="translate(1611.462891 0)"/>
     <use xlink:href="#DejaVuSans-Bold-20" transform="translate(1682.654297 0)"/>
     <use xlink:href="#DejaVuSans-Bold-4c" transform="translate(1717.46875 0)"/>
     <use xlink:href="#DejaVuSans-Bold-6f" transform="translate(1781.189453 0)"/>
     <use xlink:href="#DejaVuSans-Bold-77" transform="translate(1849.890625 0)"/>
     <use xlink:href="#DejaVuSans-Bold-65" transform="translate(1942.273438 0)"/>
     <use xlink:href="#DejaVuSans-Bold-72" transform="translate(2010.095703 0)"/>
     <use xlink:href="#DejaVuSans-Bold-29" transform="translate(2059.412109 0)"/>
    </g>
    <!-- Node color: net sheng(green) / ke(red) -->
    <g transform="translate(177.335064 33.51475) scale(0.14 -0.14)">
     <defs>
      <path id="DejaVuSans-Bold-4e" d="M 588 4666 
L 1931 4666 
L 3628 1466 
L 3628 4666 
L 4769 4666 
L 4769 0 
L 3425 0 
L 1728 3200 
L 1728 0 
L 588 0 
L 588 4666 
z
" transform="scale(0.015625)"/>
      <path id="DejaVuSans-Bold-64" d="M 2919 2988 
L 2919 4863 
L 4044 4863 
L 4044 0 
L 2919 0 
L 2919 506 
Q 2688 197 2409 53 
Q 2131 -91 1766 -91 
Q 1119 -91 703 423 
Q 288 938 288 1747 
Q 288 2556 703 3070 
Q 1119 3584 1766 3584 
Q 2128 3584 2408 3439 
Q 2688 3294 2919 2988 
z
M 2181 722 
Q 2541 722 2730 984 
Q 2919 1247 2919 1747 
Q 2919 2247 2730 2509 
Q 2541 2772 2181 2772 
Q 1825 2772 1636 2509 
Q 1447 2247 1447 1747 
Q 1447 1247 1636 984 
Q 1825 722 2181 722 
z
" transform="scale(0.015625)"/>
      <path id="DejaVuSans-Bold-63" d="M 3366 3391 
L 3366 2478 
Q 3138 2634 2908 2709 
Q 2678 2784 2431 2784 
Q 1963 2784 1702 2511 
Q 1441 2238 1441 1747 
Q 1441 1256 1702 982 
Q 1963 709 2431 709 
Q 2694 709 2930 787 
Q 3166 866 3366 1019 
L 3366 103 
Q 3103 6 2833 -42 
Q 2563 -91 2291 -91 
Q 1344 -91 809 395 
Q 275 881 275 1747 
Q 275 2613 809 3098 
Q 1344 3584 2291 3584 
Q 2566 3584 2833 3536 
Q 3100 3488 3366 3391 
z
" transform="scale(0.015625)"/>
      <path id="DejaVuSans-Bold-3a" d="M 716 3500 
L 1844 3500 
L 1844 2291 
L 716 2291 
L 716 3500 
z
M 716 1209 
L 1844 1209 
L 1844 0 
L 716 0 
L 716 1209 
z
" transform="scale(0.015625)"/>
      <path id="DejaVuSans-Bold-74" d="M 1759 4494 
L 1759 3500 
L 2913 3500 
L 2913 2700 
L 1759 2700 
L 1759 1216 
Q 1759 972 1856 886 
Q 1953 800 2241 800 
L 2816 800 
L 2816 0 
L 1856 0 
Q 1194 0 917 276 
Q 641 553 641 1216 
L 641 2700 
L 84 2700 
L 84 3500 
L 641 3500 
L 641 4494 
L 1759 4494 
z
" transform="scale(0.015625)"/>
      <path id="DejaVuSans-Bold-67" d="M 2919 594 
Q 2688 288 2409 144 
Q 2131 0 1766 0 
Q 1125 0 706 504 
Q 288 1009 288 1791 
Q 288 2575 706 3076 
Q 1125 3578 1766 3578 
Q 2131 3578 2409 3434 
Q 2688 3291 2919 2981 
L 2919 3500 
L 4044 3500 
L 4044 353 
Q 4044 -491 3511 -936 
Q 2978 -1381 1966 -1381 
Q 1638 -1381 1331 -1331 
Q 1025 -1281 716 -1178 
L 716 -306 
Q 1009 -475 1290 -558 
Q 1572 -641 1856 -641 
Q 2406 -641 2662 -400 
Q 2919 -159 2919 353 
L 2919 594 
z
M 2181 2772 
Q 1834 2772 1640 2515 
Q 1447 2259 1447 1791 
Q 1447 1309 1634 1061 
Q 1822 813 2181 813 
Q 2531 813 2725 1069 
Q 2919 1325 2919 1791 
Q 2919 2259 2725 2515 
Q 2531 2772 2181 2772 
z
" transform="scale(0.015625)"/>
      <path id="DejaVuSans-Bold-2f" d="M 1644 4666 
L 2338 4666 
L 691 -594 
L 0 -594 
L 1644 4666 
z
" transform="scale(0.015625)"/>
     </defs>
     <use xlink:href="#DejaVuSans-Bold-4e"/>
     <use xlink:href="#DejaVuSans-Bold-6f" transform="translate(83.691406 0)"/>
     <use xlink:href="#DejaVuSans-Bold-64" transform="translate(152.392578 0)"/>
     <use xlink:href="#DejaVuSans-Bold-65" transform="translate(223.974609 0)"/>
     <use xlink:href="#DejaVuSans-Bold-20" transform="translate(291.796875 0)"/>
     <use xlink:href="#DejaVuSans-Bold-63" transform="translate(326.611328 0)"/>
     <use xlink:href="#DejaVuSans-Bold-6f" transform="translate(385.888672 0)"/>
     <use xlink:href="#DejaVuSans-Bold-6c" transform="translate(454.589844 0)"/>
     <use xlink:href="#DejaVuSans-Bold-6f" transform="translate(488.867188 0)"/>
     <use xlink:href="#DejaVuSans-Bold-72" transform="translate(557.568359 0)"/>
     <use xlink:href="#DejaVuSans-Bold-3a" transform="translate(606.884766 0)"/>
     <use xlink:href="#DejaVuSans-Bold-20" transform="translate(646.875 0)"/>
     <use xlink:href="#DejaVuSans-Bold-6e" transform="translate(681.689453 0)"/>
     <use xlink:href="#DejaVuSans-Bold-65" transform="translate(752.880859 0)"/>
     <use xlink:href="#DejaVuSans-Bold-74" transform="translate(820.703125 0)"/>
     <use xlink:href="#DejaVuSans-Bold-20" transform="translate(868.505859 0)"/>
     <use xlink:href="#DejaVuSans-Bold-73" transform="translate(903.320312 0)"/>
     <use xlink:href="#DejaVuSans-Bold-68" transform="translate(962.841797 0)"/>
     <use xlink:href="#DejaVuSans-Bold-65" transform="translate(1034.033203 0)"/>
     <use xlink:href="#DejaVuSans-Bold-6e" transform="translate(1101.855469 0)"/>
     <use xlink:href="#DejaVuSans-Bold-67" transform="translate(1173.046875 0)"/>
     <use xlink:href="#DejaVuSans-Bold-28" transform="translate(1244.628906 0)"/>
     <use xlink:href="#DejaVuSans-Bold-67" transform="translate(1290.332031 0)"/>
     <use xlink:href="#DejaVuSans-Bold-72" transform="translate(1361.914062 0)"/>
     <use xlink:href="#DejaVuSans-Bold-65" transform="translate(1411.230469 0)"/>
     <use xlink:href="#DejaVuSans-Bold-65" transform="translate(1479.052734 0)"/>
     <use xlink:href="#DejaVuSans-Bold-6e" transform="translate(1546.875 0)"/>
     <use xlink:href="#DejaVuSans-Bold-29" transform="translate(1618.066406 0)"/>
     <use xlink:href="#DejaVuSans-Bold-20" transform="translate(1663.769531 0)"/>
     <use xlink:href="#DejaVuSans-Bold-2f" transform="translate(1698.583984 0)"/>
     <use xlink:href="#DejaVuSans-Bold-20" transform="translate(1735.107422 0)"/>
     <use xlink:href="#DejaVuSans-Bold-6b" transform="translate(1769.921875 0)"/>
     <use xlink:href="#DejaVuSans-Bold-65" transform="translate(1833.800781 0)"/>
     <use xlink:href="#DejaVuSans-Bold-28" transform="translate(1901.623047 0)"/>
     <use xlink:href="#DejaVuSans-Bold-72" transform="translate(1947.326172 0)"/>
     <use xlink:href="#DejaVuSans-Bold-65" transform="translate(1996.642578 0)"/>
     <use xlink:href="#DejaVuSans-Bold-64" transform="translate(2064.464844 0)"/>
     <use xlink:href="#DejaVuSans-Bold-29" transform="translate(2136.046875 0)"/>
    </g>
   </g>
   <g id="PathCollection_1">
    <defs>
     <path id="me5ea2573dd" d="M 0 13.228757 
C 3.508307 13.228757 6.873396 11.834891 9.354143 9.354143 
C 11.834891 6.873396 13.228757 3.508307 13.228757 0 
C 13.228757 -3.508307 11.834891 -6.873396 9.354143 -9.354143 
C 6.873396 -11.834891 3.508307 -13.228757 0 -13.228757 
C -3.508307 -13.228757 -6.873396 -11.834891 -9.354143 -9.354143 
C -11.834891 -6.873396 -13.228757 -3.508307 -13.228757 0 
C -13.228757 3.508307 -11.834891 6.873396 -9.354143 9.354143 
C -6.873396 11.834891 -3.508307 13.228757 0 13.228757 
z
" style="stroke: #ffffff; stroke-width: 2"/>
    </defs>
    <g clip-path="url(#pcf341c4e9f)">
     <use xlink:href="#me5ea2573dd" x="107.703529" y="409.171221" style="fill: #2f8a4b; stroke: #ffffff; stroke-width: 2"/>
    </g>
   </g>
   <g id="PathCollection_2">
    <defs>
     <path id="m8a687405dd" d="M 0 13.228757 
C 3.508307 13.228757 6.873396 11.834891 9.354143 9.354143 
C 11.834891 6.873396 13.228757 3.508307 13.228757 0 
C 13.228757 -3.508307 11.834891 -6.873396 9.354143 -9.354143 
C 6.873396 -11.834891 3.508307 -13.228757 0 -13.228757 
C -3.508307 -13.228757 -6.873396 -11.834891 -9.354143 -9.354143 
C -11.834891 -6.873396 -13.228757 -3.508307 -13.228757 0 
C -13.228757 3.508307 -11.834891 6.873396 -9.354143 9.354143 
C -6.873396 11.834891 -3.508307 13.228757 0 13.228757 
z
" style="stroke: #ffffff; stroke-width: 2"/>
    </defs>
    <g clip-path="url(#pcf341c4e9f)">
     <use xlink:href="#m8a687405dd" x="107.703529" y="320.230044" style="fill: #33804c; stroke: #ffffff; stroke-width: 2"/>
    </g>
   </g>
   <g id="PathCollection_3">
    <defs>
     <path id="mbb26003c02" d="M 0 13.228757 
C 3.508307 13.228757 6.873396 11.834891 9.354143 9.354143 
C 11.834891 6.873396 13.228757 3.508307 13.228757 0 
C 13.228757 -3.508307 11.834891 -6.873396 9.354143 -9.354143 
C 6.873396 -11.834891 3.508307 -13.228757 0 -13.228757 
C -3.508307 -13.228757 -6.873396 -11.834891 -9.354143 -9.354143 
C -11.834891 -6.873396 -13.228757 -3.508307 -13.228757 0 
C -13.228757 3.508307 -11.834891 6.873396 -9.354143 9.354143 
C -6.873396 11.834891 -3.508307 13.228757 0 13.228757 
z
" style="stroke: #ffffff; stroke-width: 2"/>
    </defs>
    <g clip-path="url(#pcf341c4e9f)">
     <use xlink:href="#mbb26003c02" x="365.632941" y="453.641809" style="fill: #805940; stroke: #ffffff; stroke-width: 2"/>
    </g>
   </g>
   <g id="PathCollection_4">
    <defs>
     <path id="ma61c823152" d="M 0 13.228757 
C 3.508307 13.228757 6.873396 11.834891 9.354143 9.354143 
C 11.834891 6.873396 13.228757 3.508307 13.228757 0 
C 13.228757 -3.508307 11.834891 -6.873396 9.354143 -9.354143 
C 6.873396 -11.834891 3.508307 -13.228757 0 -13.228757 
C -3.508307 -13.228757 -6.873396 -11.834891 -9.354143 -9.354143 
C -11.834891 -6.873396 -13.228757 -3.508307 -13.228757 0 
C -13.228757 3.508307 -11.834891 6.873396 -9.354143 9.354143 
C -6.873396 11.834891 -3.508307 13.228757 0 13.228757 
z
" style="stroke: #ffffff; stroke-width: 2"/>
    </defs>
    <g clip-path="url(#pcf341c4e9f)">
     <use xlink:href="#ma61c823152" x="365.632941" y="364.700632" style="fill: #2a9549; stroke: #ffffff; stroke-width: 2"/>
    </g>
   </g>
   <g id="PathCollection_5">
    <g clip-path="url(#pcf341c4e9f)">
     <use xlink:href="#me5ea2573dd" x="294.48" y="453.641809" style="fill: #2f8a4b; stroke: #ffffff; stroke-width: 2"/>
    </g>
   </g>
   <g id="PathCollection_6">
    <defs>
     <path id="m8167301d83" d="M 0 13.228757 
C 3.508307 13.228757 6.873396 11.834891 9.354143 9.354143 
C 11.834891 6.873396 13.228757 3.508307 13.228757 0 
C 13.228757 -3.508307 11.834891 -6.873396 9.354143 -9.354143 
C 6.873396 -11.834891 3.508307 -13.228757 0 -13.228757 
C -3.508307 -13.228757 -6.873396 -11.834891 -9.354143 -9.354143 
C -11.834891 -6.873396 -13.228757 -3.508307 -13.228757 0 
C -13.228757 3.508307 -11.834891 6.873396 -9.354143 9.354143 
C -6.873396 11.834891 -3.508307 13.228757 0 13.228757 
z
" style="stroke: #ffffff; stroke-width: 2"/>
    </defs>
    <g clip-path="url(#pcf341c4e9f)">
     <use xlink:href="#m8167301d83" x="294.48" y="364.700632" style="fill: #cc3333; stroke: #ffffff; stroke-width: 2"/>
    </g>
   </g>
   <g id="PathCollection_7">
    <g clip-path="url(#pcf341c4e9f)">
     <use xlink:href="#me5ea2573dd" x="552.409412" y="409.171221" style="fill: #2f8a4b; stroke: #ffffff; stroke-width: 2"/>
    </g>
   </g>
   <g id="PathCollection_8">
    <g clip-path="url(#pcf341c4e9f)">
     <use xlink:href="#m8167301d83" x="552.409412" y="320.230044" style="fill: #cc3333; stroke: #ffffff; stroke-width: 2"/>
    </g>
   </g>
   <g id="PathCollection_9">
    <defs>
     <path id="m02b263a0c6" d="M 0 13.228757 
C 3.508307 13.228757 6.873396 11.834891 9.354143 9.354143 
C 11.834891 6.873396 13.228757 3.508307 13.228757 0 
C 13.228757 -3.508307 11.834891 -6.873396 9.354143 -9.354143 
C 6.873396 -11.834891 3.508307 -13.228757 0 -13.228757 
C -3.508307 -13.228757 -6.873396 -11.834891 -9.354143 -9.354143 
C -11.834891 -6.873396 -13.228757 -3.508307 -13.228757 0 
C -13.228757 3.508307 -11.834891 6.873396 -9.354143 9.354143 
C -6.873396 11.834891 -3.508307 13.228757 0 13.228757 
z
" style="stroke: #ffffff; stroke-width: 2"/>
    </defs>
    <g clip-path="url(#pcf341c4e9f)">
     <use xlink:href="#m02b263a0c6" x="107.703529" y="231.288868" style="fill: #a64639; stroke: #ffffff; stroke-width: 2"/>
    </g>
   </g>
   <g id="PathCollection_10">
    <g clip-path="url(#pcf341c4e9f)">
     <use xlink:href="#m8a687405dd" x="107.703529" y="142.347691" style="fill: #33804c; stroke: #ffffff; stroke-width: 2"/>
    </g>
   </g>
   <g id="PathCollection_11">
    <g clip-path="url(#pcf341c4e9f)">
     <use xlink:href="#m8a687405dd" x="365.632941" y="275.759456" style="fill: #33804c; stroke: #ffffff; stroke-width: 2"/>
    </g>
   </g>
   <g id="PathCollection_12">
    <g clip-path="url(#pcf341c4e9f)">
     <use xlink:href="#mbb26003c02" x="365.632941" y="186.818279" style="fill: #805940; stroke: #ffffff; stroke-width: 2"/>
    </g>
   </g>
   <g id="PathCollection_13">
    <g clip-path="url(#pcf341c4e9f)">
     <use xlink:href="#ma61c823152" x="294.48" y="275.759456" style="fill: #2a9549; stroke: #ffffff; stroke-width: 2"/>
    </g>
   </g>
   <g id="PathCollection_14">
    <g clip-path="url(#pcf341c4e9f)">
     <use xlink:href="#m8167301d83" x="294.48" y="186.818279" style="fill: #cc3333; stroke: #ffffff; stroke-width: 2"/>
    </g>
   </g>
   <g id="PathCollection_15">
    <g clip-path="url(#pcf341c4e9f)">
     <use xlink:href="#m02b263a0c6" x="552.409412" y="231.288868" style="fill: #a64639; stroke: #ffffff; stroke-width: 2"/>
    </g>
   </g>
   <g id="PathCollection_16">
    <g clip-path="url(#pcf341c4e9f)">
     <use xlink:href="#ma61c823152" x="552.409412" y="142.347691" style="fill: #2a9549; stroke: #ffffff; stroke-width: 2"/>
    </g>
   </g>
   <g id="legend_1">
    <g id="patch_46">
     <path d="M 530.95591 542.97475 
L 646.612941 542.97475 
Q 648.412941 542.97475 648.412941 541.17475 
L 648.412941 502.443813 
Q 648.412941 500.643813 646.612941 500.643813 
L 530.95591 500.643813 
Q 529.15591 500.643813 529.15591 502.443813 
L 529.15591 541.17475 
Q 529.15591 542.97475 530.95591 542.97475 
z
" style="fill: #ffffff; opacity: 0.8; stroke: #cccccc; stroke-linejoin: miter"/>
    </g>
    <g id="line2d_1">
     <path d="M 532.75591 507.932406 
L 541.75591 507.932406 
L 550.75591 507.932406 
" style="fill: none; stroke: #22aa44; stroke-width: 2; stroke-linecap: square"/>
    </g>
    <g id="text_21">
     <!-- Sheng (generative) -->
     <g transform="translate(557.95591 511.082406) scale(0.09 -0.09)">
      <defs>
       <path id="DejaVuSans-68" d="M 3513 2113 
L 3513 0 
L 2938 0 
L 2938 2094 
Q 2938 2591 2744 2837 
Q 2550 3084 2163 3084 
Q 1697 3084 1428 2787 
Q 1159 2491 1159 1978 
L 1159 0 
L 581 0 
L 581 4863 
L 1159 4863 
L 1159 2956 
Q 1366 3272 1645 3428 
Q 1925 3584 2291 3584 
Q 2894 3584 3203 3211 
Q 3513 2838 3513 2113 
z
" transform="scale(0.015625)"/>
       <path id="DejaVuSans-65" d="M 3597 1894 
L 3597 1613 
L 953 1613 
Q 991 1019 1311 708 
Q 1631 397 2203 397 
Q 2534 397 2845 478 
Q 3156 559 3463 722 
L 3463 178 
Q 3153 47 2828 -22 
Q 2503 -91 2169 -91 
Q 1331 -91 842 396 
Q 353 884 353 1716 
Q 353 2575 817 3079 
Q 1281 3584 2069 3584 
Q 2775 3584 3186 3129 
Q 3597 2675 3597 1894 
z
M 3022 2063 
Q 3016 2534 2758 2815 
Q 2500 3097 2075 3097 
Q 1594 3097 1305 2825 
Q 1016 2553 972 2059 
L 3022 2063 
z
" transform="scale(0.015625)"/>
       <path id="DejaVuSans-6e" d="M 3513 2113 
L 3513 0 
L 2938 0 
L 2938 2094 
Q 2938 2591 2744 2837 
Q 2550 3084 2163 3084 
Q 1697 3084 1428 2787 
Q 1159 2491 1159 1978 
L 1159 0 
L 581 0 
L 581 3500 
L 1159 3500 
L 1159 2956 
Q 1366 3272 1645 3428 
Q 1925 3584 2291 3584 
Q 2894 3584 3203 3211 
Q 3513 2838 3513 2113 
z
" transform="scale(0.015625)"/>
       <path id="DejaVuSans-67" d="M 2906 1791 
Q 2906 2416 2648 2759 
Q 2391 3103 1925 3103 
Q 1463 3103 1205 2759 
Q 947 2416 947 1791 
Q 947 1169 1205 825 
Q 1463 481 1925 481 
Q 2391 481 2648 825 
Q 2906 1169 2906 1791 
z
M 3481 434 
Q 3481 -459 3084 -895 
Q 2688 -1331 1869 -1331 
Q 1566 -1331 1297 -1286 
Q 1028 -1241 775 -1147 
L 775 -588 
Q 1028 -725 1275 -790 
Q 1522 -856 1778 -856 
Q 2344 -856 2625 -561 
Q 2906 -266 2906 331 
L 2906 616 
Q 2728 306 2450 153 
Q 2172 0 1784 0 
Q 1141 0 747 490 
Q 353 981 353 1791 
Q 353 2603 747 3093 
Q 1141 3584 1784 3584 
Q 2172 3584 2450 3431 
Q 2728 3278 2906 2969 
L 2906 3500 
L 3481 3500 
L 3481 434 
z
" transform="scale(0.015625)"/>
       <path id="DejaVuSans-72" d="M 2631 2963 
Q 2534 3019 2420 3045 
Q 2306 3072 2169 3072 
Q 1681 3072 1420 2755 
Q 1159 2438 1159 1844 
L 1159 0 
L 581 0 
L 581 3500 
L 1159 3500 
L 1159 2956 
Q 1341 3275 1631 3429 
Q 1922 3584 2338 3584 
Q 2397 3584 2469 3576 
Q 2541 3569 2628 3553 
L 2631 2963 
z
" transform="scale(0.015625)"/>
       <path id="DejaVuSans-61" d="M 2194 1759 
Q 1497 1759 1228 1600 
Q 959 1441 959 1056 
Q 959 750 1161 570 
Q 1363 391 1709 391 
Q 2188 391 2477 730 
Q 2766 1069 2766 1631 
L 2766 1759 
L 2194 1759 
z
M 3341 1997 
L 3341 0 
L 2766 0 
L 2766 531 
Q 2569 213 2275 61 
Q 1981 -91 1556 -91 
Q 1019 -91 701 211 
Q 384 513 384 1019 
Q 384 1609 779 1909 
Q 1175 2209 1959 2209 
L 2766 2209 
L 2766 2266 
Q 2766 2663 2505 2880 
Q 2244 3097 1772 3097 
Q 1472 3097 1187 3025 
Q 903 2953 641 2809 
L 641 3341 
Q 956 3463 1253 3523 
Q 1550 3584 1831 3584 
Q 2591 3584 2966 3190 
Q 3341 2797 3341 1997 
z
" transform="scale(0.015625)"/>
       <path id="DejaVuSans-74" d="M 1172 4494 
L 1172 3500 
L 2356 3500 
L 2356 3053 
L 1172 3053 
L 1172 1153 
Q 1172 725 1289 603 
Q 1406 481 1766 481 
L 2356 481 
L 2356 0 
L 1766 0 
Q 1100 0 847 248 
Q 594 497 594 1153 
L 594 3053 
L 172 3053 
L 172 3500 
L 594 3500 
L 594 4494 
L 1172 4494 
z
" transform="scale(0.015625)"/>
       <path id="DejaVuSans-69" d="M 603 3500 
L 1178 3500 
L 1178 0 
L 603 0 
L 603 3500 
z
M 603 4863 
L 1178 4863 
L 1178 4134 
L 603 4134 
L 603 4863 
z
" transform="scale(0.015625)"/>
       <path id="DejaVuSans-76" d="M 191 3500 
L 800 3500 
L 1894 563 
L 2988 3500 
L 3597 3500 
L 2284 0 
L 1503 0 
L 191 3500 
z
" transform="scale(0.015625)"/>
      </defs>
      <use xlink:href="#DejaVuSans-53"/>
      <use xlink:href="#DejaVuSans-68" transform="translate(63.476562 0)"/>
      <use xlink:href="#DejaVuSans-65" transform="translate(126.855469 0)"/>
      <use xlink:href="#DejaVuSans-6e" transform="translate(188.378906 0)"/>
      <use xlink:href="#DejaVuSans-67" transform="translate(251.757812 0)"/>
      <use xlink:href="#DejaVuSans-20" transform="translate(315.234375 0)"/>
      <use xlink:href="#DejaVuSans-28" transform="translate(347.021484 0)"/>
      <use xlink:href="#DejaVuSans-67" transform="translate(386.035156 0)"/>
      <use xlink:href="#DejaVuSans-65" transform="translate(449.511719 0)"/>
      <use xlink:href="#DejaVuSans-6e" transform="translate(511.035156 0)"/>
      <use xlink:href="#DejaVuSans-65" transform="translate(574.414062 0)"/>
      <use xlink:href="#DejaVuSans-72" transform="translate(635.9375 0)"/>
      <use xlink:href="#DejaVuSans-61" transform="translate(677.050781 0)"/>
      <use xlink:href="#DejaVuSans-74" transform="translate(738.330078 0)"/>
      <use xlink:href="#DejaVuSans-69" transform="translate(777.539062 0)"/>
      <use xlink:href="#DejaVuSans-76" transform="translate(805.322266 0)"/>
      <use xlink:href="#DejaVuSans-65" transform="translate(864.501953 0)"/>
      <use xlink:href="#DejaVuSans-29" transform="translate(926.025391 0)"/>
     </g>
    </g>
    <g id="line2d_2">
     <path d="M 532.75591 521.142719 
L 541.75591 521.142719 
L 550.75591 521.142719 
" style="fill: none; stroke: #cc3333; stroke-width: 2; stroke-linecap: square"/>
    </g>
    <g id="text_22">
     <!-- Ke (destructive) -->
     <g transform="translate(557.95591 524.292719) scale(0.09 -0.09)">
      <defs>
       <path id="DejaVuSans-64" d="M 2906 2969 
L 2906 4863 
L 3481 4863 
L 3481 0 
L 2906 0 
L 2906 525 
Q 2725 213 2448 61 
Q 2172 -91 1784 -91 
Q 1150 -91 751 415 
Q 353 922 353 1747 
Q 353 2572 751 3078 
Q 1150 3584 1784 3584 
Q 2172 3584 2448 3432 
Q 2725 3281 2906 2969 
z
M 947 1747 
Q 947 1113 1208 752 
Q 1469 391 1925 391 
Q 2381 391 2643 752 
Q 2906 1113 2906 1747 
Q 2906 2381 2643 2742 
Q 2381 3103 1925 3103 
Q 1469 3103 1208 2742 
Q 947 2381 947 1747 
z
" transform="scale(0.015625)"/>
       <path id="DejaVuSans-73" d="M 2834 3397 
L 2834 2853 
Q 2591 2978 2328 3040 
Q 2066 3103 1784 3103 
Q 1356 3103 1142 2972 
Q 928 2841 928 2578 
Q 928 2378 1081 2264 
Q 1234 2150 1697 2047 
L 1894 2003 
Q 2506 1872 2764 1633 
Q 3022 1394 3022 966 
Q 3022 478 2636 193 
Q 2250 -91 1575 -91 
Q 1294 -91 989 -36 
Q 684 19 347 128 
L 347 722 
Q 666 556 975 473 
Q 1284 391 1588 391 
Q 1994 391 2212 530 
Q 2431 669 2431 922 
Q 2431 1156 2273 1281 
Q 2116 1406 1581 1522 
L 1381 1569 
Q 847 1681 609 1914 
Q 372 2147 372 2553 
Q 372 3047 722 3315 
Q 1072 3584 1716 3584 
Q 2034 3584 2315 3537 
Q 2597 3491 2834 3397 
z
" transform="scale(0.015625)"/>
       <path id="DejaVuSans-75" d="M 544 1381 
L 544 3500 
L 1119 3500 
L 1119 1403 
Q 1119 906 1312 657 
Q 1506 409 1894 409 
Q 2359 409 2629 706 
Q 2900 1003 2900 1516 
L 2900 3500 
L 3475 3500 
L 3475 0 
L 2900 0 
L 2900 538 
Q 2691 219 2414 64 
Q 2138 -91 1772 -91 
Q 1169 -91 856 284 
Q 544 659 544 1381 
z
M 1991 3584 
L 1991 3584 
z
" transform="scale(0.015625)"/>
       <path id="DejaVuSans-63" d="M 3122 3366 
L 3122 2828 
Q 2878 2963 2633 3030 
Q 2388 3097 2138 3097 
Q 1578 3097 1268 2742 
Q 959 2388 959 1747 
Q 959 1106 1268 751 
Q 1578 397 2138 397 
Q 2388 397 2633 464 
Q 2878 531 3122 666 
L 3122 134 
Q 2881 22 2623 -34 
Q 2366 -91 2075 -91 
Q 1284 -91 818 406 
Q 353 903 353 1747 
Q 353 2603 823 3093 
Q 1294 3584 2113 3584 
Q 2378 3584 2631 3529 
Q 2884 3475 3122 3366 
z
" transform="scale(0.015625)"/>
      </defs>
      <use xlink:href="#DejaVuSans-4b"/>
      <use xlink:href="#DejaVuSans-65" transform="translate(60.576172 0)"/>
      <use xlink:href="#DejaVuSans-20" transform="translate(122.099609 0)"/>
      <use xlink:href="#DejaVuSans-28" transform="translate(153.886719 0)"/>
      <use xlink:href="#DejaVuSans-64" transform="translate(192.900391 0)"/>
      <use xlink:href="#DejaVuSans-65" transform="translate(256.376953 0)"/>
      <use xlink:href="#DejaVuSans-73" transform="translate(317.900391 0)"/>
      <use xlink:href="#DejaVuSans-74" transform="translate(370 0)"/>
      <use xlink:href="#DejaVuSans-72" transform="translate(409.208984 0)"/>
      <use xlink:href="#DejaVuSans-75" transform="translate(450.322266 0)"/>
      <use xlink:href="#DejaVuSans-63" transform="translate(513.701172 0)"/>
      <use xlink:href="#DejaVuSans-74" transform="translate(568.681641 0)"/>
      <use xlink:href="#DejaVuSans-69" transform="translate(607.890625 0)"/>
      <use xlink:href="#DejaVuSans-76" transform="translate(635.673828 0)"/>
      <use xlink:href="#DejaVuSans-65" transform="translate(694.853516 0)"/>
      <use xlink:href="#DejaVuSans-29" transform="translate(756.376953 0)"/>
     </g>
    </g>
    <g id="line2d_3">
     <path d="M 532.75591 534.353031 
L 541.75591 534.353031 
L 550.75591 534.353031 
" style="fill: none; stroke: #aaaaaa; stroke-width: 2; stroke-linecap: square"/>
    </g>
    <g id="text_23">
     <!-- Bi (same element) -->
     <g transform="translate(557.95591 537.503031) scale(0.09 -0.09)">
      <defs>
       <path id="DejaVuSans-42" d="M 1259 2228 
L 1259 519 
L 2272 519 
Q 2781 519 3026 730 
Q 3272 941 3272 1375 
Q 3272 1813 3026 2020 
Q 2781 2228 2272 2228 
L 1259 2228 
z
M 1259 4147 
L 1259 2741 
L 2194 2741 
Q 2656 2741 2882 2914 
Q 3109 3088 3109 3444 
Q 3109 3797 2882 3972 
Q 2656 4147 2194 4147 
L 1259 4147 
z
M 628 4666 
L 2241 4666 
Q 2963 4666 3353 4366 
Q 3744 4066 3744 3513 
Q 3744 3084 3544 2831 
Q 3344 2578 2956 2516 
Q 3422 2416 3680 2098 
Q 3938 1781 3938 1306 
Q 3938 681 3513 340 
Q 3088 0 2303 0 
L 628 0 
L 628 4666 
z
" transform="scale(0.015625)"/>
       <path id="DejaVuSans-6d" d="M 3328 2828 
Q 3544 3216 3844 3400 
Q 4144 3584 4550 3584 
Q 5097 3584 5394 3201 
Q 5691 2819 5691 2113 
L 5691 0 
L 5113 0 
L 5113 2094 
Q 5113 2597 4934 2840 
Q 4756 3084 4391 3084 
Q 3944 3084 3684 2787 
Q 3425 2491 3425 1978 
L 3425 0 
L 2847 0 
L 2847 2094 
Q 2847 2600 2669 2842 
Q 2491 3084 2119 3084 
Q 1678 3084 1418 2786 
Q 1159 2488 1159 1978 
L 1159 0 
L 581 0 
L 581 3500 
L 1159 3500 
L 1159 2956 
Q 1356 3278 1631 3431 
Q 1906 3584 2284 3584 
Q 2666 3584 2933 3390 
Q 3200 3197 3328 2828 
z
" transform="scale(0.015625)"/>
       <path id="DejaVuSans-6c" d="M 603 4863 
L 1178 4863 
L 1178 0 
L 603 0 
L 603 4863 
z
" transform="scale(0.015625)"/>
      </defs>
      <use xlink:href="#DejaVuSans-42"/>
      <use xlink:href="#DejaVuSans-69" transform="translate(68.603516 0)"/>
      <use xlink:href="#DejaVuSans-20" transform="translate(96.386719 0)"/>
      <use xlink:href="#DejaVuSans-28" transform="translate(128.173828 0)"/>
      <use xlink:href="#DejaVuSans-73" transform="translate(167.1875 0)"/>
      <use xlink:href="#DejaVuSans-61" transform="translate(219.287109 0)"/>
      <use xlink:href="#DejaVuSans-6d" transform="translate(280.566406 0)"/>
      <use xlink:href="#DejaVuSans-65" transform="translate(377.978516 0)"/>
      <use xlink:href="#DejaVuSans-20" transform="translate(439.501953 0)"/>
      <use xlink:href="#DejaVuSans-65" transform="translate(471.289062 0)"/>
      <use xlink:href="#DejaVuSans-6c" transform="translate(532.8125 0)"/>
      <use xlink:href="#DejaVuSans-65" transform="translate(560.595703 0)"/>
      <use xlink:href="#DejaVuSans-6d" transform="translate(622.119141 0)"/>
      <use xlink:href="#DejaVuSans-65" transform="translate(719.53125 0)"/>
      <use xlink:href="#DejaVuSans-6e" transform="translate(781.054688 0)"/>
      <use xlink:href="#DejaVuSans-74" transform="translate(844.433594 0)"/>
      <use xlink:href="#DejaVuSans-29" transform="translate(883.642578 0)"/>
     </g>
    </g>
   </g>
   <g id="text_24">
    <!-- Kun/Kun -->
    <g style="fill: #ffffff" transform="translate(91.157279 409.32396) scale(0.07 -0.07)">
     <use xlink:href="#DejaVuSans-Bold-4b"/>
     <use xlink:href="#DejaVuSans-Bold-75" transform="translate(75.740234 0)"/>
     <use xlink:href="#DejaVuSans-Bold-6e" transform="translate(146.931641 0)"/>
     <use xlink:href="#DejaVuSans-Bold-2f" transform="translate(218.123047 0)"/>
     <use xlink:href="#DejaVuSans-Bold-4b" transform="translate(254.646484 0)"/>
     <use xlink:href="#DejaVuSans-Bold-75" transform="translate(330.386719 0)"/>
     <use xlink:href="#DejaVuSans-Bold-6e" transform="translate(401.578125 0)"/>
    </g>
   </g>
   <g id="text_25">
    <!-- Zhe/Kun -->
    <g style="fill: #ffffff" transform="translate(91.387514 320.382783) scale(0.07 -0.07)">
     <defs>
      <path id="DejaVuSans-Bold-5a" d="M 359 4666 
L 4281 4666 
L 4281 3938 
L 1778 909 
L 4353 909 
L 4353 0 
L 288 0 
L 288 728 
L 2791 3756 
L 359 3756 
L 359 4666 
z
" transform="scale(0.015625)"/>
     </defs>
     <use xlink:href="#DejaVuSans-Bold-5a"/>
     <use xlink:href="#DejaVuSans-Bold-68" transform="translate(72.509766 0)"/>
     <use xlink:href="#DejaVuSans-Bold-65" transform="translate(143.701172 0)"/>
     <use xlink:href="#DejaVuSans-Bold-2f" transform="translate(211.523438 0)"/>
     <use xlink:href="#DejaVuSans-Bold-4b" transform="translate(248.046875 0)"/>
     <use xlink:href="#DejaVuSans-Bold-75" transform="translate(323.787109 0)"/>
     <use xlink:href="#DejaVuSans-Bold-6e" transform="translate(394.978516 0)"/>
    </g>
   </g>
   <g id="text_26">
    <!-- Kan/Zhe -->
    <g style="fill: #ffffff" transform="translate(349.385285 453.794548) scale(0.07 -0.07)">
     <use xlink:href="#DejaVuSans-Bold-4b"/>
     <use xlink:href="#DejaVuSans-Bold-61" transform="translate(77.490234 0)"/>
     <use xlink:href="#DejaVuSans-Bold-6e" transform="translate(144.970703 0)"/>
     <use xlink:href="#DejaVuSans-Bold-2f" transform="translate(216.162109 0)"/>
     <use xlink:href="#DejaVuSans-Bold-5a" transform="translate(252.685547 0)"/>
     <use xlink:href="#DejaVuSans-Bold-68" transform="translate(325.195312 0)"/>
     <use xlink:href="#DejaVuSans-Bold-65" transform="translate(396.386719 0)"/>
    </g>
   </g>
   <g id="text_27">
    <!-- Dui/Zhe -->
    <g style="fill: #ffffff" transform="translate(350.353801 364.853371) scale(0.07 -0.07)">
     <defs>
      <path id="DejaVuSans-Bold-44" d="M 1791 3756 
L 1791 909 
L 2222 909 
Q 2959 909 3348 1275 
Q 3738 1641 3738 2338 
Q 3738 3031 3350 3393 
Q 2963 3756 2222 3756 
L 1791 3756 
z
M 588 4666 
L 1856 4666 
Q 2919 4666 3439 4514 
Q 3959 4363 4331 4000 
Q 4659 3684 4818 3271 
Q 4978 2859 4978 2338 
Q 4978 1809 4818 1395 
Q 4659 981 4331 666 
Q 3956 303 3431 151 
Q 2906 0 1856 0 
L 588 0 
L 588 4666 
z
" transform="scale(0.015625)"/>
     </defs>
     <use xlink:href="#DejaVuSans-Bold-44"/>
     <use xlink:href="#DejaVuSans-Bold-75" transform="translate(83.007812 0)"/>
     <use xlink:href="#DejaVuSans-Bold-69" transform="translate(154.199219 0)"/>
     <use xlink:href="#DejaVuSans-Bold-2f" transform="translate(188.476562 0)"/>
     <use xlink:href="#DejaVuSans-Bold-5a" transform="translate(225 0)"/>
     <use xlink:href="#DejaVuSans-Bold-68" transform="translate(297.509766 0)"/>
     <use xlink:href="#DejaVuSans-Bold-65" transform="translate(368.701172 0)"/>
    </g>
   </g>
   <g id="text_28">
    <!-- Gen/Kan -->
    <g style="fill: #ffffff" transform="translate(277.897656 453.794548) scale(0.07 -0.07)">
     <defs>
      <path id="DejaVuSans-Bold-47" d="M 4781 347 
Q 4331 128 3847 18 
Q 3363 -91 2847 -91 
Q 1681 -91 1000 561 
Q 319 1213 319 2328 
Q 319 3456 1012 4103 
Q 1706 4750 2913 4750 
Q 3378 4750 3804 4662 
Q 4231 4575 4609 4403 
L 4609 3438 
Q 4219 3659 3833 3768 
Q 3447 3878 3059 3878 
Q 2341 3878 1952 3476 
Q 1563 3075 1563 2328 
Q 1563 1588 1938 1184 
Q 2313 781 3003 781 
Q 3191 781 3352 804 
Q 3513 828 3641 878 
L 3641 1784 
L 2906 1784 
L 2906 2591 
L 4781 2591 
L 4781 347 
z
" transform="scale(0.015625)"/>
     </defs>
     <use xlink:href="#DejaVuSans-Bold-47"/>
     <use xlink:href="#DejaVuSans-Bold-65" transform="translate(82.080078 0)"/>
     <use xlink:href="#DejaVuSans-Bold-6e" transform="translate(149.902344 0)"/>
     <use xlink:href="#DejaVuSans-Bold-2f" transform="translate(221.09375 0)"/>
     <use xlink:href="#DejaVuSans-Bold-4b" transform="translate(257.617188 0)"/>
     <use xlink:href="#DejaVuSans-Bold-61" transform="translate(335.107422 0)"/>
     <use xlink:href="#DejaVuSans-Bold-6e" transform="translate(402.587891 0)"/>
    </g>
   </g>
   <g id="text_29">
    <!-- Li/Kan -->
    <g style="fill: #ffffff" transform="translate(282.205937 364.853371) scale(0.07 -0.07)">
     <use xlink:href="#DejaVuSans-Bold-4c"/>
     <use xlink:href="#DejaVuSans-Bold-69" transform="translate(63.720703 0)"/>
     <use xlink:href="#DejaVuSans-Bold-2f" transform="translate(97.998047 0)"/>
     <use xlink:href="#DejaVuSans-Bold-4b" transform="translate(134.521484 0)"/>
     <use xlink:href="#DejaVuSans-Bold-61" transform="translate(212.011719 0)"/>
     <use xlink:href="#DejaVuSans-Bold-6e" transform="translate(279.492188 0)"/>
    </g>
   </g>
   <g id="text_30">
    <!-- Xun/Dui -->
    <g style="fill: #ffffff" transform="translate(536.852459 409.32396) scale(0.07 -0.07)">
     <defs>
      <path id="DejaVuSans-Bold-58" d="M 3188 2381 
L 4806 0 
L 3553 0 
L 2463 1594 
L 1381 0 
L 122 0 
L 1741 2381 
L 184 4666 
L 1441 4666 
L 2463 3163 
L 3481 4666 
L 4744 4666 
L 3188 2381 
z
" transform="scale(0.015625)"/>
     </defs>
     <use xlink:href="#DejaVuSans-Bold-58"/>
     <use xlink:href="#DejaVuSans-Bold-75" transform="translate(77.099609 0)"/>
     <use xlink:href="#DejaVuSans-Bold-6e" transform="translate(148.291016 0)"/>
     <use xlink:href="#DejaVuSans-Bold-2f" transform="translate(219.482422 0)"/>
     <use xlink:href="#DejaVuSans-Bold-44" transform="translate(256.005859 0)"/>
     <use xlink:href="#DejaVuSans-Bold-75" transform="translate(339.013672 0)"/>
     <use xlink:href="#DejaVuSans-Bold-69" transform="translate(410.205078 0)"/>
    </g>
   </g>
   <g id="text_31">
    <!-- Qia/Dui -->
    <g style="fill: #ffffff" transform="translate(537.996521 320.382783) scale(0.07 -0.07)">
     <use xlink:href="#DejaVuSans-Bold-51"/>
     <use xlink:href="#DejaVuSans-Bold-69" transform="translate(85.009766 0)"/>
     <use xlink:href="#DejaVuSans-Bold-61" transform="translate(119.287109 0)"/>
     <use xlink:href="#DejaVuSans-Bold-2f" transform="translate(186.767578 0)"/>
     <use xlink:href="#DejaVuSans-Bold-44" transform="translate(223.291016 0)"/>
     <use xlink:href="#DejaVuSans-Bold-75" transform="translate(306.298828 0)"/>
     <use xlink:href="#DejaVuSans-Bold-69" transform="translate(377.490234 0)"/>
    </g>
   </g>
   <g id="text_32">
    <!-- Kun/Gen -->
    <g style="fill: #ffffff" transform="translate(91.052826 231.441607) scale(0.07 -0.07)">
     <use xlink:href="#DejaVuSans-Bold-4b"/>
     <use xlink:href="#DejaVuSans-Bold-75" transform="translate(75.740234 0)"/>
     <use xlink:href="#DejaVuSans-Bold-6e" transform="translate(146.931641 0)"/>
     <use xlink:href="#DejaVuSans-Bold-2f" transform="translate(218.123047 0)"/>
     <use xlink:href="#DejaVuSans-Bold-47" transform="translate(254.646484 0)"/>
     <use xlink:href="#DejaVuSans-Bold-65" transform="translate(336.726562 0)"/>
     <use xlink:href="#DejaVuSans-Bold-6e" transform="translate(404.548828 0)"/>
    </g>
   </g>
   <g id="text_33">
    <!-- Zhe/Gen -->
    <g style="fill: #ffffff" transform="translate(91.283061 142.50043) scale(0.07 -0.07)">
     <use xlink:href="#DejaVuSans-Bold-5a"/>
     <use xlink:href="#DejaVuSans-Bold-68" transform="translate(72.509766 0)"/>
     <use xlink:href="#DejaVuSans-Bold-65" transform="translate(143.701172 0)"/>
     <use xlink:href="#DejaVuSans-Bold-2f" transform="translate(211.523438 0)"/>
     <use xlink:href="#DejaVuSans-Bold-47" transform="translate(248.046875 0)"/>
     <use xlink:href="#DejaVuSans-Bold-65" transform="translate(330.126953 0)"/>
     <use xlink:href="#DejaVuSans-Bold-6e" transform="translate(397.949219 0)"/>
    </g>
   </g>
   <g id="text_34">
    <!-- Kan/Li -->
    <g style="fill: #ffffff" transform="translate(353.358879 275.912195) scale(0.07 -0.07)">
     <use xlink:href="#DejaVuSans-Bold-4b"/>
     <use xlink:href="#DejaVuSans-Bold-61" transform="translate(77.490234 0)"/>
     <use xlink:href="#DejaVuSans-Bold-6e" transform="translate(144.970703 0)"/>
     <use xlink:href="#DejaVuSans-Bold-2f" transform="translate(216.162109 0)"/>
     <use xlink:href="#DejaVuSans-Bold-4c" transform="translate(252.685547 0)"/>
     <use xlink:href="#DejaVuSans-Bold-69" transform="translate(316.40625 0)"/>
    </g>
   </g>
   <g id="text_35">
    <!-- Dui/Li -->
    <g style="fill: #ffffff" transform="translate(354.327394 186.971018) scale(0.07 -0.07)">
     <use xlink:href="#DejaVuSans-Bold-44"/>
     <use xlink:href="#DejaVuSans-Bold-75" transform="translate(83.007812 0)"/>
     <use xlink:href="#DejaVuSans-Bold-69" transform="translate(154.199219 0)"/>
     <use xlink:href="#DejaVuSans-Bold-2f" transform="translate(188.476562 0)"/>
     <use xlink:href="#DejaVuSans-Bold-4c" transform="translate(225 0)"/>
     <use xlink:href="#DejaVuSans-Bold-69" transform="translate(288.720703 0)"/>
    </g>
   </g>
   <g id="text_36">
    <!-- Gen/Xun -->
    <g style="fill: #ffffff" transform="translate(277.781719 275.912195) scale(0.07 -0.07)">
     <use xlink:href="#DejaVuSans-Bold-47"/>
     <use xlink:href="#DejaVuSans-Bold-65" transform="translate(82.080078 0)"/>
     <use xlink:href="#DejaVuSans-Bold-6e" transform="translate(149.902344 0)"/>
     <use xlink:href="#DejaVuSans-Bold-2f" transform="translate(221.09375 0)"/>
     <use xlink:href="#DejaVuSans-Bold-58" transform="translate(257.617188 0)"/>
     <use xlink:href="#DejaVuSans-Bold-75" transform="translate(334.716797 0)"/>
     <use xlink:href="#DejaVuSans-Bold-6e" transform="translate(405.908203 0)"/>
    </g>
   </g>
   <g id="text_37">
    <!-- Li/Xun -->
    <g style="fill: #ffffff" transform="translate(282.09 186.971018) scale(0.07 -0.07)">
     <use xlink:href="#DejaVuSans-Bold-4c"/>
     <use xlink:href="#DejaVuSans-Bold-69" transform="translate(63.720703 0)"/>
     <use xlink:href="#DejaVuSans-Bold-2f" transform="translate(97.998047 0)"/>
     <use xlink:href="#DejaVuSans-Bold-58" transform="translate(134.521484 0)"/>
     <use xlink:href="#DejaVuSans-Bold-75" transform="translate(211.621094 0)"/>
     <use xlink:href="#DejaVuSans-Bold-6e" transform="translate(282.8125 0)"/>
    </g>
   </g>
   <g id="text_38">
    <!-- Xun/Qia -->
    <g style="fill: #ffffff" transform="translate(536.912068 231.441607) scale(0.07 -0.07)">
     <use xlink:href="#DejaVuSans-Bold-58"/>
     <use xlink:href="#DejaVuSans-Bold-75" transform="translate(77.099609 0)"/>
     <use xlink:href="#DejaVuSans-Bold-6e" transform="translate(148.291016 0)"/>
     <use xlink:href="#DejaVuSans-Bold-2f" transform="translate(219.482422 0)"/>
     <use xlink:href="#DejaVuSans-Bold-51" transform="translate(256.005859 0)"/>
     <use xlink:href="#DejaVuSans-Bold-69" transform="translate(341.015625 0)"/>
     <use xlink:href="#DejaVuSans-Bold-61" transform="translate(375.292969 0)"/>
    </g>
   </g>
   <g id="text_39">
    <!-- Qia/Qia -->
    <g style="fill: #ffffff" transform="translate(538.056131 142.50043) scale(0.07 -0.07)">
     <use xlink:href="#DejaVuSans-Bold-51"/>
     <use xlink:href="#DejaVuSans-Bold-69" transform="translate(85.009766 0)"/>
     <use xlink:href="#DejaVuSans-Bold-61" transform="translate(119.287109 0)"/>
     <use xlink:href="#DejaVuSans-Bold-2f" transform="translate(186.767578 0)"/>
     <use xlink:href="#DejaVuSans-Bold-51" transform="translate(223.291016 0)"/>
     <use xlink:href="#DejaVuSans-Bold-69" transform="translate(308.300781 0)"/>
     <use xlink:href="#DejaVuSans-Bold-61" transform="translate(342.578125 0)"/>
    </g>
   </g>
  </g>
 </g>
 <defs>
  <clipPath id="pcf341c4e9f">
   <rect x="7.2" y="48.51475" width="645.712941" height="498.96"/>
  </clipPath>
 </defs>
</svg>
