<?xml version="1.0" encoding="utf-8" standalone="no"?>
<!DOCTYPE svg PUBLIC "-//W3C//DTD SVG 1.1//EN"
  "http://www.w3.org/Graphics/SVG/1.1/DTD/svg11.dtd">
<svg xmlns:xlink="http://www.w3.org/1999/xlink" width="660.112941pt" height="538.997813pt" viewBox="0 0 660.112941 538.997813" xmlns="http://www.w3.org/2000/svg" version="1.1">
 <metadata>
  <rdf:RDF xmlns:dc="http://purl.org/dc/elements/1.1/" xmlns:cc="http://creativecommons.org/ns#" xmlns:rdf="http://www.w3.org/1999/02/22-rdf-syntax-ns#">
   <cc:Work>
    <dc:type rdf:resource="http://purl.org/dc/dcmitype/StillImage"/>
    <dc:date>2026-03-02T17:37:33.706960</dc:date>
    <dc:format>image/svg+xml</dc:format>
    <dc:creator>
     <cc:Agent>
      <dc:title>Matplotlib v3.10.8, https://matplotlib.org/</dc:title>
     </cc:Agent>
    </dc:creator>
   </cc:Work>
  </rdf:RDF>
 </metadata>
 <defs>
  <style type="text/css">*{stroke-linejoin: round; stroke-linecap: butt}</style>
 </defs>
 <g id="figure_1">
  <g id="patch_1">
   <path d="M 0 538.997813 
L 660.112941 538.997813 
L 660.112941 0 
L 0 0 
z
" style="fill: #ffffff"/>
  </g>
  <g id="axes_1">
   <g id="patch_2">
    <path d="M 54.338824 464.647224 
L 161.068235 464.647224 
Q 178.856471 464.647224 178.856471 446.858989 
L 178.856471 73.306048 
Q 178.856471 55.517812 161.068235 55.517812 
L 54.338824 55.517812 
Q 36.550588 55.517812 36.550588 73.306048 
L 36.550588 446.858989 
Q 36.550588 464.647224 54.338824 464.647224 
z
" clip-path="url(#p46533c26e1)" style="fill: #aaccee; opacity: 0.3; stroke: #4488cc; stroke-width: 1.5; stroke-linejoin: miter"/>
   </g>
   <g id="patch_3">
    <path d="M 241.115294 509.117813 
L 418.997647 509.117813 
Q 436.785882 509.117813 436.785882 491.329577 
L 436.785882 117.776636 
Q 436.785882 99.988401 418.997647 99.988401 
L 241.115294 99.988401 
Q 223.327059 99.988401 223.327059 117.776636 
L 223.327059 491.329577 
Q 223.327059 509.117813 241.115294 509.117813 
z
" clip-path="url(#p46533c26e1)" style="fill: #aaddbb; opacity: 0.3; stroke: #44aa66; stroke-width: 1.5; stroke-linejoin: miter"/>
   </g>
   <g id="patch_4">
    <path d="M 499.044706 464.647224 
L 605.774118 464.647224 
Q 623.562353 464.647224 623.562353 446.858989 
L 623.562353 73.306048 
Q 623.562353 55.517812 605.774118 55.517812 
L 499.044706 55.517812 
Q 481.256471 55.517812 481.256471 73.306048 
L 481.256471 446.858989 
Q 481.256471 464.647224 499.044706 464.647224 
z
" clip-path="url(#p46533c26e1)" style="fill: #eeaaaa; opacity: 0.3; stroke: #cc4444; stroke-width: 1.5; stroke-linejoin: miter"/>
   </g>
   <g id="text_1">
    <!-- Kun -->
    <g style="fill: #4488cc" transform="translate(95.707514 44.336039) scale(0.11 -0.11)">
     <defs>
      <path id="DejaVuSans-Bold-4b" d="M 588 4666 
L 1791 4666 
L 1791 2963 
L 3525 4666 
L 4922 4666 
L 2675 2456 
L 5153 0 
L 3647 0 
L 1791 1838 
L 1791 0 
L 588 0 
L 588 4666 
z
" transform="scale(0.015625)"/>
      <path id="DejaVuSans-Bold-75" d="M 500 1363 
L 500 3500 
L 1625 3500 
L 1625 3150 
Q 1625 2866 1622 2436 
Q 1619 2006 1619 1863 
Q 1619 1441 1641 1255 
Q 1663 1069 1716 984 
Q 1784 875 1895 815 
Q 2006 756 2150 756 
Q 2500 756 2700 1025 
Q 2900 1294 2900 1772 
L 2900 3500 
L 4019 3500 
L 4019 0 
L 2900 0 
L 2900 506 
Q 2647 200 2364 54 
Q 2081 -91 1741 -91 
Q 1134 -91 817 281 
Q 500 653 500 1363 
z
" transform="scale(0.015625)"/>
      <path id="DejaVuSans-Bold-6e" d="M 4056 2131 
L 4056 0 
L 2931 0 
L 2931 347 
L 2931 1631 
Q 2931 2084 2911 2256 
Q 2891 2428 2841 2509 
Q 2775 2619 2662 2680 
Q 2550 2741 2406 2741 
Q 2056 2741 1856 2470 
Q 1656 2200 1656 1722 
L 1656 0 
L 538 0 
L 538 3500 
L 1656 3500 
L 1656 2988 
Q 1909 3294 2193 3439 
Q 2478 3584 2822 3584 
Q 3428 3584 3742 3212 
Q 4056 2841 4056 2131 
z
" transform="scale(0.015625)"/>
     </defs>
     <use xlink:href="#DejaVuSans-Bold-4b"/>
     <use xlink:href="#DejaVuSans-Bold-75" transform="translate(75.740234 0)"/>
     <use xlink:href="#DejaVuSans-Bold-6e" transform="translate(146.931641 0)"/>
    </g>
   </g>
   <g id="text_2">
    <!-- KanLi -->
    <g style="fill: #44aa66" transform="translate(312.777877 88.806627) scale(0.11 -0.11)">
     <defs>
      <path id="DejaVuSans-Bold-61" d="M 2106 1575 
Q 1756 1575 1579 1456 
Q 1403 1338 1403 1106 
Q 1403 894 1545 773 
Q 1688 653 1941 653 
Q 2256 653 2472 879 
Q 2688 1106 2688 1447 
L 2688 1575 
L 2106 1575 
z
M 3816 1997 
L 3816 0 
L 2688 0 
L 2688 519 
Q 2463 200 2181 54 
Q 1900 -91 1497 -91 
Q 953 -91 614 226 
Q 275 544 275 1050 
Q 275 1666 698 1953 
Q 1122 2241 2028 2241 
L 2688 2241 
L 2688 2328 
Q 2688 2594 2478 2717 
Q 2269 2841 1825 2841 
Q 1466 2841 1156 2769 
Q 847 2697 581 2553 
L 581 3406 
Q 941 3494 1303 3539 
Q 1666 3584 2028 3584 
Q 2975 3584 3395 3211 
Q 3816 2838 3816 1997 
z
" transform="scale(0.015625)"/>
      <path id="DejaVuSans-Bold-4c" d="M 588 4666 
L 1791 4666 
L 1791 909 
L 3903 909 
L 3903 0 
L 588 0 
L 588 4666 
z
" transform="scale(0.015625)"/>
      <path id="DejaVuSans-Bold-69" d="M 538 3500 
L 1656 3500 
L 1656 0 
L 538 0 
L 538 3500 
z
M 538 4863 
L 1656 4863 
L 1656 3950 
L 538 3950 
L 538 4863 
z
" transform="scale(0.015625)"/>
     </defs>
     <use xlink:href="#DejaVuSans-Bold-4b"/>
     <use xlink:href="#DejaVuSans-Bold-61" transform="translate(77.490234 0)"/>
     <use xlink:href="#DejaVuSans-Bold-6e" transform="translate(144.970703 0)"/>
     <use xlink:href="#DejaVuSans-Bold-4c" transform="translate(216.162109 0)"/>
     <use xlink:href="#DejaVuSans-Bold-69" transform="translate(279.882812 0)"/>
    </g>
   </g>
   <g id="text_3">
    <!-- Qian -->
    <g style="fill: #cc4444" transform="translate(538.221131 44.336039) scale(0.11 -0.11)">
     <defs>
      <path id="DejaVuSans-Bold-51" d="M 2847 -84 
L 2753 -84 
Q 1600 -84 959 553 
Q 319 1191 319 2328 
Q 319 3463 958 4106 
Q 1597 4750 2719 4750 
Q 3853 4750 4486 4112 
Q 5119 3475 5119 2328 
Q 5119 1541 4783 972 
Q 4447 403 3816 116 
L 4756 -934 
L 3609 -934 
L 2847 -84 
z
M 2719 3878 
Q 2169 3878 1866 3472 
Q 1563 3066 1563 2328 
Q 1563 1578 1859 1179 
Q 2156 781 2719 781 
Q 3272 781 3575 1187 
Q 3878 1594 3878 2328 
Q 3878 3066 3575 3472 
Q 3272 3878 2719 3878 
z
" transform="scale(0.015625)"/>
     </defs>
     <use xlink:href="#DejaVuSans-Bold-51"/>
     <use xlink:href="#DejaVuSans-Bold-69" transform="translate(85.009766 0)"/>
     <use xlink:href="#DejaVuSans-Bold-61" transform="translate(119.287109 0)"/>
     <use xlink:href="#DejaVuSans-Bold-6e" transform="translate(186.767578 0)"/>
    </g>
   </g>
   <g id="patch_5">
    <path d="M 550.468787 127.166238 
Q 290.328436 193.868366 110.028001 390.950432 
" clip-path="url(#p46533c26e1)" style="fill: none; opacity: 0.7; stroke: #3366cc; stroke-width: 1.6; stroke-linecap: round"/>
    <path d="M 117.029262 389.223485 
L 110.028001 390.950432 
L 111.126689 383.823519 
" clip-path="url(#p46533c26e1)" style="fill: none; opacity: 0.7; stroke: #3366cc; stroke-width: 1.6; stroke-linecap: round"/>
   </g>
   <g id="patch_6">
    <path d="M 107.90026 391.504724 
Q 116.400955 304.552716 108.040512 219.036086 
" clip-path="url(#p46533c26e1)" style="fill: none; opacity: 0.7; stroke-dasharray: 5.92,2.56; stroke-dashoffset: 0; stroke: #cc6600; stroke-width: 1.6; stroke-linecap: round"/>
    <path d="M 104.643292 225.396816 
L 108.040512 219.036086 
L 112.605333 224.618416 
" clip-path="url(#p46533c26e1)" style="fill: none; opacity: 0.7; stroke-dasharray: 5.92,2.56; stroke-dashoffset: 0; stroke: #cc6600; stroke-width: 1.6; stroke-linecap: round"/>
   </g>
   <g id="patch_7">
    <path d="M 107.140254 217.530919 
Q 94.925784 260.081975 106.742026 301.24679 
" clip-path="url(#p46533c26e1)" style="fill: none; opacity: 0.7; stroke: #3366cc; stroke-width: 1.6; stroke-linecap: round"/>
    <path d="M 108.931333 294.37606 
L 106.742026 301.24679 
L 101.241854 296.583303 
" clip-path="url(#p46533c26e1)" style="fill: none; opacity: 0.7; stroke: #3366cc; stroke-width: 1.6; stroke-linecap: round"/>
   </g>
   <g id="patch_8">
    <path d="M 109.561431 303.814578 
Q 243.246193 250.568931 362.743458 173.018168 
" clip-path="url(#p46533c26e1)" style="fill: none; opacity: 0.7; stroke: #3366cc; stroke-width: 1.6; stroke-linecap: round"/>
    <path d="M 355.532905 172.929127 
L 362.743458 173.018168 
L 359.887977 179.639817 
" clip-path="url(#p46533c26e1)" style="fill: none; opacity: 0.7; stroke: #3366cc; stroke-width: 1.6; stroke-linecap: round"/>
   </g>
   <g id="patch_9">
    <path d="M 363.709067 170.579785 
Q 330.055814 161.029771 299.177427 169.792685 
" clip-path="url(#p46533c26e1)" style="fill: none; opacity: 0.7; stroke: #3366cc; stroke-width: 3.2; stroke-linecap: round"/>
    <path d="M 306.041528 172.002688 
L 299.177427 169.792685 
L 303.857469 164.306592 
" clip-path="url(#p46533c26e1)" style="fill: none; opacity: 0.7; stroke: #3366cc; stroke-width: 3.2; stroke-linecap: round"/>
   </g>
   <g id="patch_10">
    <path d="M 292.743534 172.1389 
Q 194.534515 228.670013 110.293739 302.287267 
" clip-path="url(#p46533c26e1)" style="fill: none; opacity: 0.7; stroke: #3366cc; stroke-width: 1.6; stroke-linecap: round"/>
    <path d="M 117.443807 301.35104 
L 110.293739 302.287267 
L 112.179555 295.327117 
" clip-path="url(#p46533c26e1)" style="fill: none; opacity: 0.7; stroke: #3366cc; stroke-width: 1.6; stroke-linecap: round"/>
   </g>
   <g id="patch_11">
    <path d="M 107.140254 302.634118 
Q 94.925784 260.083062 106.344109 220.304487 
" clip-path="url(#p46533c26e1)" style="fill: none; opacity: 0.7; stroke: #3366cc; stroke-width: 3.2; stroke-linecap: round"/>
    <path d="M 100.843938 224.967974 
L 106.344109 220.304487 
L 108.533417 227.175217 
" clip-path="url(#p46533c26e1)" style="fill: none; opacity: 0.7; stroke: #3366cc; stroke-width: 3.2; stroke-linecap: round"/>
   </g>
   <g id="patch_12">
    <path d="M 109.701042 215.468221 
Q 238.857822 206.078236 362.311582 172.058174 
" clip-path="url(#p46533c26e1)" style="fill: none; opacity: 0.7; stroke: #3366cc; stroke-width: 1.6; stroke-linecap: round"/>
    <path d="M 355.464526 169.795914 
L 362.311582 172.058174 
L 357.589859 177.508434 
" clip-path="url(#p46533c26e1)" style="fill: none; opacity: 0.7; stroke: #3366cc; stroke-width: 1.6; stroke-linecap: round"/>
   </g>
   <g id="patch_13">
    <path d="M 294.663115 173.130398 
Q 303.901943 270.542167 363.499622 346.320144 
" clip-path="url(#p46533c26e1)" style="fill: none; opacity: 0.7; stroke-dasharray: 5.92,2.56; stroke-dashoffset: 0; stroke: #cc6600; stroke-width: 1.6; stroke-linecap: round"/>
    <path d="M 362.934575 339.131213 
L 363.499622 346.320144 
L 356.64636 344.076753 
" clip-path="url(#p46533c26e1)" style="fill: none; opacity: 0.7; stroke-dasharray: 5.92,2.56; stroke-dashoffset: 0; stroke: #cc6600; stroke-width: 1.6; stroke-linecap: round"/>
   </g>
   <g id="patch_14">
    <path d="M 364.877616 347.175233 
Q 342.956915 294.234012 297.298141 262.057156 
" clip-path="url(#p46533c26e1)" style="fill: none; opacity: 0.7; stroke: #3366cc; stroke-width: 1.6; stroke-linecap: round"/>
    <path d="M 299.898417 268.783118 
L 297.298141 262.057156 
L 304.506828 262.24381 
" clip-path="url(#p46533c26e1)" style="fill: none; opacity: 0.7; stroke: #3366cc; stroke-width: 1.6; stroke-linecap: round"/>
   </g>
   <g id="patch_15">
    <path d="M 296.477512 259.938809 
Q 425.634292 250.548824 549.088053 216.528762 
" clip-path="url(#p46533c26e1)" style="fill: none; opacity: 0.7; stroke-dasharray: 5.92,2.56; stroke-dashoffset: 0; stroke: #cc6600; stroke-width: 1.6; stroke-linecap: round"/>
    <path d="M 542.240996 214.266502 
L 549.088053 216.528762 
L 544.36633 221.979022 
" clip-path="url(#p46533c26e1)" style="fill: none; opacity: 0.7; stroke-dasharray: 5.92,2.56; stroke-dashoffset: 0; stroke: #cc6600; stroke-width: 1.6; stroke-linecap: round"/>
   </g>
   <g id="patch_16">
    <path d="M 551.846136 217.530919 
Q 539.631667 260.081975 550.851034 299.16743 
" clip-path="url(#p46533c26e1)" style="fill: none; opacity: 0.7; stroke: #3366cc; stroke-width: 4; stroke-linecap: round"/>
    <path d="M 553.040341 292.2967 
L 550.851034 299.16743 
L 545.350862 294.503942 
" clip-path="url(#p46533c26e1)" style="fill: none; opacity: 0.7; stroke: #3366cc; stroke-width: 4; stroke-linecap: round"/>
   </g>
   <g id="patch_17">
    <path d="M 550.672946 305.550665 
Q 452.463927 362.081777 368.22315 435.699032 
" clip-path="url(#p46533c26e1)" style="fill: none; opacity: 0.7; stroke: #3366cc; stroke-width: 1.6; stroke-linecap: round"/>
    <path d="M 375.373219 434.762805 
L 368.22315 435.699032 
L 370.108967 428.738881 
" clip-path="url(#p46533c26e1)" style="fill: none; opacity: 0.7; stroke: #3366cc; stroke-width: 1.6; stroke-linecap: round"/>
   </g>
   <g id="patch_18">
    <path d="M 363.709067 437.403315 
Q 330.055814 427.8533 297.789994 437.009951 
" clip-path="url(#p46533c26e1)" style="fill: none; opacity: 0.7; stroke: #3366cc; stroke-width: 1.6; stroke-linecap: round"/>
    <path d="M 304.654095 439.219954 
L 297.789994 437.009951 
L 302.470036 431.523859 
" clip-path="url(#p46533c26e1)" style="fill: none; opacity: 0.7; stroke: #3366cc; stroke-width: 1.6; stroke-linecap: round"/>
   </g>
   <g id="patch_19">
    <path d="M 294.676731 435.975312 
Q 303.177425 349.023304 294.816982 263.506674 
" clip-path="url(#p46533c26e1)" style="fill: none; opacity: 0.7; stroke-dasharray: 5.92,2.56; stroke-dashoffset: 0; stroke: #cc6600; stroke-width: 1.6; stroke-linecap: round"/>
    <path d="M 291.419762 269.867405 
L 294.816982 263.506674 
L 299.381803 269.089004 
" clip-path="url(#p46533c26e1)" style="fill: none; opacity: 0.7; stroke-dasharray: 5.92,2.56; stroke-dashoffset: 0; stroke: #cc6600; stroke-width: 1.6; stroke-linecap: round"/>
   </g>
   <g id="patch_20">
    <path d="M 296.117574 261.225181 
Q 342.955685 294.232474 363.773333 344.508326 
" clip-path="url(#p46533c26e1)" style="fill: none; opacity: 0.7; stroke: #3366cc; stroke-width: 3.2; stroke-linecap: round"/>
    <path d="M 365.173626 337.434488 
L 363.773333 344.508326 
L 357.782211 340.49504 
" clip-path="url(#p46533c26e1)" style="fill: none; opacity: 0.7; stroke: #3366cc; stroke-width: 3.2; stroke-linecap: round"/>
   </g>
   <g id="patch_21">
    <path d="M 363.702634 348.490194 
Q 238.858491 314.086916 111.140146 304.801443 
" clip-path="url(#p46533c26e1)" style="fill: none; opacity: 0.7; stroke-dasharray: 5.92,2.56; stroke-dashoffset: 0; stroke: #cc6600; stroke-width: 1.6; stroke-linecap: round"/>
    <path d="M 116.834307 309.225981 
L 111.140146 304.801443 
L 117.414397 301.247041 
" clip-path="url(#p46533c26e1)" style="fill: none; opacity: 0.7; stroke-dasharray: 5.92,2.56; stroke-dashoffset: 0; stroke: #cc6600; stroke-width: 1.6; stroke-linecap: round"/>
   </g>
   <g id="patch_22">
    <path d="M 108.831877 217.262401 
Q 190.124285 335.99849 292.014673 435.55785 
" clip-path="url(#p46533c26e1)" style="fill: none; opacity: 0.7; stroke: #3366cc; stroke-width: 1.6; stroke-linecap: round"/>
    <path d="M 290.518738 428.503618 
L 292.014673 435.55785 
L 284.927715 434.225547 
" clip-path="url(#p46533c26e1)" style="fill: none; opacity: 0.7; stroke: #3366cc; stroke-width: 1.6; stroke-linecap: round"/>
   </g>
   <g id="patch_23">
    <path d="M 296.403874 437.403315 
Q 330.057128 427.8533 360.935514 436.616214 
" clip-path="url(#p46533c26e1)" style="fill: none; opacity: 0.7; stroke: #3366cc; stroke-width: 3.2; stroke-linecap: round"/>
    <path d="M 356.255472 431.130122 
L 360.935514 436.616214 
L 354.071413 438.826217 
" clip-path="url(#p46533c26e1)" style="fill: none; opacity: 0.7; stroke: #3366cc; stroke-width: 3.2; stroke-linecap: round"/>
   </g>
   <g id="patch_24">
    <path d="M 363.702634 437.431371 
Q 238.858491 403.028093 111.140146 393.742619 
" clip-path="url(#p46533c26e1)" style="fill: none; opacity: 0.7; stroke-dasharray: 5.92,2.56; stroke-dashoffset: 0; stroke: #cc6600; stroke-width: 1.6; stroke-linecap: round"/>
    <path d="M 116.834307 398.167158 
L 111.140146 393.742619 
L 117.414397 390.188217 
" clip-path="url(#p46533c26e1)" style="fill: none; opacity: 0.7; stroke-dasharray: 5.92,2.56; stroke-dashoffset: 0; stroke: #cc6600; stroke-width: 1.6; stroke-linecap: round"/>
   </g>
   <g id="patch_25">
    <path d="M 109.439995 392.496725 
Q 207.649014 335.965612 291.889791 262.348358 
" clip-path="url(#p46533c26e1)" style="fill: none; opacity: 0.7; stroke: #3366cc; stroke-width: 1.6; stroke-linecap: round"/>
    <path d="M 284.739722 263.284585 
L 291.889791 262.348358 
L 290.003975 269.308508 
" clip-path="url(#p46533c26e1)" style="fill: none; opacity: 0.7; stroke: #3366cc; stroke-width: 1.6; stroke-linecap: round"/>
   </g>
   <g id="patch_26">
    <path d="M 363.635429 349.167404 
Q 234.478649 358.557389 111.024889 392.577451 
" clip-path="url(#p46533c26e1)" style="fill: none; opacity: 0.7; stroke: #3366cc; stroke-width: 1.6; stroke-linecap: round"/>
    <path d="M 117.871945 394.839711 
L 111.024889 392.577451 
L 115.746612 387.127191 
" clip-path="url(#p46533c26e1)" style="fill: none; opacity: 0.7; stroke: #3366cc; stroke-width: 1.6; stroke-linecap: round"/>
   </g>
   <g id="patch_27">
    <path d="M 109.053957 392.015137 
Q 290.327764 193.868769 549.070968 127.524652 
" clip-path="url(#p46533c26e1)" style="fill: none; opacity: 0.7; stroke: #3366cc; stroke-width: 1.6; stroke-linecap: round"/>
    <path d="M 542.265486 125.140241 
L 549.070968 127.524652 
L 544.252481 132.889554 
" clip-path="url(#p46533c26e1)" style="fill: none; opacity: 0.7; stroke: #3366cc; stroke-width: 1.6; stroke-linecap: round"/>
   </g>
   <g id="patch_28">
    <path d="M 550.417817 126.472486 
Q 330.055389 104.63362 111.12815 126.330466 
" clip-path="url(#p46533c26e1)" style="fill: none; opacity: 0.7; stroke: #3366cc; stroke-width: 1.6; stroke-linecap: round"/>
    <path d="M 117.493388 129.719233 
L 111.12815 126.330466 
L 116.704411 121.758233 
" clip-path="url(#p46533c26e1)" style="fill: none; opacity: 0.7; stroke: #3366cc; stroke-width: 1.6; stroke-linecap: round"/>
   </g>
   <g id="patch_29">
    <path d="M 109.308123 127.864717 
Q 316.817198 282.147734 548.644706 391.71582 
" clip-path="url(#p46533c26e1)" style="fill: none; opacity: 0.7; stroke: #3366cc; stroke-width: 2.4; stroke-linecap: round"/>
    <path d="M 544.929288 385.535556 
L 548.644706 391.71582 
L 541.51084 392.768413 
" clip-path="url(#p46533c26e1)" style="fill: none; opacity: 0.7; stroke: #3366cc; stroke-width: 2.4; stroke-linecap: round"/>
   </g>
   <g id="patch_30">
    <path d="M 552.606142 391.504724 
Q 561.106837 304.552716 552.746394 219.036086 
" clip-path="url(#p46533c26e1)" style="fill: none; opacity: 0.7; stroke-dasharray: 5.92,2.56; stroke-dashoffset: 0; stroke: #cc6600; stroke-width: 1.6; stroke-linecap: round"/>
    <path d="M 549.349174 225.396816 
L 552.746394 219.036086 
L 557.311215 224.618416 
" clip-path="url(#p46533c26e1)" style="fill: none; opacity: 0.7; stroke-dasharray: 5.92,2.56; stroke-dashoffset: 0; stroke: #cc6600; stroke-width: 1.6; stroke-linecap: round"/>
   </g>
   <g id="patch_31">
    <path d="M 551.846136 302.634118 
Q 539.631667 260.083062 551.447908 218.918246 
" clip-path="url(#p46533c26e1)" style="fill: none; opacity: 0.7; stroke: #3366cc; stroke-width: 1.6; stroke-linecap: round"/>
    <path d="M 545.947737 223.581734 
L 551.447908 218.918246 
L 553.637215 225.788977 
" clip-path="url(#p46533c26e1)" style="fill: none; opacity: 0.7; stroke: #3366cc; stroke-width: 1.6; stroke-linecap: round"/>
   </g>
   <g id="patch_32">
    <path d="M 550.55151 305.291635 
Q 416.866748 358.537282 297.974376 435.695484 
" clip-path="url(#p46533c26e1)" style="fill: none; opacity: 0.7; stroke: #3366cc; stroke-width: 2.4; stroke-linecap: round"/>
    <path d="M 305.184929 435.784526 
L 297.974376 435.695484 
L 300.829858 429.073836 
" clip-path="url(#p46533c26e1)" style="fill: none; opacity: 0.7; stroke: #3366cc; stroke-width: 2.4; stroke-linecap: round"/>
   </g>
   <g id="patch_33">
    <path d="M 365.829672 435.975312 
Q 374.330366 349.023304 366.040088 264.224362 
" clip-path="url(#p46533c26e1)" style="fill: none; opacity: 0.7; stroke-dasharray: 8.88,3.84; stroke-dashoffset: 0; stroke: #cc6600; stroke-width: 2.4; stroke-linecap: round"/>
    <path d="M 362.642868 270.585093 
L 366.040088 264.224362 
L 370.604908 269.806693 
" clip-path="url(#p46533c26e1)" style="fill: none; opacity: 0.7; stroke-dasharray: 8.88,3.84; stroke-dashoffset: 0; stroke: #cc6600; stroke-width: 2.4; stroke-linecap: round"/>
   </g>
   <g id="patch_34">
    <path d="M 363.995367 261.225181 
Q 317.157257 294.232474 296.615483 343.842072 
" clip-path="url(#p46533c26e1)" style="fill: none; opacity: 0.7; stroke: #3366cc; stroke-width: 4; stroke-linecap: round"/>
    <path d="M 302.606605 339.828787 
L 296.615483 343.842072 
L 295.215189 336.768235 
" clip-path="url(#p46533c26e1)" style="fill: none; opacity: 0.7; stroke: #3366cc; stroke-width: 4; stroke-linecap: round"/>
   </g>
   <g id="patch_35">
    <path d="M 295.235326 347.175233 
Q 317.156026 294.234012 362.8148 262.057156 
" clip-path="url(#p46533c26e1)" style="fill: none; opacity: 0.7; stroke: #3366cc; stroke-width: 1.6; stroke-linecap: round"/>
    <path d="M 355.606114 262.24381 
L 362.8148 262.057156 
L 360.214524 268.783118 
" clip-path="url(#p46533c26e1)" style="fill: none; opacity: 0.7; stroke: #3366cc; stroke-width: 1.6; stroke-linecap: round"/>
   </g>
   <g id="patch_36">
    <path d="M 292.590459 348.371439 
Q 203.270925 317.641509 111.115716 305.01842 
" clip-path="url(#p46533c26e1)" style="fill: none; opacity: 0.7; stroke-dasharray: 5.92,2.56; stroke-dashoffset: 0; stroke: #cc6600; stroke-width: 1.6; stroke-linecap: round"/>
    <path d="M 116.517372 309.79567 
L 111.115716 305.01842 
L 117.603045 301.86968 
" clip-path="url(#p46533c26e1)" style="fill: none; opacity: 0.7; stroke-dasharray: 5.92,2.56; stroke-dashoffset: 0; stroke: #cc6600; stroke-width: 1.6; stroke-linecap: round"/>
   </g>
   <g id="patch_37">
    <path d="M 109.693257 215.415986 
Q 334.465602 193.182313 549.119727 127.675584 
" clip-path="url(#p46533c26e1)" style="fill: none; opacity: 0.7; stroke-dasharray: 5.92,2.56; stroke-dashoffset: 0; stroke: #cc6600; stroke-width: 1.6; stroke-linecap: round"/>
    <path d="M 542.213468 125.601075 
L 549.119727 127.675584 
L 544.548542 133.252704 
" clip-path="url(#p46533c26e1)" style="fill: none; opacity: 0.7; stroke-dasharray: 5.92,2.56; stroke-dashoffset: 0; stroke: #cc6600; stroke-width: 1.6; stroke-linecap: round"/>
   </g>
   <g id="patch_38">
    <path d="M 550.55151 127.409282 
Q 416.866748 180.654929 297.369483 258.205692 
" clip-path="url(#p46533c26e1)" style="fill: none; opacity: 0.7; stroke: #3366cc; stroke-width: 1.6; stroke-linecap: round"/>
    <path d="M 304.580036 258.294733 
L 297.369483 258.205692 
L 300.224965 251.584044 
" clip-path="url(#p46533c26e1)" style="fill: none; opacity: 0.7; stroke: #3366cc; stroke-width: 1.6; stroke-linecap: round"/>
   </g>
   <g id="patch_39">
    <path d="M 364.393779 347.457058 
Q 303.903435 270.545895 294.799701 174.57034 
" clip-path="url(#p46533c26e1)" style="fill: none; opacity: 0.7; stroke-dasharray: 5.92,2.56; stroke-dashoffset: 0; stroke: #cc6600; stroke-width: 1.6; stroke-linecap: round"/>
    <path d="M 291.38416 180.921252 
L 294.799701 174.57034 
L 299.348411 180.165805 
" clip-path="url(#p46533c26e1)" style="fill: none; opacity: 0.7; stroke-dasharray: 5.92,2.56; stroke-dashoffset: 0; stroke: #cc6600; stroke-width: 1.6; stroke-linecap: round"/>
   </g>
   <g id="patch_40">
    <path d="M 296.403874 170.579785 
Q 330.057128 161.029771 362.322948 170.186421 
" clip-path="url(#p46533c26e1)" style="fill: none; opacity: 0.7; stroke: #3366cc; stroke-width: 1.6; stroke-linecap: round"/>
    <path d="M 357.642906 164.700329 
L 362.322948 170.186421 
L 355.458847 172.396425 
" clip-path="url(#p46533c26e1)" style="fill: none; opacity: 0.7; stroke: #3366cc; stroke-width: 1.6; stroke-linecap: round"/>
   </g>
   <g id="patch_41">
    <path d="M 367.522482 171.793598 
Q 456.842017 202.523528 548.997225 215.146617 
" clip-path="url(#p46533c26e1)" style="fill: none; opacity: 0.7; stroke: #3366cc; stroke-width: 1.6; stroke-linecap: round"/>
    <path d="M 543.59557 210.369367 
L 548.997225 215.146617 
L 542.509896 218.295357 
" clip-path="url(#p46533c26e1)" style="fill: none; opacity: 0.7; stroke: #3366cc; stroke-width: 1.6; stroke-linecap: round"/>
   </g>
   <g id="patch_42">
    <path d="M 296.410307 349.557196 
Q 421.25445 383.960473 548.972795 393.245947 
" clip-path="url(#p46533c26e1)" style="fill: none; opacity: 0.7; stroke: #3366cc; stroke-width: 1.6; stroke-linecap: round"/>
    <path d="M 543.278635 388.821408 
L 548.972795 393.245947 
L 542.698544 396.800349 
" clip-path="url(#p46533c26e1)" style="fill: none; opacity: 0.7; stroke: #3366cc; stroke-width: 1.6; stroke-linecap: round"/>
   </g>
   <g id="patch_43">
    <path d="M 551.281064 391.843812 
Q 469.988656 273.107723 368.098268 173.548363 
" clip-path="url(#p46533c26e1)" style="fill: none; opacity: 0.7; stroke-dasharray: 5.92,2.56; stroke-dashoffset: 0; stroke: #cc6600; stroke-width: 1.6; stroke-linecap: round"/>
    <path d="M 369.594203 180.602595 
L 368.098268 173.548363 
L 375.185226 174.880667 
" clip-path="url(#p46533c26e1)" style="fill: none; opacity: 0.7; stroke-dasharray: 5.92,2.56; stroke-dashoffset: 0; stroke: #cc6600; stroke-width: 1.6; stroke-linecap: round"/>
   </g>
   <g id="patch_44">
    <path d="M 292.590459 170.489086 
Q 203.270925 139.759156 111.115716 127.136067 
" clip-path="url(#p46533c26e1)" style="fill: none; opacity: 0.7; stroke-dasharray: 5.92,2.56; stroke-dashoffset: 0; stroke: #cc6600; stroke-width: 1.6; stroke-linecap: round"/>
    <path d="M 116.517372 131.913317 
L 111.115716 127.136067 
L 117.603045 123.987327 
" clip-path="url(#p46533c26e1)" style="fill: none; opacity: 0.7; stroke-dasharray: 5.92,2.56; stroke-dashoffset: 0; stroke: #cc6600; stroke-width: 1.6; stroke-linecap: round"/>
   </g>
   <g id="patch_45">
    <path d="M 550.902597 392.175213 
Q 465.575647 317.609204 368.616371 261.797849 
" clip-path="url(#p46533c26e1)" style="fill: none; opacity: 0.7; stroke: #3366cc; stroke-width: 1.6; stroke-linecap: round"/>
    <path d="M 371.820932 268.257786 
L 368.616371 261.797849 
L 375.811913 261.324384 
" clip-path="url(#p46533c26e1)" style="fill: none; opacity: 0.7; stroke: #3366cc; stroke-width: 1.6; stroke-linecap: round"/>
   </g>
   <g id="text_4">
    <!-- H-kernel: 44  non-H: 14 -->
    <g style="fill: #333333" transform="translate(20.114259 521.818612) scale(0.09 -0.09)">
     <defs>
      <path id="DejaVuSans-48" d="M 628 4666 
L 1259 4666 
L 1259 2753 
L 3553 2753 
L 3553 4666 
L 4184 4666 
L 4184 0 
L 3553 0 
L 3553 2222 
L 1259 2222 
L 1259 0 
L 628 0 
L 628 4666 
z
" transform="scale(0.015625)"/>
      <path id="DejaVuSans-2d" d="M 313 2009 
L 1997 2009 
L 1997 1497 
L 313 1497 
L 313 2009 
z
" transform="scale(0.015625)"/>
      <path id="DejaVuSans-6b" d="M 581 4863 
L 1159 4863 
L 1159 1991 
L 2875 3500 
L 3609 3500 
L 1753 1863 
L 3688 0 
L 2938 0 
L 1159 1709 
L 1159 0 
L 581 0 
L 581 4863 
z
" transform="scale(0.015625)"/>
      <path id="DejaVuSans-65" d="M 3597 1894 
L 3597 1613 
L 953 1613 
Q 991 1019 1311 708 
Q 1631 397 2203 397 
Q 2534 397 2845 478 
Q 3156 559 3463 722 
L 3463 178 
Q 3153 47 2828 -22 
Q 2503 -91 2169 -91 
Q 1331 -91 842 396 
Q 353 884 353 1716 
Q 353 2575 817 3079 
Q 1281 3584 2069 3584 
Q 2775 3584 3186 3129 
Q 3597 2675 3597 1894 
z
M 3022 2063 
Q 3016 2534 2758 2815 
Q 2500 3097 2075 3097 
Q 1594 3097 1305 2825 
Q 1016 2553 972 2059 
L 3022 2063 
z
" transform="scale(0.015625)"/>
      <path id="DejaVuSans-72" d="M 2631 2963 
Q 2534 3019 2420 3045 
Q 2306 3072 2169 3072 
Q 1681 3072 1420 2755 
Q 1159 2438 1159 1844 
L 1159 0 
L 581 0 
L 581 3500 
L 1159 3500 
L 1159 2956 
Q 1341 3275 1631 3429 
Q 1922 3584 2338 3584 
Q 2397 3584 2469 3576 
Q 2541 3569 2628 3553 
L 2631 2963 
z
" transform="scale(0.015625)"/>
      <path id="DejaVuSans-6e" d="M 3513 2113 
L 3513 0 
L 2938 0 
L 2938 2094 
Q 2938 2591 2744 2837 
Q 2550 3084 2163 3084 
Q 1697 3084 1428 2787 
Q 1159 2491 1159 1978 
L 1159 0 
L 581 0 
L 581 3500 
L 1159 3500 
L 1159 2956 
Q 1366 3272 1645 3428 
Q 1925 3584 2291 3584 
Q 2894 3584 3203 3211 
Q 3513 2838 3513 2113 
z
" transform="scale(0.015625)"/>
      <path id="DejaVuSans-6c" d="M 603 4863 
L 1178 4863 
L 1178 0 
L 603 0 
L 603 4863 
z
" transform="scale(0.015625)"/>
      <path id="DejaVuSans-3a" d="M 750 794 
L 1409 794 
L 1409 0 
L 750 0 
L 750 794 
z
M 750 3309 
L 1409 3309 
L 1409 2516 
L 750 2516 
L 750 3309 
z
" transform="scale(0.015625)"/>
      <path id="DejaVuSans-20" transform="scale(0.015625)"/>
      <path id="DejaVuSans-34" d="M 2419 4116 
L 825 1625 
L 2419 1625 
L 2419 4116 
z
M 2253 4666 
L 3047 4666 
L 3047 1625 
L 3713 1625 
L 3713 1100 
L 3047 1100 
L 3047 0 
L 2419 0 
L 2419 1100 
L 313 1100 
L 313 1709 
L 2253 4666 
z
" transform="scale(0.015625)"/>
      <path id="DejaVuSans-6f" d="M 1959 3097 
Q 1497 3097 1228 2736 
Q 959 2375 959 1747 
Q 959 1119 1226 758 
Q 1494 397 1959 397 
Q 2419 397 2687 759 
Q 2956 1122 2956 1747 
Q 2956 2369 2687 2733 
Q 2419 3097 1959 3097 
z
M 1959 3584 
Q 2709 3584 3137 3096 
Q 3566 2609 3566 1747 
Q 3566 888 3137 398 
Q 2709 -91 1959 -91 
Q 1206 -91 779 398 
Q 353 888 353 1747 
Q 353 2609 779 3096 
Q 1206 3584 1959 3584 
z
" transform="scale(0.015625)"/>
      <path id="DejaVuSans-31" d="M 794 531 
L 1825 531 
L 1825 4091 
L 703 3866 
L 703 4441 
L 1819 4666 
L 2450 4666 
L 2450 531 
L 3481 531 
L 3481 0 
L 794 0 
L 794 531 
z
" transform="scale(0.015625)"/>
     </defs>
     <use xlink:href="#DejaVuSans-48"/>
     <use xlink:href="#DejaVuSans-2d" transform="translate(75.195312 0)"/>
     <use xlink:href="#DejaVuSans-6b" transform="translate(111.279297 0)"/>
     <use xlink:href="#DejaVuSans-65" transform="translate(165.564453 0)"/>
     <use xlink:href="#DejaVuSans-72" transform="translate(227.087891 0)"/>
     <use xlink:href="#DejaVuSans-6e" transform="translate(266.451172 0)"/>
     <use xlink:href="#DejaVuSans-65" transform="translate(329.830078 0)"/>
     <use xlink:href="#DejaVuSans-6c" transform="translate(391.353516 0)"/>
     <use xlink:href="#DejaVuSans-3a" transform="translate(419.136719 0)"/>
     <use xlink:href="#DejaVuSans-20" transform="translate(452.828125 0)"/>
     <use xlink:href="#DejaVuSans-34" transform="translate(484.615234 0)"/>
     <use xlink:href="#DejaVuSans-34" transform="translate(548.238281 0)"/>
     <use xlink:href="#DejaVuSans-20" transform="translate(611.861328 0)"/>
     <use xlink:href="#DejaVuSans-20" transform="translate(643.648438 0)"/>
     <use xlink:href="#DejaVuSans-6e" transform="translate(675.435547 0)"/>
     <use xlink:href="#DejaVuSans-6f" transform="translate(738.814453 0)"/>
     <use xlink:href="#DejaVuSans-6e" transform="translate(799.996094 0)"/>
     <use xlink:href="#DejaVuSans-2d" transform="translate(863.375 0)"/>
     <use xlink:href="#DejaVuSans-48" transform="translate(899.458984 0)"/>
     <use xlink:href="#DejaVuSans-3a" transform="translate(974.654297 0)"/>
     <use xlink:href="#DejaVuSans-20" transform="translate(1008.345703 0)"/>
     <use xlink:href="#DejaVuSans-31" transform="translate(1040.132812 0)"/>
     <use xlink:href="#DejaVuSans-34" transform="translate(1103.755859 0)"/>
    </g>
   </g>
   <g id="text_5">
    <!-- H-Kernel (diagonal lift) vs non-H at KW Bridges -->
    <g transform="translate(143.350064 17.837812) scale(0.14 -0.14)">
     <defs>
      <path id="DejaVuSans-Bold-48" d="M 588 4666 
L 1791 4666 
L 1791 2888 
L 3566 2888 
L 3566 4666 
L 4769 4666 
L 4769 0 
L 3566 0 
L 3566 1978 
L 1791 1978 
L 1791 0 
L 588 0 
L 588 4666 
z
" transform="scale(0.015625)"/>
      <path id="DejaVuSans-Bold-2d" d="M 347 2297 
L 2309 2297 
L 2309 1388 
L 347 1388 
L 347 2297 
z
" transform="scale(0.015625)"/>
      <path id="DejaVuSans-Bold-65" d="M 4031 1759 
L 4031 1441 
L 1416 1441 
Q 1456 1047 1700 850 
Q 1944 653 2381 653 
Q 2734 653 3104 758 
Q 3475 863 3866 1075 
L 3866 213 
Q 3469 63 3072 -14 
Q 2675 -91 2278 -91 
Q 1328 -91 801 392 
Q 275 875 275 1747 
Q 275 2603 792 3093 
Q 1309 3584 2216 3584 
Q 3041 3584 3536 3087 
Q 4031 2591 4031 1759 
z
M 2881 2131 
Q 2881 2450 2695 2645 
Q 2509 2841 2209 2841 
Q 1884 2841 1681 2658 
Q 1478 2475 1428 2131 
L 2881 2131 
z
" transform="scale(0.015625)"/>
      <path id="DejaVuSans-Bold-72" d="M 3138 2547 
Q 2991 2616 2845 2648 
Q 2700 2681 2553 2681 
Q 2122 2681 1889 2404 
Q 1656 2128 1656 1613 
L 1656 0 
L 538 0 
L 538 3500 
L 1656 3500 
L 1656 2925 
Q 1872 3269 2151 3426 
Q 2431 3584 2822 3584 
Q 2878 3584 2943 3579 
Q 3009 3575 3134 3559 
L 3138 2547 
z
" transform="scale(0.015625)"/>
      <path id="DejaVuSans-Bold-6c" d="M 538 4863 
L 1656 4863 
L 1656 0 
L 538 0 
L 538 4863 
z
" transform="scale(0.015625)"/>
      <path id="DejaVuSans-Bold-20" transform="scale(0.015625)"/>
      <path id="DejaVuSans-Bold-28" d="M 2413 -844 
L 1484 -844 
Q 1006 -72 778 623 
Q 550 1319 550 2003 
Q 550 2688 779 3389 
Q 1009 4091 1484 4856 
L 2413 4856 
Q 2013 4116 1813 3408 
Q 1613 2700 1613 2009 
Q 1613 1319 1811 609 
Q 2009 -100 2413 -844 
z
" transform="scale(0.015625)"/>
      <path id="DejaVuSans-Bold-64" d="M 2919 2988 
L 2919 4863 
L 4044 4863 
L 4044 0 
L 2919 0 
L 2919 506 
Q 2688 197 2409 53 
Q 2131 -91 1766 -91 
Q 1119 -91 703 423 
Q 288 938 288 1747 
Q 288 2556 703 3070 
Q 1119 3584 1766 3584 
Q 2128 3584 2408 3439 
Q 2688 3294 2919 2988 
z
M 2181 722 
Q 2541 722 2730 984 
Q 2919 1247 2919 1747 
Q 2919 2247 2730 2509 
Q 2541 2772 2181 2772 
Q 1825 2772 1636 2509 
Q 1447 2247 1447 1747 
Q 1447 1247 1636 984 
Q 1825 722 2181 722 
z
" transform="scale(0.015625)"/>
      <path id="DejaVuSans-Bold-67" d="M 2919 594 
Q 2688 288 2409 144 
Q 2131 0 1766 0 
Q 1125 0 706 504 
Q 288 1009 288 1791 
Q 288 2575 706 3076 
Q 1125 3578 1766 3578 
Q 2131 3578 2409 3434 
Q 2688 3291 2919 2981 
L 2919 3500 
L 4044 3500 
L 4044 353 
Q 4044 -491 3511 -936 
Q 2978 -1381 1966 -1381 
Q 1638 -1381 1331 -1331 
Q 1025 -1281 716 -1178 
L 716 -306 
Q 1009 -475 1290 -558 
Q 1572 -641 1856 -641 
Q 2406 -641 2662 -400 
Q 2919 -159 2919 353 
L 2919 594 
z
M 2181 2772 
Q 1834 2772 1640 2515 
Q 1447 2259 1447 1791 
Q 1447 1309 1634 1061 
Q 1822 813 2181 813 
Q 2531 813 2725 1069 
Q 2919 1325 2919 1791 
Q 2919 2259 2725 2515 
Q 2531 2772 2181 2772 
z
" transform="scale(0.015625)"/>
      <path id="DejaVuSans-Bold-6f" d="M 2203 2784 
Q 1831 2784 1636 2517 
Q 1441 2250 1441 1747 
Q 1441 1244 1636 976 
Q 1831 709 2203 709 
Q 2569 709 2762 976 
Q 2956 1244 2956 1747 
Q 2956 2250 2762 2517 
Q 2569 2784 2203 2784 
z
M 2203 3584 
Q 3106 3584 3614 3096 
Q 4122 2609 4122 1747 
Q 4122 884 3614 396 
Q 3106 -91 2203 -91 
Q 1297 -91 786 396 
Q 275 884 275 1747 
Q 275 2609 786 3096 
Q 1297 3584 2203 3584 
z
" transform="scale(0.015625)"/>
      <path id="DejaVuSans-Bold-66" d="M 2841 4863 
L 2841 4128 
L 2222 4128 
Q 1984 4128 1890 4042 
Q 1797 3956 1797 3744 
L 1797 3500 
L 2753 3500 
L 2753 2700 
L 1797 2700 
L 1797 0 
L 678 0 
L 678 2700 
L 122 2700 
L 122 3500 
L 678 3500 
L 678 3744 
Q 678 4316 997 4589 
Q 1316 4863 1984 4863 
L 2841 4863 
z
" transform="scale(0.015625)"/>
      <path id="DejaVuSans-Bold-74" d="M 1759 4494 
L 1759 3500 
L 2913 3500 
L 2913 2700 
L 1759 2700 
L 1759 1216 
Q 1759 972 1856 886 
Q 1953 800 2241 800 
L 2816 800 
L 2816 0 
L 1856 0 
Q 1194 0 917 276 
Q 641 553 641 1216 
L 641 2700 
L 84 2700 
L 84 3500 
L 641 3500 
L 641 4494 
L 1759 4494 
z
" transform="scale(0.015625)"/>
      <path id="DejaVuSans-Bold-29" d="M 513 -844 
Q 913 -100 1113 609 
Q 1313 1319 1313 2009 
Q 1313 2700 1113 3408 
Q 913 4116 513 4856 
L 1441 4856 
Q 1916 4091 2145 3389 
Q 2375 2688 2375 2003 
Q 2375 1319 2147 623 
Q 1919 -72 1441 -844 
L 513 -844 
z
" transform="scale(0.015625)"/>
      <path id="DejaVuSans-Bold-76" d="M 97 3500 
L 1216 3500 
L 2088 1081 
L 2956 3500 
L 4078 3500 
L 2700 0 
L 1472 0 
L 97 3500 
z
" transform="scale(0.015625)"/>
      <path id="DejaVuSans-Bold-73" d="M 3272 3391 
L 3272 2541 
Q 2913 2691 2578 2766 
Q 2244 2841 1947 2841 
Q 1628 2841 1473 2761 
Q 1319 2681 1319 2516 
Q 1319 2381 1436 2309 
Q 1553 2238 1856 2203 
L 2053 2175 
Q 2913 2066 3209 1816 
Q 3506 1566 3506 1031 
Q 3506 472 3093 190 
Q 2681 -91 1863 -91 
Q 1516 -91 1145 -36 
Q 775 19 384 128 
L 384 978 
Q 719 816 1070 734 
Q 1422 653 1784 653 
Q 2113 653 2278 743 
Q 2444 834 2444 1013 
Q 2444 1163 2330 1236 
Q 2216 1309 1875 1350 
L 1678 1375 
Q 931 1469 631 1722 
Q 331 1975 331 2491 
Q 331 3047 712 3315 
Q 1094 3584 1881 3584 
Q 2191 3584 2531 3537 
Q 2872 3491 3272 3391 
z
" transform="scale(0.015625)"/>
      <path id="DejaVuSans-Bold-57" d="M 191 4666 
L 1344 4666 
L 2150 1275 
L 2950 4666 
L 4109 4666 
L 4909 1275 
L 5716 4666 
L 6859 4666 
L 5759 0 
L 4372 0 
L 3525 3547 
L 2688 0 
L 1300 0 
L 191 4666 
z
" transform="scale(0.015625)"/>
      <path id="DejaVuSans-Bold-42" d="M 2456 2859 
Q 2741 2859 2887 2984 
Q 3034 3109 3034 3353 
Q 3034 3594 2887 3720 
Q 2741 3847 2456 3847 
L 1791 3847 
L 1791 2859 
L 2456 2859 
z
M 2497 819 
Q 2859 819 3042 972 
Q 3225 1125 3225 1434 
Q 3225 1738 3044 1889 
Q 2863 2041 2497 2041 
L 1791 2041 
L 1791 819 
L 2497 819 
z
M 3616 2497 
Q 4003 2384 4215 2081 
Q 4428 1778 4428 1338 
Q 4428 663 3972 331 
Q 3516 0 2584 0 
L 588 0 
L 588 4666 
L 2394 4666 
Q 3366 4666 3802 4372 
Q 4238 4078 4238 3431 
Q 4238 3091 4078 2852 
Q 3919 2613 3616 2497 
z
" transform="scale(0.015625)"/>
     </defs>
     <use xlink:href="#DejaVuSans-Bold-48"/>
     <use xlink:href="#DejaVuSans-Bold-2d" transform="translate(83.691406 0)"/>
     <use xlink:href="#DejaVuSans-Bold-4b" transform="translate(125.195312 0)"/>
     <use xlink:href="#DejaVuSans-Bold-65" transform="translate(200.935547 0)"/>
     <use xlink:href="#DejaVuSans-Bold-72" transform="translate(268.757812 0)"/>
     <use xlink:href="#DejaVuSans-Bold-6e" transform="translate(318.074219 0)"/>
     <use xlink:href="#DejaVuSans-Bold-65" transform="translate(389.265625 0)"/>
     <use xlink:href="#DejaVuSans-Bold-6c" transform="translate(457.087891 0)"/>
     <use xlink:href="#DejaVuSans-Bold-20" transform="translate(491.365234 0)"/>
     <use xlink:href="#DejaVuSans-Bold-28" transform="translate(526.179688 0)"/>
     <use xlink:href="#DejaVuSans-Bold-64" transform="translate(571.882812 0)"/>
     <use xlink:href="#DejaVuSans-Bold-69" transform="translate(643.464844 0)"/>
     <use xlink:href="#DejaVuSans-Bold-61" transform="translate(677.742188 0)"/>
     <use xlink:href="#DejaVuSans-Bold-67" transform="translate(745.222656 0)"/>
     <use xlink:href="#DejaVuSans-Bold-6f" transform="translate(816.804688 0)"/>
     <use xlink:href="#DejaVuSans-Bold-6e" transform="translate(885.505859 0)"/>
     <use xlink:href="#DejaVuSans-Bold-61" transform="translate(956.697266 0)"/>
     <use xlink:href="#DejaVuSans-Bold-6c" transform="translate(1024.177734 0)"/>
     <use xlink:href="#DejaVuSans-Bold-20" transform="translate(1058.455078 0)"/>
     <use xlink:href="#DejaVuSans-Bold-6c" transform="translate(1093.269531 0)"/>
     <use xlink:href="#DejaVuSans-Bold-69" transform="translate(1127.546875 0)"/>
     <use xlink:href="#DejaVuSans-Bold-66" transform="translate(1161.824219 0)"/>
     <use xlink:href="#DejaVuSans-Bold-74" transform="translate(1205.330078 0)"/>
     <use xlink:href="#DejaVuSans-Bold-29" transform="translate(1253.132812 0)"/>
     <use xlink:href="#DejaVuSans-Bold-20" transform="translate(1298.835938 0)"/>
     <use xlink:href="#DejaVuSans-Bold-76" transform="translate(1333.650391 0)"/>
     <use xlink:href="#DejaVuSans-Bold-73" transform="translate(1398.835938 0)"/>
     <use xlink:href="#DejaVuSans-Bold-20" transform="translate(1458.357422 0)"/>
     <use xlink:href="#DejaVuSans-Bold-6e" transform="translate(1493.171875 0)"/>
     <use xlink:href="#DejaVuSans-Bold-6f" transform="translate(1564.363281 0)"/>
     <use xlink:href="#DejaVuSans-Bold-6e" transform="translate(1633.064453 0)"/>
     <use xlink:href="#DejaVuSans-Bold-2d" transform="translate(1704.255859 0)"/>
     <use xlink:href="#DejaVuSans-Bold-48" transform="translate(1745.759766 0)"/>
     <use xlink:href="#DejaVuSans-Bold-20" transform="translate(1829.451172 0)"/>
     <use xlink:href="#DejaVuSans-Bold-61" transform="translate(1864.265625 0)"/>
     <use xlink:href="#DejaVuSans-Bold-74" transform="translate(1931.746094 0)"/>
     <use xlink:href="#DejaVuSans-Bold-20" transform="translate(1979.548828 0)"/>
     <use xlink:href="#DejaVuSans-Bold-4b" transform="translate(2014.363281 0)"/>
     <use xlink:href="#DejaVuSans-Bold-57" transform="translate(2091.853516 0)"/>
     <use xlink:href="#DejaVuSans-Bold-20" transform="translate(2202.15625 0)"/>
     <use xlink:href="#DejaVuSans-Bold-42" transform="translate(2236.970703 0)"/>
     <use xlink:href="#DejaVuSans-Bold-72" transform="translate(2313.191406 0)"/>
     <use xlink:href="#DejaVuSans-Bold-69" transform="translate(2362.507812 0)"/>
     <use xlink:href="#DejaVuSans-Bold-64" transform="translate(2396.785156 0)"/>
     <use xlink:href="#DejaVuSans-Bold-67" transform="translate(2468.367188 0)"/>
     <use xlink:href="#DejaVuSans-Bold-65" transform="translate(2539.949219 0)"/>
     <use xlink:href="#DejaVuSans-Bold-73" transform="translate(2607.771484 0)"/>
    </g>
   </g>
   <g id="PathCollection_1">
    <defs>
     <path id="m6c3951a242" d="M 0 13.228757 
C 3.508307 13.228757 6.873396 11.834891 9.354143 9.354143 
C 11.834891 6.873396 13.228757 3.508307 13.228757 0 
C 13.228757 -3.508307 11.834891 -6.873396 9.354143 -9.354143 
C 6.873396 -11.834891 3.508307 -13.228757 0 -13.228757 
C -3.508307 -13.228757 -6.873396 -11.834891 -9.354143 -9.354143 
C -11.834891 -6.873396 -13.228757 -3.508307 -13.228757 0 
C -13.228757 3.508307 -11.834891 6.873396 -9.354143 9.354143 
C -6.873396 11.834891 -3.508307 13.228757 0 13.228757 
z
" style="stroke: #ffffff; stroke-width: 2"/>
    </defs>
    <g clip-path="url(#p46533c26e1)">
     <use xlink:href="#m6c3951a242" x="107.703529" y="393.494283" style="fill: #4488cc; stroke: #ffffff; stroke-width: 2"/>
    </g>
   </g>
   <g id="PathCollection_2">
    <g clip-path="url(#p46533c26e1)">
     <use xlink:href="#m6c3951a242" x="107.703529" y="304.553107" style="fill: #4488cc; stroke: #ffffff; stroke-width: 2"/>
    </g>
   </g>
   <g id="PathCollection_3">
    <defs>
     <path id="m0d5c2a1c52" d="M 0 13.228757 
C 3.508307 13.228757 6.873396 11.834891 9.354143 9.354143 
C 11.834891 6.873396 13.228757 3.508307 13.228757 0 
C 13.228757 -3.508307 11.834891 -6.873396 9.354143 -9.354143 
C 6.873396 -11.834891 3.508307 -13.228757 0 -13.228757 
C -3.508307 -13.228757 -6.873396 -11.834891 -9.354143 -9.354143 
C -11.834891 -6.873396 -13.228757 -3.508307 -13.228757 0 
C -13.228757 3.508307 -11.834891 6.873396 -9.354143 9.354143 
C -6.873396 11.834891 -3.508307 13.228757 0 13.228757 
z
" style="stroke: #ffffff; stroke-width: 2"/>
    </defs>
    <g clip-path="url(#p46533c26e1)">
     <use xlink:href="#m0d5c2a1c52" x="365.632941" y="437.964871" style="fill: #44aa66; stroke: #ffffff; stroke-width: 2"/>
    </g>
   </g>
   <g id="PathCollection_4">
    <g clip-path="url(#p46533c26e1)">
     <use xlink:href="#m0d5c2a1c52" x="365.632941" y="349.023695" style="fill: #44aa66; stroke: #ffffff; stroke-width: 2"/>
    </g>
   </g>
   <g id="PathCollection_5">
    <g clip-path="url(#p46533c26e1)">
     <use xlink:href="#m0d5c2a1c52" x="294.48" y="437.964871" style="fill: #44aa66; stroke: #ffffff; stroke-width: 2"/>
    </g>
   </g>
   <g id="PathCollection_6">
    <g clip-path="url(#p46533c26e1)">
     <use xlink:href="#m0d5c2a1c52" x="294.48" y="349.023695" style="fill: #44aa66; stroke: #ffffff; stroke-width: 2"/>
    </g>
   </g>
   <g id="PathCollection_7">
    <defs>
     <path id="m95ea5720b1" d="M 0 13.228757 
C 3.508307 13.228757 6.873396 11.834891 9.354143 9.354143 
C 11.834891 6.873396 13.228757 3.508307 13.228757 0 
C 13.228757 -3.508307 11.834891 -6.873396 9.354143 -9.354143 
C 6.873396 -11.834891 3.508307 -13.228757 0 -13.228757 
C -3.508307 -13.228757 -6.873396 -11.834891 -9.354143 -9.354143 
C -11.834891 -6.873396 -13.228757 -3.508307 -13.228757 0 
C -13.228757 3.508307 -11.834891 6.873396 -9.354143 9.354143 
C -6.873396 11.834891 -3.508307 13.228757 0 13.228757 
z
" style="stroke: #ffffff; stroke-width: 2"/>
    </defs>
    <g clip-path="url(#p46533c26e1)">
     <use xlink:href="#m95ea5720b1" x="552.409412" y="393.494283" style="fill: #cc4444; stroke: #ffffff; stroke-width: 2"/>
    </g>
   </g>
   <g id="PathCollection_8">
    <g clip-path="url(#p46533c26e1)">
     <use xlink:href="#m95ea5720b1" x="552.409412" y="304.553107" style="fill: #cc4444; stroke: #ffffff; stroke-width: 2"/>
    </g>
   </g>
   <g id="PathCollection_9">
    <g clip-path="url(#p46533c26e1)">
     <use xlink:href="#m6c3951a242" x="107.703529" y="215.61193" style="fill: #4488cc; stroke: #ffffff; stroke-width: 2"/>
    </g>
   </g>
   <g id="PathCollection_10">
    <g clip-path="url(#p46533c26e1)">
     <use xlink:href="#m6c3951a242" x="107.703529" y="126.670754" style="fill: #4488cc; stroke: #ffffff; stroke-width: 2"/>
    </g>
   </g>
   <g id="PathCollection_11">
    <g clip-path="url(#p46533c26e1)">
     <use xlink:href="#m0d5c2a1c52" x="365.632941" y="260.082518" style="fill: #44aa66; stroke: #ffffff; stroke-width: 2"/>
    </g>
   </g>
   <g id="PathCollection_12">
    <g clip-path="url(#p46533c26e1)">
     <use xlink:href="#m0d5c2a1c52" x="365.632941" y="171.141342" style="fill: #44aa66; stroke: #ffffff; stroke-width: 2"/>
    </g>
   </g>
   <g id="PathCollection_13">
    <g clip-path="url(#p46533c26e1)">
     <use xlink:href="#m0d5c2a1c52" x="294.48" y="260.082518" style="fill: #44aa66; stroke: #ffffff; stroke-width: 2"/>
    </g>
   </g>
   <g id="PathCollection_14">
    <g clip-path="url(#p46533c26e1)">
     <use xlink:href="#m0d5c2a1c52" x="294.48" y="171.141342" style="fill: #44aa66; stroke: #ffffff; stroke-width: 2"/>
    </g>
   </g>
   <g id="PathCollection_15">
    <g clip-path="url(#p46533c26e1)">
     <use xlink:href="#m95ea5720b1" x="552.409412" y="215.61193" style="fill: #cc4444; stroke: #ffffff; stroke-width: 2"/>
    </g>
   </g>
   <g id="PathCollection_16">
    <g clip-path="url(#p46533c26e1)">
     <use xlink:href="#m95ea5720b1" x="552.409412" y="126.670754" style="fill: #cc4444; stroke: #ffffff; stroke-width: 2"/>
    </g>
   </g>
   <g id="legend_1">
    <g id="patch_46">
     <path d="M 517.138097 527.297812 
L 646.612941 527.297812 
Q 648.412941 527.297812 648.412941 525.497813 
L 648.412941 499.977188 
Q 648.412941 498.177188 646.612941 498.177188 
L 517.138097 498.177188 
Q 515.338097 498.177188 515.338097 499.977188 
L 515.338097 525.497813 
Q 515.338097 527.297812 517.138097 527.297812 
z
" style="fill: #ffffff; opacity: 0.8; stroke: #cccccc; stroke-linejoin: miter"/>
    </g>
    <g id="line2d_1">
     <path d="M 518.938097 505.465781 
L 527.938097 505.465781 
L 536.938097 505.465781 
" style="fill: none; stroke: #3366cc; stroke-width: 2; stroke-linecap: square"/>
    </g>
    <g id="text_6">
     <!-- H-kernel (diagonal lift) -->
     <g transform="translate(544.138097 508.615781) scale(0.09 -0.09)">
      <defs>
       <path id="DejaVuSans-28" d="M 1984 4856 
Q 1566 4138 1362 3434 
Q 1159 2731 1159 2009 
Q 1159 1288 1364 580 
Q 1569 -128 1984 -844 
L 1484 -844 
Q 1016 -109 783 600 
Q 550 1309 550 2009 
Q 550 2706 781 3412 
Q 1013 4119 1484 4856 
L 1984 4856 
z
" transform="scale(0.015625)"/>
       <path id="DejaVuSans-64" d="M 2906 2969 
L 2906 4863 
L 3481 4863 
L 3481 0 
L 2906 0 
L 2906 525 
Q 2725 213 2448 61 
Q 2172 -91 1784 -91 
Q 1150 -91 751 415 
Q 353 922 353 1747 
Q 353 2572 751 3078 
Q 1150 3584 1784 3584 
Q 2172 3584 2448 3432 
Q 2725 3281 2906 2969 
z
M 947 1747 
Q 947 1113 1208 752 
Q 1469 391 1925 391 
Q 2381 391 2643 752 
Q 2906 1113 2906 1747 
Q 2906 2381 2643 2742 
Q 2381 3103 1925 3103 
Q 1469 3103 1208 2742 
Q 947 2381 947 1747 
z
" transform="scale(0.015625)"/>
       <path id="DejaVuSans-69" d="M 603 3500 
L 1178 3500 
L 1178 0 
L 603 0 
L 603 3500 
z
M 603 4863 
L 1178 4863 
L 1178 4134 
L 603 4134 
L 603 4863 
z
" transform="scale(0.015625)"/>
       <path id="DejaVuSans-61" d="M 2194 1759 
Q 1497 1759 1228 1600 
Q 959 1441 959 1056 
Q 959 750 1161 570 
Q 1363 391 1709 391 
Q 2188 391 2477 730 
Q 2766 1069 2766 1631 
L 2766 1759 
L 2194 1759 
z
M 3341 1997 
L 3341 0 
L 2766 0 
L 2766 531 
Q 2569 213 2275 61 
Q 1981 -91 1556 -91 
Q 1019 -91 701 211 
Q 384 513 384 1019 
Q 384 1609 779 1909 
Q 1175 2209 1959 2209 
L 2766 2209 
L 2766 2266 
Q 2766 2663 2505 2880 
Q 2244 3097 1772 3097 
Q 1472 3097 1187 3025 
Q 903 2953 641 2809 
L 641 3341 
Q 956 3463 1253 3523 
Q 1550 3584 1831 3584 
Q 2591 3584 2966 3190 
Q 3341 2797 3341 1997 
z
" transform="scale(0.015625)"/>
       <path id="DejaVuSans-67" d="M 2906 1791 
Q 2906 2416 2648 2759 
Q 2391 3103 1925 3103 
Q 1463 3103 1205 2759 
Q 947 2416 947 1791 
Q 947 1169 1205 825 
Q 1463 481 1925 481 
Q 2391 481 2648 825 
Q 2906 1169 2906 1791 
z
M 3481 434 
Q 3481 -459 3084 -895 
Q 2688 -1331 1869 -1331 
Q 1566 -1331 1297 -1286 
Q 1028 -1241 775 -1147 
L 775 -588 
Q 1028 -725 1275 -790 
Q 1522 -856 1778 -856 
Q 2344 -856 2625 -561 
Q 2906 -266 2906 331 
L 2906 616 
Q 2728 306 2450 153 
Q 2172 0 1784 0 
Q 1141 0 747 490 
Q 353 981 353 1791 
Q 353 2603 747 3093 
Q 1141 3584 1784 3584 
Q 2172 3584 2450 3431 
Q 2728 3278 2906 2969 
L 2906 3500 
L 3481 3500 
L 3481 434 
z
" transform="scale(0.015625)"/>
       <path id="DejaVuSans-66" d="M 2375 4863 
L 2375 4384 
L 1825 4384 
Q 1516 4384 1395 4259 
Q 1275 4134 1275 3809 
L 1275 3500 
L 2222 3500 
L 2222 3053 
L 1275 3053 
L 1275 0 
L 697 0 
L 697 3053 
L 147 3053 
L 147 3500 
L 697 3500 
L 697 3744 
Q 697 4328 969 4595 
Q 1241 4863 1831 4863 
L 2375 4863 
z
" transform="scale(0.015625)"/>
       <path id="DejaVuSans-74" d="M 1172 4494 
L 1172 3500 
L 2356 3500 
L 2356 3053 
L 1172 3053 
L 1172 1153 
Q 1172 725 1289 603 
Q 1406 481 1766 481 
L 2356 481 
L 2356 0 
L 1766 0 
Q 1100 0 847 248 
Q 594 497 594 1153 
L 594 3053 
L 172 3053 
L 172 3500 
L 594 3500 
L 594 4494 
L 1172 4494 
z
" transform="scale(0.015625)"/>
       <path id="DejaVuSans-29" d="M 513 4856 
L 1013 4856 
Q 1481 4119 1714 3412 
Q 1947 2706 1947 2009 
Q 1947 1309 1714 600 
Q 1481 -109 1013 -844 
L 513 -844 
Q 928 -128 1133 580 
Q 1338 1288 1338 2009 
Q 1338 2731 1133 3434 
Q 928 4138 513 4856 
z
" transform="scale(0.015625)"/>
      </defs>
      <use xlink:href="#DejaVuSans-48"/>
      <use xlink:href="#DejaVuSans-2d" transform="translate(75.195312 0)"/>
      <use xlink:href="#DejaVuSans-6b" transform="translate(111.279297 0)"/>
      <use xlink:href="#DejaVuSans-65" transform="translate(165.564453 0)"/>
      <use xlink:href="#DejaVuSans-72" transform="translate(227.087891 0)"/>
      <use xlink:href="#DejaVuSans-6e" transform="translate(266.451172 0)"/>
      <use xlink:href="#DejaVuSans-65" transform="translate(329.830078 0)"/>
      <use xlink:href="#DejaVuSans-6c" transform="translate(391.353516 0)"/>
      <use xlink:href="#DejaVuSans-20" transform="translate(419.136719 0)"/>
      <use xlink:href="#DejaVuSans-28" transform="translate(450.923828 0)"/>
      <use xlink:href="#DejaVuSans-64" transform="translate(489.9375 0)"/>
      <use xlink:href="#DejaVuSans-69" transform="translate(553.414062 0)"/>
      <use xlink:href="#DejaVuSans-61" transform="translate(581.197266 0)"/>
      <use xlink:href="#DejaVuSans-67" transform="translate(642.476562 0)"/>
      <use xlink:href="#DejaVuSans-6f" transform="translate(705.953125 0)"/>
      <use xlink:href="#DejaVuSans-6e" transform="translate(767.134766 0)"/>
      <use xlink:href="#DejaVuSans-61" transform="translate(830.513672 0)"/>
      <use xlink:href="#DejaVuSans-6c" transform="translate(891.792969 0)"/>
      <use xlink:href="#DejaVuSans-20" transform="translate(919.576172 0)"/>
      <use xlink:href="#DejaVuSans-6c" transform="translate(951.363281 0)"/>
      <use xlink:href="#DejaVuSans-69" transform="translate(979.146484 0)"/>
      <use xlink:href="#DejaVuSans-66" transform="translate(1006.929688 0)"/>
      <use xlink:href="#DejaVuSans-74" transform="translate(1040.384766 0)"/>
      <use xlink:href="#DejaVuSans-29" transform="translate(1079.59375 0)"/>
     </g>
    </g>
    <g id="line2d_2">
     <path d="M 518.938097 518.676094 
L 527.938097 518.676094 
L 536.938097 518.676094 
" style="fill: none; stroke-dasharray: 7.4,3.2; stroke-dashoffset: 0; stroke: #cc6600; stroke-width: 2"/>
    </g>
    <g id="text_7">
     <!-- non-H (cross-talk) -->
     <g transform="translate(544.138097 521.826094) scale(0.09 -0.09)">
      <defs>
       <path id="DejaVuSans-63" d="M 3122 3366 
L 3122 2828 
Q 2878 2963 2633 3030 
Q 2388 3097 2138 3097 
Q 1578 3097 1268 2742 
Q 959 2388 959 1747 
Q 959 1106 1268 751 
Q 1578 397 2138 397 
Q 2388 397 2633 464 
Q 2878 531 3122 666 
L 3122 134 
Q 2881 22 2623 -34 
Q 2366 -91 2075 -91 
Q 1284 -91 818 406 
Q 353 903 353 1747 
Q 353 2603 823 3093 
Q 1294 3584 2113 3584 
Q 2378 3584 2631 3529 
Q 2884 3475 3122 3366 
z
" transform="scale(0.015625)"/>
       <path id="DejaVuSans-73" d="M 2834 3397 
L 2834 2853 
Q 2591 2978 2328 3040 
Q 2066 3103 1784 3103 
Q 1356 3103 1142 2972 
Q 928 2841 928 2578 
Q 928 2378 1081 2264 
Q 1234 2150 1697 2047 
L 1894 2003 
Q 2506 1872 2764 1633 
Q 3022 1394 3022 966 
Q 3022 478 2636 193 
Q 2250 -91 1575 -91 
Q 1294 -91 989 -36 
Q 684 19 347 128 
L 347 722 
Q 666 556 975 473 
Q 1284 391 1588 391 
Q 1994 391 2212 530 
Q 2431 669 2431 922 
Q 2431 1156 2273 1281 
Q 2116 1406 1581 1522 
L 1381 1569 
Q 847 1681 609 1914 
Q 372 2147 372 2553 
Q 372 3047 722 3315 
Q 1072 3584 1716 3584 
Q 2034 3584 2315 3537 
Q 2597 3491 2834 3397 
z
" transform="scale(0.015625)"/>
      </defs>
      <use xlink:href="#DejaVuSans-6e"/>
      <use xlink:href="#DejaVuSans-6f" transform="translate(63.378906 0)"/>
      <use xlink:href="#DejaVuSans-6e" transform="translate(124.560547 0)"/>
      <use xlink:href="#DejaVuSans-2d" transform="translate(187.939453 0)"/>
      <use xlink:href="#DejaVuSans-48" transform="translate(224.023438 0)"/>
      <use xlink:href="#DejaVuSans-20" transform="translate(299.21875 0)"/>
      <use xlink:href="#DejaVuSans-28" transform="translate(331.005859 0)"/>
      <use xlink:href="#DejaVuSans-63" transform="translate(370.019531 0)"/>
      <use xlink:href="#DejaVuSans-72" transform="translate(425 0)"/>
      <use xlink:href="#DejaVuSans-6f" transform="translate(463.863281 0)"/>
      <use xlink:href="#DejaVuSans-73" transform="translate(525.044922 0)"/>
      <use xlink:href="#DejaVuSans-73" transform="translate(577.144531 0)"/>
      <use xlink:href="#DejaVuSans-2d" transform="translate(629.244141 0)"/>
      <use xlink:href="#DejaVuSans-74" transform="translate(665.328125 0)"/>
      <use xlink:href="#DejaVuSans-61" transform="translate(704.537109 0)"/>
      <use xlink:href="#DejaVuSans-6c" transform="translate(765.816406 0)"/>
      <use xlink:href="#DejaVuSans-6b" transform="translate(793.599609 0)"/>
      <use xlink:href="#DejaVuSans-29" transform="translate(851.509766 0)"/>
     </g>
    </g>
   </g>
   <g id="text_8">
    <!-- Kun/Kun -->
    <g style="fill: #ffffff" transform="translate(91.157279 393.647022) scale(0.07 -0.07)">
     <defs>
      <path id="DejaVuSans-Bold-2f" d="M 1644 4666 
L 2338 4666 
L 691 -594 
L 0 -594 
L 1644 4666 
z
" transform="scale(0.015625)"/>
     </defs>
     <use xlink:href="#DejaVuSans-Bold-4b"/>
     <use xlink:href="#DejaVuSans-Bold-75" transform="translate(75.740234 0)"/>
     <use xlink:href="#DejaVuSans-Bold-6e" transform="translate(146.931641 0)"/>
     <use xlink:href="#DejaVuSans-Bold-2f" transform="translate(218.123047 0)"/>
     <use xlink:href="#DejaVuSans-Bold-4b" transform="translate(254.646484 0)"/>
     <use xlink:href="#DejaVuSans-Bold-75" transform="translate(330.386719 0)"/>
     <use xlink:href="#DejaVuSans-Bold-6e" transform="translate(401.578125 0)"/>
    </g>
   </g>
   <g id="text_9">
    <!-- 0000 -->
    <g style="fill: #333333" transform="translate(100.479154 429.214632) scale(0.06 -0.06)">
     <defs>
      <path id="DejaVuSansMono-30" d="M 1509 2344 
Q 1509 2516 1629 2641 
Q 1750 2766 1919 2766 
Q 2094 2766 2219 2641 
Q 2344 2516 2344 2344 
Q 2344 2169 2220 2047 
Q 2097 1925 1919 1925 
Q 1744 1925 1626 2044 
Q 1509 2163 1509 2344 
z
M 1925 4250 
Q 1484 4250 1267 3775 
Q 1050 3300 1050 2328 
Q 1050 1359 1267 884 
Q 1484 409 1925 409 
Q 2369 409 2586 884 
Q 2803 1359 2803 2328 
Q 2803 3300 2586 3775 
Q 2369 4250 1925 4250 
z
M 1925 4750 
Q 2672 4750 3055 4137 
Q 3438 3525 3438 2328 
Q 3438 1134 3055 521 
Q 2672 -91 1925 -91 
Q 1178 -91 797 521 
Q 416 1134 416 2328 
Q 416 3525 797 4137 
Q 1178 4750 1925 4750 
z
" transform="scale(0.015625)"/>
     </defs>
     <use xlink:href="#DejaVuSansMono-30"/>
     <use xlink:href="#DejaVuSansMono-30" transform="translate(60.205078 0)"/>
     <use xlink:href="#DejaVuSansMono-30" transform="translate(120.410156 0)"/>
     <use xlink:href="#DejaVuSansMono-30" transform="translate(180.615234 0)"/>
    </g>
   </g>
   <g id="text_10">
    <!-- Zhe/Kun -->
    <g style="fill: #ffffff" transform="translate(91.387514 304.705846) scale(0.07 -0.07)">
     <defs>
      <path id="DejaVuSans-Bold-5a" d="M 359 4666 
L 4281 4666 
L 4281 3938 
L 1778 909 
L 4353 909 
L 4353 0 
L 288 0 
L 288 728 
L 2791 3756 
L 359 3756 
L 359 4666 
z
" transform="scale(0.015625)"/>
      <path id="DejaVuSans-Bold-68" d="M 4056 2131 
L 4056 0 
L 2931 0 
L 2931 347 
L 2931 1625 
Q 2931 2084 2911 2256 
Q 2891 2428 2841 2509 
Q 2775 2619 2662 2680 
Q 2550 2741 2406 2741 
Q 2056 2741 1856 2470 
Q 1656 2200 1656 1722 
L 1656 0 
L 538 0 
L 538 4863 
L 1656 4863 
L 1656 2988 
Q 1909 3294 2193 3439 
Q 2478 3584 2822 3584 
Q 3428 3584 3742 3212 
Q 4056 2841 4056 2131 
z
" transform="scale(0.015625)"/>
     </defs>
     <use xlink:href="#DejaVuSans-Bold-5a"/>
     <use xlink:href="#DejaVuSans-Bold-68" transform="translate(72.509766 0)"/>
     <use xlink:href="#DejaVuSans-Bold-65" transform="translate(143.701172 0)"/>
     <use xlink:href="#DejaVuSans-Bold-2f" transform="translate(211.523438 0)"/>
     <use xlink:href="#DejaVuSans-Bold-4b" transform="translate(248.046875 0)"/>
     <use xlink:href="#DejaVuSans-Bold-75" transform="translate(323.787109 0)"/>
     <use xlink:href="#DejaVuSans-Bold-6e" transform="translate(394.978516 0)"/>
    </g>
   </g>
   <g id="text_11">
    <!-- 0001 -->
    <g style="fill: #333333" transform="translate(100.479154 340.273456) scale(0.06 -0.06)">
     <defs>
      <path id="DejaVuSansMono-31" d="M 844 531 
L 1825 531 
L 1825 4097 
L 769 3859 
L 769 4434 
L 1819 4666 
L 2450 4666 
L 2450 531 
L 3419 531 
L 3419 0 
L 844 0 
L 844 531 
z
" transform="scale(0.015625)"/>
     </defs>
     <use xlink:href="#DejaVuSansMono-30"/>
     <use xlink:href="#DejaVuSansMono-30" transform="translate(60.205078 0)"/>
     <use xlink:href="#DejaVuSansMono-30" transform="translate(120.410156 0)"/>
     <use xlink:href="#DejaVuSansMono-31" transform="translate(180.615234 0)"/>
    </g>
   </g>
   <g id="text_12">
    <!-- Kan/Zhe -->
    <g style="fill: #ffffff" transform="translate(349.385285 438.11761) scale(0.07 -0.07)">
     <use xlink:href="#DejaVuSans-Bold-4b"/>
     <use xlink:href="#DejaVuSans-Bold-61" transform="translate(77.490234 0)"/>
     <use xlink:href="#DejaVuSans-Bold-6e" transform="translate(144.970703 0)"/>
     <use xlink:href="#DejaVuSans-Bold-2f" transform="translate(216.162109 0)"/>
     <use xlink:href="#DejaVuSans-Bold-5a" transform="translate(252.685547 0)"/>
     <use xlink:href="#DejaVuSans-Bold-68" transform="translate(325.195312 0)"/>
     <use xlink:href="#DejaVuSans-Bold-65" transform="translate(396.386719 0)"/>
    </g>
   </g>
   <g id="text_13">
    <!-- 0010 -->
    <g style="fill: #333333" transform="translate(358.408566 473.685221) scale(0.06 -0.06)">
     <use xlink:href="#DejaVuSansMono-30"/>
     <use xlink:href="#DejaVuSansMono-30" transform="translate(60.205078 0)"/>
     <use xlink:href="#DejaVuSansMono-31" transform="translate(120.410156 0)"/>
     <use xlink:href="#DejaVuSansMono-30" transform="translate(180.615234 0)"/>
    </g>
   </g>
   <g id="text_14">
    <!-- Dui/Zhe -->
    <g style="fill: #ffffff" transform="translate(350.353801 349.176434) scale(0.07 -0.07)">
     <defs>
      <path id="DejaVuSans-Bold-44" d="M 1791 3756 
L 1791 909 
L 2222 909 
Q 2959 909 3348 1275 
Q 3738 1641 3738 2338 
Q 3738 3031 3350 3393 
Q 2963 3756 2222 3756 
L 1791 3756 
z
M 588 4666 
L 1856 4666 
Q 2919 4666 3439 4514 
Q 3959 4363 4331 4000 
Q 4659 3684 4818 3271 
Q 4978 2859 4978 2338 
Q 4978 1809 4818 1395 
Q 4659 981 4331 666 
Q 3956 303 3431 151 
Q 2906 0 1856 0 
L 588 0 
L 588 4666 
z
" transform="scale(0.015625)"/>
     </defs>
     <use xlink:href="#DejaVuSans-Bold-44"/>
     <use xlink:href="#DejaVuSans-Bold-75" transform="translate(83.007812 0)"/>
     <use xlink:href="#DejaVuSans-Bold-69" transform="translate(154.199219 0)"/>
     <use xlink:href="#DejaVuSans-Bold-2f" transform="translate(188.476562 0)"/>
     <use xlink:href="#DejaVuSans-Bold-5a" transform="translate(225 0)"/>
     <use xlink:href="#DejaVuSans-Bold-68" transform="translate(297.509766 0)"/>
     <use xlink:href="#DejaVuSans-Bold-65" transform="translate(368.701172 0)"/>
    </g>
   </g>
   <g id="text_15">
    <!-- 0011 -->
    <g style="fill: #333333" transform="translate(358.408566 384.744044) scale(0.06 -0.06)">
     <use xlink:href="#DejaVuSansMono-30"/>
     <use xlink:href="#DejaVuSansMono-30" transform="translate(60.205078 0)"/>
     <use xlink:href="#DejaVuSansMono-31" transform="translate(120.410156 0)"/>
     <use xlink:href="#DejaVuSansMono-31" transform="translate(180.615234 0)"/>
    </g>
   </g>
   <g id="text_16">
    <!-- Gen/Kan -->
    <g style="fill: #ffffff" transform="translate(277.897656 438.11761) scale(0.07 -0.07)">
     <defs>
      <path id="DejaVuSans-Bold-47" d="M 4781 347 
Q 4331 128 3847 18 
Q 3363 -91 2847 -91 
Q 1681 -91 1000 561 
Q 319 1213 319 2328 
Q 319 3456 1012 4103 
Q 1706 4750 2913 4750 
Q 3378 4750 3804 4662 
Q 4231 4575 4609 4403 
L 4609 3438 
Q 4219 3659 3833 3768 
Q 3447 3878 3059 3878 
Q 2341 3878 1952 3476 
Q 1563 3075 1563 2328 
Q 1563 1588 1938 1184 
Q 2313 781 3003 781 
Q 3191 781 3352 804 
Q 3513 828 3641 878 
L 3641 1784 
L 2906 1784 
L 2906 2591 
L 4781 2591 
L 4781 347 
z
" transform="scale(0.015625)"/>
     </defs>
     <use xlink:href="#DejaVuSans-Bold-47"/>
     <use xlink:href="#DejaVuSans-Bold-65" transform="translate(82.080078 0)"/>
     <use xlink:href="#DejaVuSans-Bold-6e" transform="translate(149.902344 0)"/>
     <use xlink:href="#DejaVuSans-Bold-2f" transform="translate(221.09375 0)"/>
     <use xlink:href="#DejaVuSans-Bold-4b" transform="translate(257.617188 0)"/>
     <use xlink:href="#DejaVuSans-Bold-61" transform="translate(335.107422 0)"/>
     <use xlink:href="#DejaVuSans-Bold-6e" transform="translate(402.587891 0)"/>
    </g>
   </g>
   <g id="text_17">
    <!-- 0100 -->
    <g style="fill: #333333" transform="translate(287.255625 473.685221) scale(0.06 -0.06)">
     <use xlink:href="#DejaVuSansMono-30"/>
     <use xlink:href="#DejaVuSansMono-31" transform="translate(60.205078 0)"/>
     <use xlink:href="#DejaVuSansMono-30" transform="translate(120.410156 0)"/>
     <use xlink:href="#DejaVuSansMono-30" transform="translate(180.615234 0)"/>
    </g>
   </g>
   <g id="text_18">
    <!-- Li/Kan -->
    <g style="fill: #ffffff" transform="translate(282.205937 349.176434) scale(0.07 -0.07)">
     <use xlink:href="#DejaVuSans-Bold-4c"/>
     <use xlink:href="#DejaVuSans-Bold-69" transform="translate(63.720703 0)"/>
     <use xlink:href="#DejaVuSans-Bold-2f" transform="translate(97.998047 0)"/>
     <use xlink:href="#DejaVuSans-Bold-4b" transform="translate(134.521484 0)"/>
     <use xlink:href="#DejaVuSans-Bold-61" transform="translate(212.011719 0)"/>
     <use xlink:href="#DejaVuSans-Bold-6e" transform="translate(279.492188 0)"/>
    </g>
   </g>
   <g id="text_19">
    <!-- 0101 -->
    <g style="fill: #333333" transform="translate(287.255625 384.744044) scale(0.06 -0.06)">
     <use xlink:href="#DejaVuSansMono-30"/>
     <use xlink:href="#DejaVuSansMono-31" transform="translate(60.205078 0)"/>
     <use xlink:href="#DejaVuSansMono-30" transform="translate(120.410156 0)"/>
     <use xlink:href="#DejaVuSansMono-31" transform="translate(180.615234 0)"/>
    </g>
   </g>
   <g id="text_20">
    <!-- Xun/Dui -->
    <g style="fill: #ffffff" transform="translate(536.852459 393.647022) scale(0.07 -0.07)">
     <defs>
      <path id="DejaVuSans-Bold-58" d="M 3188 2381 
L 4806 0 
L 3553 0 
L 2463 1594 
L 1381 0 
L 122 0 
L 1741 2381 
L 184 4666 
L 1441 4666 
L 2463 3163 
L 3481 4666 
L 4744 4666 
L 3188 2381 
z
" transform="scale(0.015625)"/>
     </defs>
     <use xlink:href="#DejaVuSans-Bold-58"/>
     <use xlink:href="#DejaVuSans-Bold-75" transform="translate(77.099609 0)"/>
     <use xlink:href="#DejaVuSans-Bold-6e" transform="translate(148.291016 0)"/>
     <use xlink:href="#DejaVuSans-Bold-2f" transform="translate(219.482422 0)"/>
     <use xlink:href="#DejaVuSans-Bold-44" transform="translate(256.005859 0)"/>
     <use xlink:href="#DejaVuSans-Bold-75" transform="translate(339.013672 0)"/>
     <use xlink:href="#DejaVuSans-Bold-69" transform="translate(410.205078 0)"/>
    </g>
   </g>
   <g id="text_21">
    <!-- 0110 -->
    <g style="fill: #333333" transform="translate(545.185037 429.214632) scale(0.06 -0.06)">
     <use xlink:href="#DejaVuSansMono-30"/>
     <use xlink:href="#DejaVuSansMono-31" transform="translate(60.205078 0)"/>
     <use xlink:href="#DejaVuSansMono-31" transform="translate(120.410156 0)"/>
     <use xlink:href="#DejaVuSansMono-30" transform="translate(180.615234 0)"/>
    </g>
   </g>
   <g id="text_22">
    <!-- Qia/Dui -->
    <g style="fill: #ffffff" transform="translate(537.996521 304.705846) scale(0.07 -0.07)">
     <use xlink:href="#DejaVuSans-Bold-51"/>
     <use xlink:href="#DejaVuSans-Bold-69" transform="translate(85.009766 0)"/>
     <use xlink:href="#DejaVuSans-Bold-61" transform="translate(119.287109 0)"/>
     <use xlink:href="#DejaVuSans-Bold-2f" transform="translate(186.767578 0)"/>
     <use xlink:href="#DejaVuSans-Bold-44" transform="translate(223.291016 0)"/>
     <use xlink:href="#DejaVuSans-Bold-75" transform="translate(306.298828 0)"/>
     <use xlink:href="#DejaVuSans-Bold-69" transform="translate(377.490234 0)"/>
    </g>
   </g>
   <g id="text_23">
    <!-- 0111 -->
    <g style="fill: #333333" transform="translate(545.185037 340.273456) scale(0.06 -0.06)">
     <use xlink:href="#DejaVuSansMono-30"/>
     <use xlink:href="#DejaVuSansMono-31" transform="translate(60.205078 0)"/>
     <use xlink:href="#DejaVuSansMono-31" transform="translate(120.410156 0)"/>
     <use xlink:href="#DejaVuSansMono-31" transform="translate(180.615234 0)"/>
    </g>
   </g>
   <g id="text_24">
    <!-- Kun/Gen -->
    <g style="fill: #ffffff" transform="translate(91.052826 215.764669) scale(0.07 -0.07)">
     <use xlink:href="#DejaVuSans-Bold-4b"/>
     <use xlink:href="#DejaVuSans-Bold-75" transform="translate(75.740234 0)"/>
     <use xlink:href="#DejaVuSans-Bold-6e" transform="translate(146.931641 0)"/>
     <use xlink:href="#DejaVuSans-Bold-2f" transform="translate(218.123047 0)"/>
     <use xlink:href="#DejaVuSans-Bold-47" transform="translate(254.646484 0)"/>
     <use xlink:href="#DejaVuSans-Bold-65" transform="translate(336.726562 0)"/>
     <use xlink:href="#DejaVuSans-Bold-6e" transform="translate(404.548828 0)"/>
    </g>
   </g>
   <g id="text_25">
    <!-- 1000 -->
    <g style="fill: #333333" transform="translate(100.479154 251.332279) scale(0.06 -0.06)">
     <use xlink:href="#DejaVuSansMono-31"/>
     <use xlink:href="#DejaVuSansMono-30" transform="translate(60.205078 0)"/>
     <use xlink:href="#DejaVuSansMono-30" transform="translate(120.410156 0)"/>
     <use xlink:href="#DejaVuSansMono-30" transform="translate(180.615234 0)"/>
    </g>
   </g>
   <g id="text_26">
    <!-- Zhe/Gen -->
    <g style="fill: #ffffff" transform="translate(91.283061 126.823493) scale(0.07 -0.07)">
     <use xlink:href="#DejaVuSans-Bold-5a"/>
     <use xlink:href="#DejaVuSans-Bold-68" transform="translate(72.509766 0)"/>
     <use xlink:href="#DejaVuSans-Bold-65" transform="translate(143.701172 0)"/>
     <use xlink:href="#DejaVuSans-Bold-2f" transform="translate(211.523438 0)"/>
     <use xlink:href="#DejaVuSans-Bold-47" transform="translate(248.046875 0)"/>
     <use xlink:href="#DejaVuSans-Bold-65" transform="translate(330.126953 0)"/>
     <use xlink:href="#DejaVuSans-Bold-6e" transform="translate(397.949219 0)"/>
    </g>
   </g>
   <g id="text_27">
    <!-- 1001 -->
    <g style="fill: #333333" transform="translate(100.479154 162.391103) scale(0.06 -0.06)">
     <use xlink:href="#DejaVuSansMono-31"/>
     <use xlink:href="#DejaVuSansMono-30" transform="translate(60.205078 0)"/>
     <use xlink:href="#DejaVuSansMono-30" transform="translate(120.410156 0)"/>
     <use xlink:href="#DejaVuSansMono-31" transform="translate(180.615234 0)"/>
    </g>
   </g>
   <g id="text_28">
    <!-- Kan/Li -->
    <g style="fill: #ffffff" transform="translate(353.358879 260.235257) scale(0.07 -0.07)">
     <use xlink:href="#DejaVuSans-Bold-4b"/>
     <use xlink:href="#DejaVuSans-Bold-61" transform="translate(77.490234 0)"/>
     <use xlink:href="#DejaVuSans-Bold-6e" transform="translate(144.970703 0)"/>
     <use xlink:href="#DejaVuSans-Bold-2f" transform="translate(216.162109 0)"/>
     <use xlink:href="#DejaVuSans-Bold-4c" transform="translate(252.685547 0)"/>
     <use xlink:href="#DejaVuSans-Bold-69" transform="translate(316.40625 0)"/>
    </g>
   </g>
   <g id="text_29">
    <!-- 1010 -->
    <g style="fill: #333333" transform="translate(358.408566 295.802868) scale(0.06 -0.06)">
     <use xlink:href="#DejaVuSansMono-31"/>
     <use xlink:href="#DejaVuSansMono-30" transform="translate(60.205078 0)"/>
     <use xlink:href="#DejaVuSansMono-31" transform="translate(120.410156 0)"/>
     <use xlink:href="#DejaVuSansMono-30" transform="translate(180.615234 0)"/>
    </g>
   </g>
   <g id="text_30">
    <!-- Dui/Li -->
    <g style="fill: #ffffff" transform="translate(354.327394 171.294081) scale(0.07 -0.07)">
     <use xlink:href="#DejaVuSans-Bold-44"/>
     <use xlink:href="#DejaVuSans-Bold-75" transform="translate(83.007812 0)"/>
     <use xlink:href="#DejaVuSans-Bold-69" transform="translate(154.199219 0)"/>
     <use xlink:href="#DejaVuSans-Bold-2f" transform="translate(188.476562 0)"/>
     <use xlink:href="#DejaVuSans-Bold-4c" transform="translate(225 0)"/>
     <use xlink:href="#DejaVuSans-Bold-69" transform="translate(288.720703 0)"/>
    </g>
   </g>
   <g id="text_31">
    <!-- 1011 -->
    <g style="fill: #333333" transform="translate(358.408566 206.861691) scale(0.06 -0.06)">
     <use xlink:href="#DejaVuSansMono-31"/>
     <use xlink:href="#DejaVuSansMono-30" transform="translate(60.205078 0)"/>
     <use xlink:href="#DejaVuSansMono-31" transform="translate(120.410156 0)"/>
     <use xlink:href="#DejaVuSansMono-31" transform="translate(180.615234 0)"/>
    </g>
   </g>
   <g id="text_32">
    <!-- Gen/Xun -->
    <g style="fill: #ffffff" transform="translate(277.781719 260.235257) scale(0.07 -0.07)">
     <use xlink:href="#DejaVuSans-Bold-47"/>
     <use xlink:href="#DejaVuSans-Bold-65" transform="translate(82.080078 0)"/>
     <use xlink:href="#DejaVuSans-Bold-6e" transform="translate(149.902344 0)"/>
     <use xlink:href="#DejaVuSans-Bold-2f" transform="translate(221.09375 0)"/>
     <use xlink:href="#DejaVuSans-Bold-58" transform="translate(257.617188 0)"/>
     <use xlink:href="#DejaVuSans-Bold-75" transform="translate(334.716797 0)"/>
     <use xlink:href="#DejaVuSans-Bold-6e" transform="translate(405.908203 0)"/>
    </g>
   </g>
   <g id="text_33">
    <!-- 1100 -->
    <g style="fill: #333333" transform="translate(287.255625 295.802868) scale(0.06 -0.06)">
     <use xlink:href="#DejaVuSansMono-31"/>
     <use xlink:href="#DejaVuSansMono-31" transform="translate(60.205078 0)"/>
     <use xlink:href="#DejaVuSansMono-30" transform="translate(120.410156 0)"/>
     <use xlink:href="#DejaVuSansMono-30" transform="translate(180.615234 0)"/>
    </g>
   </g>
   <g id="text_34">
    <!-- Li/Xun -->
    <g style="fill: #ffffff" transform="translate(282.09 171.294081) scale(0.07 -0.07)">
     <use xlink:href="#DejaVuSans-Bold-4c"/>
     <use xlink:href="#DejaVuSans-Bold-69" transform="translate(63.720703 0)"/>
     <use xlink:href="#DejaVuSans-Bold-2f" transform="translate(97.998047 0)"/>
     <use xlink:href="#DejaVuSans-Bold-58" transform="translate(134.521484 0)"/>
     <use xlink:href="#DejaVuSans-Bold-75" transform="translate(211.621094 0)"/>
     <use xlink:href="#DejaVuSans-Bold-6e" transform="translate(282.8125 0)"/>
    </g>
   </g>
   <g id="text_35">
    <!-- 1101 -->
    <g style="fill: #333333" transform="translate(287.255625 206.861691) scale(0.06 -0.06)">
     <use xlink:href="#DejaVuSansMono-31"/>
     <use xlink:href="#DejaVuSansMono-31" transform="translate(60.205078 0)"/>
     <use xlink:href="#DejaVuSansMono-30" transform="translate(120.410156 0)"/>
     <use xlink:href="#DejaVuSansMono-31" transform="translate(180.615234 0)"/>
    </g>
   </g>
   <g id="text_36">
    <!-- Xun/Qia -->
    <g style="fill: #ffffff" transform="translate(536.912068 215.764669) scale(0.07 -0.07)">
     <use xlink:href="#DejaVuSans-Bold-58"/>
     <use xlink:href="#DejaVuSans-Bold-75" transform="translate(77.099609 0)"/>
     <use xlink:href="#DejaVuSans-Bold-6e" transform="translate(148.291016 0)"/>
     <use xlink:href="#DejaVuSans-Bold-2f" transform="translate(219.482422 0)"/>
     <use xlink:href="#DejaVuSans-Bold-51" transform="translate(256.005859 0)"/>
     <use xlink:href="#DejaVuSans-Bold-69" transform="translate(341.015625 0)"/>
     <use xlink:href="#DejaVuSans-Bold-61" transform="translate(375.292969 0)"/>
    </g>
   </g>
   <g id="text_37">
    <!-- 1110 -->
    <g style="fill: #333333" transform="translate(545.185037 251.332279) scale(0.06 -0.06)">
     <use xlink:href="#DejaVuSansMono-31"/>
     <use xlink:href="#DejaVuSansMono-31" transform="translate(60.205078 0)"/>
     <use xlink:href="#DejaVuSansMono-31" transform="translate(120.410156 0)"/>
     <use xlink:href="#DejaVuSansMono-30" transform="translate(180.615234 0)"/>
    </g>
   </g>
   <g id="text_38">
    <!-- Qia/Qia -->
    <g style="fill: #ffffff" transform="translate(538.056131 126.823493) scale(0.07 -0.07)">
     <use xlink:href="#DejaVuSans-Bold-51"/>
     <use xlink:href="#DejaVuSans-Bold-69" transform="translate(85.009766 0)"/>
     <use xlink:href="#DejaVuSans-Bold-61" transform="translate(119.287109 0)"/>
     <use xlink:href="#DejaVuSans-Bold-2f" transform="translate(186.767578 0)"/>
     <use xlink:href="#DejaVuSans-Bold-51" transform="translate(223.291016 0)"/>
     <use xlink:href="#DejaVuSans-Bold-69" transform="translate(308.300781 0)"/>
     <use xlink:href="#DejaVuSans-Bold-61" transform="translate(342.578125 0)"/>
    </g>
   </g>
   <g id="text_39">
    <!-- 1111 -->
    <g style="fill: #333333" transform="translate(545.185037 162.391103) scale(0.06 -0.06)">
     <use xlink:href="#DejaVuSansMono-31"/>
     <use xlink:href="#DejaVuSansMono-31" transform="translate(60.205078 0)"/>
     <use xlink:href="#DejaVuSansMono-31" transform="translate(120.410156 0)"/>
     <use xlink:href="#DejaVuSansMono-31" transform="translate(180.615234 0)"/>
    </g>
   </g>
  </g>
 </g>
 <defs>
  <clipPath id="p46533c26e1">
   <rect x="7.2" y="32.837812" width="645.712941" height="498.96"/>
  </clipPath>
 </defs>
</svg>
