<?xml version="1.0" encoding="utf-8" standalone="no"?>
<!DOCTYPE svg PUBLIC "-//W3C//DTD SVG 1.1//EN"
  "http://www.w3.org/Graphics/SVG/1.1/DTD/svg11.dtd">
<svg xmlns:xlink="http://www.w3.org/1999/xlink" width="696pt" height="712.637812pt" viewBox="0 0 696 712.637812" xmlns="http://www.w3.org/2000/svg" version="1.1">
 <metadata>
  <rdf:RDF xmlns:dc="http://purl.org/dc/elements/1.1/" xmlns:cc="http://creativecommons.org/ns#" xmlns:rdf="http://www.w3.org/1999/02/22-rdf-syntax-ns#">
   <cc:Work>
    <dc:type rdf:resource="http://purl.org/dc/dcmitype/StillImage"/>
    <dc:date>2026-03-02T22:28:13.021003</dc:date>
    <dc:format>image/svg+xml</dc:format>
    <dc:creator>
     <cc:Agent>
      <dc:title>Matplotlib v3.10.8, https://matplotlib.org/</dc:title>
     </cc:Agent>
    </dc:creator>
   </cc:Work>
  </rdf:RDF>
 </metadata>
 <defs>
  <style type="text/css">*{stroke-linejoin: round; stroke-linecap: butt}</style>
 </defs>
 <g id="figure_1">
  <g id="patch_1">
   <path d="M 0 712.637812 
L 696 712.637812 
L 696 0 
L 0 0 
z
" style="fill: #ffffff"/>
  </g>
  <g id="axes_1">
   <g id="line2d_1">
    <path d="M 135 577.637812 
L 237.24 577.637812 
" clip-path="url(#pad7f9f0ff9)" style="fill: none; stroke: #dddddd; stroke-width: 0.8; stroke-linecap: square"/>
   </g>
   <g id="line2d_2">
    <path d="M 135 577.637812 
L 475.8 577.637812 
" clip-path="url(#pad7f9f0ff9)" style="fill: none; stroke: #dddddd; stroke-width: 0.8; stroke-linecap: square"/>
   </g>
   <g id="line2d_3">
    <path d="M 135 577.637812 
L 135 236.837813 
" clip-path="url(#pad7f9f0ff9)" style="fill: none; stroke: #dddddd; stroke-width: 0.8; stroke-linecap: square"/>
   </g>
   <g id="line2d_4">
    <path d="M 135 577.637812 
L 135 475.397812 
" clip-path="url(#pad7f9f0ff9)" style="fill: none; stroke: #dddddd; stroke-width: 0.8; stroke-linecap: square"/>
   </g>
   <g id="line2d_5">
    <path d="M 237.24 577.637812 
L 578.04 577.637812 
" clip-path="url(#pad7f9f0ff9)" style="fill: none; stroke: #dddddd; stroke-width: 0.8; stroke-linecap: square"/>
   </g>
   <g id="line2d_6">
    <path d="M 237.24 577.637812 
L 237.24 236.837813 
" clip-path="url(#pad7f9f0ff9)" style="fill: none; stroke: #dddddd; stroke-width: 0.8; stroke-linecap: square"/>
   </g>
   <g id="line2d_7">
    <path d="M 237.24 577.637812 
L 237.24 475.397812 
" clip-path="url(#pad7f9f0ff9)" style="fill: none; stroke: #dddddd; stroke-width: 0.8; stroke-linecap: square"/>
   </g>
   <g id="line2d_8">
    <path d="M 475.8 577.637812 
L 578.04 577.637812 
" clip-path="url(#pad7f9f0ff9)" style="fill: none; stroke: #dddddd; stroke-width: 0.8; stroke-linecap: square"/>
   </g>
   <g id="line2d_9">
    <path d="M 475.8 577.637812 
L 475.8 236.837813 
" clip-path="url(#pad7f9f0ff9)" style="fill: none; stroke: #dddddd; stroke-width: 0.8; stroke-linecap: square"/>
   </g>
   <g id="line2d_10">
    <path d="M 475.8 577.637812 
L 475.8 475.397812 
" clip-path="url(#pad7f9f0ff9)" style="fill: none; stroke: #dddddd; stroke-width: 0.8; stroke-linecap: square"/>
   </g>
   <g id="line2d_11">
    <path d="M 578.04 577.637812 
L 578.04 236.837813 
" clip-path="url(#pad7f9f0ff9)" style="fill: none; stroke: #dddddd; stroke-width: 0.8; stroke-linecap: square"/>
   </g>
   <g id="line2d_12">
    <path d="M 578.04 577.637812 
L 578.04 475.397812 
" clip-path="url(#pad7f9f0ff9)" style="fill: none; stroke: #dddddd; stroke-width: 0.8; stroke-linecap: square"/>
   </g>
   <g id="line2d_13">
    <path d="M 135 236.837813 
L 237.24 236.837813 
" clip-path="url(#pad7f9f0ff9)" style="fill: none; stroke: #dddddd; stroke-width: 0.8; stroke-linecap: square"/>
   </g>
   <g id="line2d_14">
    <path d="M 135 236.837813 
L 475.8 236.837813 
" clip-path="url(#pad7f9f0ff9)" style="fill: none; stroke: #dddddd; stroke-width: 0.8; stroke-linecap: square"/>
   </g>
   <g id="line2d_15">
    <path d="M 135 236.837813 
L 135 134.597813 
" clip-path="url(#pad7f9f0ff9)" style="fill: none; stroke: #dddddd; stroke-width: 0.8; stroke-linecap: square"/>
   </g>
   <g id="line2d_16">
    <path d="M 237.24 236.837813 
L 578.04 236.837813 
" clip-path="url(#pad7f9f0ff9)" style="fill: none; stroke: #dddddd; stroke-width: 0.8; stroke-linecap: square"/>
   </g>
   <g id="line2d_17">
    <path d="M 237.24 236.837813 
L 237.24 134.597813 
" clip-path="url(#pad7f9f0ff9)" style="fill: none; stroke: #dddddd; stroke-width: 0.8; stroke-linecap: square"/>
   </g>
   <g id="line2d_18">
    <path d="M 475.8 236.837813 
L 578.04 236.837813 
" clip-path="url(#pad7f9f0ff9)" style="fill: none; stroke: #dddddd; stroke-width: 0.8; stroke-linecap: square"/>
   </g>
   <g id="line2d_19">
    <path d="M 475.8 236.837813 
L 475.8 134.597813 
" clip-path="url(#pad7f9f0ff9)" style="fill: none; stroke: #dddddd; stroke-width: 0.8; stroke-linecap: square"/>
   </g>
   <g id="line2d_20">
    <path d="M 578.04 236.837813 
L 578.04 134.597813 
" clip-path="url(#pad7f9f0ff9)" style="fill: none; stroke: #dddddd; stroke-width: 0.8; stroke-linecap: square"/>
   </g>
   <g id="line2d_21">
    <path d="M 135 475.397812 
L 237.24 475.397812 
" clip-path="url(#pad7f9f0ff9)" style="fill: none; stroke: #dddddd; stroke-width: 0.8; stroke-linecap: square"/>
   </g>
   <g id="line2d_22">
    <path d="M 135 475.397812 
L 475.8 475.397812 
" clip-path="url(#pad7f9f0ff9)" style="fill: none; stroke: #dddddd; stroke-width: 0.8; stroke-linecap: square"/>
   </g>
   <g id="line2d_23">
    <path d="M 135 475.397812 
L 135 134.597813 
" clip-path="url(#pad7f9f0ff9)" style="fill: none; stroke: #dddddd; stroke-width: 0.8; stroke-linecap: square"/>
   </g>
   <g id="line2d_24">
    <path d="M 237.24 475.397812 
L 578.04 475.397812 
" clip-path="url(#pad7f9f0ff9)" style="fill: none; stroke: #dddddd; stroke-width: 0.8; stroke-linecap: square"/>
   </g>
   <g id="line2d_25">
    <path d="M 237.24 475.397812 
L 237.24 134.597813 
" clip-path="url(#pad7f9f0ff9)" style="fill: none; stroke: #dddddd; stroke-width: 0.8; stroke-linecap: square"/>
   </g>
   <g id="line2d_26">
    <path d="M 475.8 475.397812 
L 578.04 475.397812 
" clip-path="url(#pad7f9f0ff9)" style="fill: none; stroke: #dddddd; stroke-width: 0.8; stroke-linecap: square"/>
   </g>
   <g id="line2d_27">
    <path d="M 475.8 475.397812 
L 475.8 134.597813 
" clip-path="url(#pad7f9f0ff9)" style="fill: none; stroke: #dddddd; stroke-width: 0.8; stroke-linecap: square"/>
   </g>
   <g id="line2d_28">
    <path d="M 578.04 475.397812 
L 578.04 134.597813 
" clip-path="url(#pad7f9f0ff9)" style="fill: none; stroke: #dddddd; stroke-width: 0.8; stroke-linecap: square"/>
   </g>
   <g id="line2d_29">
    <path d="M 135 134.597813 
L 237.24 134.597813 
" clip-path="url(#pad7f9f0ff9)" style="fill: none; stroke: #dddddd; stroke-width: 0.8; stroke-linecap: square"/>
   </g>
   <g id="line2d_30">
    <path d="M 135 134.597813 
L 475.8 134.597813 
" clip-path="url(#pad7f9f0ff9)" style="fill: none; stroke: #dddddd; stroke-width: 0.8; stroke-linecap: square"/>
   </g>
   <g id="line2d_31">
    <path d="M 237.24 134.597813 
L 578.04 134.597813 
" clip-path="url(#pad7f9f0ff9)" style="fill: none; stroke: #dddddd; stroke-width: 0.8; stroke-linecap: square"/>
   </g>
   <g id="line2d_32">
    <path d="M 475.8 134.597813 
L 578.04 134.597813 
" clip-path="url(#pad7f9f0ff9)" style="fill: none; stroke: #dddddd; stroke-width: 0.8; stroke-linecap: square"/>
   </g>
   <g id="patch_2">
    <path d="M 228.669038 576.381422 
Q 186.118059 570.714745 145.229453 576.160534 
" clip-path="url(#pad7f9f0ff9)" style="fill: none; stroke: #555555; stroke-opacity: 0.7; stroke-width: 1.5; stroke-linecap: round"/>
    <path d="M 151.572995 578.342154 
L 145.229453 576.160534 
L 150.780874 572.394672 
z
" clip-path="url(#pad7f9f0ff9)" style="fill: #555555; fill-opacity: 0.7; stroke: #555555; stroke-opacity: 0.7; stroke-width: 1.5; stroke-linecap: round"/>
   </g>
   <g id="patch_3">
    <path d="M 471.993025 569.861873 
Q 382.686882 388.923698 244.405234 244.291803 
" clip-path="url(#pad7f9f0ff9)" style="fill: none; stroke: #555555; stroke-opacity: 0.7; stroke-width: 1.5; stroke-linecap: round"/>
    <path d="M 246.383211 250.701764 
L 244.405234 244.291803 
L 250.719989 246.555398 
z
" clip-path="url(#pad7f9f0ff9)" style="fill: #555555; fill-opacity: 0.7; stroke: #555555; stroke-opacity: 0.7; stroke-width: 1.5; stroke-linecap: round"/>
   </g>
   <g id="patch_4">
    <path d="M 572.940454 570.636504 
Q 433.953054 380.924607 245.593974 242.928352 
" clip-path="url(#pad7f9f0ff9)" style="fill: none; stroke: #555555; stroke-opacity: 0.7; stroke-width: 1.5; stroke-linecap: round"/>
    <path d="M 248.661069 248.894333 
L 245.593974 242.928352 
L 252.207016 244.054265 
z
" clip-path="url(#pad7f9f0ff9)" style="fill: #555555; fill-opacity: 0.7; stroke: #555555; stroke-opacity: 0.7; stroke-width: 1.5; stroke-linecap: round"/>
   </g>
   <g id="patch_5">
    <path d="M 141.238586 242.841006 
Q 287.082258 382.282155 466.5162 470.846593 
" clip-path="url(#pad7f9f0ff9)" style="fill: none; stroke: #555555; stroke-opacity: 0.7; stroke-width: 1.5; stroke-linecap: round"/>
    <path d="M 462.463684 465.500836 
L 466.5162 470.846593 
L 459.808085 470.881152 
z
" clip-path="url(#pad7f9f0ff9)" style="fill: #555555; fill-opacity: 0.7; stroke: #555555; stroke-opacity: 0.7; stroke-width: 1.5; stroke-linecap: round"/>
   </g>
   <g id="patch_6">
    <path d="M 482.767734 231.693251 
Q 534.187972 192.985157 571.887368 142.904684 
" clip-path="url(#pad7f9f0ff9)" style="fill: none; stroke: #555555; stroke-opacity: 0.7; stroke-width: 1.5; stroke-linecap: round"/>
    <path d="M 565.882054 145.894032 
L 571.887368 142.904684 
L 570.675658 149.502544 
z
" clip-path="url(#pad7f9f0ff9)" style="fill: #555555; fill-opacity: 0.7; stroke: #555555; stroke-opacity: 0.7; stroke-width: 1.5; stroke-linecap: round"/>
   </g>
   <g id="patch_7">
    <path d="M 579.296391 228.266851 
Q 584.963068 185.715872 579.517279 144.827265 
" clip-path="url(#pad7f9f0ff9)" style="fill: none; stroke: #555555; stroke-opacity: 0.7; stroke-width: 1.5; stroke-linecap: round"/>
    <path d="M 577.335659 151.170808 
L 579.517279 144.827265 
L 583.283141 150.378687 
z
" clip-path="url(#pad7f9f0ff9)" style="fill: #555555; fill-opacity: 0.7; stroke: #555555; stroke-opacity: 0.7; stroke-width: 1.5; stroke-linecap: round"/>
   </g>
   <g id="patch_8">
    <path d="M 133.743609 483.968774 
Q 128.076932 526.519753 133.522721 567.40836 
" clip-path="url(#pad7f9f0ff9)" style="fill: none; stroke: #555555; stroke-opacity: 0.7; stroke-width: 1.5; stroke-linecap: round"/>
    <path d="M 135.704341 561.064817 
L 133.522721 567.40836 
L 129.756859 561.856938 
z
" clip-path="url(#pad7f9f0ff9)" style="fill: #555555; fill-opacity: 0.7; stroke: #555555; stroke-opacity: 0.7; stroke-width: 1.5; stroke-linecap: round"/>
   </g>
   <g id="patch_9">
    <path d="M 230.272266 480.542374 
Q 178.852028 519.250468 141.152632 569.330941 
" clip-path="url(#pad7f9f0ff9)" style="fill: none; stroke: #555555; stroke-opacity: 0.7; stroke-width: 1.5; stroke-linecap: round"/>
    <path d="M 147.157946 566.341593 
L 141.152632 569.330941 
L 142.364342 562.733081 
z
" clip-path="url(#pad7f9f0ff9)" style="fill: #555555; fill-opacity: 0.7; stroke: #555555; stroke-opacity: 0.7; stroke-width: 1.5; stroke-linecap: round"/>
   </g>
   <g id="patch_10">
    <path d="M 571.801414 469.394619 
Q 425.957742 329.95347 246.5238 241.389032 
" clip-path="url(#pad7f9f0ff9)" style="fill: none; stroke: #555555; stroke-opacity: 0.7; stroke-width: 1.5; stroke-linecap: round"/>
    <path d="M 250.576316 246.734789 
L 246.5238 241.389032 
L 253.231915 241.354473 
z
" clip-path="url(#pad7f9f0ff9)" style="fill: #555555; fill-opacity: 0.7; stroke: #555555; stroke-opacity: 0.7; stroke-width: 1.5; stroke-linecap: round"/>
   </g>
   <g id="patch_11">
    <path d="M 140.099546 141.599121 
Q 279.086946 331.311018 467.446026 469.307273 
" clip-path="url(#pad7f9f0ff9)" style="fill: none; stroke: #555555; stroke-opacity: 0.7; stroke-width: 1.5; stroke-linecap: round"/>
    <path d="M 464.378931 463.341292 
L 467.446026 469.307273 
L 460.832984 468.18136 
z
" clip-path="url(#pad7f9f0ff9)" style="fill: #555555; fill-opacity: 0.7; stroke: #555555; stroke-opacity: 0.7; stroke-width: 1.5; stroke-linecap: round"/>
   </g>
   <g id="patch_12">
    <path d="M 241.046975 142.373752 
Q 330.353118 323.311927 468.634766 467.943822 
" clip-path="url(#pad7f9f0ff9)" style="fill: none; stroke: #555555; stroke-opacity: 0.7; stroke-width: 1.5; stroke-linecap: round"/>
    <path d="M 466.656789 461.533861 
L 468.634766 467.943822 
L 462.320011 465.680227 
z
" clip-path="url(#pad7f9f0ff9)" style="fill: #555555; fill-opacity: 0.7; stroke: #555555; stroke-opacity: 0.7; stroke-width: 1.5; stroke-linecap: round"/>
   </g>
   <g id="patch_13">
    <path d="M 484.370962 135.854203 
Q 526.921941 141.52088 567.810547 136.075091 
" clip-path="url(#pad7f9f0ff9)" style="fill: none; stroke: #555555; stroke-opacity: 0.7; stroke-width: 1.5; stroke-linecap: round"/>
    <path d="M 561.467005 133.893471 
L 567.810547 136.075091 
L 562.259126 139.840953 
z
" clip-path="url(#pad7f9f0ff9)" style="fill: #555555; fill-opacity: 0.7; stroke: #555555; stroke-opacity: 0.7; stroke-width: 1.5; stroke-linecap: round"/>
   </g>
   <g id="patch_14">
    <path d="M 241.397335 244.434479 
Q 322.455384 390.181641 465.759603 469.881378 
" clip-path="url(#pad7f9f0ff9)" style="fill: none; stroke: #ff6600; stroke-opacity: 0.9; stroke-width: 2.5; stroke-linecap: round"/>
    <path d="M 461.217041 463.235692 
L 465.759603 469.881378 
L 457.717517 469.528016 
z
" clip-path="url(#pad7f9f0ff9)" style="fill: #ff6600; fill-opacity: 0.9; stroke: #ff6600; stroke-opacity: 0.9; stroke-width: 2.5; stroke-linecap: round"/>
   </g>
   <g id="patch_15">
    <path d="M 471.642665 467.801146 
Q 390.584616 322.053984 247.280397 242.354247 
" clip-path="url(#pad7f9f0ff9)" style="fill: none; stroke: #ff6600; stroke-opacity: 0.9; stroke-width: 2.5; stroke-linecap: round"/>
    <path d="M 251.822959 248.999933 
L 247.280397 242.354247 
L 255.322483 242.707609 
z
" clip-path="url(#pad7f9f0ff9)" style="fill: #ff6600; fill-opacity: 0.9; stroke: #ff6600; stroke-opacity: 0.9; stroke-width: 2.5; stroke-linecap: round"/>
   </g>
   <g id="patch_16">
    <path d="M 135 564.857812 
C 141.778591 564.857812 148.280461 562.16465 153.073649 557.371462 
C 157.866837 552.578274 160.56 546.076404 160.56 539.297812 
C 160.56 532.519221 157.866837 526.017351 153.073649 521.224163 
C 148.280461 516.430975 141.778591 513.737813 135 513.737813 
C 128.221409 513.737813 121.719539 516.430975 116.926351 521.224163 
C 112.133163 526.017351 109.44 532.519221 109.44 539.297812 
C 109.44 546.076404 112.133163 552.578274 116.926351 557.371462 
C 121.719539 562.16465 128.221409 564.857812 135 564.857812 
L 135 564.857812 
z
" clip-path="url(#pad7f9f0ff9)" style="fill: none; opacity: 0.9; stroke: #ff6600; stroke-width: 2.5; stroke-linejoin: miter"/>
   </g>
   <g id="patch_17">
    <path d="M 578.04 121.817813 
C 584.818591 121.817813 591.320461 119.12465 596.113649 114.331462 
C 600.906837 109.538274 603.6 103.036404 603.6 96.257813 
C 603.6 89.479221 600.906837 82.977351 596.113649 78.184163 
C 591.320461 73.390975 584.818591 70.697813 578.04 70.697813 
C 571.261409 70.697813 564.759539 73.390975 559.966351 78.184163 
C 555.173163 82.977351 552.48 89.479221 552.48 96.257813 
C 552.48 103.036404 555.173163 109.538274 559.966351 114.331462 
C 564.759539 119.12465 571.261409 121.817813 578.04 121.817813 
L 578.04 121.817813 
z
" clip-path="url(#pad7f9f0ff9)" style="fill: none; opacity: 0.9; stroke: #ff6600; stroke-width: 2.5; stroke-linejoin: miter"/>
   </g>
   <g id="text_1">
    <!-- bit1=0 -->
    <g style="fill: #888888" transform="translate(53.179375 611.279562) scale(0.08 -0.08)">
     <defs>
      <path id="DejaVuSans-62" d="M 3116 1747 
Q 3116 2381 2855 2742 
Q 2594 3103 2138 3103 
Q 1681 3103 1420 2742 
Q 1159 2381 1159 1747 
Q 1159 1113 1420 752 
Q 1681 391 2138 391 
Q 2594 391 2855 752 
Q 3116 1113 3116 1747 
z
M 1159 2969 
Q 1341 3281 1617 3432 
Q 1894 3584 2278 3584 
Q 2916 3584 3314 3078 
Q 3713 2572 3713 1747 
Q 3713 922 3314 415 
Q 2916 -91 2278 -91 
Q 1894 -91 1617 61 
Q 1341 213 1159 525 
L 1159 0 
L 581 0 
L 581 4863 
L 1159 4863 
L 1159 2969 
z
" transform="scale(0.015625)"/>
      <path id="DejaVuSans-69" d="M 603 3500 
L 1178 3500 
L 1178 0 
L 603 0 
L 603 3500 
z
M 603 4863 
L 1178 4863 
L 1178 4134 
L 603 4134 
L 603 4863 
z
" transform="scale(0.015625)"/>
      <path id="DejaVuSans-74" d="M 1172 4494 
L 1172 3500 
L 2356 3500 
L 2356 3053 
L 1172 3053 
L 1172 1153 
Q 1172 725 1289 603 
Q 1406 481 1766 481 
L 2356 481 
L 2356 0 
L 1766 0 
Q 1100 0 847 248 
Q 594 497 594 1153 
L 594 3053 
L 172 3053 
L 172 3500 
L 594 3500 
L 594 4494 
L 1172 4494 
z
" transform="scale(0.015625)"/>
      <path id="DejaVuSans-31" d="M 794 531 
L 1825 531 
L 1825 4091 
L 703 3866 
L 703 4441 
L 1819 4666 
L 2450 4666 
L 2450 531 
L 3481 531 
L 3481 0 
L 794 0 
L 794 531 
z
" transform="scale(0.015625)"/>
      <path id="DejaVuSans-3d" d="M 678 2906 
L 4684 2906 
L 4684 2381 
L 678 2381 
L 678 2906 
z
M 678 1631 
L 4684 1631 
L 4684 1100 
L 678 1100 
L 678 1631 
z
" transform="scale(0.015625)"/>
      <path id="DejaVuSans-30" d="M 2034 4250 
Q 1547 4250 1301 3770 
Q 1056 3291 1056 2328 
Q 1056 1369 1301 889 
Q 1547 409 2034 409 
Q 2525 409 2770 889 
Q 3016 1369 3016 2328 
Q 3016 3291 2770 3770 
Q 2525 4250 2034 4250 
z
M 2034 4750 
Q 2819 4750 3233 4129 
Q 3647 3509 3647 2328 
Q 3647 1150 3233 529 
Q 2819 -91 2034 -91 
Q 1250 -91 836 529 
Q 422 1150 422 2328 
Q 422 3509 836 4129 
Q 1250 4750 2034 4750 
z
" transform="scale(0.015625)"/>
     </defs>
     <use xlink:href="#DejaVuSans-62"/>
     <use xlink:href="#DejaVuSans-69" transform="translate(63.476562 0)"/>
     <use xlink:href="#DejaVuSans-74" transform="translate(91.259766 0)"/>
     <use xlink:href="#DejaVuSans-31" transform="translate(130.46875 0)"/>
     <use xlink:href="#DejaVuSans-3d" transform="translate(194.091797 0)"/>
     <use xlink:href="#DejaVuSans-30" transform="translate(277.880859 0)"/>
    </g>
    <!-- bit2=0 -->
    <g style="fill: #888888" transform="translate(53.179375 620.237813) scale(0.08 -0.08)">
     <defs>
      <path id="DejaVuSans-32" d="M 1228 531 
L 3431 531 
L 3431 0 
L 469 0 
L 469 531 
Q 828 903 1448 1529 
Q 2069 2156 2228 2338 
Q 2531 2678 2651 2914 
Q 2772 3150 2772 3378 
Q 2772 3750 2511 3984 
Q 2250 4219 1831 4219 
Q 1534 4219 1204 4116 
Q 875 4013 500 3803 
L 500 4441 
Q 881 4594 1212 4672 
Q 1544 4750 1819 4750 
Q 2544 4750 2975 4387 
Q 3406 4025 3406 3419 
Q 3406 3131 3298 2873 
Q 3191 2616 2906 2266 
Q 2828 2175 2409 1742 
Q 1991 1309 1228 531 
z
" transform="scale(0.015625)"/>
     </defs>
     <use xlink:href="#DejaVuSans-62"/>
     <use xlink:href="#DejaVuSans-69" transform="translate(63.476562 0)"/>
     <use xlink:href="#DejaVuSans-74" transform="translate(91.259766 0)"/>
     <use xlink:href="#DejaVuSans-32" transform="translate(130.46875 0)"/>
     <use xlink:href="#DejaVuSans-3d" transform="translate(194.091797 0)"/>
     <use xlink:href="#DejaVuSans-30" transform="translate(277.880859 0)"/>
    </g>
   </g>
   <g id="text_2">
    <!-- bit1=1 -->
    <g style="fill: #888888" transform="translate(393.979375 611.279562) scale(0.08 -0.08)">
     <use xlink:href="#DejaVuSans-62"/>
     <use xlink:href="#DejaVuSans-69" transform="translate(63.476562 0)"/>
     <use xlink:href="#DejaVuSans-74" transform="translate(91.259766 0)"/>
     <use xlink:href="#DejaVuSans-31" transform="translate(130.46875 0)"/>
     <use xlink:href="#DejaVuSans-3d" transform="translate(194.091797 0)"/>
     <use xlink:href="#DejaVuSans-31" transform="translate(277.880859 0)"/>
    </g>
    <!-- bit2=0 -->
    <g style="fill: #888888" transform="translate(393.979375 620.237813) scale(0.08 -0.08)">
     <use xlink:href="#DejaVuSans-62"/>
     <use xlink:href="#DejaVuSans-69" transform="translate(63.476562 0)"/>
     <use xlink:href="#DejaVuSans-74" transform="translate(91.259766 0)"/>
     <use xlink:href="#DejaVuSans-32" transform="translate(130.46875 0)"/>
     <use xlink:href="#DejaVuSans-3d" transform="translate(194.091797 0)"/>
     <use xlink:href="#DejaVuSans-30" transform="translate(277.880859 0)"/>
    </g>
   </g>
   <g id="text_3">
    <!-- bit1=0 -->
    <g style="fill: #888888" transform="translate(53.179375 270.479563) scale(0.08 -0.08)">
     <use xlink:href="#DejaVuSans-62"/>
     <use xlink:href="#DejaVuSans-69" transform="translate(63.476562 0)"/>
     <use xlink:href="#DejaVuSans-74" transform="translate(91.259766 0)"/>
     <use xlink:href="#DejaVuSans-31" transform="translate(130.46875 0)"/>
     <use xlink:href="#DejaVuSans-3d" transform="translate(194.091797 0)"/>
     <use xlink:href="#DejaVuSans-30" transform="translate(277.880859 0)"/>
    </g>
    <!-- bit2=1 -->
    <g style="fill: #888888" transform="translate(53.179375 279.437813) scale(0.08 -0.08)">
     <use xlink:href="#DejaVuSans-62"/>
     <use xlink:href="#DejaVuSans-69" transform="translate(63.476562 0)"/>
     <use xlink:href="#DejaVuSans-74" transform="translate(91.259766 0)"/>
     <use xlink:href="#DejaVuSans-32" transform="translate(130.46875 0)"/>
     <use xlink:href="#DejaVuSans-3d" transform="translate(194.091797 0)"/>
     <use xlink:href="#DejaVuSans-31" transform="translate(277.880859 0)"/>
    </g>
   </g>
   <g id="text_4">
    <!-- bit1=1 -->
    <g style="fill: #888888" transform="translate(393.979375 270.479563) scale(0.08 -0.08)">
     <use xlink:href="#DejaVuSans-62"/>
     <use xlink:href="#DejaVuSans-69" transform="translate(63.476562 0)"/>
     <use xlink:href="#DejaVuSans-74" transform="translate(91.259766 0)"/>
     <use xlink:href="#DejaVuSans-31" transform="translate(130.46875 0)"/>
     <use xlink:href="#DejaVuSans-3d" transform="translate(194.091797 0)"/>
     <use xlink:href="#DejaVuSans-31" transform="translate(277.880859 0)"/>
    </g>
    <!-- bit2=1 -->
    <g style="fill: #888888" transform="translate(393.979375 279.437813) scale(0.08 -0.08)">
     <use xlink:href="#DejaVuSans-62"/>
     <use xlink:href="#DejaVuSans-69" transform="translate(63.476562 0)"/>
     <use xlink:href="#DejaVuSans-74" transform="translate(91.259766 0)"/>
     <use xlink:href="#DejaVuSans-32" transform="translate(130.46875 0)"/>
     <use xlink:href="#DejaVuSans-3d" transform="translate(194.091797 0)"/>
     <use xlink:href="#DejaVuSans-31" transform="translate(277.880859 0)"/>
    </g>
   </g>
   <g id="text_5">
    <!-- Kun Basin -->
    <g style="fill: #4488cc" transform="translate(155.231484 662.837813) scale(0.11 -0.11)">
     <defs>
      <path id="DejaVuSans-Bold-4b" d="M 588 4666 
L 1791 4666 
L 1791 2963 
L 3525 4666 
L 4922 4666 
L 2675 2456 
L 5153 0 
L 3647 0 
L 1791 1838 
L 1791 0 
L 588 0 
L 588 4666 
z
" transform="scale(0.015625)"/>
      <path id="DejaVuSans-Bold-75" d="M 500 1363 
L 500 3500 
L 1625 3500 
L 1625 3150 
Q 1625 2866 1622 2436 
Q 1619 2006 1619 1863 
Q 1619 1441 1641 1255 
Q 1663 1069 1716 984 
Q 1784 875 1895 815 
Q 2006 756 2150 756 
Q 2500 756 2700 1025 
Q 2900 1294 2900 1772 
L 2900 3500 
L 4019 3500 
L 4019 0 
L 2900 0 
L 2900 506 
Q 2647 200 2364 54 
Q 2081 -91 1741 -91 
Q 1134 -91 817 281 
Q 500 653 500 1363 
z
" transform="scale(0.015625)"/>
      <path id="DejaVuSans-Bold-6e" d="M 4056 2131 
L 4056 0 
L 2931 0 
L 2931 347 
L 2931 1631 
Q 2931 2084 2911 2256 
Q 2891 2428 2841 2509 
Q 2775 2619 2662 2680 
Q 2550 2741 2406 2741 
Q 2056 2741 1856 2470 
Q 1656 2200 1656 1722 
L 1656 0 
L 538 0 
L 538 3500 
L 1656 3500 
L 1656 2988 
Q 1909 3294 2193 3439 
Q 2478 3584 2822 3584 
Q 3428 3584 3742 3212 
Q 4056 2841 4056 2131 
z
" transform="scale(0.015625)"/>
      <path id="DejaVuSans-Bold-20" transform="scale(0.015625)"/>
      <path id="DejaVuSans-Bold-42" d="M 2456 2859 
Q 2741 2859 2887 2984 
Q 3034 3109 3034 3353 
Q 3034 3594 2887 3720 
Q 2741 3847 2456 3847 
L 1791 3847 
L 1791 2859 
L 2456 2859 
z
M 2497 819 
Q 2859 819 3042 972 
Q 3225 1125 3225 1434 
Q 3225 1738 3044 1889 
Q 2863 2041 2497 2041 
L 1791 2041 
L 1791 819 
L 2497 819 
z
M 3616 2497 
Q 4003 2384 4215 2081 
Q 4428 1778 4428 1338 
Q 4428 663 3972 331 
Q 3516 0 2584 0 
L 588 0 
L 588 4666 
L 2394 4666 
Q 3366 4666 3802 4372 
Q 4238 4078 4238 3431 
Q 4238 3091 4078 2852 
Q 3919 2613 3616 2497 
z
" transform="scale(0.015625)"/>
      <path id="DejaVuSans-Bold-61" d="M 2106 1575 
Q 1756 1575 1579 1456 
Q 1403 1338 1403 1106 
Q 1403 894 1545 773 
Q 1688 653 1941 653 
Q 2256 653 2472 879 
Q 2688 1106 2688 1447 
L 2688 1575 
L 2106 1575 
z
M 3816 1997 
L 3816 0 
L 2688 0 
L 2688 519 
Q 2463 200 2181 54 
Q 1900 -91 1497 -91 
Q 953 -91 614 226 
Q 275 544 275 1050 
Q 275 1666 698 1953 
Q 1122 2241 2028 2241 
L 2688 2241 
L 2688 2328 
Q 2688 2594 2478 2717 
Q 2269 2841 1825 2841 
Q 1466 2841 1156 2769 
Q 847 2697 581 2553 
L 581 3406 
Q 941 3494 1303 3539 
Q 1666 3584 2028 3584 
Q 2975 3584 3395 3211 
Q 3816 2838 3816 1997 
z
" transform="scale(0.015625)"/>
      <path id="DejaVuSans-Bold-73" d="M 3272 3391 
L 3272 2541 
Q 2913 2691 2578 2766 
Q 2244 2841 1947 2841 
Q 1628 2841 1473 2761 
Q 1319 2681 1319 2516 
Q 1319 2381 1436 2309 
Q 1553 2238 1856 2203 
L 2053 2175 
Q 2913 2066 3209 1816 
Q 3506 1566 3506 1031 
Q 3506 472 3093 190 
Q 2681 -91 1863 -91 
Q 1516 -91 1145 -36 
Q 775 19 384 128 
L 384 978 
Q 719 816 1070 734 
Q 1422 653 1784 653 
Q 2113 653 2278 743 
Q 2444 834 2444 1013 
Q 2444 1163 2330 1236 
Q 2216 1309 1875 1350 
L 1678 1375 
Q 931 1469 631 1722 
Q 331 1975 331 2491 
Q 331 3047 712 3315 
Q 1094 3584 1881 3584 
Q 2191 3584 2531 3537 
Q 2872 3491 3272 3391 
z
" transform="scale(0.015625)"/>
      <path id="DejaVuSans-Bold-69" d="M 538 3500 
L 1656 3500 
L 1656 0 
L 538 0 
L 538 3500 
z
M 538 4863 
L 1656 4863 
L 1656 3950 
L 538 3950 
L 538 4863 
z
" transform="scale(0.015625)"/>
     </defs>
     <use xlink:href="#DejaVuSans-Bold-4b"/>
     <use xlink:href="#DejaVuSans-Bold-75" transform="translate(75.740234 0)"/>
     <use xlink:href="#DejaVuSans-Bold-6e" transform="translate(146.931641 0)"/>
     <use xlink:href="#DejaVuSans-Bold-20" transform="translate(218.123047 0)"/>
     <use xlink:href="#DejaVuSans-Bold-42" transform="translate(252.9375 0)"/>
     <use xlink:href="#DejaVuSans-Bold-61" transform="translate(329.158203 0)"/>
     <use xlink:href="#DejaVuSans-Bold-73" transform="translate(396.638672 0)"/>
     <use xlink:href="#DejaVuSans-Bold-69" transform="translate(456.160156 0)"/>
     <use xlink:href="#DejaVuSans-Bold-6e" transform="translate(490.4375 0)"/>
    </g>
   </g>
   <g id="text_6">
    <!-- Cycle Basin (L) -->
    <g style="fill: #44aa44" transform="translate(481.082656 662.837813) scale(0.11 -0.11)">
     <defs>
      <path id="DejaVuSans-Bold-43" d="M 4288 256 
Q 3956 84 3597 -3 
Q 3238 -91 2847 -91 
Q 1681 -91 1000 561 
Q 319 1213 319 2328 
Q 319 3447 1000 4098 
Q 1681 4750 2847 4750 
Q 3238 4750 3597 4662 
Q 3956 4575 4288 4403 
L 4288 3438 
Q 3953 3666 3628 3772 
Q 3303 3878 2944 3878 
Q 2300 3878 1931 3465 
Q 1563 3053 1563 2328 
Q 1563 1606 1931 1193 
Q 2300 781 2944 781 
Q 3303 781 3628 887 
Q 3953 994 4288 1222 
L 4288 256 
z
" transform="scale(0.015625)"/>
      <path id="DejaVuSans-Bold-79" d="M 78 3500 
L 1197 3500 
L 2138 1125 
L 2938 3500 
L 4056 3500 
L 2584 -331 
Q 2363 -916 2067 -1148 
Q 1772 -1381 1288 -1381 
L 641 -1381 
L 641 -647 
L 991 -647 
Q 1275 -647 1404 -556 
Q 1534 -466 1606 -231 
L 1638 -134 
L 78 3500 
z
" transform="scale(0.015625)"/>
      <path id="DejaVuSans-Bold-63" d="M 3366 3391 
L 3366 2478 
Q 3138 2634 2908 2709 
Q 2678 2784 2431 2784 
Q 1963 2784 1702 2511 
Q 1441 2238 1441 1747 
Q 1441 1256 1702 982 
Q 1963 709 2431 709 
Q 2694 709 2930 787 
Q 3166 866 3366 1019 
L 3366 103 
Q 3103 6 2833 -42 
Q 2563 -91 2291 -91 
Q 1344 -91 809 395 
Q 275 881 275 1747 
Q 275 2613 809 3098 
Q 1344 3584 2291 3584 
Q 2566 3584 2833 3536 
Q 3100 3488 3366 3391 
z
" transform="scale(0.015625)"/>
      <path id="DejaVuSans-Bold-6c" d="M 538 4863 
L 1656 4863 
L 1656 0 
L 538 0 
L 538 4863 
z
" transform="scale(0.015625)"/>
      <path id="DejaVuSans-Bold-65" d="M 4031 1759 
L 4031 1441 
L 1416 1441 
Q 1456 1047 1700 850 
Q 1944 653 2381 653 
Q 2734 653 3104 758 
Q 3475 863 3866 1075 
L 3866 213 
Q 3469 63 3072 -14 
Q 2675 -91 2278 -91 
Q 1328 -91 801 392 
Q 275 875 275 1747 
Q 275 2603 792 3093 
Q 1309 3584 2216 3584 
Q 3041 3584 3536 3087 
Q 4031 2591 4031 1759 
z
M 2881 2131 
Q 2881 2450 2695 2645 
Q 2509 2841 2209 2841 
Q 1884 2841 1681 2658 
Q 1478 2475 1428 2131 
L 2881 2131 
z
" transform="scale(0.015625)"/>
      <path id="DejaVuSans-Bold-28" d="M 2413 -844 
L 1484 -844 
Q 1006 -72 778 623 
Q 550 1319 550 2003 
Q 550 2688 779 3389 
Q 1009 4091 1484 4856 
L 2413 4856 
Q 2013 4116 1813 3408 
Q 1613 2700 1613 2009 
Q 1613 1319 1811 609 
Q 2009 -100 2413 -844 
z
" transform="scale(0.015625)"/>
      <path id="DejaVuSans-Bold-4c" d="M 588 4666 
L 1791 4666 
L 1791 909 
L 3903 909 
L 3903 0 
L 588 0 
L 588 4666 
z
" transform="scale(0.015625)"/>
      <path id="DejaVuSans-Bold-29" d="M 513 -844 
Q 913 -100 1113 609 
Q 1313 1319 1313 2009 
Q 1313 2700 1113 3408 
Q 913 4116 513 4856 
L 1441 4856 
Q 1916 4091 2145 3389 
Q 2375 2688 2375 2003 
Q 2375 1319 2147 623 
Q 1919 -72 1441 -844 
L 513 -844 
z
" transform="scale(0.015625)"/>
     </defs>
     <use xlink:href="#DejaVuSans-Bold-43"/>
     <use xlink:href="#DejaVuSans-Bold-79" transform="translate(73.388672 0)"/>
     <use xlink:href="#DejaVuSans-Bold-63" transform="translate(138.574219 0)"/>
     <use xlink:href="#DejaVuSans-Bold-6c" transform="translate(197.851562 0)"/>
     <use xlink:href="#DejaVuSans-Bold-65" transform="translate(232.128906 0)"/>
     <use xlink:href="#DejaVuSans-Bold-20" transform="translate(299.951172 0)"/>
     <use xlink:href="#DejaVuSans-Bold-42" transform="translate(334.765625 0)"/>
     <use xlink:href="#DejaVuSans-Bold-61" transform="translate(410.986328 0)"/>
     <use xlink:href="#DejaVuSans-Bold-73" transform="translate(478.466797 0)"/>
     <use xlink:href="#DejaVuSans-Bold-69" transform="translate(537.988281 0)"/>
     <use xlink:href="#DejaVuSans-Bold-6e" transform="translate(572.265625 0)"/>
     <use xlink:href="#DejaVuSans-Bold-20" transform="translate(643.457031 0)"/>
     <use xlink:href="#DejaVuSans-Bold-28" transform="translate(678.271484 0)"/>
     <use xlink:href="#DejaVuSans-Bold-4c" transform="translate(723.974609 0)"/>
     <use xlink:href="#DejaVuSans-Bold-29" transform="translate(787.695312 0)"/>
    </g>
   </g>
   <g id="text_7">
    <!-- Cycle Basin (R) -->
    <g style="fill: #44aa44" transform="translate(139.552188 83.477813) scale(0.11 -0.11)">
     <defs>
      <path id="DejaVuSans-Bold-52" d="M 2297 2597 
Q 2675 2597 2839 2737 
Q 3003 2878 3003 3200 
Q 3003 3519 2839 3656 
Q 2675 3794 2297 3794 
L 1791 3794 
L 1791 2597 
L 2297 2597 
z
M 1791 1766 
L 1791 0 
L 588 0 
L 588 4666 
L 2425 4666 
Q 3347 4666 3776 4356 
Q 4206 4047 4206 3378 
Q 4206 2916 3982 2619 
Q 3759 2322 3309 2181 
Q 3556 2125 3751 1926 
Q 3947 1728 4147 1325 
L 4800 0 
L 3519 0 
L 2950 1159 
Q 2778 1509 2601 1637 
Q 2425 1766 2131 1766 
L 1791 1766 
z
" transform="scale(0.015625)"/>
     </defs>
     <use xlink:href="#DejaVuSans-Bold-43"/>
     <use xlink:href="#DejaVuSans-Bold-79" transform="translate(73.388672 0)"/>
     <use xlink:href="#DejaVuSans-Bold-63" transform="translate(138.574219 0)"/>
     <use xlink:href="#DejaVuSans-Bold-6c" transform="translate(197.851562 0)"/>
     <use xlink:href="#DejaVuSans-Bold-65" transform="translate(232.128906 0)"/>
     <use xlink:href="#DejaVuSans-Bold-20" transform="translate(299.951172 0)"/>
     <use xlink:href="#DejaVuSans-Bold-42" transform="translate(334.765625 0)"/>
     <use xlink:href="#DejaVuSans-Bold-61" transform="translate(410.986328 0)"/>
     <use xlink:href="#DejaVuSans-Bold-73" transform="translate(478.466797 0)"/>
     <use xlink:href="#DejaVuSans-Bold-69" transform="translate(537.988281 0)"/>
     <use xlink:href="#DejaVuSans-Bold-6e" transform="translate(572.265625 0)"/>
     <use xlink:href="#DejaVuSans-Bold-20" transform="translate(643.457031 0)"/>
     <use xlink:href="#DejaVuSans-Bold-28" transform="translate(678.271484 0)"/>
     <use xlink:href="#DejaVuSans-Bold-52" transform="translate(723.974609 0)"/>
     <use xlink:href="#DejaVuSans-Bold-29" transform="translate(800.976562 0)"/>
    </g>
   </g>
   <g id="text_8">
    <!-- Qian Basin -->
    <g style="fill: #cc4444" transform="translate(493.839219 83.477813) scale(0.11 -0.11)">
     <defs>
      <path id="DejaVuSans-Bold-51" d="M 2847 -84 
L 2753 -84 
Q 1600 -84 959 553 
Q 319 1191 319 2328 
Q 319 3463 958 4106 
Q 1597 4750 2719 4750 
Q 3853 4750 4486 4112 
Q 5119 3475 5119 2328 
Q 5119 1541 4783 972 
Q 4447 403 3816 116 
L 4756 -934 
L 3609 -934 
L 2847 -84 
z
M 2719 3878 
Q 2169 3878 1866 3472 
Q 1563 3066 1563 2328 
Q 1563 1578 1859 1179 
Q 2156 781 2719 781 
Q 3272 781 3575 1187 
Q 3878 1594 3878 2328 
Q 3878 3066 3575 3472 
Q 3272 3878 2719 3878 
z
" transform="scale(0.015625)"/>
     </defs>
     <use xlink:href="#DejaVuSans-Bold-51"/>
     <use xlink:href="#DejaVuSans-Bold-69" transform="translate(85.009766 0)"/>
     <use xlink:href="#DejaVuSans-Bold-61" transform="translate(119.287109 0)"/>
     <use xlink:href="#DejaVuSans-Bold-6e" transform="translate(186.767578 0)"/>
     <use xlink:href="#DejaVuSans-Bold-20" transform="translate(257.958984 0)"/>
     <use xlink:href="#DejaVuSans-Bold-42" transform="translate(292.773438 0)"/>
     <use xlink:href="#DejaVuSans-Bold-61" transform="translate(368.994141 0)"/>
     <use xlink:href="#DejaVuSans-Bold-73" transform="translate(436.474609 0)"/>
     <use xlink:href="#DejaVuSans-Bold-69" transform="translate(495.996094 0)"/>
     <use xlink:href="#DejaVuSans-Bold-6e" transform="translate(530.273438 0)"/>
    </g>
   </g>
   <g id="text_9">
    <!-- Inner 16-Node Orbit Structure (Hypercube Layout) -->
    <g transform="translate(148.726406 17.837813) scale(0.14 -0.14)">
     <defs>
      <path id="DejaVuSans-Bold-49" d="M 588 4666 
L 1791 4666 
L 1791 0 
L 588 0 
L 588 4666 
z
" transform="scale(0.015625)"/>
      <path id="DejaVuSans-Bold-72" d="M 3138 2547 
Q 2991 2616 2845 2648 
Q 2700 2681 2553 2681 
Q 2122 2681 1889 2404 
Q 1656 2128 1656 1613 
L 1656 0 
L 538 0 
L 538 3500 
L 1656 3500 
L 1656 2925 
Q 1872 3269 2151 3426 
Q 2431 3584 2822 3584 
Q 2878 3584 2943 3579 
Q 3009 3575 3134 3559 
L 3138 2547 
z
" transform="scale(0.015625)"/>
      <path id="DejaVuSans-Bold-31" d="M 750 831 
L 1813 831 
L 1813 3847 
L 722 3622 
L 722 4441 
L 1806 4666 
L 2950 4666 
L 2950 831 
L 4013 831 
L 4013 0 
L 750 0 
L 750 831 
z
" transform="scale(0.015625)"/>
      <path id="DejaVuSans-Bold-36" d="M 2316 2303 
Q 2000 2303 1842 2098 
Q 1684 1894 1684 1484 
Q 1684 1075 1842 870 
Q 2000 666 2316 666 
Q 2634 666 2792 870 
Q 2950 1075 2950 1484 
Q 2950 1894 2792 2098 
Q 2634 2303 2316 2303 
z
M 3803 4544 
L 3803 3681 
Q 3506 3822 3243 3889 
Q 2981 3956 2731 3956 
Q 2194 3956 1894 3657 
Q 1594 3359 1544 2772 
Q 1750 2925 1990 3001 
Q 2231 3078 2516 3078 
Q 3231 3078 3670 2659 
Q 4109 2241 4109 1563 
Q 4109 813 3618 361 
Q 3128 -91 2303 -91 
Q 1394 -91 895 523 
Q 397 1138 397 2266 
Q 397 3422 980 4083 
Q 1563 4744 2578 4744 
Q 2900 4744 3203 4694 
Q 3506 4644 3803 4544 
z
" transform="scale(0.015625)"/>
      <path id="DejaVuSans-Bold-2d" d="M 347 2297 
L 2309 2297 
L 2309 1388 
L 347 1388 
L 347 2297 
z
" transform="scale(0.015625)"/>
      <path id="DejaVuSans-Bold-4e" d="M 588 4666 
L 1931 4666 
L 3628 1466 
L 3628 4666 
L 4769 4666 
L 4769 0 
L 3425 0 
L 1728 3200 
L 1728 0 
L 588 0 
L 588 4666 
z
" transform="scale(0.015625)"/>
      <path id="DejaVuSans-Bold-6f" d="M 2203 2784 
Q 1831 2784 1636 2517 
Q 1441 2250 1441 1747 
Q 1441 1244 1636 976 
Q 1831 709 2203 709 
Q 2569 709 2762 976 
Q 2956 1244 2956 1747 
Q 2956 2250 2762 2517 
Q 2569 2784 2203 2784 
z
M 2203 3584 
Q 3106 3584 3614 3096 
Q 4122 2609 4122 1747 
Q 4122 884 3614 396 
Q 3106 -91 2203 -91 
Q 1297 -91 786 396 
Q 275 884 275 1747 
Q 275 2609 786 3096 
Q 1297 3584 2203 3584 
z
" transform="scale(0.015625)"/>
      <path id="DejaVuSans-Bold-64" d="M 2919 2988 
L 2919 4863 
L 4044 4863 
L 4044 0 
L 2919 0 
L 2919 506 
Q 2688 197 2409 53 
Q 2131 -91 1766 -91 
Q 1119 -91 703 423 
Q 288 938 288 1747 
Q 288 2556 703 3070 
Q 1119 3584 1766 3584 
Q 2128 3584 2408 3439 
Q 2688 3294 2919 2988 
z
M 2181 722 
Q 2541 722 2730 984 
Q 2919 1247 2919 1747 
Q 2919 2247 2730 2509 
Q 2541 2772 2181 2772 
Q 1825 2772 1636 2509 
Q 1447 2247 1447 1747 
Q 1447 1247 1636 984 
Q 1825 722 2181 722 
z
" transform="scale(0.015625)"/>
      <path id="DejaVuSans-Bold-4f" d="M 2719 3878 
Q 2169 3878 1866 3472 
Q 1563 3066 1563 2328 
Q 1563 1594 1866 1187 
Q 2169 781 2719 781 
Q 3272 781 3575 1187 
Q 3878 1594 3878 2328 
Q 3878 3066 3575 3472 
Q 3272 3878 2719 3878 
z
M 2719 4750 
Q 3844 4750 4481 4106 
Q 5119 3463 5119 2328 
Q 5119 1197 4481 553 
Q 3844 -91 2719 -91 
Q 1597 -91 958 553 
Q 319 1197 319 2328 
Q 319 3463 958 4106 
Q 1597 4750 2719 4750 
z
" transform="scale(0.015625)"/>
      <path id="DejaVuSans-Bold-62" d="M 2400 722 
Q 2759 722 2948 984 
Q 3138 1247 3138 1747 
Q 3138 2247 2948 2509 
Q 2759 2772 2400 2772 
Q 2041 2772 1848 2508 
Q 1656 2244 1656 1747 
Q 1656 1250 1848 986 
Q 2041 722 2400 722 
z
M 1656 2988 
Q 1888 3294 2169 3439 
Q 2450 3584 2816 3584 
Q 3463 3584 3878 3070 
Q 4294 2556 4294 1747 
Q 4294 938 3878 423 
Q 3463 -91 2816 -91 
Q 2450 -91 2169 54 
Q 1888 200 1656 506 
L 1656 0 
L 538 0 
L 538 4863 
L 1656 4863 
L 1656 2988 
z
" transform="scale(0.015625)"/>
      <path id="DejaVuSans-Bold-74" d="M 1759 4494 
L 1759 3500 
L 2913 3500 
L 2913 2700 
L 1759 2700 
L 1759 1216 
Q 1759 972 1856 886 
Q 1953 800 2241 800 
L 2816 800 
L 2816 0 
L 1856 0 
Q 1194 0 917 276 
Q 641 553 641 1216 
L 641 2700 
L 84 2700 
L 84 3500 
L 641 3500 
L 641 4494 
L 1759 4494 
z
" transform="scale(0.015625)"/>
      <path id="DejaVuSans-Bold-53" d="M 3834 4519 
L 3834 3531 
Q 3450 3703 3084 3790 
Q 2719 3878 2394 3878 
Q 1963 3878 1756 3759 
Q 1550 3641 1550 3391 
Q 1550 3203 1689 3098 
Q 1828 2994 2194 2919 
L 2706 2816 
Q 3484 2659 3812 2340 
Q 4141 2022 4141 1434 
Q 4141 663 3683 286 
Q 3225 -91 2284 -91 
Q 1841 -91 1394 -6 
Q 947 78 500 244 
L 500 1259 
Q 947 1022 1364 901 
Q 1781 781 2169 781 
Q 2563 781 2772 912 
Q 2981 1044 2981 1288 
Q 2981 1506 2839 1625 
Q 2697 1744 2272 1838 
L 1806 1941 
Q 1106 2091 782 2419 
Q 459 2747 459 3303 
Q 459 4000 909 4375 
Q 1359 4750 2203 4750 
Q 2588 4750 2994 4692 
Q 3400 4634 3834 4519 
z
" transform="scale(0.015625)"/>
      <path id="DejaVuSans-Bold-48" d="M 588 4666 
L 1791 4666 
L 1791 2888 
L 3566 2888 
L 3566 4666 
L 4769 4666 
L 4769 0 
L 3566 0 
L 3566 1978 
L 1791 1978 
L 1791 0 
L 588 0 
L 588 4666 
z
" transform="scale(0.015625)"/>
      <path id="DejaVuSans-Bold-70" d="M 1656 506 
L 1656 -1331 
L 538 -1331 
L 538 3500 
L 1656 3500 
L 1656 2988 
Q 1888 3294 2169 3439 
Q 2450 3584 2816 3584 
Q 3463 3584 3878 3070 
Q 4294 2556 4294 1747 
Q 4294 938 3878 423 
Q 3463 -91 2816 -91 
Q 2450 -91 2169 54 
Q 1888 200 1656 506 
z
M 2400 2772 
Q 2041 2772 1848 2508 
Q 1656 2244 1656 1747 
Q 1656 1250 1848 986 
Q 2041 722 2400 722 
Q 2759 722 2948 984 
Q 3138 1247 3138 1747 
Q 3138 2247 2948 2509 
Q 2759 2772 2400 2772 
z
" transform="scale(0.015625)"/>
     </defs>
     <use xlink:href="#DejaVuSans-Bold-49"/>
     <use xlink:href="#DejaVuSans-Bold-6e" transform="translate(37.207031 0)"/>
     <use xlink:href="#DejaVuSans-Bold-6e" transform="translate(108.398438 0)"/>
     <use xlink:href="#DejaVuSans-Bold-65" transform="translate(179.589844 0)"/>
     <use xlink:href="#DejaVuSans-Bold-72" transform="translate(247.412109 0)"/>
     <use xlink:href="#DejaVuSans-Bold-20" transform="translate(296.728516 0)"/>
     <use xlink:href="#DejaVuSans-Bold-31" transform="translate(331.542969 0)"/>
     <use xlink:href="#DejaVuSans-Bold-36" transform="translate(401.123047 0)"/>
     <use xlink:href="#DejaVuSans-Bold-2d" transform="translate(470.703125 0)"/>
     <use xlink:href="#DejaVuSans-Bold-4e" transform="translate(512.207031 0)"/>
     <use xlink:href="#DejaVuSans-Bold-6f" transform="translate(595.898438 0)"/>
     <use xlink:href="#DejaVuSans-Bold-64" transform="translate(664.599609 0)"/>
     <use xlink:href="#DejaVuSans-Bold-65" transform="translate(736.181641 0)"/>
     <use xlink:href="#DejaVuSans-Bold-20" transform="translate(804.003906 0)"/>
     <use xlink:href="#DejaVuSans-Bold-4f" transform="translate(838.818359 0)"/>
     <use xlink:href="#DejaVuSans-Bold-72" transform="translate(923.828125 0)"/>
     <use xlink:href="#DejaVuSans-Bold-62" transform="translate(973.144531 0)"/>
     <use xlink:href="#DejaVuSans-Bold-69" transform="translate(1044.726562 0)"/>
     <use xlink:href="#DejaVuSans-Bold-74" transform="translate(1079.003906 0)"/>
     <use xlink:href="#DejaVuSans-Bold-20" transform="translate(1126.806641 0)"/>
     <use xlink:href="#DejaVuSans-Bold-53" transform="translate(1161.621094 0)"/>
     <use xlink:href="#DejaVuSans-Bold-74" transform="translate(1233.642578 0)"/>
     <use xlink:href="#DejaVuSans-Bold-72" transform="translate(1281.445312 0)"/>
     <use xlink:href="#DejaVuSans-Bold-75" transform="translate(1330.761719 0)"/>
     <use xlink:href="#DejaVuSans-Bold-63" transform="translate(1401.953125 0)"/>
     <use xlink:href="#DejaVuSans-Bold-74" transform="translate(1461.230469 0)"/>
     <use xlink:href="#DejaVuSans-Bold-75" transform="translate(1509.033203 0)"/>
     <use xlink:href="#DejaVuSans-Bold-72" transform="translate(1580.224609 0)"/>
     <use xlink:href="#DejaVuSans-Bold-65" transform="translate(1629.541016 0)"/>
     <use xlink:href="#DejaVuSans-Bold-20" transform="translate(1697.363281 0)"/>
     <use xlink:href="#DejaVuSans-Bold-28" transform="translate(1732.177734 0)"/>
     <use xlink:href="#DejaVuSans-Bold-48" transform="translate(1777.880859 0)"/>
     <use xlink:href="#DejaVuSans-Bold-79" transform="translate(1861.572266 0)"/>
     <use xlink:href="#DejaVuSans-Bold-70" transform="translate(1926.757812 0)"/>
     <use xlink:href="#DejaVuSans-Bold-65" transform="translate(1998.339844 0)"/>
     <use xlink:href="#DejaVuSans-Bold-72" transform="translate(2066.162109 0)"/>
     <use xlink:href="#DejaVuSans-Bold-63" transform="translate(2115.478516 0)"/>
     <use xlink:href="#DejaVuSans-Bold-75" transform="translate(2174.755859 0)"/>
     <use xlink:href="#DejaVuSans-Bold-62" transform="translate(2245.947266 0)"/>
     <use xlink:href="#DejaVuSans-Bold-65" transform="translate(2317.529297 0)"/>
     <use xlink:href="#DejaVuSans-Bold-20" transform="translate(2385.351562 0)"/>
     <use xlink:href="#DejaVuSans-Bold-4c" transform="translate(2420.166016 0)"/>
     <use xlink:href="#DejaVuSans-Bold-61" transform="translate(2483.886719 0)"/>
     <use xlink:href="#DejaVuSans-Bold-79" transform="translate(2548.242188 0)"/>
     <use xlink:href="#DejaVuSans-Bold-6f" transform="translate(2613.427734 0)"/>
     <use xlink:href="#DejaVuSans-Bold-75" transform="translate(2682.128906 0)"/>
     <use xlink:href="#DejaVuSans-Bold-74" transform="translate(2753.320312 0)"/>
     <use xlink:href="#DejaVuSans-Bold-29" transform="translate(2801.123047 0)"/>
    </g>
   </g>
   <g id="patch_18">
    <path d="M 135 607.457813 
C 142.908356 607.457813 150.493872 604.315789 156.085924 598.723737 
C 161.677977 593.131684 164.82 585.546169 164.82 577.637812 
C 164.82 569.729456 161.677977 562.143941 156.085924 556.551888 
C 150.493872 550.959836 142.908356 547.817812 135 547.817812 
C 127.091644 547.817812 119.506128 550.959836 113.914076 556.551888 
C 108.322023 562.143941 105.18 569.729456 105.18 577.637812 
C 105.18 585.546169 108.322023 593.131684 113.914076 598.723737 
C 119.506128 604.315789 127.091644 607.457813 135 607.457813 
z
" clip-path="url(#pad7f9f0ff9)" style="fill: #4488cc; opacity: 0.85; stroke: #ff6600; stroke-width: 3; stroke-linejoin: miter"/>
   </g>
   <g id="patch_19">
    <path d="M 237.24 601.493812 
C 243.566685 601.493812 249.635097 598.980194 254.108739 594.506552 
C 258.582381 590.03291 261.096 583.964498 261.096 577.637812 
C 261.096 571.311127 258.582381 565.242715 254.108739 560.769073 
C 249.635097 556.295431 243.566685 553.781813 237.24 553.781813 
C 230.913315 553.781813 224.844903 556.295431 220.371261 560.769073 
C 215.897619 565.242715 213.384 571.311127 213.384 577.637812 
C 213.384 583.964498 215.897619 590.03291 220.371261 594.506552 
C 224.844903 598.980194 230.913315 601.493812 237.24 601.493812 
z
" clip-path="url(#pad7f9f0ff9)" style="fill: #4488cc; opacity: 0.85; stroke: #333333; stroke-linejoin: miter"/>
   </g>
   <g id="patch_20">
    <path d="M 475.8 601.493812 
C 482.126685 601.493812 488.195097 598.980194 492.668739 594.506552 
C 497.142381 590.03291 499.656 583.964498 499.656 577.637812 
C 499.656 571.311127 497.142381 565.242715 492.668739 560.769073 
C 488.195097 556.295431 482.126685 553.781813 475.8 553.781813 
C 469.473315 553.781813 463.404903 556.295431 458.931261 560.769073 
C 454.457619 565.242715 451.944 571.311127 451.944 577.637812 
C 451.944 583.964498 454.457619 590.03291 458.931261 594.506552 
C 463.404903 598.980194 469.473315 601.493812 475.8 601.493812 
z
" clip-path="url(#pad7f9f0ff9)" style="fill: #44aa44; opacity: 0.85; stroke: #333333; stroke-linejoin: miter"/>
   </g>
   <g id="patch_21">
    <path d="M 578.04 601.493812 
C 584.366685 601.493812 590.435097 598.980194 594.908739 594.506552 
C 599.382381 590.03291 601.896 583.964498 601.896 577.637812 
C 601.896 571.311127 599.382381 565.242715 594.908739 560.769073 
C 590.435097 556.295431 584.366685 553.781813 578.04 553.781813 
C 571.713315 553.781813 565.644903 556.295431 561.171261 560.769073 
C 556.697619 565.242715 554.184 571.311127 554.184 577.637812 
C 554.184 583.964498 556.697619 590.03291 561.171261 594.506552 
C 565.644903 598.980194 571.713315 601.493812 578.04 601.493812 
z
" clip-path="url(#pad7f9f0ff9)" style="fill: #44aa44; opacity: 0.85; stroke: #333333; stroke-linejoin: miter"/>
   </g>
   <g id="patch_22">
    <path d="M 135 260.693813 
C 141.326685 260.693813 147.395097 258.180194 151.868739 253.706552 
C 156.342381 249.23291 158.856 243.164498 158.856 236.837813 
C 158.856 230.511127 156.342381 224.442715 151.868739 219.969073 
C 147.395097 215.495431 141.326685 212.981813 135 212.981813 
C 128.673315 212.981813 122.604903 215.495431 118.131261 219.969073 
C 113.657619 224.442715 111.144 230.511127 111.144 236.837813 
C 111.144 243.164498 113.657619 249.23291 118.131261 253.706552 
C 122.604903 258.180194 128.673315 260.693813 135 260.693813 
z
" clip-path="url(#pad7f9f0ff9)" style="fill: #44aa44; opacity: 0.85; stroke: #333333; stroke-linejoin: miter"/>
   </g>
   <g id="patch_23">
    <path d="M 237.24 266.657813 
C 245.148356 266.657813 252.733872 263.515789 258.325924 257.923737 
C 263.917977 252.331684 267.06 244.746169 267.06 236.837813 
C 267.06 228.929456 263.917977 221.343941 258.325924 215.751888 
C 252.733872 210.159836 245.148356 207.017813 237.24 207.017813 
C 229.331644 207.017813 221.746128 210.159836 216.154076 215.751888 
C 210.562023 221.343941 207.42 228.929456 207.42 236.837813 
C 207.42 244.746169 210.562023 252.331684 216.154076 257.923737 
C 221.746128 263.515789 229.331644 266.657813 237.24 266.657813 
z
" clip-path="url(#pad7f9f0ff9)" style="fill: #44aa44; opacity: 0.85; stroke: #ff6600; stroke-width: 3; stroke-linejoin: miter"/>
   </g>
   <g id="patch_24">
    <path d="M 475.8 260.693813 
C 482.126685 260.693813 488.195097 258.180194 492.668739 253.706552 
C 497.142381 249.23291 499.656 243.164498 499.656 236.837813 
C 499.656 230.511127 497.142381 224.442715 492.668739 219.969073 
C 488.195097 215.495431 482.126685 212.981813 475.8 212.981813 
C 469.473315 212.981813 463.404903 215.495431 458.931261 219.969073 
C 454.457619 224.442715 451.944 230.511127 451.944 236.837813 
C 451.944 243.164498 454.457619 249.23291 458.931261 253.706552 
C 463.404903 258.180194 469.473315 260.693813 475.8 260.693813 
z
" clip-path="url(#pad7f9f0ff9)" style="fill: #cc4444; opacity: 0.85; stroke: #333333; stroke-linejoin: miter"/>
   </g>
   <g id="patch_25">
    <path d="M 578.04 260.693813 
C 584.366685 260.693813 590.435097 258.180194 594.908739 253.706552 
C 599.382381 249.23291 601.896 243.164498 601.896 236.837813 
C 601.896 230.511127 599.382381 224.442715 594.908739 219.969073 
C 590.435097 215.495431 584.366685 212.981813 578.04 212.981813 
C 571.713315 212.981813 565.644903 215.495431 561.171261 219.969073 
C 556.697619 224.442715 554.184 230.511127 554.184 236.837813 
C 554.184 243.164498 556.697619 249.23291 561.171261 253.706552 
C 565.644903 258.180194 571.713315 260.693813 578.04 260.693813 
z
" clip-path="url(#pad7f9f0ff9)" style="fill: #cc4444; opacity: 0.85; stroke: #333333; stroke-linejoin: miter"/>
   </g>
   <g id="patch_26">
    <path d="M 135 499.253813 
C 141.326685 499.253813 147.395097 496.740194 151.868739 492.266552 
C 156.342381 487.79291 158.856 481.724498 158.856 475.397813 
C 158.856 469.071127 156.342381 463.002715 151.868739 458.529073 
C 147.395097 454.055431 141.326685 451.541813 135 451.541813 
C 128.673315 451.541813 122.604903 454.055431 118.131261 458.529073 
C 113.657619 463.002715 111.144 469.071127 111.144 475.397813 
C 111.144 481.724498 113.657619 487.79291 118.131261 492.266552 
C 122.604903 496.740194 128.673315 499.253813 135 499.253813 
z
" clip-path="url(#pad7f9f0ff9)" style="fill: #4488cc; opacity: 0.85; stroke: #333333; stroke-linejoin: miter"/>
   </g>
   <g id="patch_27">
    <path d="M 237.24 499.253813 
C 243.566685 499.253813 249.635097 496.740194 254.108739 492.266552 
C 258.582381 487.79291 261.096 481.724498 261.096 475.397813 
C 261.096 469.071127 258.582381 463.002715 254.108739 458.529073 
C 249.635097 454.055431 243.566685 451.541813 237.24 451.541813 
C 230.913315 451.541813 224.844903 454.055431 220.371261 458.529073 
C 215.897619 463.002715 213.384 469.071127 213.384 475.397813 
C 213.384 481.724498 215.897619 487.79291 220.371261 492.266552 
C 224.844903 496.740194 230.913315 499.253813 237.24 499.253813 
z
" clip-path="url(#pad7f9f0ff9)" style="fill: #4488cc; opacity: 0.85; stroke: #333333; stroke-linejoin: miter"/>
   </g>
   <g id="patch_28">
    <path d="M 475.8 505.217813 
C 483.708356 505.217813 491.293872 502.075789 496.885924 496.483737 
C 502.477977 490.891684 505.62 483.306169 505.62 475.397813 
C 505.62 467.489456 502.477977 459.903941 496.885924 454.311888 
C 491.293872 448.719836 483.708356 445.577813 475.8 445.577813 
C 467.891644 445.577813 460.306128 448.719836 454.714076 454.311888 
C 449.122023 459.903941 445.98 467.489456 445.98 475.397813 
C 445.98 483.306169 449.122023 490.891684 454.714076 496.483737 
C 460.306128 502.075789 467.891644 505.217813 475.8 505.217813 
z
" clip-path="url(#pad7f9f0ff9)" style="fill: #44aa44; opacity: 0.85; stroke: #ff6600; stroke-width: 3; stroke-linejoin: miter"/>
   </g>
   <g id="patch_29">
    <path d="M 578.04 499.253813 
C 584.366685 499.253813 590.435097 496.740194 594.908739 492.266552 
C 599.382381 487.79291 601.896 481.724498 601.896 475.397813 
C 601.896 469.071127 599.382381 463.002715 594.908739 458.529073 
C 590.435097 454.055431 584.366685 451.541813 578.04 451.541813 
C 571.713315 451.541813 565.644903 454.055431 561.171261 458.529073 
C 556.697619 463.002715 554.184 469.071127 554.184 475.397813 
C 554.184 481.724498 556.697619 487.79291 561.171261 492.266552 
C 565.644903 496.740194 571.713315 499.253813 578.04 499.253813 
z
" clip-path="url(#pad7f9f0ff9)" style="fill: #44aa44; opacity: 0.85; stroke: #333333; stroke-linejoin: miter"/>
   </g>
   <g id="patch_30">
    <path d="M 135 158.453813 
C 141.326685 158.453813 147.395097 155.940194 151.868739 151.466552 
C 156.342381 146.99291 158.856 140.924498 158.856 134.597813 
C 158.856 128.271127 156.342381 122.202715 151.868739 117.729073 
C 147.395097 113.255431 141.326685 110.741813 135 110.741813 
C 128.673315 110.741813 122.604903 113.255431 118.131261 117.729073 
C 113.657619 122.202715 111.144 128.271127 111.144 134.597813 
C 111.144 140.924498 113.657619 146.99291 118.131261 151.466552 
C 122.604903 155.940194 128.673315 158.453813 135 158.453813 
z
" clip-path="url(#pad7f9f0ff9)" style="fill: #44aa44; opacity: 0.85; stroke: #333333; stroke-linejoin: miter"/>
   </g>
   <g id="patch_31">
    <path d="M 237.24 158.453813 
C 243.566685 158.453813 249.635097 155.940194 254.108739 151.466552 
C 258.582381 146.99291 261.096 140.924498 261.096 134.597813 
C 261.096 128.271127 258.582381 122.202715 254.108739 117.729073 
C 249.635097 113.255431 243.566685 110.741813 237.24 110.741813 
C 230.913315 110.741813 224.844903 113.255431 220.371261 117.729073 
C 215.897619 122.202715 213.384 128.271127 213.384 134.597813 
C 213.384 140.924498 215.897619 146.99291 220.371261 151.466552 
C 224.844903 155.940194 230.913315 158.453813 237.24 158.453813 
z
" clip-path="url(#pad7f9f0ff9)" style="fill: #44aa44; opacity: 0.85; stroke: #333333; stroke-linejoin: miter"/>
   </g>
   <g id="patch_32">
    <path d="M 475.8 158.453813 
C 482.126685 158.453813 488.195097 155.940194 492.668739 151.466552 
C 497.142381 146.99291 499.656 140.924498 499.656 134.597813 
C 499.656 128.271127 497.142381 122.202715 492.668739 117.729073 
C 488.195097 113.255431 482.126685 110.741813 475.8 110.741813 
C 469.473315 110.741813 463.404903 113.255431 458.931261 117.729073 
C 454.457619 122.202715 451.944 128.271127 451.944 134.597813 
C 451.944 140.924498 454.457619 146.99291 458.931261 151.466552 
C 463.404903 155.940194 469.473315 158.453813 475.8 158.453813 
z
" clip-path="url(#pad7f9f0ff9)" style="fill: #cc4444; opacity: 0.85; stroke: #333333; stroke-linejoin: miter"/>
   </g>
   <g id="patch_33">
    <path d="M 578.04 164.417813 
C 585.948356 164.417813 593.533872 161.275789 599.125924 155.683737 
C 604.717977 150.091684 607.86 142.506169 607.86 134.597813 
C 607.86 126.689456 604.717977 119.103941 599.125924 113.511888 
C 593.533872 107.919836 585.948356 104.777813 578.04 104.777813 
C 570.131644 104.777813 562.546128 107.919836 556.954076 113.511888 
C 551.362023 119.103941 548.22 126.689456 548.22 134.597813 
C 548.22 142.506169 551.362023 150.091684 556.954076 155.683737 
C 562.546128 161.275789 570.131644 164.417813 578.04 164.417813 
z
" clip-path="url(#pad7f9f0ff9)" style="fill: #cc4444; opacity: 0.85; stroke: #ff6600; stroke-width: 3; stroke-linejoin: miter"/>
   </g>
   <g id="legend_1">
    <g id="patch_34">
     <path d="M 556.5 83.879063 
L 682.5 83.879063 
Q 684.3 83.879063 684.3 82.079063 
L 684.3 30.137812 
Q 684.3 28.337813 682.5 28.337813 
L 556.5 28.337813 
Q 554.7 28.337813 554.7 30.137812 
L 554.7 82.079063 
Q 554.7 83.879063 556.5 83.879063 
z
" style="fill: #ffffff; opacity: 0.8; stroke: #cccccc; stroke-linejoin: miter"/>
    </g>
    <g id="patch_35">
     <path d="M 558.3 38.776406 
L 576.3 38.776406 
L 576.3 32.476406 
L 558.3 32.476406 
z
" style="fill: #4488cc; stroke: #4488cc; stroke-linejoin: miter"/>
    </g>
    <g id="text_10">
     <!-- Kun basin (4 nodes) -->
     <g transform="translate(583.5 38.776406) scale(0.09 -0.09)">
      <defs>
       <path id="DejaVuSans-4b" d="M 628 4666 
L 1259 4666 
L 1259 2694 
L 3353 4666 
L 4166 4666 
L 1850 2491 
L 4331 0 
L 3500 0 
L 1259 2247 
L 1259 0 
L 628 0 
L 628 4666 
z
" transform="scale(0.015625)"/>
       <path id="DejaVuSans-75" d="M 544 1381 
L 544 3500 
L 1119 3500 
L 1119 1403 
Q 1119 906 1312 657 
Q 1506 409 1894 409 
Q 2359 409 2629 706 
Q 2900 1003 2900 1516 
L 2900 3500 
L 3475 3500 
L 3475 0 
L 2900 0 
L 2900 538 
Q 2691 219 2414 64 
Q 2138 -91 1772 -91 
Q 1169 -91 856 284 
Q 544 659 544 1381 
z
M 1991 3584 
L 1991 3584 
z
" transform="scale(0.015625)"/>
       <path id="DejaVuSans-6e" d="M 3513 2113 
L 3513 0 
L 2938 0 
L 2938 2094 
Q 2938 2591 2744 2837 
Q 2550 3084 2163 3084 
Q 1697 3084 1428 2787 
Q 1159 2491 1159 1978 
L 1159 0 
L 581 0 
L 581 3500 
L 1159 3500 
L 1159 2956 
Q 1366 3272 1645 3428 
Q 1925 3584 2291 3584 
Q 2894 3584 3203 3211 
Q 3513 2838 3513 2113 
z
" transform="scale(0.015625)"/>
       <path id="DejaVuSans-20" transform="scale(0.015625)"/>
       <path id="DejaVuSans-61" d="M 2194 1759 
Q 1497 1759 1228 1600 
Q 959 1441 959 1056 
Q 959 750 1161 570 
Q 1363 391 1709 391 
Q 2188 391 2477 730 
Q 2766 1069 2766 1631 
L 2766 1759 
L 2194 1759 
z
M 3341 1997 
L 3341 0 
L 2766 0 
L 2766 531 
Q 2569 213 2275 61 
Q 1981 -91 1556 -91 
Q 1019 -91 701 211 
Q 384 513 384 1019 
Q 384 1609 779 1909 
Q 1175 2209 1959 2209 
L 2766 2209 
L 2766 2266 
Q 2766 2663 2505 2880 
Q 2244 3097 1772 3097 
Q 1472 3097 1187 3025 
Q 903 2953 641 2809 
L 641 3341 
Q 956 3463 1253 3523 
Q 1550 3584 1831 3584 
Q 2591 3584 2966 3190 
Q 3341 2797 3341 1997 
z
" transform="scale(0.015625)"/>
       <path id="DejaVuSans-73" d="M 2834 3397 
L 2834 2853 
Q 2591 2978 2328 3040 
Q 2066 3103 1784 3103 
Q 1356 3103 1142 2972 
Q 928 2841 928 2578 
Q 928 2378 1081 2264 
Q 1234 2150 1697 2047 
L 1894 2003 
Q 2506 1872 2764 1633 
Q 3022 1394 3022 966 
Q 3022 478 2636 193 
Q 2250 -91 1575 -91 
Q 1294 -91 989 -36 
Q 684 19 347 128 
L 347 722 
Q 666 556 975 473 
Q 1284 391 1588 391 
Q 1994 391 2212 530 
Q 2431 669 2431 922 
Q 2431 1156 2273 1281 
Q 2116 1406 1581 1522 
L 1381 1569 
Q 847 1681 609 1914 
Q 372 2147 372 2553 
Q 372 3047 722 3315 
Q 1072 3584 1716 3584 
Q 2034 3584 2315 3537 
Q 2597 3491 2834 3397 
z
" transform="scale(0.015625)"/>
       <path id="DejaVuSans-28" d="M 1984 4856 
Q 1566 4138 1362 3434 
Q 1159 2731 1159 2009 
Q 1159 1288 1364 580 
Q 1569 -128 1984 -844 
L 1484 -844 
Q 1016 -109 783 600 
Q 550 1309 550 2009 
Q 550 2706 781 3412 
Q 1013 4119 1484 4856 
L 1984 4856 
z
" transform="scale(0.015625)"/>
       <path id="DejaVuSans-34" d="M 2419 4116 
L 825 1625 
L 2419 1625 
L 2419 4116 
z
M 2253 4666 
L 3047 4666 
L 3047 1625 
L 3713 1625 
L 3713 1100 
L 3047 1100 
L 3047 0 
L 2419 0 
L 2419 1100 
L 313 1100 
L 313 1709 
L 2253 4666 
z
" transform="scale(0.015625)"/>
       <path id="DejaVuSans-6f" d="M 1959 3097 
Q 1497 3097 1228 2736 
Q 959 2375 959 1747 
Q 959 1119 1226 758 
Q 1494 397 1959 397 
Q 2419 397 2687 759 
Q 2956 1122 2956 1747 
Q 2956 2369 2687 2733 
Q 2419 3097 1959 3097 
z
M 1959 3584 
Q 2709 3584 3137 3096 
Q 3566 2609 3566 1747 
Q 3566 888 3137 398 
Q 2709 -91 1959 -91 
Q 1206 -91 779 398 
Q 353 888 353 1747 
Q 353 2609 779 3096 
Q 1206 3584 1959 3584 
z
" transform="scale(0.015625)"/>
       <path id="DejaVuSans-64" d="M 2906 2969 
L 2906 4863 
L 3481 4863 
L 3481 0 
L 2906 0 
L 2906 525 
Q 2725 213 2448 61 
Q 2172 -91 1784 -91 
Q 1150 -91 751 415 
Q 353 922 353 1747 
Q 353 2572 751 3078 
Q 1150 3584 1784 3584 
Q 2172 3584 2448 3432 
Q 2725 3281 2906 2969 
z
M 947 1747 
Q 947 1113 1208 752 
Q 1469 391 1925 391 
Q 2381 391 2643 752 
Q 2906 1113 2906 1747 
Q 2906 2381 2643 2742 
Q 2381 3103 1925 3103 
Q 1469 3103 1208 2742 
Q 947 2381 947 1747 
z
" transform="scale(0.015625)"/>
       <path id="DejaVuSans-65" d="M 3597 1894 
L 3597 1613 
L 953 1613 
Q 991 1019 1311 708 
Q 1631 397 2203 397 
Q 2534 397 2845 478 
Q 3156 559 3463 722 
L 3463 178 
Q 3153 47 2828 -22 
Q 2503 -91 2169 -91 
Q 1331 -91 842 396 
Q 353 884 353 1716 
Q 353 2575 817 3079 
Q 1281 3584 2069 3584 
Q 2775 3584 3186 3129 
Q 3597 2675 3597 1894 
z
M 3022 2063 
Q 3016 2534 2758 2815 
Q 2500 3097 2075 3097 
Q 1594 3097 1305 2825 
Q 1016 2553 972 2059 
L 3022 2063 
z
" transform="scale(0.015625)"/>
       <path id="DejaVuSans-29" d="M 513 4856 
L 1013 4856 
Q 1481 4119 1714 3412 
Q 1947 2706 1947 2009 
Q 1947 1309 1714 600 
Q 1481 -109 1013 -844 
L 513 -844 
Q 928 -128 1133 580 
Q 1338 1288 1338 2009 
Q 1338 2731 1133 3434 
Q 928 4138 513 4856 
z
" transform="scale(0.015625)"/>
      </defs>
      <use xlink:href="#DejaVuSans-4b"/>
      <use xlink:href="#DejaVuSans-75" transform="translate(60.576172 0)"/>
      <use xlink:href="#DejaVuSans-6e" transform="translate(123.955078 0)"/>
      <use xlink:href="#DejaVuSans-20" transform="translate(187.333984 0)"/>
      <use xlink:href="#DejaVuSans-62" transform="translate(219.121094 0)"/>
      <use xlink:href="#DejaVuSans-61" transform="translate(282.597656 0)"/>
      <use xlink:href="#DejaVuSans-73" transform="translate(343.876953 0)"/>
      <use xlink:href="#DejaVuSans-69" transform="translate(395.976562 0)"/>
      <use xlink:href="#DejaVuSans-6e" transform="translate(423.759766 0)"/>
      <use xlink:href="#DejaVuSans-20" transform="translate(487.138672 0)"/>
      <use xlink:href="#DejaVuSans-28" transform="translate(518.925781 0)"/>
      <use xlink:href="#DejaVuSans-34" transform="translate(557.939453 0)"/>
      <use xlink:href="#DejaVuSans-20" transform="translate(621.5625 0)"/>
      <use xlink:href="#DejaVuSans-6e" transform="translate(653.349609 0)"/>
      <use xlink:href="#DejaVuSans-6f" transform="translate(716.728516 0)"/>
      <use xlink:href="#DejaVuSans-64" transform="translate(777.910156 0)"/>
      <use xlink:href="#DejaVuSans-65" transform="translate(841.386719 0)"/>
      <use xlink:href="#DejaVuSans-73" transform="translate(902.910156 0)"/>
      <use xlink:href="#DejaVuSans-29" transform="translate(955.009766 0)"/>
     </g>
    </g>
    <g id="patch_36">
     <path d="M 558.3 51.986719 
L 576.3 51.986719 
L 576.3 45.686719 
L 558.3 45.686719 
z
" style="fill: #44aa44; stroke: #44aa44; stroke-linejoin: miter"/>
    </g>
    <g id="text_11">
     <!-- Cycle basin (8 nodes) -->
     <g transform="translate(583.5 51.986719) scale(0.09 -0.09)">
      <defs>
       <path id="DejaVuSans-43" d="M 4122 4306 
L 4122 3641 
Q 3803 3938 3442 4084 
Q 3081 4231 2675 4231 
Q 1875 4231 1450 3742 
Q 1025 3253 1025 2328 
Q 1025 1406 1450 917 
Q 1875 428 2675 428 
Q 3081 428 3442 575 
Q 3803 722 4122 1019 
L 4122 359 
Q 3791 134 3420 21 
Q 3050 -91 2638 -91 
Q 1578 -91 968 557 
Q 359 1206 359 2328 
Q 359 3453 968 4101 
Q 1578 4750 2638 4750 
Q 3056 4750 3426 4639 
Q 3797 4528 4122 4306 
z
" transform="scale(0.015625)"/>
       <path id="DejaVuSans-79" d="M 2059 -325 
Q 1816 -950 1584 -1140 
Q 1353 -1331 966 -1331 
L 506 -1331 
L 506 -850 
L 844 -850 
Q 1081 -850 1212 -737 
Q 1344 -625 1503 -206 
L 1606 56 
L 191 3500 
L 800 3500 
L 1894 763 
L 2988 3500 
L 3597 3500 
L 2059 -325 
z
" transform="scale(0.015625)"/>
       <path id="DejaVuSans-63" d="M 3122 3366 
L 3122 2828 
Q 2878 2963 2633 3030 
Q 2388 3097 2138 3097 
Q 1578 3097 1268 2742 
Q 959 2388 959 1747 
Q 959 1106 1268 751 
Q 1578 397 2138 397 
Q 2388 397 2633 464 
Q 2878 531 3122 666 
L 3122 134 
Q 2881 22 2623 -34 
Q 2366 -91 2075 -91 
Q 1284 -91 818 406 
Q 353 903 353 1747 
Q 353 2603 823 3093 
Q 1294 3584 2113 3584 
Q 2378 3584 2631 3529 
Q 2884 3475 3122 3366 
z
" transform="scale(0.015625)"/>
       <path id="DejaVuSans-6c" d="M 603 4863 
L 1178 4863 
L 1178 0 
L 603 0 
L 603 4863 
z
" transform="scale(0.015625)"/>
       <path id="DejaVuSans-38" d="M 2034 2216 
Q 1584 2216 1326 1975 
Q 1069 1734 1069 1313 
Q 1069 891 1326 650 
Q 1584 409 2034 409 
Q 2484 409 2743 651 
Q 3003 894 3003 1313 
Q 3003 1734 2745 1975 
Q 2488 2216 2034 2216 
z
M 1403 2484 
Q 997 2584 770 2862 
Q 544 3141 544 3541 
Q 544 4100 942 4425 
Q 1341 4750 2034 4750 
Q 2731 4750 3128 4425 
Q 3525 4100 3525 3541 
Q 3525 3141 3298 2862 
Q 3072 2584 2669 2484 
Q 3125 2378 3379 2068 
Q 3634 1759 3634 1313 
Q 3634 634 3220 271 
Q 2806 -91 2034 -91 
Q 1263 -91 848 271 
Q 434 634 434 1313 
Q 434 1759 690 2068 
Q 947 2378 1403 2484 
z
M 1172 3481 
Q 1172 3119 1398 2916 
Q 1625 2713 2034 2713 
Q 2441 2713 2670 2916 
Q 2900 3119 2900 3481 
Q 2900 3844 2670 4047 
Q 2441 4250 2034 4250 
Q 1625 4250 1398 4047 
Q 1172 3844 1172 3481 
z
" transform="scale(0.015625)"/>
      </defs>
      <use xlink:href="#DejaVuSans-43"/>
      <use xlink:href="#DejaVuSans-79" transform="translate(69.824219 0)"/>
      <use xlink:href="#DejaVuSans-63" transform="translate(129.003906 0)"/>
      <use xlink:href="#DejaVuSans-6c" transform="translate(183.984375 0)"/>
      <use xlink:href="#DejaVuSans-65" transform="translate(211.767578 0)"/>
      <use xlink:href="#DejaVuSans-20" transform="translate(273.291016 0)"/>
      <use xlink:href="#DejaVuSans-62" transform="translate(305.078125 0)"/>
      <use xlink:href="#DejaVuSans-61" transform="translate(368.554688 0)"/>
      <use xlink:href="#DejaVuSans-73" transform="translate(429.833984 0)"/>
      <use xlink:href="#DejaVuSans-69" transform="translate(481.933594 0)"/>
      <use xlink:href="#DejaVuSans-6e" transform="translate(509.716797 0)"/>
      <use xlink:href="#DejaVuSans-20" transform="translate(573.095703 0)"/>
      <use xlink:href="#DejaVuSans-28" transform="translate(604.882812 0)"/>
      <use xlink:href="#DejaVuSans-38" transform="translate(643.896484 0)"/>
      <use xlink:href="#DejaVuSans-20" transform="translate(707.519531 0)"/>
      <use xlink:href="#DejaVuSans-6e" transform="translate(739.306641 0)"/>
      <use xlink:href="#DejaVuSans-6f" transform="translate(802.685547 0)"/>
      <use xlink:href="#DejaVuSans-64" transform="translate(863.867188 0)"/>
      <use xlink:href="#DejaVuSans-65" transform="translate(927.34375 0)"/>
      <use xlink:href="#DejaVuSans-73" transform="translate(988.867188 0)"/>
      <use xlink:href="#DejaVuSans-29" transform="translate(1040.966797 0)"/>
     </g>
    </g>
    <g id="patch_37">
     <path d="M 558.3 65.197031 
L 576.3 65.197031 
L 576.3 58.897031 
L 558.3 58.897031 
z
" style="fill: #cc4444; stroke: #cc4444; stroke-linejoin: miter"/>
    </g>
    <g id="text_12">
     <!-- Qian basin (4 nodes) -->
     <g transform="translate(583.5 65.197031) scale(0.09 -0.09)">
      <defs>
       <path id="DejaVuSans-51" d="M 2522 4238 
Q 1834 4238 1429 3725 
Q 1025 3213 1025 2328 
Q 1025 1447 1429 934 
Q 1834 422 2522 422 
Q 3209 422 3611 934 
Q 4013 1447 4013 2328 
Q 4013 3213 3611 3725 
Q 3209 4238 2522 4238 
z
M 3406 84 
L 4238 -825 
L 3475 -825 
L 2784 -78 
Q 2681 -84 2626 -87 
Q 2572 -91 2522 -91 
Q 1538 -91 948 567 
Q 359 1225 359 2328 
Q 359 3434 948 4092 
Q 1538 4750 2522 4750 
Q 3503 4750 4090 4092 
Q 4678 3434 4678 2328 
Q 4678 1516 4351 937 
Q 4025 359 3406 84 
z
" transform="scale(0.015625)"/>
      </defs>
      <use xlink:href="#DejaVuSans-51"/>
      <use xlink:href="#DejaVuSans-69" transform="translate(78.710938 0)"/>
      <use xlink:href="#DejaVuSans-61" transform="translate(106.494141 0)"/>
      <use xlink:href="#DejaVuSans-6e" transform="translate(167.773438 0)"/>
      <use xlink:href="#DejaVuSans-20" transform="translate(231.152344 0)"/>
      <use xlink:href="#DejaVuSans-62" transform="translate(262.939453 0)"/>
      <use xlink:href="#DejaVuSans-61" transform="translate(326.416016 0)"/>
      <use xlink:href="#DejaVuSans-73" transform="translate(387.695312 0)"/>
      <use xlink:href="#DejaVuSans-69" transform="translate(439.794922 0)"/>
      <use xlink:href="#DejaVuSans-6e" transform="translate(467.578125 0)"/>
      <use xlink:href="#DejaVuSans-20" transform="translate(530.957031 0)"/>
      <use xlink:href="#DejaVuSans-28" transform="translate(562.744141 0)"/>
      <use xlink:href="#DejaVuSans-34" transform="translate(601.757812 0)"/>
      <use xlink:href="#DejaVuSans-20" transform="translate(665.380859 0)"/>
      <use xlink:href="#DejaVuSans-6e" transform="translate(697.167969 0)"/>
      <use xlink:href="#DejaVuSans-6f" transform="translate(760.546875 0)"/>
      <use xlink:href="#DejaVuSans-64" transform="translate(821.728516 0)"/>
      <use xlink:href="#DejaVuSans-65" transform="translate(885.205078 0)"/>
      <use xlink:href="#DejaVuSans-73" transform="translate(946.728516 0)"/>
      <use xlink:href="#DejaVuSans-29" transform="translate(998.828125 0)"/>
     </g>
    </g>
    <g id="patch_38">
     <path d="M 558.3 78.407344 
L 576.3 78.407344 
L 576.3 72.107344 
L 558.3 72.107344 
L 558.3 78.407344 
z
" style="fill: none; stroke: #ff6600; stroke-width: 2; stroke-linejoin: miter"/>
    </g>
    <g id="text_13">
     <!-- Attractor -->
     <g transform="translate(583.5 78.407344) scale(0.09 -0.09)">
      <defs>
       <path id="DejaVuSans-41" d="M 2188 4044 
L 1331 1722 
L 3047 1722 
L 2188 4044 
z
M 1831 4666 
L 2547 4666 
L 4325 0 
L 3669 0 
L 3244 1197 
L 1141 1197 
L 716 0 
L 50 0 
L 1831 4666 
z
" transform="scale(0.015625)"/>
       <path id="DejaVuSans-72" d="M 2631 2963 
Q 2534 3019 2420 3045 
Q 2306 3072 2169 3072 
Q 1681 3072 1420 2755 
Q 1159 2438 1159 1844 
L 1159 0 
L 581 0 
L 581 3500 
L 1159 3500 
L 1159 2956 
Q 1341 3275 1631 3429 
Q 1922 3584 2338 3584 
Q 2397 3584 2469 3576 
Q 2541 3569 2628 3553 
L 2631 2963 
z
" transform="scale(0.015625)"/>
      </defs>
      <use xlink:href="#DejaVuSans-41"/>
      <use xlink:href="#DejaVuSans-74" transform="translate(66.658203 0)"/>
      <use xlink:href="#DejaVuSans-74" transform="translate(105.867188 0)"/>
      <use xlink:href="#DejaVuSans-72" transform="translate(145.076172 0)"/>
      <use xlink:href="#DejaVuSans-61" transform="translate(186.189453 0)"/>
      <use xlink:href="#DejaVuSans-63" transform="translate(247.46875 0)"/>
      <use xlink:href="#DejaVuSans-74" transform="translate(302.449219 0)"/>
      <use xlink:href="#DejaVuSans-6f" transform="translate(341.658203 0)"/>
      <use xlink:href="#DejaVuSans-72" transform="translate(402.839844 0)"/>
     </g>
    </g>
   </g>
   <g id="text_14">
    <!-- 0 -->
    <g transform="translate(132.564766 575.650141) scale(0.07 -0.07)">
     <defs>
      <path id="DejaVuSans-Bold-30" d="M 2944 2338 
Q 2944 3213 2780 3570 
Q 2616 3928 2228 3928 
Q 1841 3928 1675 3570 
Q 1509 3213 1509 2338 
Q 1509 1453 1675 1090 
Q 1841 728 2228 728 
Q 2613 728 2778 1090 
Q 2944 1453 2944 2338 
z
M 4147 2328 
Q 4147 1169 3647 539 
Q 3147 -91 2228 -91 
Q 1306 -91 806 539 
Q 306 1169 306 2328 
Q 306 3491 806 4120 
Q 1306 4750 2228 4750 
Q 3147 4750 3647 4120 
Q 4147 3491 4147 2328 
z
" transform="scale(0.015625)"/>
     </defs>
     <use xlink:href="#DejaVuSans-Bold-30"/>
    </g>
    <!-- Kun/Kun -->
    <g transform="translate(118.45375 583.488609) scale(0.07 -0.07)">
     <defs>
      <path id="DejaVuSans-Bold-2f" d="M 1644 4666 
L 2338 4666 
L 691 -594 
L 0 -594 
L 1644 4666 
z
" transform="scale(0.015625)"/>
     </defs>
     <use xlink:href="#DejaVuSans-Bold-4b"/>
     <use xlink:href="#DejaVuSans-Bold-75" transform="translate(75.740234 0)"/>
     <use xlink:href="#DejaVuSans-Bold-6e" transform="translate(146.931641 0)"/>
     <use xlink:href="#DejaVuSans-Bold-2f" transform="translate(218.123047 0)"/>
     <use xlink:href="#DejaVuSans-Bold-4b" transform="translate(254.646484 0)"/>
     <use xlink:href="#DejaVuSans-Bold-75" transform="translate(330.386719 0)"/>
     <use xlink:href="#DejaVuSans-Bold-6e" transform="translate(401.578125 0)"/>
    </g>
   </g>
   <g id="text_15">
    <!-- Ea/Ea -->
    <g style="fill: #666666" transform="translate(125.108125 625.556719) scale(0.07 -0.07)">
     <defs>
      <path id="DejaVuSans-45" d="M 628 4666 
L 3578 4666 
L 3578 4134 
L 1259 4134 
L 1259 2753 
L 3481 2753 
L 3481 2222 
L 1259 2222 
L 1259 531 
L 3634 531 
L 3634 0 
L 628 0 
L 628 4666 
z
" transform="scale(0.015625)"/>
      <path id="DejaVuSans-2f" d="M 1625 4666 
L 2156 4666 
L 531 -594 
L 0 -594 
L 1625 4666 
z
" transform="scale(0.015625)"/>
     </defs>
     <use xlink:href="#DejaVuSans-45"/>
     <use xlink:href="#DejaVuSans-61" transform="translate(63.183594 0)"/>
     <use xlink:href="#DejaVuSans-2f" transform="translate(124.462891 0)"/>
     <use xlink:href="#DejaVuSans-45" transform="translate(158.154297 0)"/>
     <use xlink:href="#DejaVuSans-61" transform="translate(221.337891 0)"/>
    </g>
   </g>
   <g id="text_16">
    <!-- 1 -->
    <g transform="translate(234.804766 575.650141) scale(0.07 -0.07)">
     <use xlink:href="#DejaVuSans-Bold-31"/>
    </g>
    <!-- Zhe/Kun -->
    <g transform="translate(220.923984 583.488609) scale(0.07 -0.07)">
     <defs>
      <path id="DejaVuSans-Bold-5a" d="M 359 4666 
L 4281 4666 
L 4281 3938 
L 1778 909 
L 4353 909 
L 4353 0 
L 288 0 
L 288 728 
L 2791 3756 
L 359 3756 
L 359 4666 
z
" transform="scale(0.015625)"/>
      <path id="DejaVuSans-Bold-68" d="M 4056 2131 
L 4056 0 
L 2931 0 
L 2931 347 
L 2931 1625 
Q 2931 2084 2911 2256 
Q 2891 2428 2841 2509 
Q 2775 2619 2662 2680 
Q 2550 2741 2406 2741 
Q 2056 2741 1856 2470 
Q 1656 2200 1656 1722 
L 1656 0 
L 538 0 
L 538 4863 
L 1656 4863 
L 1656 2988 
Q 1909 3294 2193 3439 
Q 2478 3584 2822 3584 
Q 3428 3584 3742 3212 
Q 4056 2841 4056 2131 
z
" transform="scale(0.015625)"/>
     </defs>
     <use xlink:href="#DejaVuSans-Bold-5a"/>
     <use xlink:href="#DejaVuSans-Bold-68" transform="translate(72.509766 0)"/>
     <use xlink:href="#DejaVuSans-Bold-65" transform="translate(143.701172 0)"/>
     <use xlink:href="#DejaVuSans-Bold-2f" transform="translate(211.523438 0)"/>
     <use xlink:href="#DejaVuSans-Bold-4b" transform="translate(248.046875 0)"/>
     <use xlink:href="#DejaVuSans-Bold-75" transform="translate(323.787109 0)"/>
     <use xlink:href="#DejaVuSans-Bold-6e" transform="translate(394.978516 0)"/>
    </g>
   </g>
   <g id="text_17">
    <!-- Wd/Ea -->
    <g style="fill: #666666" transform="translate(226.021953 625.556719) scale(0.07 -0.07)">
     <defs>
      <path id="DejaVuSans-57" d="M 213 4666 
L 850 4666 
L 1831 722 
L 2809 4666 
L 3519 4666 
L 4500 722 
L 5478 4666 
L 6119 4666 
L 4947 0 
L 4153 0 
L 3169 4050 
L 2175 0 
L 1381 0 
L 213 4666 
z
" transform="scale(0.015625)"/>
     </defs>
     <use xlink:href="#DejaVuSans-57"/>
     <use xlink:href="#DejaVuSans-64" transform="translate(98.876953 0)"/>
     <use xlink:href="#DejaVuSans-2f" transform="translate(162.353516 0)"/>
     <use xlink:href="#DejaVuSans-45" transform="translate(196.044922 0)"/>
     <use xlink:href="#DejaVuSans-61" transform="translate(259.228516 0)"/>
    </g>
   </g>
   <g id="text_18">
    <!-- 2 -->
    <g transform="translate(473.364766 575.650141) scale(0.07 -0.07)">
     <defs>
      <path id="DejaVuSans-Bold-32" d="M 1844 884 
L 3897 884 
L 3897 0 
L 506 0 
L 506 884 
L 2209 2388 
Q 2438 2594 2547 2791 
Q 2656 2988 2656 3200 
Q 2656 3528 2436 3728 
Q 2216 3928 1850 3928 
Q 1569 3928 1234 3808 
Q 900 3688 519 3450 
L 519 4475 
Q 925 4609 1322 4679 
Q 1719 4750 2100 4750 
Q 2938 4750 3402 4381 
Q 3866 4013 3866 3353 
Q 3866 2972 3669 2642 
Q 3472 2313 2841 1759 
L 1844 884 
z
" transform="scale(0.015625)"/>
     </defs>
     <use xlink:href="#DejaVuSans-Bold-32"/>
    </g>
    <!-- Kan/Zhe -->
    <g transform="translate(459.552344 583.488609) scale(0.07 -0.07)">
     <use xlink:href="#DejaVuSans-Bold-4b"/>
     <use xlink:href="#DejaVuSans-Bold-61" transform="translate(77.490234 0)"/>
     <use xlink:href="#DejaVuSans-Bold-6e" transform="translate(144.970703 0)"/>
     <use xlink:href="#DejaVuSans-Bold-2f" transform="translate(216.162109 0)"/>
     <use xlink:href="#DejaVuSans-Bold-5a" transform="translate(252.685547 0)"/>
     <use xlink:href="#DejaVuSans-Bold-68" transform="translate(325.195312 0)"/>
     <use xlink:href="#DejaVuSans-Bold-65" transform="translate(396.386719 0)"/>
    </g>
   </g>
   <g id="text_19">
    <!-- Wa/Wd -->
    <g style="fill: #666666" transform="translate(463.556016 625.556719) scale(0.07 -0.07)">
     <use xlink:href="#DejaVuSans-57"/>
     <use xlink:href="#DejaVuSans-61" transform="translate(92.501953 0)"/>
     <use xlink:href="#DejaVuSans-2f" transform="translate(153.78125 0)"/>
     <use xlink:href="#DejaVuSans-57" transform="translate(187.472656 0)"/>
     <use xlink:href="#DejaVuSans-64" transform="translate(286.349609 0)"/>
    </g>
   </g>
   <g id="text_20">
    <!-- 3 -->
    <g transform="translate(575.604766 575.650141) scale(0.07 -0.07)">
     <defs>
      <path id="DejaVuSans-Bold-33" d="M 2981 2516 
Q 3453 2394 3698 2092 
Q 3944 1791 3944 1325 
Q 3944 631 3412 270 
Q 2881 -91 1863 -91 
Q 1503 -91 1142 -33 
Q 781 25 428 141 
L 428 1069 
Q 766 900 1098 814 
Q 1431 728 1753 728 
Q 2231 728 2486 893 
Q 2741 1059 2741 1369 
Q 2741 1688 2480 1852 
Q 2219 2016 1709 2016 
L 1228 2016 
L 1228 2791 
L 1734 2791 
Q 2188 2791 2409 2933 
Q 2631 3075 2631 3366 
Q 2631 3634 2415 3781 
Q 2200 3928 1806 3928 
Q 1516 3928 1219 3862 
Q 922 3797 628 3669 
L 628 4550 
Q 984 4650 1334 4700 
Q 1684 4750 2022 4750 
Q 2931 4750 3382 4451 
Q 3834 4153 3834 3553 
Q 3834 3144 3618 2883 
Q 3403 2622 2981 2516 
z
" transform="scale(0.015625)"/>
     </defs>
     <use xlink:href="#DejaVuSans-Bold-33"/>
    </g>
    <!-- Dui/Zhe -->
    <g transform="translate(562.760859 583.488609) scale(0.07 -0.07)">
     <defs>
      <path id="DejaVuSans-Bold-44" d="M 1791 3756 
L 1791 909 
L 2222 909 
Q 2959 909 3348 1275 
Q 3738 1641 3738 2338 
Q 3738 3031 3350 3393 
Q 2963 3756 2222 3756 
L 1791 3756 
z
M 588 4666 
L 1856 4666 
Q 2919 4666 3439 4514 
Q 3959 4363 4331 4000 
Q 4659 3684 4818 3271 
Q 4978 2859 4978 2338 
Q 4978 1809 4818 1395 
Q 4659 981 4331 666 
Q 3956 303 3431 151 
Q 2906 0 1856 0 
L 588 0 
L 588 4666 
z
" transform="scale(0.015625)"/>
     </defs>
     <use xlink:href="#DejaVuSans-Bold-44"/>
     <use xlink:href="#DejaVuSans-Bold-75" transform="translate(83.007812 0)"/>
     <use xlink:href="#DejaVuSans-Bold-69" transform="translate(154.199219 0)"/>
     <use xlink:href="#DejaVuSans-Bold-2f" transform="translate(188.476562 0)"/>
     <use xlink:href="#DejaVuSans-Bold-5a" transform="translate(225 0)"/>
     <use xlink:href="#DejaVuSans-Bold-68" transform="translate(297.509766 0)"/>
     <use xlink:href="#DejaVuSans-Bold-65" transform="translate(368.701172 0)"/>
    </g>
   </g>
   <g id="text_21">
    <!-- Me/Wd -->
    <g style="fill: #666666" transform="translate(566.004922 625.556719) scale(0.07 -0.07)">
     <defs>
      <path id="DejaVuSans-4d" d="M 628 4666 
L 1569 4666 
L 2759 1491 
L 3956 4666 
L 4897 4666 
L 4897 0 
L 4281 0 
L 4281 4097 
L 3078 897 
L 2444 897 
L 1241 4097 
L 1241 0 
L 628 0 
L 628 4666 
z
" transform="scale(0.015625)"/>
     </defs>
     <use xlink:href="#DejaVuSans-4d"/>
     <use xlink:href="#DejaVuSans-65" transform="translate(86.279297 0)"/>
     <use xlink:href="#DejaVuSans-2f" transform="translate(147.802734 0)"/>
     <use xlink:href="#DejaVuSans-57" transform="translate(181.494141 0)"/>
     <use xlink:href="#DejaVuSans-64" transform="translate(280.371094 0)"/>
    </g>
   </g>
   <g id="text_22">
    <!-- 4 -->
    <g transform="translate(132.564766 234.850141) scale(0.07 -0.07)">
     <defs>
      <path id="DejaVuSans-Bold-34" d="M 2356 3675 
L 1038 1722 
L 2356 1722 
L 2356 3675 
z
M 2156 4666 
L 3494 4666 
L 3494 1722 
L 4159 1722 
L 4159 850 
L 3494 850 
L 3494 0 
L 2356 0 
L 2356 850 
L 288 850 
L 288 1881 
L 2156 4666 
z
" transform="scale(0.015625)"/>
     </defs>
     <use xlink:href="#DejaVuSans-Bold-34"/>
    </g>
    <!-- Gen/Kan -->
    <g transform="translate(118.417656 242.688609) scale(0.07 -0.07)">
     <defs>
      <path id="DejaVuSans-Bold-47" d="M 4781 347 
Q 4331 128 3847 18 
Q 3363 -91 2847 -91 
Q 1681 -91 1000 561 
Q 319 1213 319 2328 
Q 319 3456 1012 4103 
Q 1706 4750 2913 4750 
Q 3378 4750 3804 4662 
Q 4231 4575 4609 4403 
L 4609 3438 
Q 4219 3659 3833 3768 
Q 3447 3878 3059 3878 
Q 2341 3878 1952 3476 
Q 1563 3075 1563 2328 
Q 1563 1588 1938 1184 
Q 2313 781 3003 781 
Q 3191 781 3352 804 
Q 3513 828 3641 878 
L 3641 1784 
L 2906 1784 
L 2906 2591 
L 4781 2591 
L 4781 347 
z
" transform="scale(0.015625)"/>
     </defs>
     <use xlink:href="#DejaVuSans-Bold-47"/>
     <use xlink:href="#DejaVuSans-Bold-65" transform="translate(82.080078 0)"/>
     <use xlink:href="#DejaVuSans-Bold-6e" transform="translate(149.902344 0)"/>
     <use xlink:href="#DejaVuSans-Bold-2f" transform="translate(221.09375 0)"/>
     <use xlink:href="#DejaVuSans-Bold-4b" transform="translate(257.617188 0)"/>
     <use xlink:href="#DejaVuSans-Bold-61" transform="translate(335.107422 0)"/>
     <use xlink:href="#DejaVuSans-Bold-6e" transform="translate(402.587891 0)"/>
    </g>
   </g>
   <g id="text_23">
    <!-- Ea/Wa -->
    <g style="fill: #666666" transform="translate(124.082188 284.756719) scale(0.07 -0.07)">
     <use xlink:href="#DejaVuSans-45"/>
     <use xlink:href="#DejaVuSans-61" transform="translate(63.183594 0)"/>
     <use xlink:href="#DejaVuSans-2f" transform="translate(124.462891 0)"/>
     <use xlink:href="#DejaVuSans-57" transform="translate(158.154297 0)"/>
     <use xlink:href="#DejaVuSans-61" transform="translate(250.65625 0)"/>
    </g>
   </g>
   <g id="text_24">
    <!-- 5 -->
    <g transform="translate(234.804766 234.850141) scale(0.07 -0.07)">
     <defs>
      <path id="DejaVuSans-Bold-35" d="M 678 4666 
L 3669 4666 
L 3669 3781 
L 1638 3781 
L 1638 3059 
Q 1775 3097 1914 3117 
Q 2053 3138 2203 3138 
Q 3056 3138 3531 2711 
Q 4006 2284 4006 1522 
Q 4006 766 3489 337 
Q 2972 -91 2053 -91 
Q 1656 -91 1267 -14 
Q 878 63 494 219 
L 494 1166 
Q 875 947 1217 837 
Q 1559 728 1863 728 
Q 2300 728 2551 942 
Q 2803 1156 2803 1522 
Q 2803 1891 2551 2103 
Q 2300 2316 1863 2316 
Q 1603 2316 1309 2248 
Q 1016 2181 678 2041 
L 678 4666 
z
" transform="scale(0.015625)"/>
     </defs>
     <use xlink:href="#DejaVuSans-Bold-35"/>
    </g>
    <!-- Li/Kan -->
    <g transform="translate(224.965937 242.688609) scale(0.07 -0.07)">
     <use xlink:href="#DejaVuSans-Bold-4c"/>
     <use xlink:href="#DejaVuSans-Bold-69" transform="translate(63.720703 0)"/>
     <use xlink:href="#DejaVuSans-Bold-2f" transform="translate(97.998047 0)"/>
     <use xlink:href="#DejaVuSans-Bold-4b" transform="translate(134.521484 0)"/>
     <use xlink:href="#DejaVuSans-Bold-61" transform="translate(212.011719 0)"/>
     <use xlink:href="#DejaVuSans-Bold-6e" transform="translate(279.492188 0)"/>
    </g>
   </g>
   <g id="text_25">
    <!-- Fi/Wa -->
    <g style="fill: #666666" transform="translate(227.946953 284.756719) scale(0.07 -0.07)">
     <defs>
      <path id="DejaVuSans-46" d="M 628 4666 
L 3309 4666 
L 3309 4134 
L 1259 4134 
L 1259 2759 
L 3109 2759 
L 3109 2228 
L 1259 2228 
L 1259 0 
L 628 0 
L 628 4666 
z
" transform="scale(0.015625)"/>
     </defs>
     <use xlink:href="#DejaVuSans-46"/>
     <use xlink:href="#DejaVuSans-69" transform="translate(50.269531 0)"/>
     <use xlink:href="#DejaVuSans-2f" transform="translate(78.052734 0)"/>
     <use xlink:href="#DejaVuSans-57" transform="translate(111.744141 0)"/>
     <use xlink:href="#DejaVuSans-61" transform="translate(204.246094 0)"/>
    </g>
   </g>
   <g id="text_26">
    <!-- 6 -->
    <g transform="translate(473.364766 234.850141) scale(0.07 -0.07)">
     <use xlink:href="#DejaVuSans-Bold-36"/>
    </g>
    <!-- Xun/Dui -->
    <g transform="translate(460.243047 242.688609) scale(0.07 -0.07)">
     <defs>
      <path id="DejaVuSans-Bold-58" d="M 3188 2381 
L 4806 0 
L 3553 0 
L 2463 1594 
L 1381 0 
L 122 0 
L 1741 2381 
L 184 4666 
L 1441 4666 
L 2463 3163 
L 3481 4666 
L 4744 4666 
L 3188 2381 
z
" transform="scale(0.015625)"/>
     </defs>
     <use xlink:href="#DejaVuSans-Bold-58"/>
     <use xlink:href="#DejaVuSans-Bold-75" transform="translate(77.099609 0)"/>
     <use xlink:href="#DejaVuSans-Bold-6e" transform="translate(148.291016 0)"/>
     <use xlink:href="#DejaVuSans-Bold-2f" transform="translate(219.482422 0)"/>
     <use xlink:href="#DejaVuSans-Bold-44" transform="translate(256.005859 0)"/>
     <use xlink:href="#DejaVuSans-Bold-75" transform="translate(339.013672 0)"/>
     <use xlink:href="#DejaVuSans-Bold-69" transform="translate(410.205078 0)"/>
    </g>
   </g>
   <g id="text_27">
    <!-- Wd/Me -->
    <g style="fill: #666666" transform="translate(463.764922 284.756719) scale(0.07 -0.07)">
     <use xlink:href="#DejaVuSans-57"/>
     <use xlink:href="#DejaVuSans-64" transform="translate(98.876953 0)"/>
     <use xlink:href="#DejaVuSans-2f" transform="translate(162.353516 0)"/>
     <use xlink:href="#DejaVuSans-4d" transform="translate(196.044922 0)"/>
     <use xlink:href="#DejaVuSans-65" transform="translate(282.324219 0)"/>
    </g>
   </g>
   <g id="text_28">
    <!-- 7 -->
    <g transform="translate(575.604766 234.850141) scale(0.07 -0.07)">
     <defs>
      <path id="DejaVuSans-Bold-37" d="M 428 4666 
L 3944 4666 
L 3944 3988 
L 2125 0 
L 953 0 
L 2675 3781 
L 428 3781 
L 428 4666 
z
" transform="scale(0.015625)"/>
     </defs>
     <use xlink:href="#DejaVuSans-Bold-37"/>
    </g>
    <!-- Qia/Dui -->
    <g transform="translate(563.627109 242.688609) scale(0.07 -0.07)">
     <use xlink:href="#DejaVuSans-Bold-51"/>
     <use xlink:href="#DejaVuSans-Bold-69" transform="translate(85.009766 0)"/>
     <use xlink:href="#DejaVuSans-Bold-61" transform="translate(119.287109 0)"/>
     <use xlink:href="#DejaVuSans-Bold-2f" transform="translate(186.767578 0)"/>
     <use xlink:href="#DejaVuSans-Bold-44" transform="translate(223.291016 0)"/>
     <use xlink:href="#DejaVuSans-Bold-75" transform="translate(306.298828 0)"/>
     <use xlink:href="#DejaVuSans-Bold-69" transform="translate(377.490234 0)"/>
    </g>
   </g>
   <g id="text_29">
    <!-- Me/Me -->
    <g style="fill: #666666" transform="translate(566.514062 284.756719) scale(0.07 -0.07)">
     <use xlink:href="#DejaVuSans-4d"/>
     <use xlink:href="#DejaVuSans-65" transform="translate(86.279297 0)"/>
     <use xlink:href="#DejaVuSans-2f" transform="translate(147.802734 0)"/>
     <use xlink:href="#DejaVuSans-4d" transform="translate(181.494141 0)"/>
     <use xlink:href="#DejaVuSans-65" transform="translate(267.773438 0)"/>
    </g>
   </g>
   <g id="text_30">
    <!-- 8 -->
    <g transform="translate(132.564766 473.410141) scale(0.07 -0.07)">
     <defs>
      <path id="DejaVuSans-Bold-38" d="M 2228 2088 
Q 1891 2088 1709 1903 
Q 1528 1719 1528 1375 
Q 1528 1031 1709 848 
Q 1891 666 2228 666 
Q 2563 666 2741 848 
Q 2919 1031 2919 1375 
Q 2919 1722 2741 1905 
Q 2563 2088 2228 2088 
z
M 1350 2484 
Q 925 2613 709 2878 
Q 494 3144 494 3541 
Q 494 4131 934 4440 
Q 1375 4750 2228 4750 
Q 3075 4750 3515 4442 
Q 3956 4134 3956 3541 
Q 3956 3144 3739 2878 
Q 3522 2613 3097 2484 
Q 3572 2353 3814 2058 
Q 4056 1763 4056 1313 
Q 4056 619 3595 264 
Q 3134 -91 2228 -91 
Q 1319 -91 855 264 
Q 391 619 391 1313 
Q 391 1763 633 2058 
Q 875 2353 1350 2484 
z
M 1631 3419 
Q 1631 3141 1786 2991 
Q 1941 2841 2228 2841 
Q 2509 2841 2662 2991 
Q 2816 3141 2816 3419 
Q 2816 3697 2662 3845 
Q 2509 3994 2228 3994 
Q 1941 3994 1786 3844 
Q 1631 3694 1631 3419 
z
" transform="scale(0.015625)"/>
     </defs>
     <use xlink:href="#DejaVuSans-Bold-38"/>
    </g>
    <!-- Kun/Gen -->
    <g transform="translate(118.349297 481.248609) scale(0.07 -0.07)">
     <use xlink:href="#DejaVuSans-Bold-4b"/>
     <use xlink:href="#DejaVuSans-Bold-75" transform="translate(75.740234 0)"/>
     <use xlink:href="#DejaVuSans-Bold-6e" transform="translate(146.931641 0)"/>
     <use xlink:href="#DejaVuSans-Bold-2f" transform="translate(218.123047 0)"/>
     <use xlink:href="#DejaVuSans-Bold-47" transform="translate(254.646484 0)"/>
     <use xlink:href="#DejaVuSans-Bold-65" transform="translate(336.726562 0)"/>
     <use xlink:href="#DejaVuSans-Bold-6e" transform="translate(404.548828 0)"/>
    </g>
   </g>
   <g id="text_31">
    <!-- Ea/Ea -->
    <g style="fill: #666666" transform="translate(125.108125 523.316719) scale(0.07 -0.07)">
     <use xlink:href="#DejaVuSans-45"/>
     <use xlink:href="#DejaVuSans-61" transform="translate(63.183594 0)"/>
     <use xlink:href="#DejaVuSans-2f" transform="translate(124.462891 0)"/>
     <use xlink:href="#DejaVuSans-45" transform="translate(158.154297 0)"/>
     <use xlink:href="#DejaVuSans-61" transform="translate(221.337891 0)"/>
    </g>
   </g>
   <g id="text_32">
    <!-- 9 -->
    <g transform="translate(234.804766 473.410141) scale(0.07 -0.07)">
     <defs>
      <path id="DejaVuSans-Bold-39" d="M 641 103 
L 641 966 
Q 928 831 1190 764 
Q 1453 697 1709 697 
Q 2247 697 2547 995 
Q 2847 1294 2900 1881 
Q 2688 1725 2447 1647 
Q 2206 1569 1925 1569 
Q 1209 1569 770 1986 
Q 331 2403 331 3084 
Q 331 3838 820 4291 
Q 1309 4744 2131 4744 
Q 3044 4744 3544 4128 
Q 4044 3513 4044 2388 
Q 4044 1231 3459 570 
Q 2875 -91 1856 -91 
Q 1528 -91 1228 -42 
Q 928 6 641 103 
z
M 2125 2350 
Q 2441 2350 2600 2554 
Q 2759 2759 2759 3169 
Q 2759 3575 2600 3781 
Q 2441 3988 2125 3988 
Q 1809 3988 1650 3781 
Q 1491 3575 1491 3169 
Q 1491 2759 1650 2554 
Q 1809 2350 2125 2350 
z
" transform="scale(0.015625)"/>
     </defs>
     <use xlink:href="#DejaVuSans-Bold-39"/>
    </g>
    <!-- Zhe/Gen -->
    <g transform="translate(220.819531 481.248609) scale(0.07 -0.07)">
     <use xlink:href="#DejaVuSans-Bold-5a"/>
     <use xlink:href="#DejaVuSans-Bold-68" transform="translate(72.509766 0)"/>
     <use xlink:href="#DejaVuSans-Bold-65" transform="translate(143.701172 0)"/>
     <use xlink:href="#DejaVuSans-Bold-2f" transform="translate(211.523438 0)"/>
     <use xlink:href="#DejaVuSans-Bold-47" transform="translate(248.046875 0)"/>
     <use xlink:href="#DejaVuSans-Bold-65" transform="translate(330.126953 0)"/>
     <use xlink:href="#DejaVuSans-Bold-6e" transform="translate(397.949219 0)"/>
    </g>
   </g>
   <g id="text_33">
    <!-- Wd/Ea -->
    <g style="fill: #666666" transform="translate(226.021953 523.316719) scale(0.07 -0.07)">
     <use xlink:href="#DejaVuSans-57"/>
     <use xlink:href="#DejaVuSans-64" transform="translate(98.876953 0)"/>
     <use xlink:href="#DejaVuSans-2f" transform="translate(162.353516 0)"/>
     <use xlink:href="#DejaVuSans-45" transform="translate(196.044922 0)"/>
     <use xlink:href="#DejaVuSans-61" transform="translate(259.228516 0)"/>
    </g>
   </g>
   <g id="text_34">
    <!-- 10 -->
    <g transform="translate(470.929531 473.410141) scale(0.07 -0.07)">
     <use xlink:href="#DejaVuSans-Bold-31"/>
     <use xlink:href="#DejaVuSans-Bold-30" transform="translate(69.580078 0)"/>
    </g>
    <!-- Kan/Li -->
    <g transform="translate(463.525937 481.248609) scale(0.07 -0.07)">
     <use xlink:href="#DejaVuSans-Bold-4b"/>
     <use xlink:href="#DejaVuSans-Bold-61" transform="translate(77.490234 0)"/>
     <use xlink:href="#DejaVuSans-Bold-6e" transform="translate(144.970703 0)"/>
     <use xlink:href="#DejaVuSans-Bold-2f" transform="translate(216.162109 0)"/>
     <use xlink:href="#DejaVuSans-Bold-4c" transform="translate(252.685547 0)"/>
     <use xlink:href="#DejaVuSans-Bold-69" transform="translate(316.40625 0)"/>
    </g>
   </g>
   <g id="text_35">
    <!-- Wa/Fi -->
    <g style="fill: #666666" transform="translate(466.506953 523.316719) scale(0.07 -0.07)">
     <use xlink:href="#DejaVuSans-57"/>
     <use xlink:href="#DejaVuSans-61" transform="translate(92.501953 0)"/>
     <use xlink:href="#DejaVuSans-2f" transform="translate(153.78125 0)"/>
     <use xlink:href="#DejaVuSans-46" transform="translate(187.472656 0)"/>
     <use xlink:href="#DejaVuSans-69" transform="translate(237.742188 0)"/>
    </g>
   </g>
   <g id="text_36">
    <!-- 11 -->
    <g transform="translate(573.169531 473.410141) scale(0.07 -0.07)">
     <use xlink:href="#DejaVuSans-Bold-31"/>
     <use xlink:href="#DejaVuSans-Bold-31" transform="translate(69.580078 0)"/>
    </g>
    <!-- Dui/Li -->
    <g transform="translate(566.734453 481.248609) scale(0.07 -0.07)">
     <use xlink:href="#DejaVuSans-Bold-44"/>
     <use xlink:href="#DejaVuSans-Bold-75" transform="translate(83.007812 0)"/>
     <use xlink:href="#DejaVuSans-Bold-69" transform="translate(154.199219 0)"/>
     <use xlink:href="#DejaVuSans-Bold-2f" transform="translate(188.476562 0)"/>
     <use xlink:href="#DejaVuSans-Bold-4c" transform="translate(225 0)"/>
     <use xlink:href="#DejaVuSans-Bold-69" transform="translate(288.720703 0)"/>
    </g>
   </g>
   <g id="text_37">
    <!-- Me/Fi -->
    <g style="fill: #666666" transform="translate(568.955859 523.316719) scale(0.07 -0.07)">
     <use xlink:href="#DejaVuSans-4d"/>
     <use xlink:href="#DejaVuSans-65" transform="translate(86.279297 0)"/>
     <use xlink:href="#DejaVuSans-2f" transform="translate(147.802734 0)"/>
     <use xlink:href="#DejaVuSans-46" transform="translate(181.494141 0)"/>
     <use xlink:href="#DejaVuSans-69" transform="translate(231.763672 0)"/>
    </g>
   </g>
   <g id="text_38">
    <!-- 12 -->
    <g transform="translate(130.129531 132.610141) scale(0.07 -0.07)">
     <use xlink:href="#DejaVuSans-Bold-31"/>
     <use xlink:href="#DejaVuSans-Bold-32" transform="translate(69.580078 0)"/>
    </g>
    <!-- Gen/Xun -->
    <g transform="translate(118.301719 140.448609) scale(0.07 -0.07)">
     <use xlink:href="#DejaVuSans-Bold-47"/>
     <use xlink:href="#DejaVuSans-Bold-65" transform="translate(82.080078 0)"/>
     <use xlink:href="#DejaVuSans-Bold-6e" transform="translate(149.902344 0)"/>
     <use xlink:href="#DejaVuSans-Bold-2f" transform="translate(221.09375 0)"/>
     <use xlink:href="#DejaVuSans-Bold-58" transform="translate(257.617188 0)"/>
     <use xlink:href="#DejaVuSans-Bold-75" transform="translate(334.716797 0)"/>
     <use xlink:href="#DejaVuSans-Bold-6e" transform="translate(405.908203 0)"/>
    </g>
   </g>
   <g id="text_39">
    <!-- Ea/Wd -->
    <g style="fill: #666666" transform="translate(123.781953 182.516719) scale(0.07 -0.07)">
     <use xlink:href="#DejaVuSans-45"/>
     <use xlink:href="#DejaVuSans-61" transform="translate(63.183594 0)"/>
     <use xlink:href="#DejaVuSans-2f" transform="translate(124.462891 0)"/>
     <use xlink:href="#DejaVuSans-57" transform="translate(158.154297 0)"/>
     <use xlink:href="#DejaVuSans-64" transform="translate(257.03125 0)"/>
    </g>
   </g>
   <g id="text_40">
    <!-- 13 -->
    <g transform="translate(232.369531 132.610141) scale(0.07 -0.07)">
     <use xlink:href="#DejaVuSans-Bold-31"/>
     <use xlink:href="#DejaVuSans-Bold-33" transform="translate(69.580078 0)"/>
    </g>
    <!-- Li/Xun -->
    <g transform="translate(224.85 140.448609) scale(0.07 -0.07)">
     <use xlink:href="#DejaVuSans-Bold-4c"/>
     <use xlink:href="#DejaVuSans-Bold-69" transform="translate(63.720703 0)"/>
     <use xlink:href="#DejaVuSans-Bold-2f" transform="translate(97.998047 0)"/>
     <use xlink:href="#DejaVuSans-Bold-58" transform="translate(134.521484 0)"/>
     <use xlink:href="#DejaVuSans-Bold-75" transform="translate(211.621094 0)"/>
     <use xlink:href="#DejaVuSans-Bold-6e" transform="translate(282.8125 0)"/>
    </g>
   </g>
   <g id="text_41">
    <!-- Fi/Wd -->
    <g style="fill: #666666" transform="translate(227.646719 182.516719) scale(0.07 -0.07)">
     <use xlink:href="#DejaVuSans-46"/>
     <use xlink:href="#DejaVuSans-69" transform="translate(50.269531 0)"/>
     <use xlink:href="#DejaVuSans-2f" transform="translate(78.052734 0)"/>
     <use xlink:href="#DejaVuSans-57" transform="translate(111.744141 0)"/>
     <use xlink:href="#DejaVuSans-64" transform="translate(210.621094 0)"/>
    </g>
   </g>
   <g id="text_42">
    <!-- 14 -->
    <g transform="translate(470.929531 132.610141) scale(0.07 -0.07)">
     <use xlink:href="#DejaVuSans-Bold-31"/>
     <use xlink:href="#DejaVuSans-Bold-34" transform="translate(69.580078 0)"/>
    </g>
    <!-- Xun/Qia -->
    <g transform="translate(460.302656 140.448609) scale(0.07 -0.07)">
     <use xlink:href="#DejaVuSans-Bold-58"/>
     <use xlink:href="#DejaVuSans-Bold-75" transform="translate(77.099609 0)"/>
     <use xlink:href="#DejaVuSans-Bold-6e" transform="translate(148.291016 0)"/>
     <use xlink:href="#DejaVuSans-Bold-2f" transform="translate(219.482422 0)"/>
     <use xlink:href="#DejaVuSans-Bold-51" transform="translate(256.005859 0)"/>
     <use xlink:href="#DejaVuSans-Bold-69" transform="translate(341.015625 0)"/>
     <use xlink:href="#DejaVuSans-Bold-61" transform="translate(375.292969 0)"/>
    </g>
   </g>
   <g id="text_43">
    <!-- Wd/Me -->
    <g style="fill: #666666" transform="translate(463.764922 182.516719) scale(0.07 -0.07)">
     <use xlink:href="#DejaVuSans-57"/>
     <use xlink:href="#DejaVuSans-64" transform="translate(98.876953 0)"/>
     <use xlink:href="#DejaVuSans-2f" transform="translate(162.353516 0)"/>
     <use xlink:href="#DejaVuSans-4d" transform="translate(196.044922 0)"/>
     <use xlink:href="#DejaVuSans-65" transform="translate(282.324219 0)"/>
    </g>
   </g>
   <g id="text_44">
    <!-- 15 -->
    <g transform="translate(573.169531 132.610141) scale(0.07 -0.07)">
     <use xlink:href="#DejaVuSans-Bold-31"/>
     <use xlink:href="#DejaVuSans-Bold-35" transform="translate(69.580078 0)"/>
    </g>
    <!-- Qia/Qia -->
    <g transform="translate(563.686719 140.448609) scale(0.07 -0.07)">
     <use xlink:href="#DejaVuSans-Bold-51"/>
     <use xlink:href="#DejaVuSans-Bold-69" transform="translate(85.009766 0)"/>
     <use xlink:href="#DejaVuSans-Bold-61" transform="translate(119.287109 0)"/>
     <use xlink:href="#DejaVuSans-Bold-2f" transform="translate(186.767578 0)"/>
     <use xlink:href="#DejaVuSans-Bold-51" transform="translate(223.291016 0)"/>
     <use xlink:href="#DejaVuSans-Bold-69" transform="translate(308.300781 0)"/>
     <use xlink:href="#DejaVuSans-Bold-61" transform="translate(342.578125 0)"/>
    </g>
   </g>
   <g id="text_45">
    <!-- Me/Me -->
    <g style="fill: #666666" transform="translate(566.514062 182.516719) scale(0.07 -0.07)">
     <use xlink:href="#DejaVuSans-4d"/>
     <use xlink:href="#DejaVuSans-65" transform="translate(86.279297 0)"/>
     <use xlink:href="#DejaVuSans-2f" transform="translate(147.802734 0)"/>
     <use xlink:href="#DejaVuSans-4d" transform="translate(181.494141 0)"/>
     <use xlink:href="#DejaVuSans-65" transform="translate(267.773438 0)"/>
    </g>
   </g>
  </g>
 </g>
 <defs>
  <clipPath id="pad7f9f0ff9">
   <rect x="7.2" y="23.837813" width="681.6" height="681.6"/>
  </clipPath>
 </defs>
</svg>
