<?xml version="1.0" encoding="utf-8" standalone="no"?>
<!DOCTYPE svg PUBLIC "-//W3C//DTD SVG 1.1//EN"
  "http://www.w3.org/Graphics/SVG/1.1/DTD/svg11.dtd">
<svg xmlns:xlink="http://www.w3.org/1999/xlink" width="1144.8pt" height="471.677969pt" viewBox="0 0 1144.8 471.677969" xmlns="http://www.w3.org/2000/svg" version="1.1">
 <metadata>
  <rdf:RDF xmlns:dc="http://purl.org/dc/elements/1.1/" xmlns:cc="http://creativecommons.org/ns#" xmlns:rdf="http://www.w3.org/1999/02/22-rdf-syntax-ns#">
   <cc:Work>
    <dc:type rdf:resource="http://purl.org/dc/dcmitype/StillImage"/>
    <dc:date>2026-03-03T21:01:28.375007</dc:date>
    <dc:format>image/svg+xml</dc:format>
    <dc:creator>
     <cc:Agent>
      <dc:title>Matplotlib v3.10.8, https://matplotlib.org/</dc:title>
     </cc:Agent>
    </dc:creator>
   </cc:Work>
  </rdf:RDF>
 </metadata>
 <defs>
  <style type="text/css">*{stroke-linejoin: round; stroke-linecap: butt}</style>
 </defs>
 <g id="figure_1">
  <g id="patch_1">
   <path d="M 0 471.677969 
L 1144.8 471.677969 
L 1144.8 0 
L 0 0 
z
" style="fill: #ffffff"/>
  </g>
  <g id="axes_1">
   <g id="line2d_1">
    <path d="M 69.4 391.911302 
L 276.733333 391.911302 
" clip-path="url(#paedfb60aed)" style="fill: none; stroke: #cccccc; stroke-linecap: square"/>
   </g>
   <g id="line2d_2">
    <path d="M 69.4 391.911302 
L 69.4 184.577969 
" clip-path="url(#paedfb60aed)" style="fill: none; stroke: #cccccc; stroke-linecap: square"/>
   </g>
   <g id="line2d_3">
    <path d="M 69.4 391.911302 
L 152.333333 308.977969 
" clip-path="url(#paedfb60aed)" style="fill: none; stroke: #cccccc; stroke-linecap: square"/>
   </g>
   <g id="line2d_4">
    <path d="M 276.733333 391.911302 
L 276.733333 184.577969 
" clip-path="url(#paedfb60aed)" style="fill: none; stroke: #cccccc; stroke-linecap: square"/>
   </g>
   <g id="line2d_5">
    <path d="M 276.733333 391.911302 
L 359.666667 308.977969 
" clip-path="url(#paedfb60aed)" style="fill: none; stroke: #cccccc; stroke-linecap: square"/>
   </g>
   <g id="line2d_6">
    <path d="M 69.4 184.577969 
L 276.733333 184.577969 
" clip-path="url(#paedfb60aed)" style="fill: none; stroke: #cccccc; stroke-linecap: square"/>
   </g>
   <g id="line2d_7">
    <path d="M 69.4 184.577969 
L 152.333333 101.644635 
" clip-path="url(#paedfb60aed)" style="fill: none; stroke: #cccccc; stroke-linecap: square"/>
   </g>
   <g id="line2d_8">
    <path d="M 276.733333 184.577969 
L 359.666667 101.644635 
" clip-path="url(#paedfb60aed)" style="fill: none; stroke: #cccccc; stroke-linecap: square"/>
   </g>
   <g id="line2d_9">
    <path d="M 152.333333 308.977969 
L 359.666667 308.977969 
" clip-path="url(#paedfb60aed)" style="fill: none; stroke: #cccccc; stroke-linecap: square"/>
   </g>
   <g id="line2d_10">
    <path d="M 152.333333 308.977969 
L 152.333333 101.644635 
" clip-path="url(#paedfb60aed)" style="fill: none; stroke: #cccccc; stroke-linecap: square"/>
   </g>
   <g id="line2d_11">
    <path d="M 359.666667 308.977969 
L 359.666667 101.644635 
" clip-path="url(#paedfb60aed)" style="fill: none; stroke: #cccccc; stroke-linecap: square"/>
   </g>
   <g id="line2d_12">
    <path d="M 152.333333 101.644635 
L 359.666667 101.644635 
" clip-path="url(#paedfb60aed)" style="fill: none; stroke: #cccccc; stroke-linecap: square"/>
   </g>
   <g id="patch_2">
    <path d="M 432.233333 137.927969 
L 463.333333 137.927969 
Q 468.516667 137.927969 468.516667 132.744635 
L 468.516667 106.827969 
Q 468.516667 101.644635 463.333333 101.644635 
L 432.233333 101.644635 
Q 427.05 101.644635 427.05 106.827969 
L 427.05 132.744635 
Q 427.05 137.927969 432.233333 137.927969 
z
" clip-path="url(#paedfb60aed)" style="fill: #4caf50; opacity: 0.8; stroke: #000000; stroke-linejoin: miter"/>
   </g>
   <g id="patch_3">
    <path d="M 432.233333 179.394635 
L 463.333333 179.394635 
Q 468.516667 179.394635 468.516667 174.211302 
L 468.516667 148.294635 
Q 468.516667 143.111302 463.333333 143.111302 
L 432.233333 143.111302 
Q 427.05 143.111302 427.05 148.294635 
L 427.05 174.211302 
Q 427.05 179.394635 432.233333 179.394635 
z
" clip-path="url(#paedfb60aed)" style="fill: #e53935; opacity: 0.8; stroke: #000000; stroke-linejoin: miter"/>
   </g>
   <g id="patch_4">
    <path d="M 432.233333 220.861302 
L 463.333333 220.861302 
Q 468.516667 220.861302 468.516667 215.677969 
L 468.516667 189.761302 
Q 468.516667 184.577969 463.333333 184.577969 
L 432.233333 184.577969 
Q 427.05 184.577969 427.05 189.761302 
L 427.05 215.677969 
Q 427.05 220.861302 432.233333 220.861302 
z
" clip-path="url(#paedfb60aed)" style="fill: #ab8a3c; opacity: 0.8; stroke: #000000; stroke-linejoin: miter"/>
   </g>
   <g id="patch_5">
    <path d="M 432.233333 262.327969 
L 463.333333 262.327969 
Q 468.516667 262.327969 468.516667 257.144635 
L 468.516667 231.227969 
Q 468.516667 226.044635 463.333333 226.044635 
L 432.233333 226.044635 
Q 427.05 226.044635 427.05 231.227969 
L 427.05 257.144635 
Q 427.05 262.327969 432.233333 262.327969 
z
" clip-path="url(#paedfb60aed)" style="fill: #78909c; opacity: 0.8; stroke: #000000; stroke-linejoin: miter"/>
   </g>
   <g id="patch_6">
    <path d="M 432.233333 303.794635 
L 463.333333 303.794635 
Q 468.516667 303.794635 468.516667 298.611302 
L 468.516667 272.694635 
Q 468.516667 267.511302 463.333333 267.511302 
L 432.233333 267.511302 
Q 427.05 267.511302 427.05 272.694635 
L 427.05 298.611302 
Q 427.05 303.794635 432.233333 303.794635 
z
" clip-path="url(#paedfb60aed)" style="fill: #1e88e5; opacity: 0.8; stroke: #000000; stroke-linejoin: miter"/>
   </g>
   <g id="patch_7">
    <path d="M 274.088755 386.558634 
Q 325.840416 358.08784 353.503629 307.806343 
" style="fill: none; opacity: 0.5; stroke: #e65100; stroke-width: 1.5; stroke-linecap: round"/>
    <path d="M 349.823197 310.346898 
L 353.503629 307.806343 
L 353.327813 312.275022 
z
" style="fill: #e65100; opacity: 0.5; stroke: #e65100; stroke-width: 1.5; stroke-linecap: round"/>
   </g>
   <g id="patch_8">
    <path d="M 157.684249 99.008137 
Q 229.703616 231.610285 360.83281 302.828482 
" style="fill: none; opacity: 0.5; stroke: #e65100; stroke-width: 1.5; stroke-linecap: round"/>
    <path d="M 358.27231 299.161898 
L 360.83281 302.828482 
L 356.363243 302.676932 
z
" style="fill: #e65100; opacity: 0.5; stroke: #e65100; stroke-width: 1.5; stroke-linecap: round"/>
   </g>
   <g id="patch_9">
    <path d="M 359.371188 314.935788 
Q 203.957801 313.435856 74.210994 395.915745 
" style="fill: none; opacity: 0.5; stroke: #e65100; stroke-width: 1.5; stroke-linecap: round"/>
    <path d="M 78.659609 395.457672 
L 74.210994 395.915745 
L 76.513704 392.08201 
z
" style="fill: #e65100; opacity: 0.5; stroke: #e65100; stroke-width: 1.5; stroke-linecap: round"/>
   </g>
   <g id="patch_10">
    <path d="M 357.752655 314.629066 
Q 256.000569 284.667039 155.857239 314.15502 
" style="fill: none; opacity: 0.5; stroke: #e65100; stroke-width: 1.5; stroke-linecap: round"/>
    <path d="M 160.259281 314.943708 
L 155.857239 314.15502 
L 159.129414 311.1066 
z
" style="fill: #e65100; opacity: 0.5; stroke: #e65100; stroke-width: 1.5; stroke-linecap: round"/>
   </g>
   <g id="patch_11">
    <path d="M 66.763501 386.560387 
Q 199.365649 314.54102 270.583847 183.411825 
" style="fill: none; opacity: 0.5; stroke: #e65100; stroke-width: 1.5; stroke-linecap: round"/>
    <path d="M 266.917263 185.972326 
L 270.583847 183.411825 
L 270.432297 187.881392 
z
" style="fill: #e65100; opacity: 0.5; stroke: #e65100; stroke-width: 1.5; stroke-linecap: round"/>
   </g>
   <g id="patch_12">
    <path d="M 66.758928 386.564039 
Q 253.269465 285.51661 353.518754 100.481363 
" style="fill: none; opacity: 0.5; stroke: #e65100; stroke-width: 1.5; stroke-linecap: round"/>
    <path d="M 349.854803 103.04563 
L 353.518754 100.481363 
L 353.371797 104.951084 
z
" style="fill: #e65100; opacity: 0.5; stroke: #e65100; stroke-width: 1.5; stroke-linecap: round"/>
   </g>
   <g id="patch_13">
    <path d="M 149.695058 303.625277 
Q 228.392271 260.637119 270.576531 183.411752 
" style="fill: none; opacity: 0.5; stroke: #e65100; stroke-width: 1.5; stroke-linecap: round"/>
    <path d="M 266.903769 185.963383 
L 270.576531 183.411752 
L 270.414179 187.88094 
z
" style="fill: #e65100; opacity: 0.5; stroke: #e65100; stroke-width: 1.5; stroke-linecap: round"/>
   </g>
   <g id="patch_14">
    <path d="M 149.696835 303.627054 
Q 282.298983 231.607686 353.51718 100.478492 
" style="fill: none; opacity: 0.5; stroke: #e65100; stroke-width: 1.5; stroke-linecap: round"/>
    <path d="M 349.850596 103.038992 
L 353.51718 100.478492 
L 353.36563 104.948059 
z
" style="fill: #e65100; opacity: 0.5; stroke: #e65100; stroke-width: 1.5; stroke-linecap: round"/>
   </g>
   <g id="patch_15">
    <path d="M 274.819322 190.229066 
Q 173.067235 160.267039 72.923906 189.75502 
" style="fill: none; opacity: 0.5; stroke: #e65100; stroke-width: 1.5; stroke-linecap: round"/>
    <path d="M 77.325947 190.543708 
L 72.923906 189.75502 
L 76.196081 186.7066 
z
" style="fill: #e65100; opacity: 0.5; stroke: #e65100; stroke-width: 1.5; stroke-linecap: round"/>
   </g>
   <g id="patch_16">
    <path d="M 359.371188 107.602455 
Q 203.957801 106.102523 74.210994 188.582412 
" style="fill: none; opacity: 0.5; stroke: #e65100; stroke-width: 1.5; stroke-linecap: round"/>
    <path d="M 78.659609 188.124338 
L 74.210994 188.582412 
L 76.513704 184.748676 
z
" style="fill: #e65100; opacity: 0.5; stroke: #e65100; stroke-width: 1.5; stroke-linecap: round"/>
   </g>
   <g id="patch_17">
    <path d="M 74.750915 181.94147 
Q 146.770283 314.543618 277.899477 385.761815 
" style="fill: none; opacity: 0.5; stroke: #e65100; stroke-width: 1.5; stroke-linecap: round"/>
    <path d="M 275.338976 382.095232 
L 277.899477 385.761815 
L 273.42991 385.610266 
z
" style="fill: #e65100; opacity: 0.5; stroke: #e65100; stroke-width: 1.5; stroke-linecap: round"/>
   </g>
   <g id="patch_18">
    <path d="M 66.755422 179.225301 
Q 118.507082 150.754506 146.170296 100.47301 
" style="fill: none; opacity: 0.5; stroke: #e65100; stroke-width: 1.5; stroke-linecap: round"/>
    <path d="M 142.489863 103.013565 
L 146.170296 100.47301 
L 145.99448 104.941689 
z
" style="fill: #e65100; opacity: 0.5; stroke: #e65100; stroke-width: 1.5; stroke-linecap: round"/>
   </g>
   <g id="text_1">
    <!-- b₀=0,b₁=0,b₂=0 -->
    <g style="fill: #999999" transform="translate(38.3 433.377969) scale(0.07 -0.07)">
     <defs>
      <path id="DejaVuSans-62" d="M 3116 1747 
Q 3116 2381 2855 2742 
Q 2594 3103 2138 3103 
Q 1681 3103 1420 2742 
Q 1159 2381 1159 1747 
Q 1159 1113 1420 752 
Q 1681 391 2138 391 
Q 2594 391 2855 752 
Q 3116 1113 3116 1747 
z
M 1159 2969 
Q 1341 3281 1617 3432 
Q 1894 3584 2278 3584 
Q 2916 3584 3314 3078 
Q 3713 2572 3713 1747 
Q 3713 922 3314 415 
Q 2916 -91 2278 -91 
Q 1894 -91 1617 61 
Q 1341 213 1159 525 
L 1159 0 
L 581 0 
L 581 4863 
L 1159 4863 
L 1159 2969 
z
" transform="scale(0.015625)"/>
      <path id="DejaVuSans-2080" d="M 1781 2091 
Q 1625 2360 1309 2360 
Q 994 2360 838 2091 
Q 678 1822 678 1285 
Q 678 744 838 476 
Q 994 207 1309 207 
Q 1625 207 1781 476 
Q 1941 744 1941 1285 
Q 1941 1822 1781 2091 
z
M 1309 2638 
Q 1813 2638 2078 2291 
Q 2344 1944 2344 1285 
Q 2344 622 2078 275 
Q 1813 -71 1309 -71 
Q 803 -71 537 275 
Q 272 622 272 1285 
Q 272 1944 537 2291 
Q 803 2638 1309 2638 
z
" transform="scale(0.015625)"/>
      <path id="DejaVuSans-3d" d="M 678 2906 
L 4684 2906 
L 4684 2381 
L 678 2381 
L 678 2906 
z
M 678 1631 
L 4684 1631 
L 4684 1100 
L 678 1100 
L 678 1631 
z
" transform="scale(0.015625)"/>
      <path id="DejaVuSans-30" d="M 2034 4250 
Q 1547 4250 1301 3770 
Q 1056 3291 1056 2328 
Q 1056 1369 1301 889 
Q 1547 409 2034 409 
Q 2525 409 2770 889 
Q 3016 1369 3016 2328 
Q 3016 3291 2770 3770 
Q 2525 4250 2034 4250 
z
M 2034 4750 
Q 2819 4750 3233 4129 
Q 3647 3509 3647 2328 
Q 3647 1150 3233 529 
Q 2819 -91 2034 -91 
Q 1250 -91 836 529 
Q 422 1150 422 2328 
Q 422 3509 836 4129 
Q 1250 4750 2034 4750 
z
" transform="scale(0.015625)"/>
      <path id="DejaVuSans-2c" d="M 750 794 
L 1409 794 
L 1409 256 
L 897 -744 
L 494 -744 
L 750 256 
L 750 794 
z
" transform="scale(0.015625)"/>
      <path id="DejaVuSans-2081" d="M 488 319 
L 1125 319 
L 1125 2229 
L 428 2101 
L 428 2463 
L 1147 2585 
L 1575 2585 
L 1575 319 
L 2216 319 
L 2216 -24 
L 488 -24 
L 488 319 
z
" transform="scale(0.015625)"/>
      <path id="DejaVuSans-2082" d="M 838 332 
L 2163 332 
L 2163 -24 
L 294 -24 
L 294 319 
Q 400 416 597 591 
Q 1672 1544 1672 1838 
Q 1672 2044 1509 2170 
Q 1347 2297 1081 2297 
Q 919 2297 728 2242 
Q 538 2188 313 2079 
L 313 2463 
Q 553 2551 761 2594 
Q 969 2638 1147 2638 
Q 1600 2638 1872 2432 
Q 2144 2226 2144 1888 
Q 2144 1454 1109 566 
Q 934 416 838 332 
z
" transform="scale(0.015625)"/>
     </defs>
     <use xlink:href="#DejaVuSans-62"/>
     <use xlink:href="#DejaVuSans-2080" transform="translate(63.476562 0)"/>
     <use xlink:href="#DejaVuSans-3d" transform="translate(103.564453 0)"/>
     <use xlink:href="#DejaVuSans-30" transform="translate(187.353516 0)"/>
     <use xlink:href="#DejaVuSans-2c" transform="translate(250.976562 0)"/>
     <use xlink:href="#DejaVuSans-62" transform="translate(282.763672 0)"/>
     <use xlink:href="#DejaVuSans-2081" transform="translate(346.240234 0)"/>
     <use xlink:href="#DejaVuSans-3d" transform="translate(386.328125 0)"/>
     <use xlink:href="#DejaVuSans-30" transform="translate(470.117188 0)"/>
     <use xlink:href="#DejaVuSans-2c" transform="translate(533.740234 0)"/>
     <use xlink:href="#DejaVuSans-62" transform="translate(565.527344 0)"/>
     <use xlink:href="#DejaVuSans-2082" transform="translate(629.003906 0)"/>
     <use xlink:href="#DejaVuSans-3d" transform="translate(669.091797 0)"/>
     <use xlink:href="#DejaVuSans-30" transform="translate(752.880859 0)"/>
    </g>
   </g>
   <g id="text_2">
    <!-- b₀=1,b₁=0,b₂=0 -->
    <g style="fill: #999999" transform="translate(245.633333 433.377969) scale(0.07 -0.07)">
     <defs>
      <path id="DejaVuSans-31" d="M 794 531 
L 1825 531 
L 1825 4091 
L 703 3866 
L 703 4441 
L 1819 4666 
L 2450 4666 
L 2450 531 
L 3481 531 
L 3481 0 
L 794 0 
L 794 531 
z
" transform="scale(0.015625)"/>
     </defs>
     <use xlink:href="#DejaVuSans-62"/>
     <use xlink:href="#DejaVuSans-2080" transform="translate(63.476562 0)"/>
     <use xlink:href="#DejaVuSans-3d" transform="translate(103.564453 0)"/>
     <use xlink:href="#DejaVuSans-31" transform="translate(187.353516 0)"/>
     <use xlink:href="#DejaVuSans-2c" transform="translate(250.976562 0)"/>
     <use xlink:href="#DejaVuSans-62" transform="translate(282.763672 0)"/>
     <use xlink:href="#DejaVuSans-2081" transform="translate(346.240234 0)"/>
     <use xlink:href="#DejaVuSans-3d" transform="translate(386.328125 0)"/>
     <use xlink:href="#DejaVuSans-30" transform="translate(470.117188 0)"/>
     <use xlink:href="#DejaVuSans-2c" transform="translate(533.740234 0)"/>
     <use xlink:href="#DejaVuSans-62" transform="translate(565.527344 0)"/>
     <use xlink:href="#DejaVuSans-2082" transform="translate(629.003906 0)"/>
     <use xlink:href="#DejaVuSans-3d" transform="translate(669.091797 0)"/>
     <use xlink:href="#DejaVuSans-30" transform="translate(752.880859 0)"/>
    </g>
   </g>
   <g id="text_3">
    <!-- Wood -->
    <g transform="translate(478.883333 122.512135) scale(0.08 -0.08)">
     <defs>
      <path id="DejaVuSans-57" d="M 213 4666 
L 850 4666 
L 1831 722 
L 2809 4666 
L 3519 4666 
L 4500 722 
L 5478 4666 
L 6119 4666 
L 4947 0 
L 4153 0 
L 3169 4050 
L 2175 0 
L 1381 0 
L 213 4666 
z
" transform="scale(0.015625)"/>
      <path id="DejaVuSans-6f" d="M 1959 3097 
Q 1497 3097 1228 2736 
Q 959 2375 959 1747 
Q 959 1119 1226 758 
Q 1494 397 1959 397 
Q 2419 397 2687 759 
Q 2956 1122 2956 1747 
Q 2956 2369 2687 2733 
Q 2419 3097 1959 3097 
z
M 1959 3584 
Q 2709 3584 3137 3096 
Q 3566 2609 3566 1747 
Q 3566 888 3137 398 
Q 2709 -91 1959 -91 
Q 1206 -91 779 398 
Q 353 888 353 1747 
Q 353 2609 779 3096 
Q 1206 3584 1959 3584 
z
" transform="scale(0.015625)"/>
      <path id="DejaVuSans-64" d="M 2906 2969 
L 2906 4863 
L 3481 4863 
L 3481 0 
L 2906 0 
L 2906 525 
Q 2725 213 2448 61 
Q 2172 -91 1784 -91 
Q 1150 -91 751 415 
Q 353 922 353 1747 
Q 353 2572 751 3078 
Q 1150 3584 1784 3584 
Q 2172 3584 2448 3432 
Q 2725 3281 2906 2969 
z
M 947 1747 
Q 947 1113 1208 752 
Q 1469 391 1925 391 
Q 2381 391 2643 752 
Q 2906 1113 2906 1747 
Q 2906 2381 2643 2742 
Q 2381 3103 1925 3103 
Q 1469 3103 1208 2742 
Q 947 2381 947 1747 
z
" transform="scale(0.015625)"/>
     </defs>
     <use xlink:href="#DejaVuSans-57"/>
     <use xlink:href="#DejaVuSans-6f" transform="translate(93.001953 0)"/>
     <use xlink:href="#DejaVuSans-6f" transform="translate(154.183594 0)"/>
     <use xlink:href="#DejaVuSans-64" transform="translate(215.365234 0)"/>
    </g>
   </g>
   <g id="text_4">
    <!-- Fire -->
    <g transform="translate(478.883333 163.978802) scale(0.08 -0.08)">
     <defs>
      <path id="DejaVuSans-46" d="M 628 4666 
L 3309 4666 
L 3309 4134 
L 1259 4134 
L 1259 2759 
L 3109 2759 
L 3109 2228 
L 1259 2228 
L 1259 0 
L 628 0 
L 628 4666 
z
" transform="scale(0.015625)"/>
      <path id="DejaVuSans-69" d="M 603 3500 
L 1178 3500 
L 1178 0 
L 603 0 
L 603 3500 
z
M 603 4863 
L 1178 4863 
L 1178 4134 
L 603 4134 
L 603 4863 
z
" transform="scale(0.015625)"/>
      <path id="DejaVuSans-72" d="M 2631 2963 
Q 2534 3019 2420 3045 
Q 2306 3072 2169 3072 
Q 1681 3072 1420 2755 
Q 1159 2438 1159 1844 
L 1159 0 
L 581 0 
L 581 3500 
L 1159 3500 
L 1159 2956 
Q 1341 3275 1631 3429 
Q 1922 3584 2338 3584 
Q 2397 3584 2469 3576 
Q 2541 3569 2628 3553 
L 2631 2963 
z
" transform="scale(0.015625)"/>
      <path id="DejaVuSans-65" d="M 3597 1894 
L 3597 1613 
L 953 1613 
Q 991 1019 1311 708 
Q 1631 397 2203 397 
Q 2534 397 2845 478 
Q 3156 559 3463 722 
L 3463 178 
Q 3153 47 2828 -22 
Q 2503 -91 2169 -91 
Q 1331 -91 842 396 
Q 353 884 353 1716 
Q 353 2575 817 3079 
Q 1281 3584 2069 3584 
Q 2775 3584 3186 3129 
Q 3597 2675 3597 1894 
z
M 3022 2063 
Q 3016 2534 2758 2815 
Q 2500 3097 2075 3097 
Q 1594 3097 1305 2825 
Q 1016 2553 972 2059 
L 3022 2063 
z
" transform="scale(0.015625)"/>
     </defs>
     <use xlink:href="#DejaVuSans-46"/>
     <use xlink:href="#DejaVuSans-69" transform="translate(50.269531 0)"/>
     <use xlink:href="#DejaVuSans-72" transform="translate(78.052734 0)"/>
     <use xlink:href="#DejaVuSans-65" transform="translate(116.916016 0)"/>
    </g>
   </g>
   <g id="text_5">
    <!-- Earth -->
    <g transform="translate(478.883333 205.445469) scale(0.08 -0.08)">
     <defs>
      <path id="DejaVuSans-45" d="M 628 4666 
L 3578 4666 
L 3578 4134 
L 1259 4134 
L 1259 2753 
L 3481 2753 
L 3481 2222 
L 1259 2222 
L 1259 531 
L 3634 531 
L 3634 0 
L 628 0 
L 628 4666 
z
" transform="scale(0.015625)"/>
      <path id="DejaVuSans-61" d="M 2194 1759 
Q 1497 1759 1228 1600 
Q 959 1441 959 1056 
Q 959 750 1161 570 
Q 1363 391 1709 391 
Q 2188 391 2477 730 
Q 2766 1069 2766 1631 
L 2766 1759 
L 2194 1759 
z
M 3341 1997 
L 3341 0 
L 2766 0 
L 2766 531 
Q 2569 213 2275 61 
Q 1981 -91 1556 -91 
Q 1019 -91 701 211 
Q 384 513 384 1019 
Q 384 1609 779 1909 
Q 1175 2209 1959 2209 
L 2766 2209 
L 2766 2266 
Q 2766 2663 2505 2880 
Q 2244 3097 1772 3097 
Q 1472 3097 1187 3025 
Q 903 2953 641 2809 
L 641 3341 
Q 956 3463 1253 3523 
Q 1550 3584 1831 3584 
Q 2591 3584 2966 3190 
Q 3341 2797 3341 1997 
z
" transform="scale(0.015625)"/>
      <path id="DejaVuSans-74" d="M 1172 4494 
L 1172 3500 
L 2356 3500 
L 2356 3053 
L 1172 3053 
L 1172 1153 
Q 1172 725 1289 603 
Q 1406 481 1766 481 
L 2356 481 
L 2356 0 
L 1766 0 
Q 1100 0 847 248 
Q 594 497 594 1153 
L 594 3053 
L 172 3053 
L 172 3500 
L 594 3500 
L 594 4494 
L 1172 4494 
z
" transform="scale(0.015625)"/>
      <path id="DejaVuSans-68" d="M 3513 2113 
L 3513 0 
L 2938 0 
L 2938 2094 
Q 2938 2591 2744 2837 
Q 2550 3084 2163 3084 
Q 1697 3084 1428 2787 
Q 1159 2491 1159 1978 
L 1159 0 
L 581 0 
L 581 4863 
L 1159 4863 
L 1159 2956 
Q 1366 3272 1645 3428 
Q 1925 3584 2291 3584 
Q 2894 3584 3203 3211 
Q 3513 2838 3513 2113 
z
" transform="scale(0.015625)"/>
     </defs>
     <use xlink:href="#DejaVuSans-45"/>
     <use xlink:href="#DejaVuSans-61" transform="translate(63.183594 0)"/>
     <use xlink:href="#DejaVuSans-72" transform="translate(124.462891 0)"/>
     <use xlink:href="#DejaVuSans-74" transform="translate(165.576172 0)"/>
     <use xlink:href="#DejaVuSans-68" transform="translate(204.785156 0)"/>
    </g>
   </g>
   <g id="text_6">
    <!-- Metal -->
    <g transform="translate(478.883333 246.912135) scale(0.08 -0.08)">
     <defs>
      <path id="DejaVuSans-4d" d="M 628 4666 
L 1569 4666 
L 2759 1491 
L 3956 4666 
L 4897 4666 
L 4897 0 
L 4281 0 
L 4281 4097 
L 3078 897 
L 2444 897 
L 1241 4097 
L 1241 0 
L 628 0 
L 628 4666 
z
" transform="scale(0.015625)"/>
      <path id="DejaVuSans-6c" d="M 603 4863 
L 1178 4863 
L 1178 0 
L 603 0 
L 603 4863 
z
" transform="scale(0.015625)"/>
     </defs>
     <use xlink:href="#DejaVuSans-4d"/>
     <use xlink:href="#DejaVuSans-65" transform="translate(86.279297 0)"/>
     <use xlink:href="#DejaVuSans-74" transform="translate(147.802734 0)"/>
     <use xlink:href="#DejaVuSans-61" transform="translate(187.011719 0)"/>
     <use xlink:href="#DejaVuSans-6c" transform="translate(248.291016 0)"/>
    </g>
   </g>
   <g id="text_7">
    <!-- Water -->
    <g transform="translate(478.883333 288.378802) scale(0.08 -0.08)">
     <use xlink:href="#DejaVuSans-57"/>
     <use xlink:href="#DejaVuSans-61" transform="translate(92.501953 0)"/>
     <use xlink:href="#DejaVuSans-74" transform="translate(153.78125 0)"/>
     <use xlink:href="#DejaVuSans-65" transform="translate(192.990234 0)"/>
     <use xlink:href="#DejaVuSans-72" transform="translate(254.513672 0)"/>
    </g>
   </g>
   <g id="text_8">
    <!-- Sheng (generation) cycle -->
    <g transform="translate(194.938125 17.077969) scale(0.13 -0.13)">
     <defs>
      <path id="DejaVuSans-Bold-53" d="M 3834 4519 
L 3834 3531 
Q 3450 3703 3084 3790 
Q 2719 3878 2394 3878 
Q 1963 3878 1756 3759 
Q 1550 3641 1550 3391 
Q 1550 3203 1689 3098 
Q 1828 2994 2194 2919 
L 2706 2816 
Q 3484 2659 3812 2340 
Q 4141 2022 4141 1434 
Q 4141 663 3683 286 
Q 3225 -91 2284 -91 
Q 1841 -91 1394 -6 
Q 947 78 500 244 
L 500 1259 
Q 947 1022 1364 901 
Q 1781 781 2169 781 
Q 2563 781 2772 912 
Q 2981 1044 2981 1288 
Q 2981 1506 2839 1625 
Q 2697 1744 2272 1838 
L 1806 1941 
Q 1106 2091 782 2419 
Q 459 2747 459 3303 
Q 459 4000 909 4375 
Q 1359 4750 2203 4750 
Q 2588 4750 2994 4692 
Q 3400 4634 3834 4519 
z
" transform="scale(0.015625)"/>
      <path id="DejaVuSans-Bold-68" d="M 4056 2131 
L 4056 0 
L 2931 0 
L 2931 347 
L 2931 1625 
Q 2931 2084 2911 2256 
Q 2891 2428 2841 2509 
Q 2775 2619 2662 2680 
Q 2550 2741 2406 2741 
Q 2056 2741 1856 2470 
Q 1656 2200 1656 1722 
L 1656 0 
L 538 0 
L 538 4863 
L 1656 4863 
L 1656 2988 
Q 1909 3294 2193 3439 
Q 2478 3584 2822 3584 
Q 3428 3584 3742 3212 
Q 4056 2841 4056 2131 
z
" transform="scale(0.015625)"/>
      <path id="DejaVuSans-Bold-65" d="M 4031 1759 
L 4031 1441 
L 1416 1441 
Q 1456 1047 1700 850 
Q 1944 653 2381 653 
Q 2734 653 3104 758 
Q 3475 863 3866 1075 
L 3866 213 
Q 3469 63 3072 -14 
Q 2675 -91 2278 -91 
Q 1328 -91 801 392 
Q 275 875 275 1747 
Q 275 2603 792 3093 
Q 1309 3584 2216 3584 
Q 3041 3584 3536 3087 
Q 4031 2591 4031 1759 
z
M 2881 2131 
Q 2881 2450 2695 2645 
Q 2509 2841 2209 2841 
Q 1884 2841 1681 2658 
Q 1478 2475 1428 2131 
L 2881 2131 
z
" transform="scale(0.015625)"/>
      <path id="DejaVuSans-Bold-6e" d="M 4056 2131 
L 4056 0 
L 2931 0 
L 2931 347 
L 2931 1631 
Q 2931 2084 2911 2256 
Q 2891 2428 2841 2509 
Q 2775 2619 2662 2680 
Q 2550 2741 2406 2741 
Q 2056 2741 1856 2470 
Q 1656 2200 1656 1722 
L 1656 0 
L 538 0 
L 538 3500 
L 1656 3500 
L 1656 2988 
Q 1909 3294 2193 3439 
Q 2478 3584 2822 3584 
Q 3428 3584 3742 3212 
Q 4056 2841 4056 2131 
z
" transform="scale(0.015625)"/>
      <path id="DejaVuSans-Bold-67" d="M 2919 594 
Q 2688 288 2409 144 
Q 2131 0 1766 0 
Q 1125 0 706 504 
Q 288 1009 288 1791 
Q 288 2575 706 3076 
Q 1125 3578 1766 3578 
Q 2131 3578 2409 3434 
Q 2688 3291 2919 2981 
L 2919 3500 
L 4044 3500 
L 4044 353 
Q 4044 -491 3511 -936 
Q 2978 -1381 1966 -1381 
Q 1638 -1381 1331 -1331 
Q 1025 -1281 716 -1178 
L 716 -306 
Q 1009 -475 1290 -558 
Q 1572 -641 1856 -641 
Q 2406 -641 2662 -400 
Q 2919 -159 2919 353 
L 2919 594 
z
M 2181 2772 
Q 1834 2772 1640 2515 
Q 1447 2259 1447 1791 
Q 1447 1309 1634 1061 
Q 1822 813 2181 813 
Q 2531 813 2725 1069 
Q 2919 1325 2919 1791 
Q 2919 2259 2725 2515 
Q 2531 2772 2181 2772 
z
" transform="scale(0.015625)"/>
      <path id="DejaVuSans-Bold-20" transform="scale(0.015625)"/>
      <path id="DejaVuSans-Bold-28" d="M 2413 -844 
L 1484 -844 
Q 1006 -72 778 623 
Q 550 1319 550 2003 
Q 550 2688 779 3389 
Q 1009 4091 1484 4856 
L 2413 4856 
Q 2013 4116 1813 3408 
Q 1613 2700 1613 2009 
Q 1613 1319 1811 609 
Q 2009 -100 2413 -844 
z
" transform="scale(0.015625)"/>
      <path id="DejaVuSans-Bold-72" d="M 3138 2547 
Q 2991 2616 2845 2648 
Q 2700 2681 2553 2681 
Q 2122 2681 1889 2404 
Q 1656 2128 1656 1613 
L 1656 0 
L 538 0 
L 538 3500 
L 1656 3500 
L 1656 2925 
Q 1872 3269 2151 3426 
Q 2431 3584 2822 3584 
Q 2878 3584 2943 3579 
Q 3009 3575 3134 3559 
L 3138 2547 
z
" transform="scale(0.015625)"/>
      <path id="DejaVuSans-Bold-61" d="M 2106 1575 
Q 1756 1575 1579 1456 
Q 1403 1338 1403 1106 
Q 1403 894 1545 773 
Q 1688 653 1941 653 
Q 2256 653 2472 879 
Q 2688 1106 2688 1447 
L 2688 1575 
L 2106 1575 
z
M 3816 1997 
L 3816 0 
L 2688 0 
L 2688 519 
Q 2463 200 2181 54 
Q 1900 -91 1497 -91 
Q 953 -91 614 226 
Q 275 544 275 1050 
Q 275 1666 698 1953 
Q 1122 2241 2028 2241 
L 2688 2241 
L 2688 2328 
Q 2688 2594 2478 2717 
Q 2269 2841 1825 2841 
Q 1466 2841 1156 2769 
Q 847 2697 581 2553 
L 581 3406 
Q 941 3494 1303 3539 
Q 1666 3584 2028 3584 
Q 2975 3584 3395 3211 
Q 3816 2838 3816 1997 
z
" transform="scale(0.015625)"/>
      <path id="DejaVuSans-Bold-74" d="M 1759 4494 
L 1759 3500 
L 2913 3500 
L 2913 2700 
L 1759 2700 
L 1759 1216 
Q 1759 972 1856 886 
Q 1953 800 2241 800 
L 2816 800 
L 2816 0 
L 1856 0 
Q 1194 0 917 276 
Q 641 553 641 1216 
L 641 2700 
L 84 2700 
L 84 3500 
L 641 3500 
L 641 4494 
L 1759 4494 
z
" transform="scale(0.015625)"/>
      <path id="DejaVuSans-Bold-69" d="M 538 3500 
L 1656 3500 
L 1656 0 
L 538 0 
L 538 3500 
z
M 538 4863 
L 1656 4863 
L 1656 3950 
L 538 3950 
L 538 4863 
z
" transform="scale(0.015625)"/>
      <path id="DejaVuSans-Bold-6f" d="M 2203 2784 
Q 1831 2784 1636 2517 
Q 1441 2250 1441 1747 
Q 1441 1244 1636 976 
Q 1831 709 2203 709 
Q 2569 709 2762 976 
Q 2956 1244 2956 1747 
Q 2956 2250 2762 2517 
Q 2569 2784 2203 2784 
z
M 2203 3584 
Q 3106 3584 3614 3096 
Q 4122 2609 4122 1747 
Q 4122 884 3614 396 
Q 3106 -91 2203 -91 
Q 1297 -91 786 396 
Q 275 884 275 1747 
Q 275 2609 786 3096 
Q 1297 3584 2203 3584 
z
" transform="scale(0.015625)"/>
      <path id="DejaVuSans-Bold-29" d="M 513 -844 
Q 913 -100 1113 609 
Q 1313 1319 1313 2009 
Q 1313 2700 1113 3408 
Q 913 4116 513 4856 
L 1441 4856 
Q 1916 4091 2145 3389 
Q 2375 2688 2375 2003 
Q 2375 1319 2147 623 
Q 1919 -72 1441 -844 
L 513 -844 
z
" transform="scale(0.015625)"/>
      <path id="DejaVuSans-Bold-63" d="M 3366 3391 
L 3366 2478 
Q 3138 2634 2908 2709 
Q 2678 2784 2431 2784 
Q 1963 2784 1702 2511 
Q 1441 2238 1441 1747 
Q 1441 1256 1702 982 
Q 1963 709 2431 709 
Q 2694 709 2930 787 
Q 3166 866 3366 1019 
L 3366 103 
Q 3103 6 2833 -42 
Q 2563 -91 2291 -91 
Q 1344 -91 809 395 
Q 275 881 275 1747 
Q 275 2613 809 3098 
Q 1344 3584 2291 3584 
Q 2566 3584 2833 3536 
Q 3100 3488 3366 3391 
z
" transform="scale(0.015625)"/>
      <path id="DejaVuSans-Bold-79" d="M 78 3500 
L 1197 3500 
L 2138 1125 
L 2938 3500 
L 4056 3500 
L 2584 -331 
Q 2363 -916 2067 -1148 
Q 1772 -1381 1288 -1381 
L 641 -1381 
L 641 -647 
L 991 -647 
Q 1275 -647 1404 -556 
Q 1534 -466 1606 -231 
L 1638 -134 
L 78 3500 
z
" transform="scale(0.015625)"/>
      <path id="DejaVuSans-Bold-6c" d="M 538 4863 
L 1656 4863 
L 1656 0 
L 538 0 
L 538 4863 
z
" transform="scale(0.015625)"/>
     </defs>
     <use xlink:href="#DejaVuSans-Bold-53"/>
     <use xlink:href="#DejaVuSans-Bold-68" transform="translate(72.021484 0)"/>
     <use xlink:href="#DejaVuSans-Bold-65" transform="translate(143.212891 0)"/>
     <use xlink:href="#DejaVuSans-Bold-6e" transform="translate(211.035156 0)"/>
     <use xlink:href="#DejaVuSans-Bold-67" transform="translate(282.226562 0)"/>
     <use xlink:href="#DejaVuSans-Bold-20" transform="translate(353.808594 0)"/>
     <use xlink:href="#DejaVuSans-Bold-28" transform="translate(388.623047 0)"/>
     <use xlink:href="#DejaVuSans-Bold-67" transform="translate(434.326172 0)"/>
     <use xlink:href="#DejaVuSans-Bold-65" transform="translate(505.908203 0)"/>
     <use xlink:href="#DejaVuSans-Bold-6e" transform="translate(573.730469 0)"/>
     <use xlink:href="#DejaVuSans-Bold-65" transform="translate(644.921875 0)"/>
     <use xlink:href="#DejaVuSans-Bold-72" transform="translate(712.744141 0)"/>
     <use xlink:href="#DejaVuSans-Bold-61" transform="translate(762.060547 0)"/>
     <use xlink:href="#DejaVuSans-Bold-74" transform="translate(829.541016 0)"/>
     <use xlink:href="#DejaVuSans-Bold-69" transform="translate(877.34375 0)"/>
     <use xlink:href="#DejaVuSans-Bold-6f" transform="translate(911.621094 0)"/>
     <use xlink:href="#DejaVuSans-Bold-6e" transform="translate(980.322266 0)"/>
     <use xlink:href="#DejaVuSans-Bold-29" transform="translate(1051.513672 0)"/>
     <use xlink:href="#DejaVuSans-Bold-20" transform="translate(1097.216797 0)"/>
     <use xlink:href="#DejaVuSans-Bold-63" transform="translate(1132.03125 0)"/>
     <use xlink:href="#DejaVuSans-Bold-79" transform="translate(1191.308594 0)"/>
     <use xlink:href="#DejaVuSans-Bold-63" transform="translate(1256.494141 0)"/>
     <use xlink:href="#DejaVuSans-Bold-6c" transform="translate(1315.771484 0)"/>
     <use xlink:href="#DejaVuSans-Bold-65" transform="translate(1350.048828 0)"/>
    </g>
   </g>
   <g id="patch_19">
    <path d="M 69.4 414.717969 
C 75.448399 414.717969 81.249885 412.314914 85.526749 408.038051 
C 89.803612 403.761187 92.206667 397.959701 92.206667 391.911302 
C 92.206667 385.862903 89.803612 380.061417 85.526749 375.784553 
C 81.249885 371.50769 75.448399 369.104635 69.4 369.104635 
C 63.351601 369.104635 57.550115 371.50769 53.273251 375.784553 
C 48.996388 380.061417 46.593333 385.862903 46.593333 391.911302 
C 46.593333 397.959701 48.996388 403.761187 53.273251 408.038051 
C 57.550115 412.314914 63.351601 414.717969 69.4 414.717969 
z
" clip-path="url(#paedfb60aed)" style="fill: #ab8a3c; opacity: 0.9; stroke: #333333; stroke-width: 1.5; stroke-linejoin: miter"/>
   </g>
   <g id="patch_20">
    <path d="M 276.733333 414.717969 
C 282.781732 414.717969 288.583218 412.314914 292.860082 408.038051 
C 297.136946 403.761187 299.54 397.959701 299.54 391.911302 
C 299.54 385.862903 297.136946 380.061417 292.860082 375.784553 
C 288.583218 371.50769 282.781732 369.104635 276.733333 369.104635 
C 270.684935 369.104635 264.883448 371.50769 260.606585 375.784553 
C 256.329721 380.061417 253.926667 385.862903 253.926667 391.911302 
C 253.926667 397.959701 256.329721 403.761187 260.606585 408.038051 
C 264.883448 412.314914 270.684935 414.717969 276.733333 414.717969 
z
" clip-path="url(#paedfb60aed)" style="fill: #4caf50; opacity: 0.9; stroke: #333333; stroke-width: 1.5; stroke-linejoin: miter"/>
   </g>
   <g id="patch_21">
    <path d="M 69.4 207.384635 
C 75.448399 207.384635 81.249885 204.981581 85.526749 200.704717 
C 89.803612 196.427854 92.206667 190.626367 92.206667 184.577969 
C 92.206667 178.52957 89.803612 172.728084 85.526749 168.45122 
C 81.249885 164.174356 75.448399 161.771302 69.4 161.771302 
C 63.351601 161.771302 57.550115 164.174356 53.273251 168.45122 
C 48.996388 172.728084 46.593333 178.52957 46.593333 184.577969 
C 46.593333 190.626367 48.996388 196.427854 53.273251 200.704717 
C 57.550115 204.981581 63.351601 207.384635 69.4 207.384635 
z
" clip-path="url(#paedfb60aed)" style="fill: #1e88e5; opacity: 0.9; stroke: #333333; stroke-width: 1.5; stroke-linejoin: miter"/>
   </g>
   <g id="patch_22">
    <path d="M 276.733333 207.384635 
C 282.781732 207.384635 288.583218 204.981581 292.860082 200.704717 
C 297.136946 196.427854 299.54 190.626367 299.54 184.577969 
C 299.54 178.52957 297.136946 172.728084 292.860082 168.45122 
C 288.583218 164.174356 282.781732 161.771302 276.733333 161.771302 
C 270.684935 161.771302 264.883448 164.174356 260.606585 168.45122 
C 256.329721 172.728084 253.926667 178.52957 253.926667 184.577969 
C 253.926667 190.626367 256.329721 196.427854 260.606585 200.704717 
C 264.883448 204.981581 270.684935 207.384635 276.733333 207.384635 
z
" clip-path="url(#paedfb60aed)" style="fill: #78909c; opacity: 0.9; stroke: #333333; stroke-width: 1.5; stroke-linejoin: miter"/>
   </g>
   <g id="patch_23">
    <path d="M 152.333333 331.784635 
C 158.381732 331.784635 164.183218 329.381581 168.460082 325.104717 
C 172.736946 320.827854 175.14 315.026367 175.14 308.977969 
C 175.14 302.92957 172.736946 297.128084 168.460082 292.85122 
C 164.183218 288.574356 158.381732 286.171302 152.333333 286.171302 
C 146.284935 286.171302 140.483448 288.574356 136.206585 292.85122 
C 131.929721 297.128084 129.526667 302.92957 129.526667 308.977969 
C 129.526667 315.026367 131.929721 320.827854 136.206585 325.104717 
C 140.483448 329.381581 146.284935 331.784635 152.333333 331.784635 
z
" clip-path="url(#paedfb60aed)" style="fill: #ab8a3c; opacity: 0.9; stroke: #333333; stroke-width: 1.5; stroke-linejoin: miter"/>
   </g>
   <g id="patch_24">
    <path d="M 359.666667 331.784635 
C 365.715065 331.784635 371.516552 329.381581 375.793415 325.104717 
C 380.070279 320.827854 382.473333 315.026367 382.473333 308.977969 
C 382.473333 302.92957 380.070279 297.128084 375.793415 292.85122 
C 371.516552 288.574356 365.715065 286.171302 359.666667 286.171302 
C 353.618268 286.171302 347.816782 288.574356 343.539918 292.85122 
C 339.263054 297.128084 336.86 302.92957 336.86 308.977969 
C 336.86 315.026367 339.263054 320.827854 343.539918 325.104717 
C 347.816782 329.381581 353.618268 331.784635 359.666667 331.784635 
z
" clip-path="url(#paedfb60aed)" style="fill: #e53935; opacity: 0.9; stroke: #333333; stroke-width: 1.5; stroke-linejoin: miter"/>
   </g>
   <g id="patch_25">
    <path d="M 152.333333 124.451302 
C 158.381732 124.451302 164.183218 122.048248 168.460082 117.771384 
C 172.736946 113.49452 175.14 107.693034 175.14 101.644635 
C 175.14 95.596237 172.736946 89.79475 168.460082 85.517887 
C 164.183218 81.241023 158.381732 78.837969 152.333333 78.837969 
C 146.284935 78.837969 140.483448 81.241023 136.206585 85.517887 
C 131.929721 89.79475 129.526667 95.596237 129.526667 101.644635 
C 129.526667 107.693034 131.929721 113.49452 136.206585 117.771384 
C 140.483448 122.048248 146.284935 124.451302 152.333333 124.451302 
z
" clip-path="url(#paedfb60aed)" style="fill: #4caf50; opacity: 0.9; stroke: #333333; stroke-width: 1.5; stroke-linejoin: miter"/>
   </g>
   <g id="patch_26">
    <path d="M 359.666667 124.451302 
C 365.715065 124.451302 371.516552 122.048248 375.793415 117.771384 
C 380.070279 113.49452 382.473333 107.693034 382.473333 101.644635 
C 382.473333 95.596237 380.070279 89.79475 375.793415 85.517887 
C 371.516552 81.241023 365.715065 78.837969 359.666667 78.837969 
C 353.618268 78.837969 347.816782 81.241023 343.539918 85.517887 
C 339.263054 89.79475 336.86 95.596237 336.86 101.644635 
C 336.86 107.693034 339.263054 113.49452 343.539918 117.771384 
C 347.816782 122.048248 353.618268 124.451302 359.666667 124.451302 
z
" clip-path="url(#paedfb60aed)" style="fill: #78909c; opacity: 0.9; stroke: #333333; stroke-width: 1.5; stroke-linejoin: miter"/>
   </g>
   <g id="text_9">
    <!-- Kun -->
    <g transform="translate(61.766172 389.92363) scale(0.07 -0.07)">
     <defs>
      <path id="DejaVuSans-Bold-4b" d="M 588 4666 
L 1791 4666 
L 1791 2963 
L 3525 4666 
L 4922 4666 
L 2675 2456 
L 5153 0 
L 3647 0 
L 1791 1838 
L 1791 0 
L 588 0 
L 588 4666 
z
" transform="scale(0.015625)"/>
      <path id="DejaVuSans-Bold-75" d="M 500 1363 
L 500 3500 
L 1625 3500 
L 1625 3150 
Q 1625 2866 1622 2436 
Q 1619 2006 1619 1863 
Q 1619 1441 1641 1255 
Q 1663 1069 1716 984 
Q 1784 875 1895 815 
Q 2006 756 2150 756 
Q 2500 756 2700 1025 
Q 2900 1294 2900 1772 
L 2900 3500 
L 4019 3500 
L 4019 0 
L 2900 0 
L 2900 506 
Q 2647 200 2364 54 
Q 2081 -91 1741 -91 
Q 1134 -91 817 281 
Q 500 653 500 1363 
z
" transform="scale(0.015625)"/>
     </defs>
     <use xlink:href="#DejaVuSans-Bold-4b"/>
     <use xlink:href="#DejaVuSans-Bold-75" transform="translate(75.740234 0)"/>
     <use xlink:href="#DejaVuSans-Bold-6e" transform="translate(146.931641 0)"/>
    </g>
    <!-- 000 -->
    <g transform="translate(62.094297 397.762099) scale(0.07 -0.07)">
     <defs>
      <path id="DejaVuSans-Bold-30" d="M 2944 2338 
Q 2944 3213 2780 3570 
Q 2616 3928 2228 3928 
Q 1841 3928 1675 3570 
Q 1509 3213 1509 2338 
Q 1509 1453 1675 1090 
Q 1841 728 2228 728 
Q 2613 728 2778 1090 
Q 2944 1453 2944 2338 
z
M 4147 2328 
Q 4147 1169 3647 539 
Q 3147 -91 2228 -91 
Q 1306 -91 806 539 
Q 306 1169 306 2328 
Q 306 3491 806 4120 
Q 1306 4750 2228 4750 
Q 3147 4750 3647 4120 
Q 4147 3491 4147 2328 
z
" transform="scale(0.015625)"/>
     </defs>
     <use xlink:href="#DejaVuSans-Bold-30"/>
     <use xlink:href="#DejaVuSans-Bold-30" transform="translate(69.580078 0)"/>
     <use xlink:href="#DejaVuSans-Bold-30" transform="translate(139.160156 0)"/>
    </g>
   </g>
   <g id="text_10">
    <!-- Zhe -->
    <g transform="translate(269.32974 389.92363) scale(0.07 -0.07)">
     <defs>
      <path id="DejaVuSans-Bold-5a" d="M 359 4666 
L 4281 4666 
L 4281 3938 
L 1778 909 
L 4353 909 
L 4353 0 
L 288 0 
L 288 728 
L 2791 3756 
L 359 3756 
L 359 4666 
z
" transform="scale(0.015625)"/>
     </defs>
     <use xlink:href="#DejaVuSans-Bold-5a"/>
     <use xlink:href="#DejaVuSans-Bold-68" transform="translate(72.509766 0)"/>
     <use xlink:href="#DejaVuSans-Bold-65" transform="translate(143.701172 0)"/>
    </g>
    <!-- 001 -->
    <g transform="translate(269.42763 397.762099) scale(0.07 -0.07)">
     <defs>
      <path id="DejaVuSans-Bold-31" d="M 750 831 
L 1813 831 
L 1813 3847 
L 722 3622 
L 722 4441 
L 1806 4666 
L 2950 4666 
L 2950 831 
L 4013 831 
L 4013 0 
L 750 0 
L 750 831 
z
" transform="scale(0.015625)"/>
     </defs>
     <use xlink:href="#DejaVuSans-Bold-30"/>
     <use xlink:href="#DejaVuSans-Bold-30" transform="translate(69.580078 0)"/>
     <use xlink:href="#DejaVuSans-Bold-31" transform="translate(139.160156 0)"/>
    </g>
   </g>
   <g id="text_11">
    <!-- Kan -->
    <g style="fill: #ffffff" transform="translate(61.834531 182.590297) scale(0.07 -0.07)">
     <use xlink:href="#DejaVuSans-Bold-4b"/>
     <use xlink:href="#DejaVuSans-Bold-61" transform="translate(77.490234 0)"/>
     <use xlink:href="#DejaVuSans-Bold-6e" transform="translate(144.970703 0)"/>
    </g>
    <!-- 010 -->
    <g style="fill: #ffffff" transform="translate(62.094297 190.428766) scale(0.07 -0.07)">
     <use xlink:href="#DejaVuSans-Bold-30"/>
     <use xlink:href="#DejaVuSans-Bold-31" transform="translate(69.580078 0)"/>
     <use xlink:href="#DejaVuSans-Bold-30" transform="translate(139.160156 0)"/>
    </g>
   </g>
   <g id="text_12">
    <!-- Dui -->
    <g transform="translate(270.13638 182.590297) scale(0.07 -0.07)">
     <defs>
      <path id="DejaVuSans-Bold-44" d="M 1791 3756 
L 1791 909 
L 2222 909 
Q 2959 909 3348 1275 
Q 3738 1641 3738 2338 
Q 3738 3031 3350 3393 
Q 2963 3756 2222 3756 
L 1791 3756 
z
M 588 4666 
L 1856 4666 
Q 2919 4666 3439 4514 
Q 3959 4363 4331 4000 
Q 4659 3684 4818 3271 
Q 4978 2859 4978 2338 
Q 4978 1809 4818 1395 
Q 4659 981 4331 666 
Q 3956 303 3431 151 
Q 2906 0 1856 0 
L 588 0 
L 588 4666 
z
" transform="scale(0.015625)"/>
     </defs>
     <use xlink:href="#DejaVuSans-Bold-44"/>
     <use xlink:href="#DejaVuSans-Bold-75" transform="translate(83.007812 0)"/>
     <use xlink:href="#DejaVuSans-Bold-69" transform="translate(154.199219 0)"/>
    </g>
    <!-- 011 -->
    <g transform="translate(269.42763 190.428766) scale(0.07 -0.07)">
     <use xlink:href="#DejaVuSans-Bold-30"/>
     <use xlink:href="#DejaVuSans-Bold-31" transform="translate(69.580078 0)"/>
     <use xlink:href="#DejaVuSans-Bold-31" transform="translate(139.160156 0)"/>
    </g>
   </g>
   <g id="text_13">
    <!-- Gen -->
    <g transform="translate(144.595052 306.990297) scale(0.07 -0.07)">
     <defs>
      <path id="DejaVuSans-Bold-47" d="M 4781 347 
Q 4331 128 3847 18 
Q 3363 -91 2847 -91 
Q 1681 -91 1000 561 
Q 319 1213 319 2328 
Q 319 3456 1012 4103 
Q 1706 4750 2913 4750 
Q 3378 4750 3804 4662 
Q 4231 4575 4609 4403 
L 4609 3438 
Q 4219 3659 3833 3768 
Q 3447 3878 3059 3878 
Q 2341 3878 1952 3476 
Q 1563 3075 1563 2328 
Q 1563 1588 1938 1184 
Q 2313 781 3003 781 
Q 3191 781 3352 804 
Q 3513 828 3641 878 
L 3641 1784 
L 2906 1784 
L 2906 2591 
L 4781 2591 
L 4781 347 
z
" transform="scale(0.015625)"/>
     </defs>
     <use xlink:href="#DejaVuSans-Bold-47"/>
     <use xlink:href="#DejaVuSans-Bold-65" transform="translate(82.080078 0)"/>
     <use xlink:href="#DejaVuSans-Bold-6e" transform="translate(149.902344 0)"/>
    </g>
    <!-- 100 -->
    <g transform="translate(145.02763 314.828766) scale(0.07 -0.07)">
     <use xlink:href="#DejaVuSans-Bold-31"/>
     <use xlink:href="#DejaVuSans-Bold-30" transform="translate(69.580078 0)"/>
     <use xlink:href="#DejaVuSans-Bold-30" transform="translate(139.160156 0)"/>
    </g>
   </g>
   <g id="text_14">
    <!-- Li -->
    <g style="fill: #ffffff" transform="translate(356.236667 306.990297) scale(0.07 -0.07)">
     <defs>
      <path id="DejaVuSans-Bold-4c" d="M 588 4666 
L 1791 4666 
L 1791 909 
L 3903 909 
L 3903 0 
L 588 0 
L 588 4666 
z
" transform="scale(0.015625)"/>
     </defs>
     <use xlink:href="#DejaVuSans-Bold-4c"/>
     <use xlink:href="#DejaVuSans-Bold-69" transform="translate(63.720703 0)"/>
    </g>
    <!-- 101 -->
    <g style="fill: #ffffff" transform="translate(352.360964 314.828766) scale(0.07 -0.07)">
     <use xlink:href="#DejaVuSans-Bold-31"/>
     <use xlink:href="#DejaVuSans-Bold-30" transform="translate(69.580078 0)"/>
     <use xlink:href="#DejaVuSans-Bold-31" transform="translate(139.160156 0)"/>
    </g>
   </g>
   <g id="text_15">
    <!-- Xun -->
    <g transform="translate(144.651927 99.656964) scale(0.07 -0.07)">
     <defs>
      <path id="DejaVuSans-Bold-58" d="M 3188 2381 
L 4806 0 
L 3553 0 
L 2463 1594 
L 1381 0 
L 122 0 
L 1741 2381 
L 184 4666 
L 1441 4666 
L 2463 3163 
L 3481 4666 
L 4744 4666 
L 3188 2381 
z
" transform="scale(0.015625)"/>
     </defs>
     <use xlink:href="#DejaVuSans-Bold-58"/>
     <use xlink:href="#DejaVuSans-Bold-75" transform="translate(77.099609 0)"/>
     <use xlink:href="#DejaVuSans-Bold-6e" transform="translate(148.291016 0)"/>
    </g>
    <!-- 110 -->
    <g transform="translate(145.02763 107.495432) scale(0.07 -0.07)">
     <use xlink:href="#DejaVuSans-Bold-31"/>
     <use xlink:href="#DejaVuSans-Bold-31" transform="translate(69.580078 0)"/>
     <use xlink:href="#DejaVuSans-Bold-30" transform="translate(139.160156 0)"/>
    </g>
   </g>
   <g id="text_16">
    <!-- Qia -->
    <g transform="translate(353.129323 99.656964) scale(0.07 -0.07)">
     <defs>
      <path id="DejaVuSans-Bold-51" d="M 2847 -84 
L 2753 -84 
Q 1600 -84 959 553 
Q 319 1191 319 2328 
Q 319 3463 958 4106 
Q 1597 4750 2719 4750 
Q 3853 4750 4486 4112 
Q 5119 3475 5119 2328 
Q 5119 1541 4783 972 
Q 4447 403 3816 116 
L 4756 -934 
L 3609 -934 
L 2847 -84 
z
M 2719 3878 
Q 2169 3878 1866 3472 
Q 1563 3066 1563 2328 
Q 1563 1578 1859 1179 
Q 2156 781 2719 781 
Q 3272 781 3575 1187 
Q 3878 1594 3878 2328 
Q 3878 3066 3575 3472 
Q 3272 3878 2719 3878 
z
" transform="scale(0.015625)"/>
     </defs>
     <use xlink:href="#DejaVuSans-Bold-51"/>
     <use xlink:href="#DejaVuSans-Bold-69" transform="translate(85.009766 0)"/>
     <use xlink:href="#DejaVuSans-Bold-61" transform="translate(119.287109 0)"/>
    </g>
    <!-- 111 -->
    <g transform="translate(352.360964 107.495432) scale(0.07 -0.07)">
     <use xlink:href="#DejaVuSans-Bold-31"/>
     <use xlink:href="#DejaVuSans-Bold-31" transform="translate(69.580078 0)"/>
     <use xlink:href="#DejaVuSans-Bold-31" transform="translate(139.160156 0)"/>
    </g>
   </g>
  </g>
  <g id="axes_2">
   <g id="line2d_13">
    <path d="M 640 391.911302 
L 847.333333 391.911302 
" clip-path="url(#pc03c0043d9)" style="fill: none; stroke: #cccccc; stroke-linecap: square"/>
   </g>
   <g id="line2d_14">
    <path d="M 640 391.911302 
L 640 184.577969 
" clip-path="url(#pc03c0043d9)" style="fill: none; stroke: #cccccc; stroke-linecap: square"/>
   </g>
   <g id="line2d_15">
    <path d="M 640 391.911302 
L 722.933333 308.977969 
" clip-path="url(#pc03c0043d9)" style="fill: none; stroke: #cccccc; stroke-linecap: square"/>
   </g>
   <g id="line2d_16">
    <path d="M 847.333333 391.911302 
L 847.333333 184.577969 
" clip-path="url(#pc03c0043d9)" style="fill: none; stroke: #cccccc; stroke-linecap: square"/>
   </g>
   <g id="line2d_17">
    <path d="M 847.333333 391.911302 
L 930.266667 308.977969 
" clip-path="url(#pc03c0043d9)" style="fill: none; stroke: #cccccc; stroke-linecap: square"/>
   </g>
   <g id="line2d_18">
    <path d="M 640 184.577969 
L 847.333333 184.577969 
" clip-path="url(#pc03c0043d9)" style="fill: none; stroke: #cccccc; stroke-linecap: square"/>
   </g>
   <g id="line2d_19">
    <path d="M 640 184.577969 
L 722.933333 101.644635 
" clip-path="url(#pc03c0043d9)" style="fill: none; stroke: #cccccc; stroke-linecap: square"/>
   </g>
   <g id="line2d_20">
    <path d="M 847.333333 184.577969 
L 930.266667 101.644635 
" clip-path="url(#pc03c0043d9)" style="fill: none; stroke: #cccccc; stroke-linecap: square"/>
   </g>
   <g id="line2d_21">
    <path d="M 722.933333 308.977969 
L 930.266667 308.977969 
" clip-path="url(#pc03c0043d9)" style="fill: none; stroke: #cccccc; stroke-linecap: square"/>
   </g>
   <g id="line2d_22">
    <path d="M 722.933333 308.977969 
L 722.933333 101.644635 
" clip-path="url(#pc03c0043d9)" style="fill: none; stroke: #cccccc; stroke-linecap: square"/>
   </g>
   <g id="line2d_23">
    <path d="M 930.266667 308.977969 
L 930.266667 101.644635 
" clip-path="url(#pc03c0043d9)" style="fill: none; stroke: #cccccc; stroke-linecap: square"/>
   </g>
   <g id="line2d_24">
    <path d="M 722.933333 101.644635 
L 930.266667 101.644635 
" clip-path="url(#pc03c0043d9)" style="fill: none; stroke: #cccccc; stroke-linecap: square"/>
   </g>
   <g id="patch_27">
    <path d="M 1002.833333 137.927969 
L 1033.933333 137.927969 
Q 1039.116667 137.927969 1039.116667 132.744635 
L 1039.116667 106.827969 
Q 1039.116667 101.644635 1033.933333 101.644635 
L 1002.833333 101.644635 
Q 997.65 101.644635 997.65 106.827969 
L 997.65 132.744635 
Q 997.65 137.927969 1002.833333 137.927969 
z
" clip-path="url(#pc03c0043d9)" style="fill: #4caf50; opacity: 0.8; stroke: #000000; stroke-linejoin: miter"/>
   </g>
   <g id="patch_28">
    <path d="M 1002.833333 179.394635 
L 1033.933333 179.394635 
Q 1039.116667 179.394635 1039.116667 174.211302 
L 1039.116667 148.294635 
Q 1039.116667 143.111302 1033.933333 143.111302 
L 1002.833333 143.111302 
Q 997.65 143.111302 997.65 148.294635 
L 997.65 174.211302 
Q 997.65 179.394635 1002.833333 179.394635 
z
" clip-path="url(#pc03c0043d9)" style="fill: #e53935; opacity: 0.8; stroke: #000000; stroke-linejoin: miter"/>
   </g>
   <g id="patch_29">
    <path d="M 1002.833333 220.861302 
L 1033.933333 220.861302 
Q 1039.116667 220.861302 1039.116667 215.677969 
L 1039.116667 189.761302 
Q 1039.116667 184.577969 1033.933333 184.577969 
L 1002.833333 184.577969 
Q 997.65 184.577969 997.65 189.761302 
L 997.65 215.677969 
Q 997.65 220.861302 1002.833333 220.861302 
z
" clip-path="url(#pc03c0043d9)" style="fill: #ab8a3c; opacity: 0.8; stroke: #000000; stroke-linejoin: miter"/>
   </g>
   <g id="patch_30">
    <path d="M 1002.833333 262.327969 
L 1033.933333 262.327969 
Q 1039.116667 262.327969 1039.116667 257.144635 
L 1039.116667 231.227969 
Q 1039.116667 226.044635 1033.933333 226.044635 
L 1002.833333 226.044635 
Q 997.65 226.044635 997.65 231.227969 
L 997.65 257.144635 
Q 997.65 262.327969 1002.833333 262.327969 
z
" clip-path="url(#pc03c0043d9)" style="fill: #78909c; opacity: 0.8; stroke: #000000; stroke-linejoin: miter"/>
   </g>
   <g id="patch_31">
    <path d="M 1002.833333 303.794635 
L 1033.933333 303.794635 
Q 1039.116667 303.794635 1039.116667 298.611302 
L 1039.116667 272.694635 
Q 1039.116667 267.511302 1033.933333 267.511302 
L 1002.833333 267.511302 
Q 997.65 267.511302 997.65 272.694635 
L 997.65 298.611302 
Q 997.65 303.794635 1002.833333 303.794635 
z
" clip-path="url(#pc03c0043d9)" style="fill: #1e88e5; opacity: 0.8; stroke: #000000; stroke-linejoin: miter"/>
   </g>
   <g id="patch_32">
    <path d="M 845.419322 397.562399 
Q 743.667235 367.600372 643.523906 397.088354 
" style="fill: none; opacity: 0.5; stroke: #6a1b9a; stroke-width: 1.5; stroke-linecap: round"/>
    <path d="M 647.925947 397.877041 
L 643.523906 397.088354 
L 646.796081 394.039933 
z
" style="fill: #6a1b9a; opacity: 0.5; stroke: #6a1b9a; stroke-width: 1.5; stroke-linecap: round"/>
   </g>
   <g id="patch_33">
    <path d="M 842.600368 395.547812 
Q 793.805317 337.430653 722.990651 315.244822 
" style="fill: none; opacity: 0.5; stroke: #6a1b9a; stroke-width: 1.5; stroke-linecap: round"/>
    <path d="M 726.209775 318.349212 
L 722.990651 315.244822 
L 727.405637 314.532156 
z
" style="fill: #6a1b9a; opacity: 0.5; stroke: #6a1b9a; stroke-width: 1.5; stroke-linecap: round"/>
   </g>
   <g id="patch_34">
    <path d="M 727.835757 105.043041 
Q 644.457044 236.205386 645.941656 389.94205 
" style="fill: none; opacity: 0.5; stroke: #6a1b9a; stroke-width: 1.5; stroke-linecap: round"/>
    <path d="M 647.902937 385.922924 
L 645.941656 389.94205 
L 643.903124 385.96155 
z
" style="fill: #6a1b9a; opacity: 0.5; stroke: #6a1b9a; stroke-width: 1.5; stroke-linecap: round"/>
   </g>
   <g id="patch_35">
    <path d="M 728.584431 103.558647 
Q 698.622403 205.310733 728.110385 305.454063 
" style="fill: none; opacity: 0.5; stroke: #6a1b9a; stroke-width: 1.5; stroke-linecap: round"/>
    <path d="M 728.899073 301.052021 
L 728.110385 305.454063 
L 725.061964 302.181888 
z
" style="fill: #6a1b9a; opacity: 0.5; stroke: #6a1b9a; stroke-width: 1.5; stroke-linecap: round"/>
   </g>
   <g id="patch_36">
    <path d="M 634.348903 389.99729 
Q 664.31093 288.245204 634.822948 188.101874 
" style="fill: none; opacity: 0.5; stroke: #6a1b9a; stroke-width: 1.5; stroke-linecap: round"/>
    <path d="M 634.034261 192.503916 
L 634.822948 188.101874 
L 637.871369 191.37405 
z
" style="fill: #6a1b9a; opacity: 0.5; stroke: #6a1b9a; stroke-width: 1.5; stroke-linecap: round"/>
   </g>
   <g id="patch_37">
    <path d="M 717.165785 310.514376 
Q 694.476953 238.100441 637.64258 190.384802 
" style="fill: none; opacity: 0.5; stroke: #6a1b9a; stroke-width: 1.5; stroke-linecap: round"/>
    <path d="M 639.420084 194.488517 
L 637.64258 190.384802 
L 641.992055 191.425028 
z
" style="fill: #6a1b9a; opacity: 0.5; stroke: #6a1b9a; stroke-width: 1.5; stroke-linecap: round"/>
   </g>
   <g id="patch_38">
    <path d="M 643.985766 180.140387 
Q 769.146434 284.074204 929.060326 302.835287 
" style="fill: none; opacity: 0.5; stroke: #6a1b9a; stroke-width: 1.5; stroke-linecap: round"/>
    <path d="M 925.320615 300.382827 
L 929.060326 302.835287 
L 924.854532 304.35558 
z
" style="fill: #6a1b9a; opacity: 0.5; stroke: #6a1b9a; stroke-width: 1.5; stroke-linecap: round"/>
   </g>
   <g id="patch_39">
    <path d="M 924.499118 310.514376 
Q 901.810286 238.100441 844.975913 190.384802 
" style="fill: none; opacity: 0.5; stroke: #6a1b9a; stroke-width: 1.5; stroke-linecap: round"/>
    <path d="M 846.753417 194.488517 
L 844.975913 190.384802 
L 849.325388 191.425028 
z
" style="fill: #6a1b9a; opacity: 0.5; stroke: #6a1b9a; stroke-width: 1.5; stroke-linecap: round"/>
   </g>
   <g id="patch_40">
    <path d="M 924.615569 307.063957 
Q 954.577597 205.311871 925.089615 105.168541 
" style="fill: none; opacity: 0.5; stroke: #6a1b9a; stroke-width: 1.5; stroke-linecap: round"/>
    <path d="M 924.300927 109.570583 
L 925.089615 105.168541 
L 928.138036 108.440716 
z
" style="fill: #6a1b9a; opacity: 0.5; stroke: #6a1b9a; stroke-width: 1.5; stroke-linecap: round"/>
   </g>
   <g id="patch_41">
    <path d="M 852.984431 186.49198 
Q 823.022403 288.244067 852.510385 388.387396 
" style="fill: none; opacity: 0.5; stroke: #6a1b9a; stroke-width: 1.5; stroke-linecap: round"/>
    <path d="M 853.299073 383.985355 
L 852.510385 388.387396 
L 849.461964 385.115221 
z
" style="fill: #6a1b9a; opacity: 0.5; stroke: #6a1b9a; stroke-width: 1.5; stroke-linecap: round"/>
   </g>
   <g id="patch_42">
    <path d="M 842.600368 188.214479 
Q 793.805317 130.09732 722.990651 107.911489 
" style="fill: none; opacity: 0.5; stroke: #6a1b9a; stroke-width: 1.5; stroke-linecap: round"/>
    <path d="M 726.209775 111.015879 
L 722.990651 107.911489 
L 727.405637 107.198823 
z
" style="fill: #6a1b9a; opacity: 0.5; stroke: #6a1b9a; stroke-width: 1.5; stroke-linecap: round"/>
   </g>
   <g id="patch_43">
    <path d="M 935.169091 105.043041 
Q 851.790378 236.205386 853.27499 389.94205 
" style="fill: none; opacity: 0.5; stroke: #6a1b9a; stroke-width: 1.5; stroke-linecap: round"/>
    <path d="M 855.236271 385.922924 
L 853.27499 389.94205 
L 851.236457 385.96155 
z
" style="fill: #6a1b9a; opacity: 0.5; stroke: #6a1b9a; stroke-width: 1.5; stroke-linecap: round"/>
   </g>
   <g id="patch_44">
    <path d="M 928.352655 107.295733 
Q 826.600569 77.333706 726.457239 106.821687 
" style="fill: none; opacity: 0.5; stroke: #6a1b9a; stroke-width: 1.5; stroke-linecap: round"/>
    <path d="M 730.859281 107.610375 
L 726.457239 106.821687 
L 729.729414 103.773266 
z
" style="fill: #6a1b9a; opacity: 0.5; stroke: #6a1b9a; stroke-width: 1.5; stroke-linecap: round"/>
   </g>
   <g id="text_17">
    <!-- b₀=0,b₁=0,b₂=0 -->
    <g style="fill: #999999" transform="translate(608.9 433.377969) scale(0.07 -0.07)">
     <use xlink:href="#DejaVuSans-62"/>
     <use xlink:href="#DejaVuSans-2080" transform="translate(63.476562 0)"/>
     <use xlink:href="#DejaVuSans-3d" transform="translate(103.564453 0)"/>
     <use xlink:href="#DejaVuSans-30" transform="translate(187.353516 0)"/>
     <use xlink:href="#DejaVuSans-2c" transform="translate(250.976562 0)"/>
     <use xlink:href="#DejaVuSans-62" transform="translate(282.763672 0)"/>
     <use xlink:href="#DejaVuSans-2081" transform="translate(346.240234 0)"/>
     <use xlink:href="#DejaVuSans-3d" transform="translate(386.328125 0)"/>
     <use xlink:href="#DejaVuSans-30" transform="translate(470.117188 0)"/>
     <use xlink:href="#DejaVuSans-2c" transform="translate(533.740234 0)"/>
     <use xlink:href="#DejaVuSans-62" transform="translate(565.527344 0)"/>
     <use xlink:href="#DejaVuSans-2082" transform="translate(629.003906 0)"/>
     <use xlink:href="#DejaVuSans-3d" transform="translate(669.091797 0)"/>
     <use xlink:href="#DejaVuSans-30" transform="translate(752.880859 0)"/>
    </g>
   </g>
   <g id="text_18">
    <!-- b₀=1,b₁=0,b₂=0 -->
    <g style="fill: #999999" transform="translate(816.233333 433.377969) scale(0.07 -0.07)">
     <use xlink:href="#DejaVuSans-62"/>
     <use xlink:href="#DejaVuSans-2080" transform="translate(63.476562 0)"/>
     <use xlink:href="#DejaVuSans-3d" transform="translate(103.564453 0)"/>
     <use xlink:href="#DejaVuSans-31" transform="translate(187.353516 0)"/>
     <use xlink:href="#DejaVuSans-2c" transform="translate(250.976562 0)"/>
     <use xlink:href="#DejaVuSans-62" transform="translate(282.763672 0)"/>
     <use xlink:href="#DejaVuSans-2081" transform="translate(346.240234 0)"/>
     <use xlink:href="#DejaVuSans-3d" transform="translate(386.328125 0)"/>
     <use xlink:href="#DejaVuSans-30" transform="translate(470.117188 0)"/>
     <use xlink:href="#DejaVuSans-2c" transform="translate(533.740234 0)"/>
     <use xlink:href="#DejaVuSans-62" transform="translate(565.527344 0)"/>
     <use xlink:href="#DejaVuSans-2082" transform="translate(629.003906 0)"/>
     <use xlink:href="#DejaVuSans-3d" transform="translate(669.091797 0)"/>
     <use xlink:href="#DejaVuSans-30" transform="translate(752.880859 0)"/>
    </g>
   </g>
   <g id="text_19">
    <!-- Wood -->
    <g transform="translate(1049.483333 122.512135) scale(0.08 -0.08)">
     <use xlink:href="#DejaVuSans-57"/>
     <use xlink:href="#DejaVuSans-6f" transform="translate(93.001953 0)"/>
     <use xlink:href="#DejaVuSans-6f" transform="translate(154.183594 0)"/>
     <use xlink:href="#DejaVuSans-64" transform="translate(215.365234 0)"/>
    </g>
   </g>
   <g id="text_20">
    <!-- Fire -->
    <g transform="translate(1049.483333 163.978802) scale(0.08 -0.08)">
     <use xlink:href="#DejaVuSans-46"/>
     <use xlink:href="#DejaVuSans-69" transform="translate(50.269531 0)"/>
     <use xlink:href="#DejaVuSans-72" transform="translate(78.052734 0)"/>
     <use xlink:href="#DejaVuSans-65" transform="translate(116.916016 0)"/>
    </g>
   </g>
   <g id="text_21">
    <!-- Earth -->
    <g transform="translate(1049.483333 205.445469) scale(0.08 -0.08)">
     <use xlink:href="#DejaVuSans-45"/>
     <use xlink:href="#DejaVuSans-61" transform="translate(63.183594 0)"/>
     <use xlink:href="#DejaVuSans-72" transform="translate(124.462891 0)"/>
     <use xlink:href="#DejaVuSans-74" transform="translate(165.576172 0)"/>
     <use xlink:href="#DejaVuSans-68" transform="translate(204.785156 0)"/>
    </g>
   </g>
   <g id="text_22">
    <!-- Metal -->
    <g transform="translate(1049.483333 246.912135) scale(0.08 -0.08)">
     <use xlink:href="#DejaVuSans-4d"/>
     <use xlink:href="#DejaVuSans-65" transform="translate(86.279297 0)"/>
     <use xlink:href="#DejaVuSans-74" transform="translate(147.802734 0)"/>
     <use xlink:href="#DejaVuSans-61" transform="translate(187.011719 0)"/>
     <use xlink:href="#DejaVuSans-6c" transform="translate(248.291016 0)"/>
    </g>
   </g>
   <g id="text_23">
    <!-- Water -->
    <g transform="translate(1049.483333 288.378802) scale(0.08 -0.08)">
     <use xlink:href="#DejaVuSans-57"/>
     <use xlink:href="#DejaVuSans-61" transform="translate(92.501953 0)"/>
     <use xlink:href="#DejaVuSans-74" transform="translate(153.78125 0)"/>
     <use xlink:href="#DejaVuSans-65" transform="translate(192.990234 0)"/>
     <use xlink:href="#DejaVuSans-72" transform="translate(254.513672 0)"/>
    </g>
   </g>
   <g id="text_24">
    <!-- Ke (overcoming) cycle -->
    <g transform="translate(776.403281 17.077969) scale(0.13 -0.13)">
     <defs>
      <path id="DejaVuSans-Bold-76" d="M 97 3500 
L 1216 3500 
L 2088 1081 
L 2956 3500 
L 4078 3500 
L 2700 0 
L 1472 0 
L 97 3500 
z
" transform="scale(0.015625)"/>
      <path id="DejaVuSans-Bold-6d" d="M 3781 2919 
Q 3994 3244 4286 3414 
Q 4578 3584 4928 3584 
Q 5531 3584 5847 3212 
Q 6163 2841 6163 2131 
L 6163 0 
L 5038 0 
L 5038 1825 
Q 5041 1866 5042 1909 
Q 5044 1953 5044 2034 
Q 5044 2406 4934 2573 
Q 4825 2741 4581 2741 
Q 4263 2741 4089 2478 
Q 3916 2216 3909 1719 
L 3909 0 
L 2784 0 
L 2784 1825 
Q 2784 2406 2684 2573 
Q 2584 2741 2328 2741 
Q 2006 2741 1831 2477 
Q 1656 2213 1656 1722 
L 1656 0 
L 531 0 
L 531 3500 
L 1656 3500 
L 1656 2988 
Q 1863 3284 2130 3434 
Q 2397 3584 2719 3584 
Q 3081 3584 3359 3409 
Q 3638 3234 3781 2919 
z
" transform="scale(0.015625)"/>
     </defs>
     <use xlink:href="#DejaVuSans-Bold-4b"/>
     <use xlink:href="#DejaVuSans-Bold-65" transform="translate(75.740234 0)"/>
     <use xlink:href="#DejaVuSans-Bold-20" transform="translate(143.5625 0)"/>
     <use xlink:href="#DejaVuSans-Bold-28" transform="translate(178.376953 0)"/>
     <use xlink:href="#DejaVuSans-Bold-6f" transform="translate(224.080078 0)"/>
     <use xlink:href="#DejaVuSans-Bold-76" transform="translate(292.78125 0)"/>
     <use xlink:href="#DejaVuSans-Bold-65" transform="translate(357.966797 0)"/>
     <use xlink:href="#DejaVuSans-Bold-72" transform="translate(425.789062 0)"/>
     <use xlink:href="#DejaVuSans-Bold-63" transform="translate(475.105469 0)"/>
     <use xlink:href="#DejaVuSans-Bold-6f" transform="translate(534.382812 0)"/>
     <use xlink:href="#DejaVuSans-Bold-6d" transform="translate(603.083984 0)"/>
     <use xlink:href="#DejaVuSans-Bold-69" transform="translate(707.283203 0)"/>
     <use xlink:href="#DejaVuSans-Bold-6e" transform="translate(741.560547 0)"/>
     <use xlink:href="#DejaVuSans-Bold-67" transform="translate(812.751953 0)"/>
     <use xlink:href="#DejaVuSans-Bold-29" transform="translate(884.333984 0)"/>
     <use xlink:href="#DejaVuSans-Bold-20" transform="translate(930.037109 0)"/>
     <use xlink:href="#DejaVuSans-Bold-63" transform="translate(964.851562 0)"/>
     <use xlink:href="#DejaVuSans-Bold-79" transform="translate(1024.128906 0)"/>
     <use xlink:href="#DejaVuSans-Bold-63" transform="translate(1089.314453 0)"/>
     <use xlink:href="#DejaVuSans-Bold-6c" transform="translate(1148.591797 0)"/>
     <use xlink:href="#DejaVuSans-Bold-65" transform="translate(1182.869141 0)"/>
    </g>
   </g>
   <g id="patch_45">
    <path d="M 640 414.717969 
C 646.048399 414.717969 651.849885 412.314914 656.126749 408.038051 
C 660.403612 403.761187 662.806667 397.959701 662.806667 391.911302 
C 662.806667 385.862903 660.403612 380.061417 656.126749 375.784553 
C 651.849885 371.50769 646.048399 369.104635 640 369.104635 
C 633.951601 369.104635 628.150115 371.50769 623.873251 375.784553 
C 619.596388 380.061417 617.193333 385.862903 617.193333 391.911302 
C 617.193333 397.959701 619.596388 403.761187 623.873251 408.038051 
C 628.150115 412.314914 633.951601 414.717969 640 414.717969 
z
" clip-path="url(#pc03c0043d9)" style="fill: #ab8a3c; opacity: 0.9; stroke: #333333; stroke-width: 1.5; stroke-linejoin: miter"/>
   </g>
   <g id="patch_46">
    <path d="M 847.333333 414.717969 
C 853.381732 414.717969 859.183218 412.314914 863.460082 408.038051 
C 867.736946 403.761187 870.14 397.959701 870.14 391.911302 
C 870.14 385.862903 867.736946 380.061417 863.460082 375.784553 
C 859.183218 371.50769 853.381732 369.104635 847.333333 369.104635 
C 841.284935 369.104635 835.483448 371.50769 831.206585 375.784553 
C 826.929721 380.061417 824.526667 385.862903 824.526667 391.911302 
C 824.526667 397.959701 826.929721 403.761187 831.206585 408.038051 
C 835.483448 412.314914 841.284935 414.717969 847.333333 414.717969 
z
" clip-path="url(#pc03c0043d9)" style="fill: #4caf50; opacity: 0.9; stroke: #333333; stroke-width: 1.5; stroke-linejoin: miter"/>
   </g>
   <g id="patch_47">
    <path d="M 640 207.384635 
C 646.048399 207.384635 651.849885 204.981581 656.126749 200.704717 
C 660.403612 196.427854 662.806667 190.626367 662.806667 184.577969 
C 662.806667 178.52957 660.403612 172.728084 656.126749 168.45122 
C 651.849885 164.174356 646.048399 161.771302 640 161.771302 
C 633.951601 161.771302 628.150115 164.174356 623.873251 168.45122 
C 619.596388 172.728084 617.193333 178.52957 617.193333 184.577969 
C 617.193333 190.626367 619.596388 196.427854 623.873251 200.704717 
C 628.150115 204.981581 633.951601 207.384635 640 207.384635 
z
" clip-path="url(#pc03c0043d9)" style="fill: #1e88e5; opacity: 0.9; stroke: #333333; stroke-width: 1.5; stroke-linejoin: miter"/>
   </g>
   <g id="patch_48">
    <path d="M 847.333333 207.384635 
C 853.381732 207.384635 859.183218 204.981581 863.460082 200.704717 
C 867.736946 196.427854 870.14 190.626367 870.14 184.577969 
C 870.14 178.52957 867.736946 172.728084 863.460082 168.45122 
C 859.183218 164.174356 853.381732 161.771302 847.333333 161.771302 
C 841.284935 161.771302 835.483448 164.174356 831.206585 168.45122 
C 826.929721 172.728084 824.526667 178.52957 824.526667 184.577969 
C 824.526667 190.626367 826.929721 196.427854 831.206585 200.704717 
C 835.483448 204.981581 841.284935 207.384635 847.333333 207.384635 
z
" clip-path="url(#pc03c0043d9)" style="fill: #78909c; opacity: 0.9; stroke: #333333; stroke-width: 1.5; stroke-linejoin: miter"/>
   </g>
   <g id="patch_49">
    <path d="M 722.933333 331.784635 
C 728.981732 331.784635 734.783218 329.381581 739.060082 325.104717 
C 743.336946 320.827854 745.74 315.026367 745.74 308.977969 
C 745.74 302.92957 743.336946 297.128084 739.060082 292.85122 
C 734.783218 288.574356 728.981732 286.171302 722.933333 286.171302 
C 716.884935 286.171302 711.083448 288.574356 706.806585 292.85122 
C 702.529721 297.128084 700.126667 302.92957 700.126667 308.977969 
C 700.126667 315.026367 702.529721 320.827854 706.806585 325.104717 
C 711.083448 329.381581 716.884935 331.784635 722.933333 331.784635 
z
" clip-path="url(#pc03c0043d9)" style="fill: #ab8a3c; opacity: 0.9; stroke: #333333; stroke-width: 1.5; stroke-linejoin: miter"/>
   </g>
   <g id="patch_50">
    <path d="M 930.266667 331.784635 
C 936.315065 331.784635 942.116552 329.381581 946.393415 325.104717 
C 950.670279 320.827854 953.073333 315.026367 953.073333 308.977969 
C 953.073333 302.92957 950.670279 297.128084 946.393415 292.85122 
C 942.116552 288.574356 936.315065 286.171302 930.266667 286.171302 
C 924.218268 286.171302 918.416782 288.574356 914.139918 292.85122 
C 909.863054 297.128084 907.46 302.92957 907.46 308.977969 
C 907.46 315.026367 909.863054 320.827854 914.139918 325.104717 
C 918.416782 329.381581 924.218268 331.784635 930.266667 331.784635 
z
" clip-path="url(#pc03c0043d9)" style="fill: #e53935; opacity: 0.9; stroke: #333333; stroke-width: 1.5; stroke-linejoin: miter"/>
   </g>
   <g id="patch_51">
    <path d="M 722.933333 124.451302 
C 728.981732 124.451302 734.783218 122.048248 739.060082 117.771384 
C 743.336946 113.49452 745.74 107.693034 745.74 101.644635 
C 745.74 95.596237 743.336946 89.79475 739.060082 85.517887 
C 734.783218 81.241023 728.981732 78.837969 722.933333 78.837969 
C 716.884935 78.837969 711.083448 81.241023 706.806585 85.517887 
C 702.529721 89.79475 700.126667 95.596237 700.126667 101.644635 
C 700.126667 107.693034 702.529721 113.49452 706.806585 117.771384 
C 711.083448 122.048248 716.884935 124.451302 722.933333 124.451302 
z
" clip-path="url(#pc03c0043d9)" style="fill: #4caf50; opacity: 0.9; stroke: #333333; stroke-width: 1.5; stroke-linejoin: miter"/>
   </g>
   <g id="patch_52">
    <path d="M 930.266667 124.451302 
C 936.315065 124.451302 942.116552 122.048248 946.393415 117.771384 
C 950.670279 113.49452 953.073333 107.693034 953.073333 101.644635 
C 953.073333 95.596237 950.670279 89.79475 946.393415 85.517887 
C 942.116552 81.241023 936.315065 78.837969 930.266667 78.837969 
C 924.218268 78.837969 918.416782 81.241023 914.139918 85.517887 
C 909.863054 89.79475 907.46 95.596237 907.46 101.644635 
C 907.46 107.693034 909.863054 113.49452 914.139918 117.771384 
C 918.416782 122.048248 924.218268 124.451302 930.266667 124.451302 
z
" clip-path="url(#pc03c0043d9)" style="fill: #78909c; opacity: 0.9; stroke: #333333; stroke-width: 1.5; stroke-linejoin: miter"/>
   </g>
   <g id="text_25">
    <!-- Kun -->
    <g transform="translate(632.366172 389.92363) scale(0.07 -0.07)">
     <use xlink:href="#DejaVuSans-Bold-4b"/>
     <use xlink:href="#DejaVuSans-Bold-75" transform="translate(75.740234 0)"/>
     <use xlink:href="#DejaVuSans-Bold-6e" transform="translate(146.931641 0)"/>
    </g>
    <!-- 000 -->
    <g transform="translate(632.694297 397.762099) scale(0.07 -0.07)">
     <use xlink:href="#DejaVuSans-Bold-30"/>
     <use xlink:href="#DejaVuSans-Bold-30" transform="translate(69.580078 0)"/>
     <use xlink:href="#DejaVuSans-Bold-30" transform="translate(139.160156 0)"/>
    </g>
   </g>
   <g id="text_26">
    <!-- Zhe -->
    <g transform="translate(839.92974 389.92363) scale(0.07 -0.07)">
     <use xlink:href="#DejaVuSans-Bold-5a"/>
     <use xlink:href="#DejaVuSans-Bold-68" transform="translate(72.509766 0)"/>
     <use xlink:href="#DejaVuSans-Bold-65" transform="translate(143.701172 0)"/>
    </g>
    <!-- 001 -->
    <g transform="translate(840.02763 397.762099) scale(0.07 -0.07)">
     <use xlink:href="#DejaVuSans-Bold-30"/>
     <use xlink:href="#DejaVuSans-Bold-30" transform="translate(69.580078 0)"/>
     <use xlink:href="#DejaVuSans-Bold-31" transform="translate(139.160156 0)"/>
    </g>
   </g>
   <g id="text_27">
    <!-- Kan -->
    <g style="fill: #ffffff" transform="translate(632.434531 182.590297) scale(0.07 -0.07)">
     <use xlink:href="#DejaVuSans-Bold-4b"/>
     <use xlink:href="#DejaVuSans-Bold-61" transform="translate(77.490234 0)"/>
     <use xlink:href="#DejaVuSans-Bold-6e" transform="translate(144.970703 0)"/>
    </g>
    <!-- 010 -->
    <g style="fill: #ffffff" transform="translate(632.694297 190.428766) scale(0.07 -0.07)">
     <use xlink:href="#DejaVuSans-Bold-30"/>
     <use xlink:href="#DejaVuSans-Bold-31" transform="translate(69.580078 0)"/>
     <use xlink:href="#DejaVuSans-Bold-30" transform="translate(139.160156 0)"/>
    </g>
   </g>
   <g id="text_28">
    <!-- Dui -->
    <g transform="translate(840.73638 182.590297) scale(0.07 -0.07)">
     <use xlink:href="#DejaVuSans-Bold-44"/>
     <use xlink:href="#DejaVuSans-Bold-75" transform="translate(83.007812 0)"/>
     <use xlink:href="#DejaVuSans-Bold-69" transform="translate(154.199219 0)"/>
    </g>
    <!-- 011 -->
    <g transform="translate(840.02763 190.428766) scale(0.07 -0.07)">
     <use xlink:href="#DejaVuSans-Bold-30"/>
     <use xlink:href="#DejaVuSans-Bold-31" transform="translate(69.580078 0)"/>
     <use xlink:href="#DejaVuSans-Bold-31" transform="translate(139.160156 0)"/>
    </g>
   </g>
   <g id="text_29">
    <!-- Gen -->
    <g transform="translate(715.195052 306.990297) scale(0.07 -0.07)">
     <use xlink:href="#DejaVuSans-Bold-47"/>
     <use xlink:href="#DejaVuSans-Bold-65" transform="translate(82.080078 0)"/>
     <use xlink:href="#DejaVuSans-Bold-6e" transform="translate(149.902344 0)"/>
    </g>
    <!-- 100 -->
    <g transform="translate(715.62763 314.828766) scale(0.07 -0.07)">
     <use xlink:href="#DejaVuSans-Bold-31"/>
     <use xlink:href="#DejaVuSans-Bold-30" transform="translate(69.580078 0)"/>
     <use xlink:href="#DejaVuSans-Bold-30" transform="translate(139.160156 0)"/>
    </g>
   </g>
   <g id="text_30">
    <!-- Li -->
    <g style="fill: #ffffff" transform="translate(926.836667 306.990297) scale(0.07 -0.07)">
     <use xlink:href="#DejaVuSans-Bold-4c"/>
     <use xlink:href="#DejaVuSans-Bold-69" transform="translate(63.720703 0)"/>
    </g>
    <!-- 101 -->
    <g style="fill: #ffffff" transform="translate(922.960964 314.828766) scale(0.07 -0.07)">
     <use xlink:href="#DejaVuSans-Bold-31"/>
     <use xlink:href="#DejaVuSans-Bold-30" transform="translate(69.580078 0)"/>
     <use xlink:href="#DejaVuSans-Bold-31" transform="translate(139.160156 0)"/>
    </g>
   </g>
   <g id="text_31">
    <!-- Xun -->
    <g transform="translate(715.251927 99.656964) scale(0.07 -0.07)">
     <use xlink:href="#DejaVuSans-Bold-58"/>
     <use xlink:href="#DejaVuSans-Bold-75" transform="translate(77.099609 0)"/>
     <use xlink:href="#DejaVuSans-Bold-6e" transform="translate(148.291016 0)"/>
    </g>
    <!-- 110 -->
    <g transform="translate(715.62763 107.495432) scale(0.07 -0.07)">
     <use xlink:href="#DejaVuSans-Bold-31"/>
     <use xlink:href="#DejaVuSans-Bold-31" transform="translate(69.580078 0)"/>
     <use xlink:href="#DejaVuSans-Bold-30" transform="translate(139.160156 0)"/>
    </g>
   </g>
   <g id="text_32">
    <!-- Qia -->
    <g transform="translate(923.729323 99.656964) scale(0.07 -0.07)">
     <use xlink:href="#DejaVuSans-Bold-51"/>
     <use xlink:href="#DejaVuSans-Bold-69" transform="translate(85.009766 0)"/>
     <use xlink:href="#DejaVuSans-Bold-61" transform="translate(119.287109 0)"/>
    </g>
    <!-- 111 -->
    <g transform="translate(922.960964 107.495432) scale(0.07 -0.07)">
     <use xlink:href="#DejaVuSans-Bold-31"/>
     <use xlink:href="#DejaVuSans-Bold-31" transform="translate(69.580078 0)"/>
     <use xlink:href="#DejaVuSans-Bold-31" transform="translate(139.160156 0)"/>
    </g>
   </g>
  </g>
 </g>
 <defs>
  <clipPath id="paedfb60aed">
   <rect x="7.2" y="29.077969" width="559.8" height="435.4"/>
  </clipPath>
  <clipPath id="pc03c0043d9">
   <rect x="577.8" y="29.077969" width="559.8" height="435.4"/>
  </clipPath>
 </defs>
</svg>
